<?xml version="1.0" encoding="UTF-8"?>
<svg xmlns="http://www.w3.org/2000/svg" xmlns:xlink="http://www.w3.org/1999/xlink" version="1.1" viewBox="0 0 540 990">
  <defs>
    <style>
      .cls-1 {
        fill: none;
      }

      .cls-2 {
        mask: url(#mask);
      }

      .cls-3 {
        filter: url(#drop-shadow-6);
      }

      .cls-3, .cls-4, .cls-5 {
        fill: #86b941;
      }

      .cls-6 {
        filter: url(#drop-shadow-3);
      }

      .cls-7 {
        filter: url(#drop-shadow-2);
      }

      .cls-8 {
        filter: url(#drop-shadow-7);
      }

      .cls-9 {
        filter: url(#drop-shadow-5);
      }

      .cls-10 {
        filter: url(#drop-shadow-4);
      }

      .cls-11 {
        fill-opacity: .3;
      }

      .cls-11, .cls-12, .cls-5, .cls-13, .cls-14 {
        fill-rule: evenodd;
      }

      .cls-11, .cls-15 {
        fill: #fff;
      }

      .cls-16 {
        fill: url(#linear-gradient-5);
      }

      .cls-17 {
        fill: url(#linear-gradient-6);
      }

      .cls-18 {
        fill: url(#linear-gradient-4);
      }

      .cls-19 {
        fill: url(#linear-gradient-3);
      }

      .cls-20 {
        fill: url(#linear-gradient-2);
      }

      .cls-21 {
        fill: #3f74c7;
      }

      .cls-22 {
        fill: url(#linear-gradient);
      }

      .cls-23, .cls-13, .cls-14 {
        fill: #76a831;
      }

      .cls-24 {
        mask: url(#mask-2);
      }

      .cls-25 {
        mask: url(#mask-3);
      }

      .cls-26 {
        mask: url(#mask-4);
      }

      .cls-27 {
        mask: url(#mask-5);
      }

      .cls-28 {
        mask: url(#mask-7);
      }

      .cls-29 {
        mask: url(#mask-6);
      }

      .cls-30 {
        mask: url(#mask-1);
      }

      .cls-31 {
        fill: #3860ad;
      }

      .cls-32 {
        clip-path: url(#clippath-1);
      }

      .cls-33 {
        clip-path: url(#clippath-3);
      }

      .cls-34 {
        clip-path: url(#clippath-4);
      }

      .cls-35 {
        clip-path: url(#clippath-2);
      }

      .cls-36 {
        clip-path: url(#clippath-7);
      }

      .cls-37 {
        clip-path: url(#clippath-6);
      }

      .cls-38 {
        clip-path: url(#clippath-5);
      }

      .cls-14 {
        filter: url(#drop-shadow-1);
      }

      .cls-39 {
        fill: #669525;
      }

      .cls-40 {
        clip-path: url(#clippath);
      }
    </style>
    <filter id="drop-shadow-1" x="-67" y="84" width="471" height="492" filterUnits="userSpaceOnUse">
      <feOffset dx="0" dy="0"/>
      <feGaussianBlur result="blur" stdDeviation="40"/>
      <feComposite in2="blur" operator="in"/>
      <feComposite in="SourceGraphic"/>
    </filter>
  </defs>
    <g>
      <path class="cls-39" d="M53.3,209.1l6.2-.4,7.6-2.9c5.1-5,6.1,2.9,6.1,2.9,4.1-1,3.6,3.6,3.6,3.6-2.5,6.6,3.1,8.2,3.1,8.2h7.1l5.6,3.6v13.8c9.7,2,11.7-4.1,11.7-4.1l-2.5-5.6,3.1-2.5v-5.6l-4.6-6.6c-3.1-5.6,4.6-7.5,4.6-7.5h6.6l4.6,6.5-1,5.6c-6.1,3.6-2.5,7.1-2.5,7.1,1.5,2.5,9.7.5,9.7.5,6.6-2.5,10.7,5.1,10.7,5.1h8.2l5.6,7.1,5.3,5.6c7.3.5,4.9-4.1,4.9-4.1v-6.6l-3.6-4.1c-4.1-8.2,3.1-10.7,3.1-10.7l-1.5-5.1c-3.6-4.6,0-5.2,0-5.2,2-4.1,11.2,0,11.2,0,2.5,4.5,6.6,1.6,6.6,1.6,4.1-3.6,7.1,0,7.1,0l2.3,3.3c6.4,3.3,0,6.9,0,6.9v6.6h2.3l1.5,3.1-1.5,4.6c-5.1,5.1,0,9.7,0,9.7,3.6,4.6,11.2,0,11.2,0,2.5-2.5,3.6-9.7,3.6-9.7l4.1-4.1h6.6c6.1,0,7.6-2,7.6-2l6.6-7.6c2-5.6,9.6-4.1,9.6-4.1l2.6-3.3h7.5c.8-1.2,1.9-2.8,3.3-4.9,3.5-5.2,4.1-6.1,4.1-6.1,1.5-3,1-7.7.9-9.6-.2-1.8-.9-7-3.5-11.3-2.6-4.4-2.6-7.9-1.3-9.9,1.3-2,2.7-.6,4.8-3.6,2.2-3,2.6-7,4.1-11.8,1.5-4.8,2.2-12.1,2-15.9-.1-3.8.2-9.1,1-10.6.8-1.5,1.7-5.1.7-7.3-1-2.2-.3-4.4.4-7.2.7-2.8.1-6.9-3-9.2-3.1-2.3-6.2-5.3-14.5-4.3-8.3.9-10.1,4.8-12.4,7.4-2.2,2.6-10.1,3.4-14.1-.7-3.9-4.1-2.4-7.3-1.1-11.3,1.3-4,5.1-8,7.1-9.8,1.9-1.8,3.2-4.3,2.2-8.8-1-4.5-4.3-6.3-5.1-6.6-.8-.3-1.3-.5-2.5-1.3-1.2-.8-4-4.3-5.8-6.5-1.8-2.2-4.1-2-5.4-2.1-1.3-.1-1.7-.8-6.3,0-4.6.9-7.1,1.7-9.5.8-2.4-.9-4.5-4-6.1-6.1-1.5-2.1-2-3.1-4.4-3.9-2.4-.8-3.9.7-4.3,1.2-.4.5-1,1.4-2.1,1.2-1.1-.2-3.3,1.1-5.8,2.7-2.5,1.6-3.9,2.3-5.5,2.7-1.5.5-2.2-1-3.7-3.2-1.5-2.2-2.9-2.5-3.6-2.7-.7-.1-1.2-.2-2.8-.7-1.6-.5-1.9,1-2.3,1.8-.4.8-1.1,1.3-1.5,2.3-.4.9.6,3,1,3.4.3.5,1.6,1.2,2.6,2.5,1,1.2,1.6,5.8-.7,6.4-2.3.6-4.1-2.4-5.7,3.3-1.6,5.7-3.7,3-6.6.2-2.9-2.8-6.2-3.4-10.5-1.8-4.3,1.6-6,8.1-7.3,10.6-1.3,2.6-1.7.4-3.1,4.4-1.4,4-3.4,4.2-4.8,4.6-1.4.4-3.2.5-6.3,2.6-3.1,2.1-12.6,2.6-12.6,2.6-.2,0-.4,0-.6,0-5.4.4-10.9-2.6-10.9-2.6h0c0,0,0,0,0,0h0c0,0-3.2-1.7-5.2-3-2-1.3-3.6-.6-5.2,0-1.6.6-4.5,1.6-5.8,2-1.2.4-3.5,2.8-4.9,5.7-1.4,2.9-1.9,5.1-2,6.2,0,1,0,3.1-1.2,5.2-1.1,2-4.4,6.7-4.7,10.3-.4,3.6-.3,5.5,0,7.4.3,1.8.2,4.2-.6,5.8-.8,1.6-1.8,2.8-1.6,6.9,0,0-.7,5.9-.7,6.8,0,.9-.1,2.1,1,3.3,1.1,1.2,1.3,3.2-.3,4-1.7.8-3.4,1.2-4.2,4.9-.8,3.7-1.9,6.1-4.1,4-2.2-2-8.8-6.4-11.5-1.7-2.7,4.7-4.8,6.5-.6,12.9,4.3,6.4,9.6,10.8,13.3,10.2,3.7-.6,6.5-2.5,6.9,0,.4,2.5-.5,2.9-.8,3.7-.3.8-1.7,4.5-.9,6.5s2.3,4.8,2.4,8.1"/>
      <path class="cls-4" d="M458,289.2c-2-4.3-2.2-9.9-.6-13.1,1.6-3.1,3.4-12.3,3.7-19.7.3-7.5,1.8-11.4-3.1-19.9-5-8.5-17.7-14-19.9-14.6-2.2-.6-6.1-4.7-6.8-7.4-.7-2.7-4.2-6.7-8.2-9.9-4-3.1-4-7-4.6-9.7-.6-2.7-4.8-8.6-10.5-12.6-5.7-4.1-15-6.3-18.2-7.3-3.2-.9-8.5-3.1-13-5-4.5-1.9-6.3,2.1-7.3,5-1,2.9-10.7,10.8-12.5,13.5-1.9,2.7-6.7,10-9.9,13.2-3.2,3.1-6.2.2-8.7-1.2-2.5-1.3-2.9.4-3.4,2s0,7.1-.6,8.2c-.7,1-4.3-3.2-5.5-5.6-1.2-2.3-4.4-4.6-10.5-9.1-6.1-4.5-9.8-4.9-16.2-5.3-6.4-.4-13.9,6-20.5,8.6-6.6,2.6-11.6,8.2-12.9,10.8-1.3,2.5-5.5,5.2-10,5.6-4.5.3-6.7,2.1-8.7,5.8-1.9,3.5-5.7,4.6-6.2,4.7h0l-4.1-6.6c-9.8,3.4-4.2,10.2-4.2,10.2l8.5,3.6,4.7,4.6v6.6l-3,5.1c-5.1,9.7,3,8.7,3,8.7,5.5-.5,2.6-8.2,2.6-8.2l5.1-2c4.1-2.5,11,2.5,11,2.5,3.4.5,7.8,0,7.8,0,7.1.5,4.6,11.2,4.6,11.2h4.1v10.1l3.6,2.2,5.6-1s4.6,3.1,6.1,7.1c0,0,1.5,5.1,6.6,4.6h13.3l4.6,4.1s5.1,6.1,0,13.3c0,0-7.6,4.6-5.1,8.2l3.1,4.6v10.7l4.3,4.1s5.9-5.6,10.5-1c0,0,3.1,5.6,10.2,2.5l3.6-3.6s0-5.1,4.6-1.5l3.6,7.1v4.1l7.1,1.5s3.1-.5,5.6,2.8c0,0,9.7,5.9,9.7-4.3,0,0-2-4.6-7.1-6.6,0,0-3.6-4.1,3.1-5.1l4.1-.5,3.1-2.5v-8.7l-4.1-3.1s-1.5-9.2,4.1-10.2l3.6-4.1s5.6,1,7.6,1c0,0,3.1,0,3.6-4.6,0,0-1-7.1,6.6-7.6h8.2l6.1-1v-2.5l8.7,1.5,3.6,5.1s2,1,5.6,1h7.1s2,0,3.6,3.6l5.1,5.1,9.7-.9c-2-3.4-3-4.2-4.7-7.7h0Z"/>
      <path class="cls-4" d="M499.3,366.3c-2.4-5.5-1.4-8.8.5-10.6,1.9-1.8,3.6-7.1,4.6-12.8,1.1-5.7-4.2-10.3-7-12.5-2.9-2.3,0-5.3,1-7.1s2.7-2.8-3.4-9.2c-6.1-6.4-13.7-7-19.5-7.3-5.8-.3-8.2-1.2-11.3-7.1-.5-1-1-1.9-1.5-2.7l-9.7.9-5.1-5.1c-1.5-3.6-3.6-3.6-3.6-3.6h-7.1c-3.6,0-5.6-1-5.6-1l-3.6-5.1-8.7-1.5v2.5l-6.1,1h-8.2c-7.6.5-6.6,7.6-6.6,7.6-.5,4.6-3.6,4.6-3.6,4.6-2,0-7.6-1-7.6-1l-3.6,4.1c-5.6,1-4.1,10.2-4.1,10.2l4.1,3.1v8.7l-3.1,2.5-4.1.5c-6.6,1-3.1,5.1-3.1,5.1,5.1,2,7.1,6.6,7.1,6.6,0,10.2-9.7,4.3-9.7,4.3-2.5-3.3-5.6-2.8-5.6-2.8l-7.1-1.5v-4.1l-3.6-7.1c-4.6-3.6-4.6,1.5-4.6,1.5l-3.6,3.6c-7.1,3.1-10.2-2.5-10.2-2.5-4.6-4.6-10.5,1-10.5,1l-4.3-4.1v-10.7l-3.1-4.6c-2.5-3.6,5.1-8.2,5.1-8.2,5.1-7.1,0-13.3,0-13.3l-4.6-4.1h-13.3c-5.1.5-6.6-4.6-6.6-4.6-1.5-4.1-6.1-7.1-6.1-7.1l-5.6,1-5.1-3.1h-6.1c-8.2-.5-8.8,12.3-8.8,12.3-.7,4.6-5.4,10.7-5.4,10.7-3.6,2.5-4,13.3-4,13.3l7,3.1,2.4,5.6-2.9,7.1v8.7l-.7,3.6h3.6v14.3l-2.9,2.5-.5,6.1,3.4,5.1c1.9-.5,2.7,6.1,2.7,6.1v8.7l-6.6,3.6-4.6,3.1c-7.6-1-5.1,9.2-5.1,9.2l5.1,3.6v2c1.4-.3,3.2-.3,4.9.9,0,0,1.1,5,3.6,3.8,0,0,5.2-3.8,11.3-1.1l4.6,4.2h8.4s4.6,1.9,5.4,4.6c0,0,1.5,7.6,5.4,8.4l4.6,1.9h37.8l3.8-3.1,5.7,1.1.8,1.8c2.5-.3,5.7-.5,9.1-1,5.2-.7,24.5-4.3,29.7-4.5,5.2-.2,12.3-2.7,15.1-3.8,2.8-1.2,7.9-.1,7.9-.1,6.4.5,6.2,1.3,11.9,2.8,5.6,1.4,6,1.2,10,.4,3.9-.8,9.5-5.1,10.9-6.4,1.4-1.3,3.7-1.9,5.1-2.2,1.4-.3,4.3,2.4,5.7,4.2,1.3,1.8,4.3,4,7.3,6,3,2,5.8-.3,7.3-1,1.5-.7,2.1-.3,3.2.7,1.1,1,2,2.1,4.6,3.4,2.6,1.3,7.7.3,9.9,0,2.2-.3,2.9-5.4,3.2-7.2.3-1.9,1.2-3.5,1.8-5,.6-1.4-1.6-7.8-2.8-10.8-1.1-3,6.3-10.1,8.4-11,2.2-.9,2.5-2.7,2.5-2.7.9-1.6-4.2-11.8-6.6-17.3h0Z"/>
      <path class="cls-39" d="M354.3,420l-5.7-1.1-3.8,3.1h-37.8l-4.6-1.9c-3.8-.8-5.4-8.4-5.4-8.4-.8-2.7-5.4-4.6-5.4-4.6h-8.4l-4.6-4.2c-6.1-2.7-11.3,1.1-11.3,1.1-2.5,1.1-3.6-3.8-3.6-3.8-3.4-2.3-7.3,0-7.3,0v4.6l-1.9,4.6h-6c-4.4,0-5.1,6.1-5.1,6.1l-3.4,8.8v16.8c-.4,3.4-5.4,5.4-5.4,5.4h-7.6l-9.2,2.3c-5.7-1.5-5.7,0-5.7,0v5.7l-.8.7c0,2-.3,4-.6,5.4,5.6,1.2,8.3,1.9,9.9,2.6,0,0,2.5.5,3.7.5.3,0,.5,0,.6-.1.3.2.4.2.6.3,0,0,.1,0,.2.1h0c2.3,1,3.1,4,3,6.3,0,2.3-.9,3.9-2,5.2-1.1,1.4-3.6,4.8-4.1,8.6-.5,3.8,2.6,8,4.3,11.3,1.7,3.3,0,5.8-.7,6.6-.6.8-1.2,1.9-2,4.1-.9,2.2-1.3,8.8,7.1,13.1,8.4,4.3,19.6,1.7,29.8.3,10.1-1.4,34,.7,34,.7.8,2.1,2.9,6.8,2.9,6.8,1.6,4.6,8.5,11.9,14.8,17.4,6.3,5.5,11.7,9.6,15.5,9.5,3.8,0,4.3-3.3,4.6-5.1.3-1.8,2.7,0,4,1,1.3.9,4.7,3.4,7.5,2.9,2.9-.4,2.2-4.9,1.2-9-1.1-4.1-.5-5.2.9-10.3,1.4-5-3.6-10.8-5.6-13.7-2-2.9-11-13.9-14.8-20.7-3.8-6.8-4-11.3-3.6-17.4.4-6.2,1.2-9.8,1.9-12.1.7-2.2,2.9-4.7,4.3-5.4,1.4-.7,4.8-7.4,6.4-10.4,1.6-2.9,3.4-5.1,4.4-5.5,1.1-.5,1.8-1.7,3-3.8,1.2-2.1,2.3-7.9,2.8-10.6.5-2.7.2-4.7,1-7.5.4-1.6,2-2.7,3.2-3.3l1.5-.6,2.1-.5c.6-.1,1.4-.2,2.2-.3l-.8-1.8h0Z"/>
      <path class="cls-23" d="M73.6,775.9s-6.2-4.4-6.8,0c-.6,4.4-5.3,10.9-1.2,15.6,4.1,4.7,8.2,10.9,12.4,7.4,4.1-3.5,2.7-9.7,4.4-11.9,1.8-2.2,3.2-4.8,1.5-7.2-1.8-2.4-5.9-5-10.3-3.8h0Z"/>
      <path class="cls-23" d="M147.5,803.9s.4-4.6,0-7.6c0,0-.4-12.6,4.6-11.1l4.2,1.8h6.1l3.4-3.7s-.7-5,3.1-1.9l5.9,5.6h9l2.9,1.6h8.3c.5-2,2.6-4.1,1.8-5.4-1.1-1.7.8-2.5,2-3.8,1.2-1.3.6-3.1,0-3.9-.6-.8-2-2-2.3-2.6-.2-.6.3-2.5.7-4.8.4-2.3-1-3.4-1.4-3.8-.5-.4-5.7-5.8-5.7-5.8.4-3.3-.9-6-1.9-7.2-1-1.2-3.9-2-4.7-3.3-.8-1.4.7-3.7,1.9-5.4,1.2-1.7.7-7.5.3-10.4-.3-2.9-.6-6.5-.6-6.5.4-4.9-2.8-9.2-5-10.7-2.2-1.5-5.1-4.3-8.4-5.9-3.3-1.6-12.2-4.9-12.2-7.8s-.6-4.7-2.3-7.1c-1.6-2.4-2.9-1.5-3.3-1.4-.4.2-1.9,1.3-3,1.4-1.1,0-2.3.9-4.6,2.6-2.4,1.7-3.7,1.1-4.6.6-.9-.6-.8-3.4-.4-5.2s-.5-3.6-1-4.7c-.5-1.1-2.8-4.1-3.3-4.6-.5-.5-1.7-5.1-1.7-5.1-1.7-7.7-4-11.7-4.9-14.4-.9-2.7.5-4.9.9-6.3.4-1.4,2.1-5.7,2.2-7.9,0-2.3.6-4,1.8-6,1.2-2,3.5-4.7,4.7-6.6,1.2-1.9,1.7-3.1,2-4.3.3-1.2,0-4.6-.2-6.6-.2-2,1-3,2-3.9,1-.9,1.8-2.4,1.8-2.4,3.6-5.8,5.7-12.1,6.7-15.9-2.5-2.3-5.7-2-5.7-2l-7.6,2.5h-7.4c0,.2-.1.5-.4.8-1,1.1-5,1.2-8.7,5-2,2-9.4,11-14.5,17.7-5.1,6.7-6,15.1-6,18.9s-7.9,8.8-9.4,13.6c-1.5,4.8-1.1,7.9-3.3,15.4-2.2,7.5-2.3,15.7-4.1,20.5-1.8,4.8-1.8,6.4-4.6,11.6-2.8,5.2-7.1,9.7-9,12.6-1.9,2.9.9,9.2.3,12.5-.6,3.3-3.4,6.2-5.4,6.5-1.9.3-3.4.5-4.9,2.3-1.5,1.8,1.6,5.3,3.9,8.2,2.3,2.9,3.3,3.9,3.4,5.5.1,1.7,6.2,5.9,6.2,9.3s1.8,4.7,4.3,8.8c2.5,4.1,4.6,4.5,7.6,2.5,3.1-1.9,4.3-4.6,4.6-6.5.3-1.9,1-2,2-1.5,1,.5,3.3,4.7,5.4,6.3,2.1,1.6,7.3,8.3,10.1,12.5,2.8,4.1,5.7,10.3,8.4,11.8,2.7,1.5,7.9,3.5,8.7,5.6.4,1,1.2,2.3,2.3,3.5l10.8-3.4s6.5,1.5,8,0h0Z"/>
      <path class="cls-23" d="M317.1,886.9c.3-5-4-8.3-5.7-10.5-1.7-2.2-6.5-4.6-9.4-5.6-3-1-3.5-5.2-4-7.5-.5-2.3-10.7-6.7-12-10.4-1.3-3.7-6.5-7.8-9-9.2-2.5-1.4-3.9-2.4-4.5-2.7-.6-.3-4.1,0-5.6-.6-1.5-.5-2.3-1.2-4.5-1.5-2.2-.3-4.8-.4-6.6-.8-1.9-.3-4.2,1.4-5.3,2-1.1.6-1.8,1.2-2.9,2.2-1.1,1-2.5,2.9-2.6,2.7,0-.2-2-4.5-3.9-7.4s-5-5.4-5.9-6c-.9-.6-5.9-.9-9.7-1.6s-9.5-1.7-10.5-1.8c-1,0-.6-1.9-1.3-3.7,0,0-.3-.7-1.4-3.8-1.1-3.1-6.3-9.6-6.9-16.1-.6-6.5-8.7-11.6-10.2-14-.4-.6-.4-1.3-.2-2h-8.3l-2.9-1.6h-9l-5.9-5.6c-3.8-3.1-3.1,1.9-3.1,1.9l-3.4,3.7h-6.1l-4.2-1.8c-5-1.5-4.6,11.1-4.6,11.1.4,3.1,0,7.6,0,7.6-1.5,1.5-8,0-8,0l-10.8,3.4c1.1,1.4,2.4,2.8,3.3,4,1.9,2.3,1.2,3.4.5,5-.7,1.5,1.6,5.4,1.6,5.4,4.4,8.7,11.4,9.3,14.2,9.9,2.8.6,6.7,6.4,8,12.1,1.3,5.7,5.4,11.6,9.7,13.7,4.3,2,6.9,13.7,7.9,16.2,1,2.5.7,8.2,4.1,10.5,3.4,2.3,3.9,6,5.2,9.9s5.4,3.1,8.8,1.6c3.5-1.5,2.3-5.2,1.1-8.5-1.2-3.3-1.7-4.5-1.9-6.6-.2-2.1,1.9-2.8,3.4-3.4,1.5-.5,2.2,1.1,2.7,2.5.5,1.4,1.6,2.4,3.2,3.3,1.6.9,1.3,3.3,1.7,4.9.4,1.6,1.3,1.4,2.6,1.2s3.2,1.5,4.5,2,2.8,0,4.7.3c2,.3,5.2-1.4,5.5-2.8.3-1.4,0-4.4,2.4-2.9,2.3,1.5,4,6.3,3.1,9.3-.9,3.1.8,3.6,2.6,5,1.9,1.4,3.1,2.1,4.6,3.4,1.5,1.3,1.8-1.4,3.7-1.8,2-.4,2.2,1.4,2,3.1,0,0,0-1.1.6,2.1.5,3.2-.5,5.4-1.4,6.5-.9,1.1-.5,3.8,0,5.3.5,1.5.4,3.7,2.4,5.1,2,1.4,7.1,3,8.4,3.1,1.3.1,5.9-1.3,7.7-1.7,1.9-.4,4.8-3.6,6.6-5.1,1.8-1.5,10.7.5,12.2.7,1.5.2,1.3,0,1.2-.8,0-.9.1-1.1,1.1-1.5.9-.4,4.7.4,6.8.7,2,.3,3.4-1.1,7-2.6,3.6-1.4,7.6-5.4,8.4-6.6.8-1.2,11.4-2.3,13.2-3.8,1.8-1.4,4.5-14,4.9-19h0Z"/>
      <path class="cls-4" d="M152.3,603.2c-2.5-2.3-5.7-2-5.7-2l-7.6,2.5h-7.4c0-.6-.1-1.3,2.3-3.9,1.5-1.6,3.8-4.3,4.1-4.5.2-.2.9-.9,1.1-1.2,0,0,0-.1.1-.1l.7-.7h.1-.1c.9-.9,1.7-3,2.2-4.9.5-1.9,1.4-6.5,1.7-7.9.3-1.4,1.6-5.8,2.4-8.9.9-3.1,2.2-4.3,3.4-5.2,1.2-.9,5.5-4.1,6.5-4.6.9-.5,1.5,0,2.1-.9.6-.8.5-2.2.1-3.3-.4-1.1-2.5-4.5-3.4-6.3-.9-1.8-1.1-3.4-1.5-5.5-.5-2.1-2.7-6.1-4.3-9.4-1.6-3.3-4.5-9.5-7.8-14.2-3.3-4.7-4.1-6.5-5-8.4-.8-1.9,0-5-2.3-9.8-2.3-4.8-1.6-3-5.5-8.1-3.8-5.1-1.8-9.6-.7-12.3,1.1-2.8,4.6-8.3,5.1-9.6.5-1.4.9-1.8-1-6-2-4.3-4.1-13.3-4.7-17.1-.6-3.8-.8-11.8-1-14.7-.2-2.8-3.5-6.7-6.2-9.9-2.7-3.2-7.9-5.1-13.1-8.7-5.3-3.6-7.2-3.9-9.6-6.4-2.5-2.5-3.6-3.9-6.9-7.9-3.3-4.1-3.9-6.3-5.5-11.9-1.6-5.5-2.3-3.8-4.9-9.3-2.6-5.5-2-13.1-1.8-14.8.1-1.7,1.5-3.8,3.5-6.8,2-3.1,4.6-4.1,5.9-4.4,1.2-.3,3.7-2.2,5.5-3.1,1.7-.9,3.3-.3,3.3-.3,0,0-.4-4.6-.6-6.9-.1-2.2-.3-7.5,0-8.7.2-1.1.9-3.2,2.2-5.6l.5-1.2s0,0,0,0c.3-.6.6-1,.9-1.4l6.7,5.3c12.7,1.5,27,34.1,27,34.1l11.2,1.6c4.6-3.6,8.7,0,8.7,0l5.6,2.3,5.6,1.8c8.7-5.1,13.3,2.5,13.3,2.5l8.8-2.5,6.5,2.5c6.6-1.5,4.6,7.1,4.6,7.1v16.3c3.6-1,6.1,4.6,6.1,4.6l2.5,8.2-5.5,4.1v16.3l4.1,6.6v7.1l5.6,3.1c2,3.3,1.4,7.9.7,10.7-.2,0-.3,0-.5-.1-1.1-.2-2.2-.3-3.3-.3-3.2,0-6,1-8.2,1.9l-.8.4-8.1,4.5c-.8.5-1.4.9-1.5,1h0c0-.1-1,.7-1,.7l-.7.4c-1.1.7-1.2.1-1.5,2-.3,1.8,1.3,5.3,2.4,8,1,2.8.5,5.1,0,7-.4,2,.9,3.7,2.5,6.7,1.6,3,1.1,3.6.5,7.3-.6,3.6-1.5,4.6-3,6.7-1.5,2-2.8,1.6-3.8,1.7-1,.1-.8,2.6-.8,4.2,0,1.6,0,6.8,0,6.8-.6,5.4.3,11,.1,15.2-.2,4.2-2.1,11.7-4.3,20-2.2,8.3-3.2,9.7-4.9,12.1-1.7,2.3-7.6,8.3-11.6,12.8-3.6,4-6.6,13.9-7.2,15.9,0,.2-.1.4-.1.4h0l-.5,1.1h0l-1.2,2.7-.8,3.7h0Z"/>
      <path class="cls-14" d="M256.8,349.9h0c5.6-2,1.5-12.2,1.5-12.2l3.4-2.5h0l-3.4,2.5s4.1,10.2-1.5,12.2ZM264.4,331.5l-.7,3.6h3.6v14.3l-2.9,2.5-.5,6.1,3.4,5.1c1.9-.5,2.7,6.1,2.7,6.1v8.7l-6.6,3.6-4.6,3.1c-7.6-1-5.1,9.2-5.1,9.2l5.1,3.6v2c-1.4.3-2.4.9-2.4.9v4.6l-1.9,4.6h-6c-4.4,0-5.1,6.1-5.1,6.1l-3.4,8.8v8.3h-13.8s13.8,0,13.8,0v8.5c-.4,3.4-5.4,5.4-5.4,5.4h-7.6l-9.2,2.3c-5.7-1.5-5.7,0-5.7,0v5.7l-.8.7c0-1.8-.4-3.7-1.4-5.3l-5.6-3.1v-7.1l-.2-.3h0s-3.9-6.3-3.9-6.3v-16.3l5.5-4.1-2.5-8.2s-2.5-5.6-6.1-4.6v-16.3s2-8.7-4.6-7.1l-6.5-2.5-8.8,2.5s-1.3-2.1-3.7-3.4c5.1-8.6,1.2-11.4,1.2-11.4l-6.2-3.6v-5.1h0s0,5.1,0,5.1l6.2,3.6s3.9,2.8-1.2,11.4c-2.2-1.2-5.4-1.6-9.6.8l-5.6-1.8-5.6-2.3s-4.1-3.6-8.7,0l-11.2-1.6s-14.3-32.6-27-34.1l-6.7-5.3c1-1.4,1.6-1.8,2.4-2.2,0,0,.1,0,.2-.1,1.1-.6,1.1-2.6,1.1-4,0-1.4-.3-4-.3-4.8h0c0-.9-.2-2.3,2.1-6.8,2.3-4.5,4.4-6.9,7.7-10.1,3.4-3.2,5.4-4.4,5.8-4.5,0,0,.2,0,.2,0,.3,0,.6,0,.8-.8.2-1-.2-3.3-1.1-4-.7-.5-1.2-.4-2.3-.1h0c-.4.1-.9.2-1.5.4-2.3.5-6-.3-9.8-1.2-3.7-.8-5.7-3.4-7.8-8.1-2.1-4.6-.7-8.9-.3-10.1.4-1.2.9-2.9.5-3.5,0,0,0-.1-.1-.2-.4-.5-.8-1.1-2.4-1.9-1.9-.9-3.6-2.9-5.3-6.4-1.5-3.1-.1-4.5.8-5.4.1-.1.2-.2.3-.3.8-.9,1.2-2.8.9-3.6-.3-.6-1.9-1.2-3-1.6-.2,0-.4-.2-.6-.2-1.1-.4-4.1-2.8-4.9-3.5-.3-.3-.8-.8-1.5-1.4h0c-1.1-1-2.6-2.4-4-3.7-2.2-2.2-6.7-6.8-12.3-12.8-4.5-4.8-7.1-9.3-8-10.9,0,0,0-.2-.1-.2,0,0,0-.1,0-.2h-.1c0-.1-.5-1.1-.5-1.1-.5-.8-1.5-3.3-2.3-6l6.2-.4,7.6-2.9c5.1-5,6.1,2.9,6.1,2.9,4.1-1,3.6,3.6,3.6,3.6-2.5,6.6,3.1,8.2,3.1,8.2h7.1l5.6,3.6v13.8c9.7,2,11.7-4.1,11.7-4.1l-2.5-5.6,3.1-2.5v-5.6l-4.6-6.6c-3.1-5.6,4.6-7.5,4.6-7.5h6.6l4.6,6.5-1,5.6c-6.1,3.6-2.5,7.1-2.5,7.1,1.5,2.5,9.7.5,9.7.5,6.6-2.5,10.7,5.1,10.7,5.1h8.2l5.6,7.1,5.3,5.6c7.3.5,4.9-4.1,4.9-4.1v-6.6l-3.6-4.1c-4.1-8.2,3.1-10.7,3.1-10.7l-1.5-5.1c-3.6-4.6,0-5.2,0-5.2,2-4.1,11.2,0,11.2,0,2.5,4.5,6.6,1.6,6.6,1.6,4.1-3.6,7.1,0,7.1,0l2.3,3.3c6.4,3.3,0,6.9,0,6.9v6.6h2.3l1.5,3.1-1.5,4.6c-5.1,5.1,0,9.7,0,9.7,3.6,4.6,11.2,0,11.2,0,2.5-2.5,3.6-9.7,3.6-9.7l4.1-4.1h6.6c6.1,0,7.6-2,7.6-2l6.6-7.6c2-5.6,9.6-4.1,9.6-4.1l2.6-3.3h7.5c-1.3,1.9-1.9,2.7-1.9,2.7h0l-.6.9h-3.2c0,0,0,0,0,0l-.2.8,1.5,2.4c-9.8,3.4-4.2,10.2-4.2,10.2l8.5,3.6,4.7,4.6v6.6l-3,5.1c-5.1,9.7,3,8.7,3,8.7,5.5-.5,2.6-8.2,2.6-8.2l5.1-2c4.1-2.5,11,2.5,11,2.5,3.4.5,7.8,0,7.8,0,7.1.5,4.6,11.2,4.6,11.2h4.1v10.1l-1.5-.9h-6.1c-8.2-.5-8.8,12.3-8.8,12.3-.7,4.6-5.4,10.7-5.4,10.7-3.6,2.5-4,13.3-4,13.3l7,3.1,2.4,5.6-2.9,7.1v8.7ZM204.3,439.1h7.1s-7.1,0-7.1,0h0ZM186,354h0c5.1-4.3,7.5-5.1,8.5-5.2-1,0-3.4.9-8.5,5.2ZM207.9,367.2h0s6.1-1.5,6.1-1.5l3.6-7.6,9.2-13.8,6.6-3.1c.6-.2,1.1-.4,1.7-.4-.5,0-1.1.2-1.7.4l-6.6,3.1-9.2,13.8-3.6,7.6-6.1,1.5Z"/>
    </g>
</svg>