<svg width="270" height="496" viewBox="0 0 270 496" fill="none" xmlns="http://www.w3.org/2000/svg">
<g clip-path="url(#clip0_53_32431)">
<path d="M13.9311 89.9033L17.4532 89.6755L21.7784 88.0276C24.6618 85.2264 25.2385 89.6755 25.2385 89.6755C27.5453 89.0988 27.2569 91.6939 27.2569 91.6939C25.8152 95.4424 28.987 96.3075 28.987 96.3075H33.0238L36.1956 98.3259V106.111C41.6741 107.265 42.8275 103.804 42.8275 103.804L41.3858 100.633L43.1159 99.1909V96.0191L40.5208 92.2706C38.7907 89.0988 43.1159 88.0276 43.1159 88.0276H46.8557L49.4594 91.6939L48.8828 94.8657C45.4226 96.8841 47.441 98.9026 47.441 98.9026C48.3061 100.344 52.9196 99.1909 52.9196 99.1909C56.6681 97.7492 58.9748 102.074 58.9748 102.074H63.5883L66.7601 106.111L69.756 109.283C73.9053 109.571 72.527 106.976 72.527 106.976V103.228L70.4769 100.921C68.1384 96.3075 72.2387 94.8657 72.2387 94.8657L71.3736 91.9823C69.3552 89.3872 71.3736 89.0671 71.3736 89.0671C72.527 86.7286 77.7172 89.0671 77.7172 89.0671C79.1589 91.6305 81.4657 89.9639 81.4657 89.9639C83.7724 87.9455 85.5025 89.9639 85.5025 89.9639L86.8159 91.8439C90.4361 93.7239 86.8159 95.7308 86.8159 95.7308V99.4792H88.0976L88.9626 101.209L88.0976 103.804C85.2142 106.688 88.0976 109.283 88.0976 109.283C90.116 111.878 94.4412 109.283 94.4412 109.283C95.8829 107.841 96.4596 103.804 96.4596 103.804L98.7663 101.498H102.515C105.975 101.498 106.84 100.344 106.84 100.344L110.588 96.0191C111.742 92.8473 116.032 93.7124 116.032 93.7124L117.509 91.8439H121.766C122.228 91.1648 122.845 90.2551 123.63 89.0945C125.637 86.1303 125.975 85.6344 125.975 85.6344C126.817 83.9173 126.547 81.266 126.46 80.2236C126.372 79.1812 125.956 76.292 124.468 73.8209C122.98 71.3498 123.023 69.3487 123.759 68.2443C124.494 67.14 125.271 67.907 126.492 66.2129C127.712 64.5189 127.963 62.2367 128.836 59.5349C129.71 56.8331 130.053 52.6968 129.975 50.5342C129.897 48.3716 130.079 45.3916 130.532 44.5266C130.986 43.6601 131.496 41.6446 130.953 40.3931C130.409 39.1417 130.768 37.9249 131.16 36.3405C131.553 34.7574 131.231 32.442 129.461 31.1358C127.692 29.8296 125.944 28.1659 121.237 28.6878C116.53 29.2097 115.513 31.4098 114.245 32.8544C112.977 34.2975 108.524 34.7733 106.292 32.4406C104.06 30.1064 104.907 28.3375 105.653 26.048C106.4 23.7585 108.546 21.5022 109.646 20.4959C110.744 19.4896 111.432 18.0753 110.875 15.5047C110.32 12.9341 108.462 11.9494 108.001 11.7605C107.539 11.5731 107.291 11.4808 106.609 11.0454C105.929 10.61 104.363 8.58874 103.338 7.35174C102.313 6.11475 101.004 6.23873 100.26 6.15367C99.5175 6.07005 99.32 5.67358 96.7032 6.17241C94.0865 6.67125 92.688 7.1153 91.3126 6.59916C89.9387 6.08159 88.7392 4.32845 87.8813 3.15777C87.0235 1.98709 86.751 1.4205 85.4001 0.97068C84.0493 0.520863 83.1986 1.35274 82.9579 1.63387C82.7185 1.91501 82.4028 2.40664 81.7757 2.31869C81.1499 2.23075 79.9072 2.93863 78.4799 3.84115C77.0526 4.74367 76.2481 5.12717 75.3859 5.391C74.5238 5.65484 74.1316 4.84747 73.3026 3.5802C72.4737 2.31292 71.6504 2.1428 71.2525 2.06783C70.8546 1.99286 70.598 1.96259 69.6825 1.68433C68.767 1.40608 68.6041 2.22498 68.3979 2.67912C68.1917 3.13326 67.7679 3.42882 67.5631 3.96514C67.357 4.50146 67.912 5.64474 68.1096 5.89993C68.3071 6.15511 69.002 6.60061 69.5542 7.29407C70.1063 7.98754 70.4711 10.5653 69.1505 10.9041C67.8299 11.243 66.8077 9.56623 65.9037 12.7899C64.9998 16.0136 63.8103 14.4695 62.1711 12.9053C60.5319 11.341 58.6865 11.008 56.2298 11.9061C53.7731 12.8043 52.8345 16.4706 52.1252 17.9239C51.4159 19.3771 51.1895 18.1675 50.3764 20.4051C49.5632 22.6427 48.4445 22.7652 47.6789 23.0117C46.9134 23.2583 45.8551 23.3102 44.1107 24.4837C42.3662 25.6573 36.9727 25.9269 36.9727 25.9269C36.8689 25.9269 36.755 25.9298 36.6267 25.9399C33.5443 26.1778 30.4662 24.4837 30.4662 24.4837L30.4763 24.5313C30.4763 24.5313 30.4691 24.5284 30.4662 24.527V24.4837C30.4662 24.4837 28.6424 23.5495 27.5352 22.8416C26.4279 22.1337 25.5009 22.497 24.5724 22.8416C23.644 23.1862 22.0206 23.7499 21.3141 23.9777C20.6077 24.2055 19.3462 25.5838 18.5619 27.2201C17.7776 28.855 17.4864 30.1209 17.4503 30.7134C17.4157 31.306 17.4013 32.4882 16.7583 33.6358C16.1153 34.782 14.28 37.4016 14.0738 39.4358C13.8676 41.4715 13.9181 42.5528 14.0998 43.5981C14.2814 44.6433 14.2353 45.9467 13.7725 46.8679C13.3097 47.7892 12.7676 48.4279 12.8945 50.7519C12.8945 50.7519 12.4764 54.0751 12.4778 54.61C12.4793 55.1448 12.4202 55.821 13.0632 56.4756C13.7062 57.1301 13.8215 58.2993 12.8757 58.7592C11.93 59.2192 10.951 59.4167 10.5257 61.536C10.1004 63.6553 9.46895 64.963 8.21609 63.8038C6.96468 62.6447 3.25368 60.1894 1.70239 62.8667C0.151096 65.5454 -1.03544 66.559 1.378 70.1892C3.79145 73.818 6.81474 76.3007 8.90812 75.9633C11.0015 75.6259 12.5787 74.5648 12.7979 75.9936C13.0185 77.4223 12.5413 77.6415 12.361 78.0841C12.1794 78.5267 11.3922 80.6258 11.8449 81.7605C12.2976 82.8951 13.1525 84.4882 13.1872 86.3379" fill="#669525"/>
<path d="M242.871 135.23C241.726 132.811 241.601 129.612 242.508 127.834C243.415 126.057 244.448 120.89 244.592 116.671C244.737 112.453 245.638 110.221 242.834 105.398C240.029 100.576 232.816 97.4788 231.555 97.1141C230.292 96.7493 228.121 94.4339 227.713 92.9057C227.305 91.3774 225.309 89.0995 223.052 87.3219C220.794 85.5442 220.807 83.36 220.452 81.8275C220.098 80.2949 217.74 76.9891 214.502 74.6938C211.264 72.3986 206.035 71.1212 204.23 70.5921C202.425 70.063 199.415 68.8303 196.88 67.7375C194.344 66.6447 193.302 68.9298 192.737 70.5518C192.171 72.1737 186.709 76.6647 185.651 78.2001C184.594 79.7355 181.842 83.8733 180.039 85.6394C178.237 87.4055 176.543 85.7475 175.138 84.9848C173.732 84.2222 173.505 85.2213 173.196 86.1007C172.886 86.9802 173.227 90.1433 172.831 90.72C172.434 91.2967 170.38 88.8818 169.698 87.554C169.016 86.2262 167.217 84.9502 163.774 82.4099C160.332 79.8696 158.245 79.6649 154.629 79.4385C151.013 79.2136 146.772 82.8266 143.048 84.3015C139.324 85.7764 136.463 88.9539 135.742 90.3956C135.022 91.8374 132.643 93.3512 130.078 93.54C127.513 93.7303 126.299 94.7208 125.146 96.8243C124.064 98.7951 121.922 99.4049 121.654 99.4742H121.621L119.311 95.7329C113.763 97.6778 116.928 101.497 116.928 101.497L121.74 103.515L124.376 106.11V109.859L122.695 112.742C119.811 118.221 124.376 117.644 124.376 117.644C127.499 117.356 125.867 113.031 125.867 113.031L128.75 111.877C131.057 110.436 134.999 113.319 134.999 113.319C136.922 113.607 139.419 113.319 139.419 113.319C143.456 113.607 142.014 119.663 142.014 119.663H144.321V125.366L146.339 126.583L149.511 126.006C149.511 126.006 152.106 127.736 152.971 130.043C152.971 130.043 153.836 132.926 156.72 132.638H164.216L166.812 134.945C166.812 134.945 169.695 138.405 166.812 142.442C166.812 142.442 162.486 145.037 163.928 147.055L165.658 149.65V155.706L168.093 158.012C168.093 158.012 171.425 154.841 174.02 157.436C174.02 157.436 175.75 160.608 179.787 158.877L181.805 156.859C181.805 156.859 181.805 153.976 184.401 155.994L186.419 160.031V162.338L190.456 163.203C190.456 163.203 192.186 162.906 193.628 164.784C193.628 164.784 199.106 168.104 199.106 162.338C199.106 162.338 197.953 159.742 195.069 158.589C195.069 158.589 193.051 156.282 196.799 155.706L199.106 155.417L200.836 153.976V149.074L198.529 147.344C198.529 147.344 197.664 142.153 200.836 141.577L202.855 139.27C202.855 139.27 206.026 139.847 207.18 139.847C207.18 139.847 208.91 139.847 209.198 137.252C209.198 137.252 208.622 133.215 212.947 132.926H217.56L221.02 132.35V130.908L225.922 131.773L227.941 134.657C227.941 134.657 229.094 135.233 231.112 135.233H235.149C235.149 135.233 236.303 135.233 237.168 137.252L240.051 140.135L245.53 139.604C244.394 137.67 243.811 137.216 242.871 135.229V135.23Z" fill="#86B941"/>
<path d="M266.204 178.841C264.85 175.754 265.391 173.836 266.476 172.836C267.561 171.835 268.509 168.796 269.103 165.582C269.697 162.369 266.739 159.777 265.118 158.499C263.498 157.222 265.068 155.488 265.696 154.49C266.325 153.492 267.232 152.895 263.785 149.272C260.339 145.651 256.021 145.29 252.748 145.124C249.474 144.96 248.093 144.424 246.363 141.108C246.053 140.515 245.78 140.025 245.534 139.604L240.055 140.135L237.172 137.251C236.307 135.233 235.154 135.233 235.154 135.233H231.117C229.098 135.233 227.945 134.656 227.945 134.656L225.927 131.773L221.025 130.908V132.349L217.565 132.926H212.951C208.626 133.214 209.203 137.251 209.203 137.251C208.914 139.846 207.184 139.846 207.184 139.846C206.031 139.846 202.859 139.27 202.859 139.27L200.841 141.576C197.669 142.153 198.534 147.343 198.534 147.343L200.841 149.073V153.975L199.11 155.417L196.804 155.705C193.055 156.282 195.074 158.589 195.074 158.589C197.957 159.742 199.11 162.337 199.11 162.337C199.11 168.104 193.632 164.784 193.632 164.784C192.19 162.905 190.46 163.202 190.46 163.202L186.423 162.337V160.03L184.405 155.994C181.81 153.975 181.81 156.859 181.81 156.859L179.791 158.877C175.755 160.607 174.025 157.435 174.025 157.435C171.429 154.84 168.098 158.012 168.098 158.012L165.663 155.705V149.65L163.932 147.055C162.491 145.037 166.816 142.441 166.816 142.441C169.699 138.405 166.816 134.944 166.816 134.944L164.221 132.638H156.724C153.84 132.926 152.975 130.043 152.975 130.043C152.11 127.736 149.515 126.006 149.515 126.006L146.343 126.582L143.46 124.844L140 124.852C135.386 124.564 135.003 131.773 135.003 131.773C134.619 134.368 131.926 137.828 131.926 137.828C129.908 139.27 129.692 145.325 129.692 145.325L133.656 147.055L135.003 150.227L133.368 154.264V159.165L132.98 161.184H135.003V169.257L133.368 170.699L133.08 174.159L135.003 177.043C136.061 176.754 136.54 180.503 136.54 180.503V185.405L132.791 187.423L130.196 189.153C125.871 188.577 127.313 194.343 127.313 194.343L130.196 196.362V197.471C130.976 197.315 131.988 197.323 132.948 197.964C132.948 197.964 133.597 200.775 135.003 200.126C135.003 200.126 137.922 197.964 141.382 199.477L143.978 201.856H148.735C148.735 201.856 151.33 202.938 151.763 204.451C151.763 204.451 152.628 208.777 154.79 209.209L157.386 210.29H178.794L180.956 208.56L184.2 209.209L184.68 210.217C186.072 210.064 187.89 209.944 189.808 209.673C192.738 209.259 203.689 207.247 206.61 207.129C209.533 207.012 213.545 205.626 215.141 204.969C216.737 204.311 219.626 204.904 219.626 204.904C223.242 205.159 223.153 205.661 226.33 206.468C229.508 207.276 229.749 207.139 231.98 206.699C234.212 206.259 237.342 203.81 238.142 203.062C238.942 202.313 240.237 201.985 241.03 201.84C241.823 201.696 243.481 203.21 244.234 204.238C244.986 205.266 246.64 206.487 248.363 207.613C250.085 208.739 251.654 207.431 252.474 207.064C253.296 206.695 253.662 206.922 254.279 207.486C254.896 208.05 255.436 208.677 256.883 209.391C258.331 210.104 261.249 209.572 262.466 209.391C263.682 209.209 264.106 206.356 264.301 205.299C264.495 204.242 264.963 203.309 265.317 202.489C265.672 201.669 264.384 198.088 263.756 196.366C263.127 194.645 267.304 190.632 268.535 190.136C269.768 189.641 269.939 188.614 269.939 188.614C270.467 187.699 267.561 181.926 266.207 178.839L266.204 178.841Z" fill="#86B941"/>
<path d="M184.198 209.209L180.954 208.56L178.791 210.29H157.383L154.788 209.209C152.625 208.776 151.76 204.451 151.76 204.451C151.328 202.937 148.733 201.856 148.733 201.856H143.975L141.38 199.477C137.92 197.963 135 200.126 135 200.126C133.595 200.775 132.946 197.963 132.946 197.963C131 196.666 128.837 197.963 128.837 197.963V200.559L127.756 203.154H124.376C121.862 203.154 121.484 206.614 121.484 206.614L119.538 211.588V221.103C119.322 223.049 116.51 224.131 116.51 224.131H112.185L106.995 225.428C103.751 224.563 103.751 225.428 103.751 225.428V228.672L103.277 229.045C103.305 230.18 103.122 231.289 102.928 232.124C106.112 232.821 107.6 233.211 108.506 233.575C108.506 233.575 109.922 233.878 110.589 233.885C110.751 233.885 110.866 233.869 110.905 233.826C111.102 233.917 111.154 233.942 111.267 233.995C111.306 234.017 111.345 234.04 111.386 234.064L111.381 234.083C112.656 234.628 113.109 236.349 113.085 237.647C113.06 238.944 112.551 239.844 111.941 240.61C111.332 241.375 109.913 243.317 109.638 245.459C109.362 247.602 111.11 249.997 112.09 251.854C113.07 253.71 112.073 255.148 111.721 255.606C111.369 256.065 111.066 256.701 110.573 257.94C110.082 259.18 109.842 262.901 114.611 265.357C119.381 267.811 125.707 266.307 131.445 265.524C137.183 264.741 150.665 265.929 150.665 265.929C151.094 267.127 152.323 269.765 152.323 269.765C153.232 272.375 157.108 276.48 160.683 279.611C164.26 282.742 167.295 285.035 169.433 285.01C171.571 284.987 171.871 283.143 172.025 282.11C172.179 281.074 173.542 282.15 174.299 282.678C175.054 283.204 176.93 284.579 178.545 284.333C180.159 284.088 179.813 281.575 179.205 279.24C178.597 276.906 178.898 276.284 179.694 273.432C180.491 270.58 177.677 267.323 176.52 265.685C175.364 264.048 170.298 257.834 168.163 253.987C166.028 250.141 165.925 247.598 166.124 244.117C166.326 240.636 166.806 238.561 167.197 237.291C167.588 236.019 168.83 234.624 169.603 234.218C170.374 233.813 172.328 230.014 173.228 228.353C174.127 226.693 175.128 225.492 175.723 225.234C176.319 224.976 176.728 224.256 177.407 223.061C178.086 221.867 178.731 218.59 178.989 217.06C179.247 215.531 179.117 214.415 179.529 212.846C179.772 211.924 180.664 211.334 181.359 211.004L182.235 210.669L183.426 210.398C183.787 210.332 184.209 210.277 184.679 210.225L184.199 209.215L184.198 209.209Z" fill="#669525"/>
<path d="M25.421 410.495C25.421 410.495 21.9248 407.998 21.5918 410.495C21.2587 412.992 18.5944 416.655 20.9257 419.319C23.257 421.984 25.5882 425.481 27.9195 423.483C30.2507 421.485 29.4189 417.968 30.4165 416.73C31.4157 415.492 32.249 413.992 31.2499 412.66C30.2507 411.328 27.9195 409.831 25.4224 410.496L25.421 410.495Z" fill="#76A831"/>
<path d="M67.2058 426.322C67.2058 426.322 67.4221 423.727 67.2058 421.996C67.2058 421.996 66.9896 414.86 69.8009 415.725L72.1798 416.728H75.6399L77.5776 414.645C77.5776 414.645 77.1537 411.834 79.3163 413.564L82.6568 416.728H87.7489L89.3752 417.624H94.0723C94.3664 416.496 95.5688 415.287 95.0873 414.592C94.4385 413.655 95.5443 413.15 96.2162 412.426C96.8894 411.703 96.5521 410.675 96.2162 410.219C95.8802 409.762 95.0628 409.09 94.9431 408.753C94.8235 408.415 95.1118 407.359 95.3511 406.061C95.5905 404.764 94.799 404.139 94.5337 403.899C94.2698 403.658 91.3374 400.63 91.3374 400.63C91.5536 398.756 90.8083 397.242 90.2561 396.546C89.7039 395.849 88.069 395.44 87.5889 394.671C87.1088 393.903 87.9969 392.581 88.6702 391.644C89.3435 390.707 89.0551 387.391 88.8619 385.757C88.6702 384.124 88.526 382.081 88.526 382.081C88.7668 379.294 86.9156 376.866 85.6901 376.026C84.4647 375.185 82.7822 373.575 80.9325 372.662C79.0827 371.75 74.0598 369.875 74.018 368.265C73.9762 366.655 73.6518 365.598 72.7449 364.25C71.8381 362.9 71.1316 363.376 70.8966 363.478C70.6616 363.581 69.8312 364.231 69.2156 364.25C68.6 364.27 67.9339 364.775 66.5989 365.71C65.2624 366.646 64.4853 366.35 63.9966 366.029C63.5078 365.707 63.5366 364.085 63.75 363.08C63.9634 362.076 63.4905 361.032 63.195 360.399C62.898 359.766 61.6004 358.078 61.3409 357.778C61.0814 357.478 60.3663 354.906 60.3663 354.906C59.4047 350.533 58.1086 348.274 57.5794 346.736C57.0503 345.197 57.8433 343.972 58.084 343.179C58.3248 342.386 59.2619 339.983 59.3153 338.694C59.3686 337.403 59.6699 336.452 60.3432 335.298C61.0165 334.145 62.3141 332.631 63.0104 331.55C63.7068 330.469 63.9605 329.808 64.1277 329.125C64.295 328.442 64.1451 326.527 64.0196 325.398C63.8942 324.269 64.5718 323.716 65.1398 323.197C65.7064 322.678 66.1808 321.824 66.1808 321.824C68.2424 318.536 69.39 314.983 69.9552 312.81C68.5466 311.514 66.7589 311.702 66.7589 311.702L62.4337 313.144H58.2628C58.2455 313.276 58.2052 313.402 58.0422 313.585C57.4655 314.233 55.2251 314.261 53.1346 316.387C52.0259 317.515 47.8089 322.61 44.9327 326.396C42.0564 330.182 41.5287 334.914 41.5287 337.076C41.5287 339.239 37.0594 342.05 36.1944 344.789C35.3293 347.529 35.5456 349.259 34.3201 353.512C33.0947 357.765 33.0226 362.378 32.0134 365.118C31.0042 367.857 31.0042 368.722 29.4183 371.677C27.8324 374.633 25.3815 377.156 24.3002 378.814C23.2189 380.472 24.8048 384.004 24.4443 385.878C24.0839 387.753 22.498 389.411 21.4167 389.555C20.3354 389.699 19.4906 389.846 18.6573 390.862C17.824 391.88 19.5598 393.874 20.8588 395.516C22.1578 397.158 22.7157 397.701 22.7878 398.638C22.8599 399.575 26.32 401.954 26.32 403.9C26.32 405.846 27.3292 406.567 28.7709 408.874C30.2127 411.181 31.366 411.397 33.0961 410.316C34.8262 409.234 35.547 407.721 35.6912 406.639C35.8354 405.558 36.2679 405.486 36.8446 405.774C37.4213 406.063 38.7188 408.441 39.9039 409.319C41.089 410.197 44.0359 414.035 45.6319 416.378C47.2279 418.721 48.883 422.211 50.3997 423.047C51.9164 423.884 54.8676 425.023 55.3131 426.239C55.5264 426.822 56.0166 427.521 56.5861 428.235L62.6702 426.325C62.6702 426.325 66.3466 427.19 67.2116 426.325L67.2058 426.322Z" fill="#76A831"/>
<path d="M163.149 473.273C163.345 470.465 160.886 468.562 159.949 467.312C159.012 466.062 156.297 464.692 154.614 464.14C152.932 463.588 152.643 461.209 152.38 459.887C152.116 458.565 146.34 456.114 145.595 454C144.85 451.885 141.943 449.578 140.501 448.785C139.06 447.993 138.291 447.416 137.954 447.247C137.618 447.078 135.647 447.2 134.806 446.911C133.966 446.623 133.484 446.238 132.236 446.046C130.986 445.854 129.544 445.805 128.487 445.614C127.431 445.422 126.109 446.407 125.484 446.767C124.86 447.127 124.451 447.44 123.851 447.993C123.251 448.545 122.434 449.65 122.385 449.531C122.336 449.411 121.231 447.008 120.198 445.35C119.164 443.692 117.362 442.275 116.834 441.937C116.305 441.601 113.494 441.408 111.355 441.048C109.217 440.687 105.997 440.063 105.42 440.014C104.843 439.965 105.059 438.957 104.706 437.9C104.706 437.9 104.555 437.491 103.906 435.761C103.257 434.031 100.349 430.33 99.9889 426.654C99.6285 422.977 95.087 420.094 94.2047 418.749C93.9755 418.4 93.9697 418.016 94.0721 417.623H89.3749L87.7487 416.727H82.6565L79.316 413.563C77.1535 411.833 77.5773 414.644 77.5773 414.644L75.6397 416.727H72.1795L69.8007 415.725C66.9893 414.86 67.2056 421.997 67.2056 421.997C67.4218 423.727 67.2056 426.322 67.2056 426.322C66.3405 427.187 62.6641 426.322 62.6641 426.322L56.5801 428.232C57.2 429.009 57.9137 429.805 58.4731 430.494C59.5457 431.813 59.1334 432.438 58.7528 433.31C58.3721 434.184 59.6308 436.362 59.6308 436.362C62.0932 441.289 66.0652 441.622 67.6525 441.96C69.2413 442.301 71.4327 445.57 72.1853 448.781C72.9379 451.992 75.2619 455.368 77.697 456.509C80.132 457.649 81.6069 464.239 82.149 465.667C82.6911 467.094 82.5426 470.29 84.4399 471.588C86.3358 472.885 86.6703 474.983 87.4084 477.16C88.1466 479.337 90.4519 478.919 92.4083 478.091C94.3647 477.264 93.7044 475.172 93.0528 473.283C92.4011 471.395 92.0825 470.747 91.9585 469.571C91.8345 468.394 93.0441 467.96 93.9092 467.672C94.7742 467.384 95.1591 468.273 95.423 469.066C95.6868 469.859 96.3125 470.436 97.2251 470.94C98.1377 471.445 97.946 472.79 98.1622 473.704C98.3785 474.618 98.8831 474.497 99.6285 474.377C100.374 474.258 101.431 475.218 102.151 475.531C102.872 475.844 103.713 475.531 104.819 475.675C105.924 475.819 107.75 474.907 107.943 474.089C108.135 473.272 107.99 471.591 109.288 472.456C110.586 473.321 111.547 476.012 111.066 477.742C110.584 479.472 111.498 479.761 112.555 480.578C113.612 481.396 114.285 481.779 115.15 482.5C116.015 483.221 116.159 481.732 117.265 481.491C118.371 481.25 118.515 482.259 118.418 483.221C118.418 483.221 118.469 482.594 118.754 484.422C119.041 486.25 118.466 487.497 117.937 488.123C117.408 488.747 117.664 490.245 117.943 491.1C118.221 491.955 118.178 493.216 119.282 493.985C120.388 494.753 123.284 495.675 124.04 495.741C124.795 495.809 127.356 494.994 128.412 494.753C129.469 494.513 131.152 492.735 132.161 491.87C133.17 491.005 138.216 492.158 139.057 492.278C139.897 492.398 139.778 492.302 139.753 491.798C139.729 491.293 139.825 491.149 140.354 490.933C140.883 490.717 143.021 491.149 144.175 491.318C145.328 491.486 146.097 490.669 148.153 489.872C150.208 489.074 152.462 486.807 152.906 486.156C153.35 485.506 159.379 484.839 160.375 484.03C161.37 483.221 162.949 476.084 163.146 473.275L163.149 473.273Z" fill="#76A831"/>
<path d="M69.9553 312.81C68.5468 311.514 66.759 311.702 66.759 311.702L62.4339 313.143H58.263C58.263 313.143 58.263 313.146 58.263 313.149C58.3091 312.809 58.1938 312.43 59.5879 310.945C60.4428 310.033 61.739 308.53 61.8831 308.397C61.997 308.292 62.3776 307.885 62.5305 307.72C62.5463 307.681 62.5665 307.655 62.5925 307.65L62.9933 307.228H63.0726L63.012 307.177C63.544 306.742 63.9491 305.525 64.2375 304.455C64.5258 303.386 65.0549 300.768 65.2222 299.975C65.3894 299.182 66.1117 296.719 66.6033 294.94C67.0964 293.162 67.8403 292.501 68.5136 291.985C69.1869 291.468 71.6494 289.666 72.1785 289.401C72.7076 289.137 73.032 289.353 73.3564 288.908C73.6807 288.462 73.6332 287.646 73.4169 287.022C73.2007 286.398 72.0228 284.499 71.5124 283.458C71.002 282.417 70.8939 281.523 70.6402 280.363C70.385 279.202 69.1033 276.924 68.2051 275.043C67.3069 273.161 65.6547 269.697 63.7718 267.02C61.8889 264.344 61.4376 263.348 60.959 262.259C60.4803 261.171 60.946 259.436 59.6542 256.742C58.3624 254.047 58.7272 255.049 56.556 252.151C54.3847 249.255 55.5223 246.746 56.1653 245.175C56.8083 243.603 58.7834 240.501 59.0473 239.731C59.3111 238.961 59.5764 238.722 58.4562 236.315C57.3359 233.909 56.1249 228.801 55.7803 226.638C55.4358 224.476 55.3363 219.958 55.1979 218.346C55.0595 216.734 53.2184 214.566 51.6671 212.773C50.1158 210.98 47.2251 209.887 44.2509 207.859C41.278 205.83 40.1838 205.657 38.7968 204.234C37.4099 202.811 36.7525 202.056 34.8768 199.743C33.0011 197.431 32.6868 196.171 31.7598 193.039C30.8328 189.908 30.4767 190.904 28.9801 187.771C27.4836 184.64 27.8758 180.355 27.9536 179.372C28.0315 178.388 28.7812 177.238 29.9245 175.501C31.0678 173.763 32.5441 173.194 33.2404 173.002C33.9368 172.81 35.3554 171.777 36.3401 171.248C37.3248 170.718 38.2259 171.079 38.2259 171.079C38.2259 171.079 37.9736 168.459 37.9102 167.198C37.8467 165.936 37.7328 162.981 37.8626 162.251C37.9765 161.61 38.3845 160.458 39.0996 159.102L39.3735 158.446C39.3807 158.432 39.3879 158.419 39.3966 158.405C39.5782 158.085 39.7412 157.824 39.8897 157.604L43.6915 160.602C50.9001 161.467 58.9737 179.889 58.9737 179.889L65.3173 180.786C67.9124 178.768 70.2192 180.786 70.2192 180.786L73.391 182.101L76.5627 183.093C81.4646 180.209 84.0597 184.534 84.0597 184.534L89.0192 183.093L92.71 184.534C96.4585 183.669 95.3051 188.571 95.3051 188.571V197.798C97.3235 197.222 98.7653 200.393 98.7653 200.393L100.159 205.007L97.0352 207.314V216.541L99.342 220.289V224.326L102.514 226.056C103.635 227.926 103.302 230.521 102.93 232.117C102.834 232.095 102.737 232.074 102.638 232.054C102.001 231.915 101.381 231.856 100.782 231.858C98.9743 231.858 97.3769 232.402 96.1673 232.911L95.6872 233.119L91.0967 235.664C90.6412 235.955 90.3211 236.165 90.2591 236.206V236.128L89.7026 236.617L89.2874 236.868C88.6559 237.25 88.6011 236.944 88.4195 237.976C88.2378 239.008 89.1648 240.955 89.7531 242.519C90.3399 244.083 90.0183 245.378 89.8021 246.484C89.5858 247.59 90.3052 248.577 91.202 250.3C92.0987 252.023 91.7974 252.365 91.4774 254.416C91.1573 256.468 90.6268 257.027 89.7978 258.178C88.9702 259.328 88.2364 259.1 87.6496 259.165C87.0643 259.23 87.1767 260.659 87.1969 261.548C87.2171 262.438 87.1998 265.422 87.1998 265.422C86.8812 268.479 87.3973 271.64 87.2603 273.996C87.1234 276.353 86.081 280.615 84.8469 285.325C83.6128 290.034 83.0159 290.834 82.0485 292.159C81.0811 293.484 77.7277 296.858 75.4786 299.394C73.4645 301.664 71.7546 307.235 71.4187 308.374C71.3798 308.507 71.3581 308.582 71.3581 308.582H71.3206L71.0366 309.189H71.0698L70.4124 310.738L69.951 312.804L69.9553 312.81Z" fill="#86B941"/>
<path fill-rule="evenodd" clip-rule="evenodd" d="M129.044 169.547L129.042 169.547C132.212 168.392 129.906 162.627 129.906 162.627L131.809 161.185H131.811L129.909 162.626C129.909 162.626 132.216 168.393 129.044 169.547ZM133.365 159.167L132.977 161.185H135.004V169.258L133.369 170.7L133.081 174.16L135.004 177.044C136.062 176.755 136.541 180.504 136.541 180.504V185.406L132.792 187.424L130.197 189.154C125.872 188.577 127.314 194.344 127.314 194.344L130.197 196.363V197.471C129.396 197.631 128.84 197.964 128.84 197.964V200.559L127.759 203.155H124.38C121.867 203.155 121.488 206.615 121.488 206.615L119.541 211.589V216.297H111.756L111.754 216.297V216.3H119.54V221.105C119.323 223.051 116.512 224.133 116.512 224.133H112.187L106.997 225.43C103.753 224.565 103.753 225.43 103.753 225.43V228.674L103.278 229.047C103.251 228.012 103.048 226.956 102.513 226.065L99.3411 224.334V220.298L99.2402 220.133L99.2427 220.13L97.0375 216.547V207.32L100.162 205.013L98.7676 200.399C98.7676 200.399 97.3259 197.228 95.3074 197.804V188.577C95.3074 188.577 96.4608 183.675 92.7123 184.54L89.0215 183.099L84.062 184.54C84.062 184.54 83.3541 183.361 81.9787 182.645C84.8622 177.787 82.6607 176.178 82.6607 176.178L79.1602 174.16V171.278L79.1532 171.277V174.161L82.6537 176.179C82.6537 176.179 84.8552 177.788 81.9718 182.645C80.7146 181.989 78.8995 181.721 76.5581 183.099L73.3863 182.107L70.2145 180.793C70.2145 180.793 67.9078 178.774 65.3127 180.793L58.9691 179.896C58.9691 179.896 50.8954 161.473 43.6868 160.608L39.885 157.611C40.4336 156.804 40.7929 156.604 41.2319 156.358C41.2682 156.338 41.3051 156.317 41.3426 156.296C41.9568 155.95 41.9683 154.831 41.9438 154.05C41.9193 153.269 41.7953 151.766 41.7535 151.311L41.751 151.284C41.7082 150.824 41.6316 150 42.9285 147.479C44.2506 144.908 45.391 143.55 47.3027 141.749C49.2144 139.949 50.3779 139.249 50.5581 139.177C50.6011 139.16 50.6491 139.155 50.6991 139.15C50.8588 139.133 51.0382 139.115 51.1348 138.69C51.2616 138.132 51.0266 136.833 50.486 136.419C50.086 136.113 49.8242 136.181 49.1779 136.349L49.1778 136.349C48.9505 136.408 48.6757 136.479 48.3306 136.55C47.0042 136.824 44.9137 136.376 42.7987 135.897C40.6837 135.419 39.5664 133.951 38.3654 131.341C37.1645 128.732 37.9733 126.281 38.1996 125.601C38.4245 124.919 38.7187 123.966 38.4779 123.634C38.4505 123.596 38.4242 123.559 38.3976 123.52C38.191 123.222 37.965 122.897 37.0145 122.432C35.9419 121.907 34.9875 120.777 34.0013 118.791C33.1316 117.038 33.9344 116.232 34.4446 115.721C34.5121 115.653 34.5744 115.59 34.6271 115.532C35.0783 115.027 35.3119 113.927 35.1144 113.513C34.9493 113.167 34.0656 112.847 33.4229 112.614C33.2964 112.568 33.1792 112.525 33.0786 112.487C32.4674 112.252 30.7733 110.918 30.3221 110.486C30.1525 110.323 29.8554 110.044 29.4831 109.695L29.4829 109.695C28.8647 109.114 28.0391 108.339 27.2454 107.579C25.9753 106.361 23.4306 103.751 20.2747 100.33C17.7503 97.5922 16.2364 95.0721 15.7318 94.1753C15.7048 94.1297 15.6793 94.0856 15.6549 94.0435C15.6377 94.0138 15.6211 93.9851 15.605 93.9576L15.5271 93.8999L15.2344 93.3175C14.9447 92.8619 14.3896 91.4245 13.9297 89.902L17.4518 89.6743L21.777 88.0264C24.6604 85.2251 25.2371 89.6743 25.2371 89.6743C27.5439 89.0976 27.2555 91.6927 27.2555 91.6927C25.8138 95.4411 28.9856 96.3062 28.9856 96.3062H33.0224L36.1942 98.3246V106.11C41.6728 107.263 42.8261 103.803 42.8261 103.803L41.3844 100.631L43.1145 99.1896V96.0178L40.5194 92.2694C38.7893 89.0976 43.1145 88.0264 43.1145 88.0264H46.8543L49.458 91.6927L48.8814 94.8645C45.4212 96.8829 47.4396 98.9013 47.4396 98.9013C48.3047 100.343 52.9182 99.1896 52.9182 99.1896C56.6667 97.7479 58.9734 102.073 58.9734 102.073H63.5869L66.7587 106.11L69.7546 109.282C73.9039 109.57 72.5256 106.975 72.5256 106.975V103.226L70.4755 100.92C68.137 96.3062 72.2373 94.8645 72.2373 94.8645L71.3722 91.981C69.3538 89.3859 71.3722 89.0658 71.3722 89.0658C72.5256 86.7274 77.7158 89.0658 77.7158 89.0658C79.1575 91.6292 81.4643 89.9626 81.4643 89.9626C83.771 87.9442 85.5011 89.9626 85.5011 89.9626L86.8145 91.8426C90.4347 93.7226 86.8145 95.7295 86.8145 95.7295V99.478H88.0962L88.9612 101.208L88.0962 103.803C85.2128 106.687 88.0962 109.282 88.0962 109.282C90.1146 111.877 94.4398 109.282 94.4398 109.282C95.8815 107.84 96.4582 103.803 96.4582 103.803L98.765 101.496H102.513C105.974 101.496 106.839 100.343 106.839 100.343L110.587 96.0178C111.74 92.846 116.031 93.7111 116.031 93.7111L117.507 91.8426H121.765C121.047 92.8979 120.708 93.3939 120.708 93.3939H120.676L120.343 93.8999H118.561L118.554 93.9374H118.568L118.469 94.3671L119.312 95.7338C113.765 97.6787 116.929 101.498 116.929 101.498L121.742 103.516L124.377 106.111V109.86L122.696 112.743C119.813 118.222 124.377 117.645 124.377 117.645C127.498 117.357 125.868 113.032 125.868 113.032L128.751 111.878C131.058 110.436 135 113.32 135 113.32C136.923 113.608 139.42 113.32 139.42 113.32C143.457 113.608 142.015 119.664 142.015 119.664H144.322V125.367L143.457 124.845L139.997 124.854C135.383 124.565 135 131.774 135 131.774C134.616 134.369 131.923 137.829 131.923 137.829C129.905 139.271 129.688 145.326 129.688 145.326L133.653 147.056L135 150.228L133.365 154.265V159.167ZM99.3219 220.022H103.32L103.322 220.021H99.3226L99.3219 220.022ZM89.0215 171.853H89.0152C91.8987 169.417 93.2662 168.982 93.8227 168.938C93.2616 168.985 91.893 169.426 89.0215 171.853ZM101.363 179.35L101.362 179.349L104.816 178.486L106.834 174.161L112.024 166.375L115.773 164.645C116.106 164.512 116.42 164.44 116.714 164.418C116.422 164.441 116.11 164.513 115.78 164.645L112.031 166.375L106.841 174.16L104.823 178.485L101.363 179.35Z" fill="#76A831"/>
</g>
<defs>
<clipPath id="clip0_53_32431">
<rect width="270" height="494.906" fill="white" transform="translate(0 0.836914)"/>
</clipPath>
</defs>
</svg>
