<svg xmlns="http://www.w3.org/2000/svg" xmlns:xlink="http://www.w3.org/1999/xlink" id="Layer_1"
  version="1.1" viewBox="0 0 1032 881">
  <!-- Generator: Adobe Illustrator 29.1.0, SVG Export Plug-In . SVG Version: 2.1.0 Build 142)  -->
  <defs>
    <style>
      .st0 {
      fill: none;
      }

      .st2, .st3 {
      fill: #8bc241;
      }

      .st4 {
      fill-opacity: .3;
      fill-rule: evenodd;
      }

      .st4, .st5 {
      fill: #fff;
      }

      .st6 {
      fill: url(#linear-gradient2);
      }

      .st7 {
      fill: url(#linear-gradient1);
      }

      .st8 {
      fill: url(#linear-gradient3);
      }

      .st9 {
      fill: url(#linear-gradient6);
      }

      .st10 {
      fill: url(#linear-gradient8);
      }

      .st11 {
      fill: url(#linear-gradient7);
      }

      .st12 {
      fill: url(#linear-gradient5);
      }

      .st13 {
      fill: url(#linear-gradient4);
      }

      .st1, .st14, .st15 {
      fill: #76a831;
      }

      .st16 {
      fill: #f7feec;
      }

      .st17 {
      fill: #3f74c7;
      }

      .st18 {
      fill: url(#linear-gradient);
      }

      .st19, .st20 {
      fill: #9cc955;
      }

      .st21 {
      fill: #3860ad;
      }

      .st22 {
      clip-path: url(#clippath-17);
      }

      .st23 {
      clip-path: url(#clippath-11);
      }

      .st24 {
      clip-path: url(#clippath-16);
      }

      .st25 {
      clip-path: url(#clippath-10);
      }

      .st26 {
      clip-path: url(#clippath-15);
      }

      .st27 {
      clip-path: url(#clippath-13);
      }

      .st28 {
      clip-path: url(#clippath-14);
      }

      .st29 {
      clip-path: url(#clippath-12);
      }

      .st30 {
      clip-path: url(#clippath-1);
      }

      .st31 {
      clip-path: url(#clippath-3);
      }

      .st32 {
      clip-path: url(#clippath-4);
      }

      .st33 {
      clip-path: url(#clippath-2);
      }

      .st34 {
      clip-path: url(#clippath-7);
      }

      .st35 {
      clip-path: url(#clippath-6);
      }

      .st36 {
      clip-path: url(#clippath-9);
      }

      .st37 {
      clip-path: url(#clippath-8);
      }

      .st38 {
      clip-path: url(#clippath-5);
      }

      .st39 {
      fill: #626262;
      }

      .st40, .st41 {
      fill: #669525;
      }

      .st42 {
      clip-path: url(#clippath);
      }
    </style>
    <filter id="drop-shadow-1" x="0" y="150" width="429" height="589" filterUnits="userSpaceOnUse">
      <feOffset dx="0" dy="0" />
      <feGaussianBlur result="blur" stdDeviation="20" />
      <feFlood flood-color="#000" flood-opacity=".4" />
      <feComposite in2="blur" operator="in" />
      <feComposite in="SourceGraphic" />
    </filter>
    <clipPath id="clippath">
      <path class="st0"
        d="M351.5,332.5l1-50-17-34v-15.9c-10.2,1.3-18.6,1.7-18.6,1.7h0c-.7,0-1.5,0-2.4,0-21.4,1.7-42.7-10.1-42.7-10.1v.3s0,0,0,0v-.3s-12.7-6.5-20.3-11.4-14.1-2.4-20.6,0-17.7,6.3-22.6,7.9c-4.9,1.6-13.6,11.1-19.1,22.5-5.4,11.3-7.5,20.1-7.7,24.2-.2,4.1-.3,12.3-4.8,20.3-4.5,8-17.2,26.1-18.6,40.2-1.4,14.1-1.1,21.6.2,28.9,1.3,7.2.9,16.3-2.3,22.7-3.2,6.4-7,10.8-6.1,26.9,0,0-2.9,23.1-2.9,26.8s-.4,8.4,4.1,12.9,5.3,12.7-1.3,15.8c-6.6,3.2-13.4,4.6-16.3,19.3-2.9,14.7-7.3,23.8-16,15.7-8.7-8-34.4-25.1-45.2-6.5-10.8,18.6-19,25.6-2.2,50.8,16.7,25.2,37.7,42.4,52.2,40.1,14.5-2.3,25.5-9.7,27,.2,1.5,9.9-1.8,11.4-3,14.5-1.3,3.1-6.7,17.6-3.6,25.5,3.1,7.9,9.1,18.9,9.3,31.8l5.2,24.7,24.4-1.6,30-11.4c6.6-6.4,11.5-7.3,15-5.7v-6.8l-5-11,14-11h8l7,6,8-6,15-13.7,12-6.8-28-17.2,2-16.3s-17-8.4-6-19.7c0,0,11-18.3-9-27.3h-10l28-33s14,0,7-10c0,0,0-4-16-9,0,0-25,0-14-51,0,0,4-11.7,14-15.8l20-40.2,2-16h22l17,33,13-4s14,9,28-1c0,0,25-7,6-28,0,0-13-3-10-22Z" />
    </clipPath>
    <clipPath id="clippath-1">
      <rect class="st0" x="161" y="355.6" width="72" height="83.5" />
    </clipPath>
    <linearGradient id="linear-gradient" x1="182.1" y1="-564.9" x2="212.6" y2="-565.1"
      gradientTransform="translate(0 -173.4) scale(1 -1)" gradientUnits="userSpaceOnUse">
      <stop offset="0" stop-color="#2bcb7e" />
      <stop offset="1" stop-color="#37a8e2" />
    </linearGradient>
    <filter id="drop-shadow-2" x="161" y="68" width="473" height="785" filterUnits="userSpaceOnUse">
      <feOffset dx="0" dy="0" />
      <feGaussianBlur result="blur1" stdDeviation="20" />
      <feFlood flood-color="#000" flood-opacity=".4" />
      <feComposite in2="blur1" operator="in" />
      <feComposite in="SourceGraphic" />
    </filter>
    <clipPath id="clippath-2">
      <path class="st0"
        d="M543.2,128.3c-.8.8-1.9,1.4-3.1,1.8-9.2,2.4-16.2-9.3-22.5,13.1s-14.5,11.7-25.9.8-24.2-13.2-41.2-6.9c-17,6.2-23.5,31.7-28.5,41.7s-6.5,1.7-12.1,17.2c-5.6,15.5-13.4,16.4-18.7,18.1s-12.6,2.1-24.7,10.2c-6.4,4.3-19.7,6.8-30.9,8.3,0,0,0,0,0,0v15.9l17,34-1,50c-3,19,10,22,10,22,19,21-6,28-6,28-14,10-28,1-28,1l-13,4-17-33h-22l-2,16-20,40.2c-10,4.2-14,15.8-14,15.8-11,51,14,51,14,51,16,5,16,9,16,9,7,10-7,10-7,10l-28,33h10c20,9,9,27.3,9,27.3-11,11.3,6,19.7,6,19.7l-2,16.3,28,17.2-12,6.8-15,13.7-8,6-7-6h-8l-14,11,5,11v6.8c7.2,3.3,9,17.2,9,17.2,16-4,14,14,14,14-10,26,12,32,12,32h28l22,14v54c38,8,46-16,46-16l-10-22,12-10v-22l-18-26c-12-22,18-29.4,18-29.4h19l16-6.4,12,10.9s13-2,7-23l-8-24h-13l4.3-22s6.3-5,0-20l-6.3-17-21.9-13,9.9-28.2h13.4s14.8-1.8,23.2-13.8c0,0,1.4-6,9.4-7,0,0,12-2,21-27,0,0,5-7,14-6h15l7-8h9l7,12v16l18.3,13,15.2-13-15.2-14v-14l15.2-16.4v-58.6l-10.5-14-4.7-15s-3.3-13,7.7-21v-30l-7.7-25,4.7-11-16-18,11.3-18s15.8-4,15.2-16c0,0,.5-6.8,5.5-7.4v-16.6l37-52-30.3-13.1Z" />
    </clipPath>
    <clipPath id="clippath-3">
      <rect class="st0" x="336.4" y="401.1" width="72" height="83.5" />
    </clipPath>
    <linearGradient id="linear-gradient1" x1="357.5" y1="-610.4" x2="388" y2="-610.6"
      gradientTransform="translate(0 -173.4) scale(1 -1)" gradientUnits="userSpaceOnUse">
      <stop offset="0" stop-color="#2bcb7e" />
      <stop offset="1" stop-color="#37a8e2" />
    </linearGradient>
    <filter id="drop-shadow-3" x="444" y="0" width="447" height="460" filterUnits="userSpaceOnUse">
      <feOffset dx="0" dy="0" />
      <feGaussianBlur result="blur2" stdDeviation="20" />
      <feFlood flood-color="#000" flood-opacity=".4" />
      <feComposite in2="blur2" operator="in" />
      <feComposite in="SourceGraphic" />
    </filter>
    <clipPath id="clippath-4">
      <path class="st0"
        d="M829.5,162c-3.9-17.8-16.7-24.7-19.9-26-3.2-1.3-4.9-1.9-9.6-5-4.7-3-15.6-17-22.7-25.6s-16.2-7.7-21.3-8.3c-5.2-.6-6.5-3.3-24.7.1-18.1,3.5-27.9,6.5-37.4,3-9.5-3.6-17.9-15.7-23.8-23.9s-7.8-12-17.2-15.2-15.3,2.6-16.9,4.6c-1.7,1.9-3.9,5.4-8.2,4.7-4.3-.6-13,4.3-22.9,10.6-9.9,6.3-15.5,8.9-21.5,10.7s-8.7-3.8-14.5-12.6c-5.7-8.8-11.5-10-14.2-10.5s-4.5-.7-10.9-2.7c-6.4-1.9-7.5,3.8-8.9,6.9-1.4,3.2-4.4,5.2-5.8,8.9-1.4,3.7,2.4,11.7,3.8,13.4s6.2,4.9,10,9.7c3.3,4.2,5.6,18.1.3,23.3l30.3,13.1-37,52v16.6c-5,.6-5.5,7.4-5.5,7.4.5,12-15.2,16-15.2,16l-11.3,18,16,18-4.7,11,7.7,25v30c-11,8-7.7,21-7.7,21l4.7,15,10.5,14v13.6l21.1-10.6s2.7-12.7,10.7-12l10.7-11.3v-8.7l-4-9.3,8-25.3v-22h26l20.7-8.7h22.8s5.8,10,15.2,4c0,0,4-4,17.3-4l7.3-6.7v-16s8.1-4.7,14.7,0l10.3-2.1v-6.6l21.7-14.7h9l25-20.7h30.6c6.7-11.9,17-22.5,22.9-27.9,7.6-7,12.4-16.8,8.5-34.6Z" />
    </clipPath>
    <clipPath id="clippath-5">
      <rect class="st0" x="607.2" y="166.6" width="72" height="83.5" />
    </clipPath>
    <linearGradient id="linear-gradient2" x1="628.4" y1="-375.9" x2="658.8" y2="-376.1"
      xlink:href="#linear-gradient" />
    <filter id="drop-shadow-4" x="543" y="164" width="333" height="337" filterUnits="userSpaceOnUse">
      <feOffset dx="0" dy="0" />
      <feGaussianBlur result="blur3" stdDeviation="20" />
      <feFlood flood-color="#000" flood-opacity=".4" />
      <feComposite in2="blur3" operator="in" />
      <feComposite in="SourceGraphic" />
    </filter>
    <clipPath id="clippath-6">
      <path class="st0"
        d="M806.9,333.8s16.7-18-7.3-12l-2.7-8s-14.9-8-1.3-17.3l8.7-11.8c-2.3-1.4-4.5-3.2-6.5-5.2-15.5-16.2-9.6-28.5-4.4-44.3,1.2-3.6,2.9-7.3,4.9-10.8,0,0,0,0,0,.1h-30.6l-25,20.7h-9l-21.7,14.7v6.6l-10.3,2.1c-6.6-4.7-14.7,0-14.7,0v16l-7.3,6.7c-13.3,0-17.3,4-17.3,4-9.3,6-15.2-4-15.2-4h-22.8l-20.7,8.7h-.4v12.4l6.2,6.2,11.5,40.7,1.3,20.7h11.3v10l7.3,6c18,0,23.3,14.8,23.3,14.8l23.3,9.2v10h6l11.7,10.6h43l18-32.6s8-28.7,14-26.7c0,0,8.7,0,8.4,8.7,0,0,1.6,10,8.3,0v-6l15.3,4,3.3-21.3-8.7-32.7Z" />
    </clipPath>
    <clipPath id="clippath-7">
      <rect class="st0" x="678.2" y="296.6" width="72" height="83.5" />
    </clipPath>
    <linearGradient id="linear-gradient3" x1="699.4" y1="-505.9" x2="729.8" y2="-506.1"
      xlink:href="#linear-gradient" />
    <filter id="drop-shadow-5" x="688" y="192" width="344" height="482" filterUnits="userSpaceOnUse">
      <feOffset dx="0" dy="0" />
      <feGaussianBlur result="blur4" stdDeviation="20" />
      <feFlood flood-color="#000" flood-opacity=".4" />
      <feComposite in2="blur4" operator="in" />
      <feComposite in="SourceGraphic" />
    </filter>
    <clipPath id="clippath-8">
      <path class="st0"
        d="M970.2,306.5c2.7-11,.5-27-11.8-36.1-12.3-9.1-24.4-20.6-57-17-32.7,3.6-39.7,18.9-48.5,28.9-7.7,8.8-32.3,12.4-48.7,2.3l-8.7,11.8c-13.5,9.3,1.3,17.3,1.3,17.3l2.7,8c24-6,7.3,12,7.3,12l8.7,32.7-3.3,21.3-15.3-4v6c-6.7,10-8.3,0-8.3,0,.4-8.7-8.4-8.7-8.4-8.7-6-2-14,26.7-14,26.7l-17.3,31.4,9.3,15.9c-4,17.3,4.4,22,4.4,22l-3.7,14,3.7,20h35.6v16.7l-6,6.7c-9.3,2.7-8,21.7-8,21.7-.7,9.1-9.3,12.9-9.3,12.9v20l-12.3,3.6,7.3,21.1c4.8-3.3,14-7.8,24.3-3.9,0,0,12.7,6.4,21.3-1.6l24,4.2,20.7-7.7s9.3-5.8,13.3-16.4c0,0,2.7-20.6,11.3-23l30.7-21.4c-.7-6.8.7-12.4,3.3-16.3,5.1-7.7,10.5-2.3,19-14.1,8.5-11.8,10.2-27.6,16.3-46.3,6.1-18.7,8.4-47.4,7.9-62.4s.7-35.7,3.9-41.7c3.1-6,6.7-20,2.9-28.7-3.8-8.7-1.3-17.1,1.4-28.1Z" />
    </clipPath>
    <clipPath id="clippath-9">
      <rect class="st0" x="826.4" y="391.1" width="72" height="83.5" />
    </clipPath>
    <linearGradient id="linear-gradient4" x1="847.5" y1="-600.4" x2="878" y2="-600.6"
      xlink:href="#linear-gradient1" />
    <filter id="drop-shadow-6" x="362" y="239" width="404" height="634" filterUnits="userSpaceOnUse">
      <feOffset dx="0" dy="0" />
      <feGaussianBlur result="blur5" stdDeviation="20" />
      <feFlood flood-color="#000" flood-opacity=".4" />
      <feComposite in2="blur5" operator="in" />
      <feComposite in="SourceGraphic" />
    </filter>
    <clipPath id="clippath-10">
      <path class="st0"
        d="M693.5,429.8h-6v-10l-23.3-9.2s-5.3-14.8-23.3-14.8l-7.3-6v-10h-11.3l-1.3-20.7-11.5-40.7-6.2-6.2v-12.4h-25.6v22l-8,25.3,4,9.3v8.7l-10.7,11.3c-8-.7-10.7,12-10.7,12l-21.1,10.6v45l-15.2,16.4v14l15.2,14-15.2,13v10.3h-11.3l-19,32-10,16h-14c-13.3.7-5.8,16.7-5.8,16.7,6.2,2.7,11.8,40.3,11.8,40.3l2,13.1,20,25.3-4,12.7-10.7-3.3v7.3l-13.3,20.7v10c-3.3,14-17.3,3.3-17.3,3.3h-14c-16.7,1.3-2.7,12.7-2.7,12.7l-3.2,24.7,3.2-.7c26-10,42,20,42,20h32l22,28,20.8,22c11.5.8,16.8-1.6,19.2-4.7l1.3-2.7c1.1-4.2-1.2-8.5-1.2-8.5v-26l-14.2-16c-16.2-32,12.2-42,12.2-42l-6-20c-1.9-2.4-3.2-4.5-4.2-6.4l-7.1,5.7-16.7-20,50.7-45.3s.7-13.7,13.3-16.5c0,0,14.7,7.6,22-7l25.3-41.8,13.3-4.4,12-20.3s11.3-1.6,13.3-14.2l8-21.2s.7-8,9.3-8c0,0,12.1-1.3,6.7-20l-5.4-21.3,9-11.4-11.7-10.6Z" />
    </clipPath>
    <clipPath id="clippath-11">
      <rect class="st0" x="546" y="465.6" width="72" height="83.5" />
    </clipPath>
    <linearGradient id="linear-gradient5" x1="567.1" y1="-674.9" x2="597.6" y2="-675.1"
      xlink:href="#linear-gradient" />
    <filter id="drop-shadow-7" x="308" y="400" width="268" height="406" filterUnits="userSpaceOnUse">
      <feOffset dx="0" dy="0" />
      <feGaussianBlur result="blur6" stdDeviation="20" />
      <feFlood flood-color="#000" flood-opacity=".4" />
      <feComposite in2="blur6" operator="in" />
      <feComposite in="SourceGraphic" />
    </filter>
    <clipPath id="clippath-12">
      <path class="st0"
        d="M497.5,472.5l-7-12h-9l-7,8h-15c-9-1-14,6-14,6-9,25-21,27-21,27-8,1-9.4,7-9.4,7-8.4,12-23.2,13.8-23.2,13.8h-13.4l-9.9,28.2,21.9,13,6.3,17c6.3,15,0,20,0,20l-4.3,22h13l8,24c6,21-7,23-7,23l-12-10.9-16,6.4h6.9l18.1,25.4-4,22c-24,14-10,28-10,28,4.8,8.1,26.5,4.4,34.8,2.7l3.2-24.7s-14-11.4,2.7-12.7h14s14,10.7,17.3-3.3v-10l13.3-20.7v-7.3l10.7,3.3,4-12.7-20-25.3-2-13.1s-5.5-37.6-11.8-40.3c0,0-7.6-16,5.8-16.7h14l10-16,19-32h11.3v-10.3l-18.3-13v-16Z" />
    </clipPath>
    <clipPath id="clippath-13">
      <rect class="st0" x="396" y="535.6" width="72" height="83.5" />
    </clipPath>
    <linearGradient id="linear-gradient6" x1="417.1" y1="-744.9" x2="447.6" y2="-745.1"
      xlink:href="#linear-gradient" />
    <filter id="drop-shadow-8" x="467" y="379" width="392" height="373" filterUnits="userSpaceOnUse">
      <feOffset dx="0" dy="0" />
      <feGaussianBlur result="blur7" stdDeviation="20" />
      <feFlood flood-color="#000" flood-opacity=".4" />
      <feComposite in2="blur7" operator="in" />
      <feComposite in="SourceGraphic" />
    </filter>
    <clipPath id="clippath-14">
      <path class="st0"
        d="M758.9,491.1l3.7-14s-8.4-4.7-4.4-22l-9.3-15.9-.7,1.2h-43l-9,11.4,5.4,21.3c5.4,18.7-6.7,20-6.7,20-8.7,0-9.3,8-9.3,8l-8,21.2c-2,12.5-13.3,14.2-13.3,14.2l-12,20.3-13.3,4.4-25.3,41.8c-7.3,14.5-22,7-22,7-12.7,2.8-13.3,16.5-13.3,16.5l-50.7,45.3,16.7,20,7.1-5.7h0c-6.3-12.2,4.2-13.8,4.2-13.8,8-16.2,44,0,44,0,10,17.8,26,6.2,26,6.2,14.6-12.8,25.8-2.3,27.7-.3,5.2-.1,15.7-1.9,19.6-13.7,0,0,6-7.7,18-5.9,0,0,20.7-.8,28-14.1,0,0,4-15.3,19.3-10.7l12.7,12.7,6-9.3s-8.6-13.3,5.7-15.3l8.3-5.1-8.3-24,12.3-3.6v-20s8.7-3.8,9.3-12.9c0,0-1.3-19.1,8-21.7l6-6.7v-16.7h-35.6l-3.7-20Z" />
    </clipPath>
    <clipPath id="clippath-15">
      <rect class="st0" x="639" y="531.2" width="72" height="83.5" />
    </clipPath>
    <linearGradient id="linear-gradient7" x1="660.2" y1="-740.5" x2="690.6" y2="-740.7"
      xlink:href="#linear-gradient1" />
    <filter id="drop-shadow-9" x="593" y="484" width="406" height="397" filterUnits="userSpaceOnUse">
      <feOffset dx="0" dy="0" />
      <feGaussianBlur result="blur8" stdDeviation="20" />
      <feFlood flood-color="#000" flood-opacity=".4" />
      <feComposite in2="blur8" operator="in" />
      <feComposite in="SourceGraphic" />
    </filter>
    <clipPath id="clippath-16">
      <path class="st0"
        d="M923.8,566.5c-5-8.4-7.5-15.9-8.2-22.4l-30.7,21.4c-8.7,2.4-11.3,23-11.3,23-4,10.7-13.3,16.4-13.3,16.4l-20.7,7.7-24-4.2c-8.7,7.9-21.3,1.6-21.3,1.6-10.4-4-19.5.5-24.3,3.9l1,2.9-8.3,5.1c-14.3,2-5.7,15.3-5.7,15.3l-6,9.3-12.7-12.7c-15.3-4.7-19.3,10.7-19.3,10.7-7.3,13.3-28,14.1-28,14.1-12-1.9-18,5.9-18,5.9-3.9,11.8-14.4,13.6-19.6,13.7.2.2.3.3.3.3l9.1,13c25.1,13,0,27,0,27v26h8.9l6,12-6,18c-20,20,0,38,0,38,14,18,44,0,44,0,10-10,14-38,14-38l16-16h26c24,0,30-8,30-8l26-30c8-22,37.8-16,37.8-16l10.2-13h29.5c3.2-4.7,7.5-11,12.9-19.1,13.9-20.6,16.3-24,16.3-24,5.8-11.9,4-30.3,3.4-37.5-.6-7.2-3.5-27.3-13.8-44.4Z" />
    </clipPath>
    <clipPath id="clippath-17">
      <rect class="st0" x="772" y="617" width="72" height="83.5" />
    </clipPath>
    <linearGradient id="linear-gradient8" x1="793.2" y1="-826.2" x2="823.6" y2="-826.5"
      xlink:href="#linear-gradient" />
  </defs>
  <path class="st5"
    d="M157.1,678l24.4-1.6,30-11.4c20-19.4,24,11.4,24,11.4,16-4,14,14,14,14-10,26,12,32,12,32h28l22,14v54c38,8,46-16,46-16l-10-22,12-10v-22l-18-26c-12-22,18-29.4,18-29.4h25.9l18.1,25.4-4,22c-24,14-10,28-10,28,6,10,38,2,38,2,26-10,42,20,42,20h32l22,28,20.8,22c28.8,2,19.2-16,19.2-16v-26l-14.2-16c-16.2-32,12.2-42,12.2-42l-6-20c-14-18,0-20.2,0-20.2,8-16.2,44,0,44,0,10,17.8,26,6.2,26,6.2,16-14,28,0,28,0l9.1,13c25.1,13,0,27,0,27v26h8.9l6,12-6,18c-20,20,0,38,0,38,14,18,44,0,44,0,10-10,14-38,14-38l16-16h26c24,0,30-8,30-8l26-30c8-22,37.8-16,37.8-16l10.2-13h29.5c3.2-4.7,7.5-11,12.9-19.1,13.9-20.6,16.3-24,16.3-24,5.8-11.9,4-30.3,3.4-37.5-.6-7.2-3.5-27.3-13.8-44.4-10.3-17.1-10-31-4.9-38.7s10.5-2.3,19-14.1c8.5-11.8,10.2-27.6,16.3-46.3,6.1-18.7,8.4-47.4,7.9-62.4s.7-35.7,3.9-41.7,6.7-20,2.9-28.7c-3.8-8.7-1.3-17.1,1.4-28.1s.5-27-11.8-36.1c-12.3-9.1-24.4-20.6-57-17-32.7,3.6-39.7,18.9-48.5,28.9-8.8,10-39.7,13.3-55.2-2.9-15.5-16.2-9.6-28.5-4.4-44.3,5.2-15.9,20.1-31.5,27.7-38.5,7.6-7,12.4-16.8,8.5-34.6-3.9-17.8-16.7-24.7-19.9-26s-4.9-1.9-9.6-5c-4.7-3-15.6-17-22.7-25.6-7.1-8.6-16.2-7.7-21.3-8.3-5.2-.6-6.5-3.3-24.7.1-18.1,3.5-27.9,6.5-37.4,3-9.5-3.6-17.9-15.7-23.8-23.9s-7.8-12-17.2-15.2-15.3,2.6-16.9,4.6c-1.7,1.9-3.9,5.4-8.2,4.7-4.3-.6-13,4.3-22.9,10.6s-15.5,8.9-21.5,10.7-8.7-3.8-14.5-12.6c-5.7-8.8-11.5-10-14.2-10.5s-4.5-.7-10.9-2.7c-6.4-1.9-7.5,3.8-8.9,6.9-1.4,3.2-4.4,5.2-5.8,8.9-1.4,3.7,2.4,11.7,3.8,13.4,1.4,1.8,6.2,4.9,10,9.7s6.4,22.7-2.8,25-16.2-9.3-22.5,13.1c-6.3,22.4-14.5,11.7-25.9.8s-24.2-13.2-41.2-6.9c-17,6.2-23.5,31.7-28.5,41.7s-6.5,1.7-12.1,17.2c-5.6,15.5-13.4,16.4-18.7,18.1s-12.6,2.1-24.7,10.2c-12.1,8.1-49.5,10-49.5,10h0c-.7,0-1.5,0-2.4,0-21.4,1.7-42.7-10.1-42.7-10.1v.3s0,0,0,0v-.3s-12.7-6.5-20.3-11.4-14.1-2.4-20.6,0-17.7,6.3-22.6,7.9c-4.9,1.6-13.6,11.1-19.1,22.5-5.4,11.3-7.5,20.1-7.7,24.2-.2,4.1-.3,12.3-4.8,20.3-4.5,8-17.2,26.1-18.6,40.2-1.4,14.1-1.1,21.6.2,28.9,1.3,7.2.9,16.3-2.3,22.7-3.2,6.4-7,10.8-6.1,26.9,0,0-2.9,23.1-2.9,26.8s-.4,8.4,4.1,12.9,5.3,12.7-1.3,15.8c-6.6,3.2-13.4,4.6-16.3,19.3-2.9,14.7-7.3,23.8-16,15.7-8.7-8-34.4-25.1-45.2-6.5-10.8,18.6-19,25.6-2.2,50.8,16.7,25.2,37.7,42.4,52.2,40.1,14.5-2.3,25.5-9.7,27,.2,1.5,9.9-1.8,11.4-3,14.5-1.3,3.1-6.7,17.6-3.6,25.5,3.1,7.9,9.1,18.9,9.3,31.8" />
  <g>
    <path class="st1"
      d="M351.5,332.5l1-50-17-34v-15.9c-10.2,1.3-18.6,1.7-18.6,1.7h0c-.7,0-1.5,0-2.4,0-21.4,1.7-42.7-10.1-42.7-10.1v.3s0,0,0,0v-.3s-12.7-6.5-20.3-11.4-14.1-2.4-20.6,0-17.7,6.3-22.6,7.9c-4.9,1.6-13.6,11.1-19.1,22.5-5.4,11.3-7.5,20.1-7.7,24.2-.2,4.1-.3,12.3-4.8,20.3-4.5,8-17.2,26.1-18.6,40.2-1.4,14.1-1.1,21.6.2,28.9,1.3,7.2.9,16.3-2.3,22.7-3.2,6.4-7,10.8-6.1,26.9,0,0-2.9,23.1-2.9,26.8s-.4,8.4,4.1,12.9,5.3,12.7-1.3,15.8c-6.6,3.2-13.4,4.6-16.3,19.3-2.9,14.7-7.3,23.8-16,15.7-8.7-8-34.4-25.1-45.2-6.5-10.8,18.6-19,25.6-2.2,50.8,16.7,25.2,37.7,42.4,52.2,40.1,14.5-2.3,25.5-9.7,27,.2,1.5,9.9-1.8,11.4-3,14.5-1.3,3.1-6.7,17.6-3.6,25.5,3.1,7.9,9.1,18.9,9.3,31.8l5.2,24.7,24.4-1.6,30-11.4c6.6-6.4,11.5-7.3,15-5.7v-6.8l-5-11,14-11h8l7,6,8-6,15-13.7,12-6.8-28-17.2,2-16.3s-17-8.4-6-19.7c0,0,11-18.3-9-27.3h-10l28-33s14,0,7-10c0,0,0-4-16-9,0,0-25,0-14-51,0,0,4-11.7,14-15.8l20-40.2,2-16h22l17,33,13-4s14,9,28-1c0,0,25-7,6-28,0,0-13-3-10-22Z" />
  </g>
  <g>
    <path class="st2"
      d="M543.2,128.3c-.8.8-1.9,1.4-3.1,1.8-9.2,2.4-16.2-9.3-22.5,13.1s-14.5,11.7-25.9.8-24.2-13.2-41.2-6.9c-17,6.2-23.5,31.7-28.5,41.7s-6.5,1.7-12.1,17.2c-5.6,15.5-13.4,16.4-18.7,18.1s-12.6,2.1-24.7,10.2c-6.4,4.3-19.7,6.8-30.9,8.3,0,0,0,0,0,0v15.9l17,34-1,50c-3,19,10,22,10,22,19,21-6,28-6,28-14,10-28,1-28,1l-13,4-17-33h-22l-2,16-20,40.2c-10,4.2-14,15.8-14,15.8-11,51,14,51,14,51,16,5,16,9,16,9,7,10-7,10-7,10l-28,33h10c20,9,9,27.3,9,27.3-11,11.3,6,19.7,6,19.7l-2,16.3,28,17.2-12,6.8-15,13.7-8,6-7-6h-8l-14,11,5,11v6.8c7.2,3.3,9,17.2,9,17.2,16-4,14,14,14,14-10,26,12,32,12,32h28l22,14v54c38,8,46-16,46-16l-10-22,12-10v-22l-18-26c-12-22,18-29.4,18-29.4h19l16-6.4,12,10.9s13-2,7-23l-8-24h-13l4.3-22s6.3-5,0-20l-6.3-17-21.9-13,9.9-28.2h13.4s14.8-1.8,23.2-13.8c0,0,1.4-6,9.4-7,0,0,12-2,21-27,0,0,5-7,14-6h15l7-8h9l7,12v16l18.3,13,15.2-13-15.2-14v-14l15.2-16.4v-58.6l-10.5-14-4.7-15s-3.3-13,7.7-21v-30l-7.7-25,4.7-11-16-18,11.3-18s15.8-4,15.2-16c0,0,.5-6.8,5.5-7.4v-16.6l37-52-30.3-13.1Z" />
  </g>
  <g>
    <path
      d="M829.5,162c-3.9-17.8-16.7-24.7-19.9-26-3.2-1.3-4.9-1.9-9.6-5-4.7-3-15.6-17-22.7-25.6s-16.2-7.7-21.3-8.3c-5.2-.6-6.5-3.3-24.7.1-18.1,3.5-27.9,6.5-37.4,3-9.5-3.6-17.9-15.7-23.8-23.9s-7.8-12-17.2-15.2-15.3,2.6-16.9,4.6c-1.7,1.9-3.9,5.4-8.2,4.7-4.3-.6-13,4.3-22.9,10.6-9.9,6.3-15.5,8.9-21.5,10.7s-8.7-3.8-14.5-12.6c-5.7-8.8-11.5-10-14.2-10.5s-4.5-.7-10.9-2.7c-6.4-1.9-7.5,3.8-8.9,6.9-1.4,3.2-4.4,5.2-5.8,8.9-1.4,3.7,2.4,11.7,3.8,13.4s6.2,4.9,10,9.7c3.3,4.2,5.6,18.1.3,23.3l30.3,13.1-37,52v16.6c-5,.6-5.5,7.4-5.5,7.4.5,12-15.2,16-15.2,16l-11.3,18,16,18-4.7,11,7.7,25v30c-11,8-7.7,21-7.7,21l4.7,15,10.5,14v13.6l21.1-10.6s2.7-12.7,10.7-12l10.7-11.3v-8.7l-4-9.3,8-25.3v-22h26l20.7-8.7h22.8s5.8,10,15.2,4c0,0,4-4,17.3-4l7.3-6.7v-16s8.1-4.7,14.7,0l10.3-2.1v-6.6l21.7-14.7h9l25-20.7h30.6c6.7-11.9,17-22.5,22.9-27.9,7.6-7,12.4-16.8,8.5-34.6Z"
      class="st14" />
  </g>
  <g>
    <path class="st3"
      d="M806.9,333.8s16.7-18-7.3-12l-2.7-8s-14.9-8-1.3-17.3l8.7-11.8c-2.3-1.4-4.5-3.2-6.5-5.2-15.5-16.2-9.6-28.5-4.4-44.3,1.2-3.6,2.9-7.3,4.9-10.8,0,0,0,0,0,.1h-30.6l-25,20.7h-9l-21.7,14.7v6.6l-10.3,2.1c-6.6-4.7-14.7,0-14.7,0v16l-7.3,6.7c-13.3,0-17.3,4-17.3,4-9.3,6-15.2-4-15.2-4h-22.8l-20.7,8.7h-.4v12.4l6.2,6.2,11.5,40.7,1.3,20.7h11.3v10l7.3,6c18,0,23.3,14.8,23.3,14.8l23.3,9.2v10h6l11.7,10.6h43l18-32.6s8-28.7,14-26.7c0,0,8.7,0,8.4,8.7,0,0,1.6,10,8.3,0v-6l15.3,4,3.3-21.3-8.7-32.7Z" />
  </g>
  <g>
    <path class="st41"
      d="M970.2,306.5c2.7-11,.5-27-11.8-36.1-12.3-9.1-24.4-20.6-57-17-32.7,3.6-39.7,18.9-48.5,28.9-7.7,8.8-32.3,12.4-48.7,2.3l-8.7,11.8c-13.5,9.3,1.3,17.3,1.3,17.3l2.7,8c24-6,7.3,12,7.3,12l8.7,32.7-3.3,21.3-15.3-4v6c-6.7,10-8.3,0-8.3,0,.4-8.7-8.4-8.7-8.4-8.7-6-2-14,26.7-14,26.7l-17.3,31.4,9.3,15.9c-4,17.3,4.4,22,4.4,22l-3.7,14,3.7,20h35.6v16.7l-6,6.7c-9.3,2.7-8,21.7-8,21.7-.7,9.1-9.3,12.9-9.3,12.9v20l-12.3,3.6,7.3,21.1c4.8-3.3,14-7.8,24.3-3.9,0,0,12.7,6.4,21.3-1.6l24,4.2,20.7-7.7s9.3-5.8,13.3-16.4c0,0,2.7-20.6,11.3-23l30.7-21.4c-.7-6.8.7-12.4,3.3-16.3,5.1-7.7,10.5-2.3,19-14.1,8.5-11.8,10.2-27.6,16.3-46.3,6.1-18.7,8.4-47.4,7.9-62.4s.7-35.7,3.9-41.7c3.1-6,6.7-20,2.9-28.7-3.8-8.7-1.3-17.1,1.4-28.1Z" />
  </g>
  <g>
    <path class="st20"
      d="M693.5,429.8h-6v-10l-23.3-9.2s-5.3-14.8-23.3-14.8l-7.3-6v-10h-11.3l-1.3-20.7-11.5-40.7-6.2-6.2v-12.4h-25.6v22l-8,25.3,4,9.3v8.7l-10.7,11.3c-8-.7-10.7,12-10.7,12l-21.1,10.6v45l-15.2,16.4v14l15.2,14-15.2,13v10.3h-11.3l-19,32-10,16h-14c-13.3.7-5.8,16.7-5.8,16.7,6.2,2.7,11.8,40.3,11.8,40.3l2,13.1,20,25.3-4,12.7-10.7-3.3v7.3l-13.3,20.7v10c-3.3,14-17.3,3.3-17.3,3.3h-14c-16.7,1.3-2.7,12.7-2.7,12.7l-3.2,24.7,3.2-.7c26-10,42,20,42,20h32l22,28,20.8,22c11.5.8,16.8-1.6,19.2-4.7l1.3-2.7c1.1-4.2-1.2-8.5-1.2-8.5v-26l-14.2-16c-16.2-32,12.2-42,12.2-42l-6-20c-1.9-2.4-3.2-4.5-4.2-6.4l-7.1,5.7-16.7-20,50.7-45.3s.7-13.7,13.3-16.5c0,0,14.7,7.6,22-7l25.3-41.8,13.3-4.4,12-20.3s11.3-1.6,13.3-14.2l8-21.2s.7-8,9.3-8c0,0,12.1-1.3,6.7-20l-5.4-21.3,9-11.4-11.7-10.6Z" />
  </g>
  <g>
    <path class="st40"
      d="M497.5,472.5l-7-12h-9l-7,8h-15c-9-1-14,6-14,6-9,25-21,27-21,27-8,1-9.4,7-9.4,7-8.4,12-23.2,13.8-23.2,13.8h-13.4l-9.9,28.2,21.9,13,6.3,17c6.3,15,0,20,0,20l-4.3,22h13l8,24c6,21-7,23-7,23l-12-10.9-16,6.4h6.9l18.1,25.4-4,22c-24,14-10,28-10,28,4.8,8.1,26.5,4.4,34.8,2.7l3.2-24.7s-14-11.4,2.7-12.7h14s14,10.7,17.3-3.3v-10l13.3-20.7v-7.3l10.7,3.3,4-12.7-20-25.3-2-13.1s-5.5-37.6-11.8-40.3c0,0-7.6-16,5.8-16.7h14l10-16,19-32h11.3v-10.3l-18.3-13v-16Z" />
  </g>
  <g>
    <path class="st15"
      d="M758.9,491.1l3.7-14s-8.4-4.7-4.4-22l-9.3-15.9-.7,1.2h-43l-9,11.4,5.4,21.3c5.4,18.7-6.7,20-6.7,20-8.7,0-9.3,8-9.3,8l-8,21.2c-2,12.5-13.3,14.2-13.3,14.2l-12,20.3-13.3,4.4-25.3,41.8c-7.3,14.5-22,7-22,7-12.7,2.8-13.3,16.5-13.3,16.5l-50.7,45.3,16.7,20,7.1-5.7h0c-6.3-12.2,4.2-13.8,4.2-13.8,8-16.2,44,0,44,0,10,17.8,26,6.2,26,6.2,14.6-12.8,25.8-2.3,27.7-.3,5.2-.1,15.7-1.9,19.6-13.7,0,0,6-7.7,18-5.9,0,0,20.7-.8,28-14.1,0,0,4-15.3,19.3-10.7l12.7,12.7,6-9.3s-8.6-13.3,5.7-15.3l8.3-5.1-8.3-24,12.3-3.6v-20s8.7-3.8,9.3-12.9c0,0-1.3-19.1,8-21.7l6-6.7v-16.7h-35.6l-3.7-20Z" />
  </g>
  <g>
    <path class="st19"
      d="M923.8,566.5c-5-8.4-7.5-15.9-8.2-22.4l-30.7,21.4c-8.7,2.4-11.3,23-11.3,23-4,10.7-13.3,16.4-13.3,16.4l-20.7,7.7-24-4.2c-8.7,7.9-21.3,1.6-21.3,1.6-10.4-4-19.5.5-24.3,3.9l1,2.9-8.3,5.1c-14.3,2-5.7,15.3-5.7,15.3l-6,9.3-12.7-12.7c-15.3-4.7-19.3,10.7-19.3,10.7-7.3,13.3-28,14.1-28,14.1-12-1.9-18,5.9-18,5.9-3.9,11.8-14.4,13.6-19.6,13.7.2.2.3.3.3.3l9.1,13c25.1,13,0,27,0,27v26h8.9l6,12-6,18c-20,20,0,38,0,38,14,18,44,0,44,0,10-10,14-38,14-38l16-16h26c24,0,30-8,30-8l26-30c8-22,37.8-16,37.8-16l10.2-13h29.5c3.2-4.7,7.5-11,12.9-19.1,13.9-20.6,16.3-24,16.3-24,5.8-11.9,4-30.3,3.4-37.5-.6-7.2-3.5-27.3-13.8-44.4Z" />
  </g>
</svg>