<svg xmlns="http://www.w3.org/2000/svg" xmlns:xlink="http://www.w3.org/1999/xlink" id="Layer_1"
  version="1.1" viewBox="0 0 1025 1105">
  <!-- Generator: Adobe Illustrator 29.1.0, SVG Export Plug-In . SVG Version: 2.1.0 Build 142)  -->
  <defs>
    <style>
      .st0, .st1 {
      fill: none;
      }

      .st2 {
      filter: url(#drop-shadow-1);
      }

      .st2, .st3 {
      fill: #86b941;
      }

      .st4 {
      filter: url(#drop-shadow-15);
      }

      .st4, .st5, .st6 {
      fill: #afe25d;
      }

      .st5 {
      filter: url(#drop-shadow-12);
      }

      .st7 {
      fill-opacity: .3;
      fill-rule: evenodd;
      }

      .st7, .st8 {
      fill: #fff;
      }

      .st9 {
      fill: url(#linear-gradient2);
      }

      .st10 {
      fill: url(#linear-gradient1);
      }

      .st11 {
      fill: url(#linear-gradient9);
      }

      .st12 {
      fill: url(#linear-gradient3);
      }

      .st13 {
      fill: url(#linear-gradient6);
      }

      .st14 {
      fill: url(#linear-gradient8);
      }

      .st15 {
      fill: url(#linear-gradient7);
      }

      .st16 {
      fill: url(#linear-gradient5);
      }

      .st17 {
      fill: url(#linear-gradient4);
      }

      .st18 {
      filter: url(#drop-shadow-3);
      }

      .st18, .st19, .st20, .st21, .st22, .st23 {
      fill: #76a831;
      }

      .st19 {
      filter: url(#drop-shadow-8);
      }

      .st20 {
      filter: url(#drop-shadow-7);
      }

      .st24 {
      fill: url(#linear-gradient13);
      }

      .st25 {
      fill: url(#linear-gradient12);
      }

      .st26 {
      fill: url(#linear-gradient15);
      }

      .st27 {
      fill: url(#linear-gradient16);
      }

      .st28 {
      fill: url(#linear-gradient11);
      }

      .st29 {
      fill: url(#linear-gradient10);
      }

      .st30 {
      fill: url(#linear-gradient14);
      }

      .st31 {
      fill: #f7feec;
      }

      .st32 {
      fill: #3f74c7;
      }

      .st33 {
      fill: url(#linear-gradient);
      }

      .st34 {
      filter: url(#drop-shadow-16);
      }

      .st34, .st35, .st36, .st37 {
      fill: #a0d557;
      }

      .st38 {
      fill: #3860ad;
      }

      .st39 {
      clip-path: url(#clippath-17);
      }

      .st40 {
      clip-path: url(#clippath-19);
      }

      .st41 {
      clip-path: url(#clippath-11);
      }

      .st42 {
      clip-path: url(#clippath-16);
      }

      .st43 {
      clip-path: url(#clippath-18);
      }

      .st44 {
      clip-path: url(#clippath-10);
      }

      .st45 {
      clip-path: url(#clippath-15);
      }

      .st46 {
      clip-path: url(#clippath-13);
      }

      .st47 {
      clip-path: url(#clippath-14);
      }

      .st48 {
      clip-path: url(#clippath-12);
      }

      .st49 {
      clip-path: url(#clippath-31);
      }

      .st50 {
      clip-path: url(#clippath-32);
      }

      .st51 {
      clip-path: url(#clippath-33);
      }

      .st52 {
      clip-path: url(#clippath-30);
      }

      .st53 {
      clip-path: url(#clippath-27);
      }

      .st54 {
      clip-path: url(#clippath-29);
      }

      .st55 {
      clip-path: url(#clippath-26);
      }

      .st56 {
      clip-path: url(#clippath-28);
      }

      .st57 {
      clip-path: url(#clippath-20);
      }

      .st58 {
      clip-path: url(#clippath-21);
      }

      .st59 {
      clip-path: url(#clippath-22);
      }

      .st60 {
      clip-path: url(#clippath-23);
      }

      .st61 {
      clip-path: url(#clippath-24);
      }

      .st62 {
      clip-path: url(#clippath-25);
      }

      .st63 {
      clip-path: url(#clippath-1);
      }

      .st64 {
      clip-path: url(#clippath-3);
      }

      .st65 {
      clip-path: url(#clippath-4);
      }

      .st66 {
      clip-path: url(#clippath-2);
      }

      .st67 {
      clip-path: url(#clippath-7);
      }

      .st68 {
      clip-path: url(#clippath-6);
      }

      .st69 {
      clip-path: url(#clippath-9);
      }

      .st70 {
      clip-path: url(#clippath-8);
      }

      .st71 {
      clip-path: url(#clippath-5);
      }

      .st1 {
      stroke: #fff;
      stroke-linecap: round;
      stroke-linejoin: round;
      stroke-width: 1.5px;
      }

      .st21 {
      filter: url(#drop-shadow-14);
      }

      .st22 {
      filter: url(#drop-shadow-11);
      }

      .st23 {
      filter: url(#drop-shadow-17);
      }

      .st3 {
      filter: url(#drop-shadow-13);
      }

      .st72 {
      filter: url(#drop-shadow-10);
      }

      .st72, .st73 {
      fill: #669525;
      }

      .st6 {
      filter: url(#drop-shadow-6);
      }

      .st74 {
      fill: #626262;
      }

      .st73 {
      filter: url(#drop-shadow-5);
      }

      .st35 {
      filter: url(#drop-shadow-9);
      }

      .st36 {
      filter: url(#drop-shadow-2);
      }

      .st37 {
      filter: url(#drop-shadow-4);
      }

      .st75 {
      clip-path: url(#clippath);
      }
    </style>
  </defs>
  <path class="st8"
    d="M858.5,632.5c22-8,6-48,6-48l13.2-10h8.1l2.7-14v-34l11.3-28-9.3-22-27.5-12s1.5-42,15.5-52c0,0,18.7-24,21.3-42,0,0,2.7-50,34.7-48h24c0,0,6,3.6,6,3.6v-39.6h-16s10-42-18-44c0,0-17.3,2-30.7,0,0,0-27.3-20-43.3-10l-20,8s11.3,30-10.3,32c0,0-31.7,4-11.7-34l11.7-20v-26l-18.3-18-33.4-14s-21.9-26.5,16.5-40l-5.9-9.5.7-3h0v-.3h12.4l2.3-3.5h.2s2.4-3.4,7.3-10.8h-29.5l-10.2,13s-29.8-6-37.8,16l-26,30s-6,8-30,8h-26l-16,16s-4,28-14,38c0,0-30,18-44,0,0,0-20-18,0-38l6-18-6-12h-8.9v-26s25.1-13.9,0-27l-9.1-13s-12-14-28,0c0,0-16,11.6-26-6.2,0,0-36-16.2-44,0,0,0-14,2.2,0,20.2l6,20s-28.4,10-12.2,42l14.2,16v26s9.6,18-19.2,16l-20.8-22-22-28h-32s-16-30-42-20c0,0-32,8-38-2,0,0-14-14,10-28l4-22-18.1-25.4h-25.9s-30,7.4-18,29.4l18,26v22l-12,10,10,22s-8,24-46,16v-54l-22-14h-28s-22-6-12-32c0,0,2-18-14-14,0,0-4-30.9-24-11.4l-30,11.4-24.4,1.6c3.2,10.6,7,20.5,9,23.7l2,4,.5.4c.3.5.6,1,.9,1.5,0,0,0,0,0,0,3.5,6.2,14,23.7,31.5,42.7,21.9,23.7,39.5,41.8,48.4,50.3s18.2,17.2,21.3,20.2,14.9,12.2,19.1,13.9,12.8,4.2,14.1,7.1-.2,10.5-3.4,14-11.2,8.8-4.3,22.6c6.8,13.8,13.5,21.6,20.9,25.3s8.5,6,10.1,8.3c1.7,2.3-.4,8.9-1.9,13.6-1.6,4.7-7.2,21.7,1.1,39.8,8.3,18.1,16.1,28.3,30.8,31.6,14.7,3.3,29.2,6.4,38.4,4.5s11.2-3.8,15-.9,5.4,11.9,4.5,15.8-2.8,2.9-4,3.4-9.3,5.4-22.6,17.8c-13.3,12.5-21.2,21.9-30.3,39.7-9.2,17.8-8.4,23.4-8.2,26.6s1.2,13.6,1.3,19,0,13.2-4.2,15.6c-3.4,1.9-6,3.1-10.1,9.1l26.4,20.8c50,6,106,133.8,106,133.8l44,6.2c18-14,34,0,34,0l22,9.1,22,6.9c16.2-9.6,28.8-7.7,37.6-3.2h0c20-33.7,4.7-44.8,4.7-44.8l-24.3-14v-20l46.3,4h22.1c28.4-24,35.6-20,35.6-20,30,8,26,36,26,36l24,36,24-6,14-30,36-54,26-12c20-8,30,16,30,16,16,22,62,18,62,18Z" />
  <path class="st8"
    d="M695.3,971.9s1.5-18,21-15l22.5-.3h54v-32.7l13.5-34.5s2.6-24,20.1-24h23.4l7.5-18v-18s3.9-2.3,9.4-3.4v-7.7l-20-14s-10-40,20-36l18-12,26-14v-34s-3.3-26-10.7-24l-13.3-20,2-24,11.3-10v-56h-22.1l-13.2,10s16,40-6,48c0,0-46,4-62-18,0,0-10-24-30-16l-26,12-36,54-14,30-24,6-24-36s4-28-26-36c0,0-7.2-4-35.6,20h-22.1l-46.3-4v20l24.3,14s15.3,11.2-4.7,44.8c9.5,5,14.4,13.2,14.4,13.2l34.4-10,25.6,10c26-6,18,28,18,28v64c14-4,24,18,24,18l9.7,32-21.7,16v64l15.3,24.9.6-.8h27.8l15-10.5Z" />
  <g>
    <path class="st2"
      d="M826.1,218.5v-26l-18.3-18-33.4-14s-21.9-26.5,16.5-40l-5.9-9.5.7-3h0v-.3h12.4l2.3-3.5h.2s2.4-3.4,7.3-10.8h-29.5l-10.2,13s-29.8-6-37.8,16l-26,30s-6,8-30,8h-26l-16,16s-4,28-14,38c0,0-30,18-44,0,0,0-1.8-1.6-3.8-4.5v25.2l28.4,22.7v14l-4.9,14.7h-20.5c-2.8,9.4-12.2,15.2-18,17.9,0,0,0,0,0,0v26.5c9.5,23.9,29.9,24.9,29.9,24.9v.7h18.9l12.1-10.8c10.8-8.1,11.7,4.5,11.7,4.5l-2.6,13.7h30.2c12.7,10.8,35.7-12.2,35.7-12.2,18.4-7.3,16.3,13.3,16.3,13.3v37.7c-.7,8,1.6,10.4,3.9,10.9l4-.6,15.1-10.3s-3.7-11,7.6-11.6l24.3-27.2s-10.4-23.5,12.3-30.2c0,0,7.3-.6,0-15.3,0,0-12.2-16,3.2-21.3l22.7-18h12.4l3-7.6c-7.2-2.4-14-10.1-1.9-33l11.7-20Z" />
  </g>
  <g>
    <path class="st36"
      d="M460,282.5v-10l-17.5-36h-8.5v-36l-7.5-8-22-28h-32s-16-30-42-20c0,0-32,8-38-2,0,0-14-14,10-28l4-22-18.1-25.4h-25.9s-30,7.4-18,29.4l18,26v22l-12,10,10,22s-8,24-46,16v-54l-22-14h-28s-22-6-12-32c0,0,2-18-14-14,0,0-4-30.9-24-11.4l-30,11.4-24.4,1.6c3.2,10.6,7,20.5,9,23.7l2,4,.5.4c.3.5.6,1,.9,1.5,0,0,0,0,0,0,3.5,6.2,14,23.7,31.5,42.7,21.9,23.7,39.5,41.8,48.4,50.3,8.8,8.4,18.2,17.2,21.3,20.2s14.9,12.2,19.1,13.9,12.8,4.2,14.1,7.1-.2,10.5-3.4,14-11.2,8.8-4.3,22.6c6.8,13.8,13.5,21.6,20.9,25.3s8.5,6,10.1,8.3c1.7,2.3-.4,8.9-1.9,13.6-1.6,4.7-7.2,21.7,1.1,39.8,8.3,18.1,16.1,28.3,30.8,31.6,14.7,3.3,29.2,6.4,38.4,4.5,9.2-1.9,11.2-3.8,15-.9s5.4,11.9,4.5,15.8-2.8,2.9-4,3.4-9.3,5.4-22.6,17.8c-13.3,12.5-21.2,21.9-30.3,39.7-9.2,17.8-8.4,23.4-8.2,26.6s1.2,13.6,1.3,19,0,13.2-4.2,15.6c-3.4,1.9-6,3.1-10.1,9.1l26.4,20.8c33,4,68.5,60.8,89,99.2l13-11.2s-2-16,6-20l8-10.8v-21.7s-13-10.7,0-19.6l7-12v-41l-10-5,2-42.4,8-7.3v-12.7l-22.1-17.5,5.1-43.1-12-25.8,6.9-6.2h22.1l17-9s11.4,1.5,11.7-18.8v-11.9l12.3-21.3-5-9,8.5-9.2,25.9-11.8Z" />
  </g>
  <g>
    <path class="st18"
      d="M570.7,235.2v-25.2c-4.6-6.6-10.1-19.5,3.8-33.5l6-18-6-12h-8.9v-26s25.1-13.9,0-27l-9.1-13s-12-14-28,0c0,0-16,11.6-26-6.2,0,0-36-16.2-44,0,0,0-14,2.2,0,20.2l6,20s-28.4,10-12.2,42l14.2,16v26s9.6,18-19.2,16l-13.2-14v36h8.5l17.5,36v10l-2.9,1.3h19.4l9.3,3.2v16.5l26.7,18.9s16,14.6,24,0c0,0,.2-16.2,14.4-16.1,0,0,18.6-5.9,22.7-19.9h20.5l4.9-14.7v-14l-28.4-22.7Z" />

  </g>
  <g>
    <path class="st37"
      d="M576.8,425.2l8.9,9.3v14.6h8.4l22.6,57.4h15.9l10.7-12.2h12.6l-6.5,12.2h35.5c18.4-1.3,26.6-14.9,26.6-14.9h32l-27.7-25.6v-17.5l15.1-17.4-15.1-18s-9.3,4.6-7.9-10.3v-37.7s2.1-20.6-16.3-13.3c0,0-22.9,23-35.7,12.2h-30.2l2.6-13.7s-.9-12.6-11.7-4.5l-12.1,10.8h-18.9v14.7l-12,8.5v19.5l8.4,16-5.3,10Z" />
  </g>
  <g>
    <path class="st73"
      d="M555.7,330.9v-26.5c-2.8,1.3-4.8,2-4.8,2-14.2-.1-14.4,16.1-14.4,16.1-8,14.6-24,0-24,0l-26.7-18.9v-16.5l-9.3-3.2h-19.4l-23.1,10.5-8.5,9.2,5,9-12.3,21.3v11.9c-.3,20.2-11.7,18.8-11.7,18.8l-17,9h-22.1l-6.9,6.2,12,25.8-5.1,43.1,22.1,17.5v12.7l-8,7.3-1.2,26.5,22.9-8s5.3-5.1,12,4.8c0,0,13.1,12.1,18.9-.7,0,0,12.1-8.3,25.9,5.4h27.9l17.7,7.8,6.9-3.1h14.7l16.7-24.4s-.2-14.7,12.6-15.6c0,0,4.1.4,10.1-6.9l19.2-19.2v-18.2l-8.9-9.3,5.3-10-8.4-16v-19.5l12-8.5v-15.3s-20.5-1.1-29.9-24.9Z" />
  </g>
  <g>
    <path class="st6"
      d="M749,587l7-25v-43.2s-21.5-.9-13.5-20.9l1-6.2h-32s-8.3,13.5-26.6,14.9h-35.5l6.5-12.2h-12.6l-10.7,12.2h-15.9l-22.6-57.4h-8.4v3.6l-19.2,19.2c-6,7.3-10.1,6.9-10.1,6.9-12.8.9-12.6,15.6-12.6,15.6l-16.7,24.4h-14.7l-6.9,3.1-17.7-7.8h-27.9c-13.9-13.8-25.9-5.4-25.9-5.4-5.8,12.8-18.9.7-18.9.7-6.7-9.9-12-4.8-12-4.8l-22.9,8-.8,16,10,5,23,16.2,6.8,19.8h23.2l17.5,15.8c13.5,10.8,17,1.7,17,1.7l28.6-18.5c15.1-6,18.9,1,18.9,1l25.5,13v-14l11.8-5.9,4,11.9v26l12.6,6.1,20.7,20.2,1.9,7c12-7.1,15.5-5.2,15.5-5.2,30,8,26,36,26,36l24,36,24-6,14-30,36-54,16.4-7.6-7.9-16Z" />
  </g>
  <g>
    <path class="st20"
      d="M372.5,704.3l44,6.2c18-14,34,0,34,0l22,9.1,22,6.9c16.2-9.6,28.8-7.7,37.6-3.2h0c20-33.7,4.7-44.8,4.7-44.8l-24.3-14v-20l46.3,4h22.1c8.5-7.1,15-11.8,20.1-14.8l-1.9-7-20.7-20.2-12.6-6.1v-26l-4-11.9-11.8,5.9v14l-25.5-13s-3.9-7-18.9-1l-28.6,18.5s-3.5,9.1-17-1.7l-17.5-15.8h-23.2l-6.8-19.8-23-16.2v41l-7,12c-13,9,0,19.6,0,19.6v21.7l-8,10.8c-8,4-6,20-6,20l-13,11.2,17,34.6Z" />
  </g>
  <g>
    <path class="st19"
      d="M948.5,286.5s10-42-18-44c0,0-17.3,2-30.7,0,0,0-27.3-20-43.3-10l-20,8s11.3,30-10.3,32c0,0-5,.6-9.7-1l-3,7.6h-12.4l-22.7,18c-15.5,5.3-3.2,21.3-3.2,21.3,7.3,14.7,0,15.3,0,15.3-22.7,6.6-12.3,30.2-12.3,30.2l-24.3,27.2c-11.3.7-7.6,11.6-7.6,11.6l-15.1,10.3,15.1,18-15.1,17.4v17.5l27.7,25.6-1,6.2c-8,20,13.5,20.9,13.5,20.9v43.2l-7,25,7.9,16,9.6-4.4c20-8,30,16,30,16,16,22,62,18,62,18,22-8,6-48,6-48l13.2-10h8.1l2.7-14v-34l11.3-28-9.3-22-27.5-12s1.5-42,15.5-52c0,0,18.7-24,21.3-42,0,0,2.7-50,34.7-48h24c0,0,6,3.6,6,3.6v-39.6h-16Z" />
  </g>
  <g>
    <path class="st35"
      d="M615,735.7l-1.6-8.1,8.7-8.3,4.7-3.7h13.7s6.3-2.3,3-6.7l-3-5.7-.3-3.7-7.3-2.7s-4.3-6.1,2-6.6l9.6-1.8,4.4-5.7h6.4l-12.4-18.7s4-28-26-36c0,0-7.2-4-35.6,20h-22.1l-46.3-4v20l24.3,14s15.3,11.2-4.7,44.8c9.5,5,14.4,13.2,14.4,13.2l34.4-10,25.6,10,8.2-.5Z" />
  </g>
  <g>
    <path class="st72"
      d="M701.7,779.7l-2.4-5.8h-5.5l-4.1-3.6,4.1-3.4v-6.7l-3-1.3v-10.7l-3-3.7,3-2.6s1-6.7-5.3-6.7l-5.3-6.7s-6.7-4.7,0-9.3l5.4-4.3v-7.7s-5.6-5,0-5.7l5-3.3.2-4h.2s14-30,14-30l36-54,26-12c20-8,30,16,30,16,16,22,62,18,62,18,22-8,6-48,6-48l13.2-10h22.1v56l-11.3,10-2,24,13.3,20s4.4-2.6,7.1,8.2h-2.1c-1.3-4.9-3.3.1-3.3.1l-3,6.7v4h-2.3v2.3l-2.7,4h-11.3v8l-2.3,3.3c-.7,2-7,0-7,0h-9.7l-6,2.2-4.4,3.5c-3.8.3-7.8-3.5-7.8-3.5-5.3-1.5-7.7,1.8-7.7,1.8-5.3,3.7-1.3,7.7-1.3,7.7l1.3,8-1.3,5.7-2.3,2.3-2.7,3.7-3.3-2.3-1.3-3.7h-4.3l-2.3,2.4-4.7,3.9c-3.3,0-3.3,3.3-3.3,3.3l-3.7,5c-2.7,2.7-7.7.3-7.7.3l-5.7-4.3c-4-2.3-5.3-.3-5.3-.3-2.7,2-5.3,0-5.3,0v-3.7l-2.7-.7-4.7-3.3c-4.3-1-6.3,1.3-6.3,1.3l-6,1-4.7-2.3h-5.3l-1,6.7c-3.3,8.3-8,6-8,6h-3l-9,9-.3,5.3c-1,3.3-4.3,2.8-4.3,2.8-2.4.2-4.4,1.9-5.8,3.8h-11.2c-.2-3.2-3.5-3.8-3.5-3.8h-4.8l-1.8,1Z" />
  </g>
  <g>
    <path class="st22"
      d="M693.8,766.9v-6.7l-3-1.3v-10.7l-3-3.7,3-2.6s1-6.7-5.3-6.7l-5.3-6.7s-6.7-4.7,0-9.3l5.4-4.3v-7.7s-5.6-5,0-5.7l5-3.3.2-4-23.8,6-11.6-17.3h-6.4l-4.4,5.7-9.6,1.8c-6.3.4-2,6.6-2,6.6l7.3,2.7.3,3.7,3,5.7c3.3,4.3-3,6.7-3,6.7h-13.7l-4.7,3.7-8.7,8.3,1.6,8.1c7.5,1.2,10.1,7.6,10.7,14.1,0,0,0,0,0,0v-.2h18.4l4.3,4c2-4,6.7-4,6.7-4,5.3.3,4.1,6.3,4.1,6.3l2.2,3.7h6.6c.9,6,5.4,2.3,5.4,2.3,5.7-1.7,4,6.7,4,6.7h10.3l1.9,1.7,4.1-3.4Z" />
  </g>
  <g>
    <path class="st5"
      d="M697.3,829.3l.8-1.6v-7.5l-2.8-2.5v-2l1.4-3v-4.9s-5.4-1.9-1.4-5.6l3.4-4v-8.8l-2.5-3.6,2.5-4.5,3-1.7-2.4-5.8h-5.5l-6-5.3h-10.3s1.7-8.3-4-6.7c0,0-4.5,3.7-5.4-2.3h-6.6l-2.2-3.7s1.2-6-4.1-6.3c0,0-4.7,0-6.7,4l-4.3-4h-18.2v.2c.6,7.2-1.1,14.5-1.1,14.5v64c2.9-.8,5.5-.5,8,.4l7-4.7,5,.3c3.3-4.3,7.3-1.3,7.3-1.3,1.6,1.3,4.4,1.3,4.4,1.3l2.8-1.7h5.9l2.9-3.8h4.4c7-.9,5,4.8,5,4.8v7.3l8,4.3c7.3,1.7,6.4-1,6.4-1v-4.9h5.5Z" />
  </g>
  <g>
    <path class="st3"
      d="M907.2,692.5h-2.1c-1.3-4.9-3.3.1-3.3.1l-3,6.7v4h-2.3v2.3l-2.7,4h-11.3v8l-2.3,3.3c-.7,2-7,0-7,0h-9.7l-6,2.2-4.4,3.5c-3.8.3-7.8-3.5-7.8-3.5-5.3-1.5-7.7,1.8-7.7,1.8-5.3,3.7-1.3,7.7-1.3,7.7l1.3,8-1.3,5.7-2.3,2.3-2.7,3.7-3.3-2.3-1.3-3.7h-4.3l-2.3,2.4-4.7,3.9c-3.3,0-3.3,3.3-3.3,3.3l-3.7,5c-2.7,2.7-7.7.3-7.7.3l-5.7-4.3c-4-2.3-5.3-.3-5.3-.3-2.7,2-5.3,0-5.3,0v-3.7l-2.7-.7-4.7-3.3c-4.3-1-6.3,1.3-6.3,1.3l-6,1-4.7-2.3h-5.3l-1,6.7c-3.3,8.3-8,6-8,6h-3l-9,9-.3,5.3c-1,3.3-4.3,2.8-4.3,2.8-5.7.4-8.7,9.2-8.7,9.2-2,.7-3.3,4.7-3.3,4.7-2.3,6.7,1.7,8.4,1.7,8.4h4v4.6l2,2.3h14.3l-1.3-4.4c6-5.7,8.3,0,8.3,0,3.3,1.6,14.7,0,14.7,0,4.3-.7,4,3,4,3v6.3l-6.3,2v3.3l4.3,4.3v10.3c0,6,7.1,12.7,7.1,12.7l-2.5,1.8,2.5,5.2-3.1,3.3c-4.7,5.3,0,5.3,0,5.3l4-1c4.7-1.7,4.3,2,4.3,2v19.2l15-7.9s2.9-1.3,3.1,1.3c0,0-4.2,6.7,0,5.3l7.6-4h10s0,0,0,0c2.9-5.6,7.8-11,16.1-11h23.4l7.5-18v-18s3.9-2.3,9.4-3.4v-7.7l-20-14s-10-40,20-36l18-12,26-14v-34s-1.1-8.8-3.5-15.8Z" />
  </g>
  <g>
    <path class="st21"
      d="M770.4,860.3l-4,1s-4.7,0,0-5.3l3.1-3.3-2.5-5.2,2.5-1.8s-7.1-6.7-7.1-12.7v-10.3l-4.3-4.3v-3.3l6.3-2v-6.3s.3-3.7-4-3c0,0-11.3,1.5-14.7,0,0,0-2.3-5.7-8.3,0l1.3,4.4h-14.3l-2-2.3v-4.6h-4s-4-1.7-1.7-8.4c0,0,1.3-4,3.3-4.7,0,0,1-2.9,2.9-5.4h-11.2c-.2-3.2-3.5-3.8-3.5-3.8h-4.8l-4.8,2.8-2.5,4.5,2.5,3.6v8.8l-3.4,4c-4,3.8,1.4,5.6,1.4,5.6v4.9l-1.4,3v2l2.8,2.5v7.5l-.8,1.6h-5.5v4.9s1,2.7-6.4,1l-8-4.3v-7.3s2-5.7-5-4.7h-4.4c0-.1-2.9,3.7-2.9,3.7h-5.9l-2.8,1.7s-2.7,0-4.4-1.3c0,0-4-3-7.3,1.3l-5-.3-7,4.7c9.7,3.7,16,17.6,16,17.6l9.7,32-21.7,16v10.5h12.5l2.8,3.5c3.8-2.5,10.7,2,10.7,2h24.7l6.3,1.7c6.3-1,5.5-3.3,5.5-3.3l4.8-.3,3,3c3.3,1.7,4.7-2.7,4.7-2.7,1.7-2.7,6.7-1.7,6.7-1.7v1.2s1.3-1.4,1.3-1.4h6.3l2-3.5h1.7s3.3,0,3.3,0l41.7-21.8v-19.2s.3-3.7-4.3-2Z" />
  </g>
  <g>
    <path class="st4"
      d="M724.4,956.7l14.4-.2h54v-32.7l13.5-34.5s.7-6.8,4-13.1h-10s-7.6,4-7.6,4c-4.2,1.3,0-5.3,0-5.3-.2-2.7-3.1-1.3-3.1-1.3l-56.7,29.7h-5l-2,3.5h-6.3l-1.3,1.4v-1.2s-5-1-6.7,1.7c0,0-1.3,4.3-4.7,2.7l-3-3-4.8.3s.8,2.3-5.5,3.3l-6.3-1.7h-24.7v7.5l-2.9,2.5-.7,10,3.6,5.2,5,7.3c10.5-4,12.3,0,12.3,0l4.2,2.5h7l8,8.5v8.5c3-3.7,8.1-6.8,17.1-5.4h8.1" />
  </g>
  <g>
    <path class="st34"
      d="M695.3,971.9s.4-5.2,3.9-9.6v-8.5l-8-8.5h-7l-4.2-2.5s-1.8-4-12.3,0l-5-7.3-3.6-5.2.7-10,2.9-2.5v-7.5s-6.9-4.5-10.7-2l-2.8-3.5h-12.5v53.5l15.3,24.9.6-.8h27.8l15-10.5Z" />
  </g>
  <g>
    <path class="st23"
      d="M793.1,956.4h-54l-22.5.3c-1.3-.2-2.5-.3-3.6-.3h0s-6.7-.6-10.8,3.1c0,0-.1.1-.2.2h0s0,0,0,0c-.3.3-.7.5-1,.8,0,0,0,0,0,0-.9.9-1.7,1.9-2.4,2.8,0,0,0,0,0,0-.2.3-.4.6-.6,1,0,0,0,0,0,0-.4.7-.7,1.3-1,2,0,0,0,0,0,0-.1.3-.2.6-.3.9,0,0,0,0,0,0-.2.6-.4,1.2-.5,1.7,0,0,0,0,0,0,0,.2-.1.4-.2.6,0,0,0,.1,0,.2,0,.2,0,.3,0,.5,0,0,0,0,0,.1,0,.2,0,.3,0,.5,0,0,0,.2,0,.2,0,0,0,0,0,.1,0,.3,0,.4,0,.4l-1.2.8h0s-3.4,2.4-3.4,2.4l-10.4,7.3h-27.7l-.6.8h0s0,0,0,0l.7,1.1v28h0s22,12,22,12c3.7,6.2,5.1,13.5,5.3,20.7l3.3-2.6h0v-22.5s0,0,0,0c0,0,0,0,0,0,0,0,0,0,0,0,0,0,0,0,0,0,0,0,0,0,0,0,0,0,0,0,0,0,0,0,0,0,0,0,0,0,0,0,0,0,0,0,0,0,0,0,0,0,0-.2.1-.3,0,0,0,0,0,0,0,0,0,0,0-.1,0,0,0,0,0,0,.7-1.1,3.3-2.8,12.5-1.4,0,0,0,0,0,0,0,0,.1,0,.2,0,.3,0,.7.1,1,.2.3,0,.6.1.9.2.2,0,.4,0,.6.1.3,0,.6.1.9.2.2,0,.3,0,.5.1.5.1,1,.2,1.6.4,0,0,0,0,0,0,.6.1,1.1.3,1.7.4,0,0,.1,0,.2,0,.6.2,1.3.3,2,.5l5-1.2h0s19.1-4.8,19.1-4.8l12-3h4.1s25.9,0,25.9,0c0,0,19.5-7.5,21-21v-33.3h0Z" />
  </g>
</svg>