<svg xmlns="http://www.w3.org/2000/svg" xmlns:xlink="http://www.w3.org/1999/xlink" id="Layer_1"
  version="1.1" viewBox="0 0 1189 1159.5">
  <!-- Generator: Adobe Illustrator 29.1.0, SVG Export Plug-In . SVG Version: 2.1.0 Build 142)  -->
  <defs>
    <style>
      .st0,
      .st1 {
      fill: none;
      }

      .st2 {
      filter: url(#drop-shadow-3);
      }

      .st2,
      .st3,
      .st4,
      .st5,
      .st6,
      .st7 {
      fill: #86b941;
      }

      .st3 {
      filter: url(#drop-shadow-6);
      }

      .st8 {
      fill-opacity: .3;
      fill-rule: evenodd;
      }

      .st8,
      .st9 {
      fill: #fff;
      }

      .st10 {
      fill: url(#linear-gradient2);
      }

      .st11 {
      fill: url(#linear-gradient1);
      }

      .st12 {
      fill: url(#linear-gradient9);
      }

      .st13 {
      fill: url(#linear-gradient3);
      }

      .st14 {
      fill: url(#linear-gradient6);
      }

      .st15 {
      fill: url(#linear-gradient8);
      }

      .st16 {
      fill: url(#linear-gradient7);
      }

      .st17 {
      fill: url(#linear-gradient5);
      }

      .st18 {
      fill: url(#linear-gradient4);
      }

      .st19 {
      filter: url(#drop-shadow-1);
      }

      .st19,
      .st20,
      .st21,
      .st22,
      .st23,
      .st24 {
      fill: #76a831;
      }

      .st20 {
      filter: url(#drop-shadow-8);
      }

      .st21 {
      filter: url(#drop-shadow-7);
      }

      .st22 {
      filter: url(#drop-shadow-4);
      }

      .st25 {
      fill: url(#linear-gradient18);
      }

      .st26 {
      fill: url(#linear-gradient13);
      }

      .st27 {
      fill: url(#linear-gradient12);
      }

      .st28 {
      fill: url(#linear-gradient15);
      }

      .st29 {
      fill: url(#linear-gradient16);
      }

      .st30 {
      fill: url(#linear-gradient11);
      }

      .st31 {
      fill: url(#linear-gradient10);
      }

      .st32 {
      fill: url(#linear-gradient17);
      }

      .st33 {
      fill: url(#linear-gradient14);
      }

      .st34 {
      fill: url(#linear-gradient19);
      }

      .st35 {
      fill: #f7feec;
      }

      .st36 {
      fill: #3f74c7;
      }

      .st37 {
      fill: url(#linear-gradient);
      }

      .st38 {
      fill: #3860ad;
      }

      .st39 {
      clip-path: url(#clippath-17);
      }

      .st40 {
      clip-path: url(#clippath-19);
      }

      .st41 {
      clip-path: url(#clippath-11);
      }

      .st42 {
      clip-path: url(#clippath-16);
      }

      .st43 {
      clip-path: url(#clippath-18);
      }

      .st44 {
      clip-path: url(#clippath-10);
      }

      .st45 {
      clip-path: url(#clippath-15);
      }

      .st46 {
      clip-path: url(#clippath-13);
      }

      .st47 {
      clip-path: url(#clippath-14);
      }

      .st48 {
      clip-path: url(#clippath-12);
      }

      .st49 {
      clip-path: url(#clippath-31);
      }

      .st50 {
      clip-path: url(#clippath-32);
      }

      .st51 {
      clip-path: url(#clippath-33);
      }

      .st52 {
      clip-path: url(#clippath-34);
      }

      .st53 {
      clip-path: url(#clippath-35);
      }

      .st54 {
      clip-path: url(#clippath-39);
      }

      .st55 {
      clip-path: url(#clippath-30);
      }

      .st56 {
      clip-path: url(#clippath-36);
      }

      .st57 {
      clip-path: url(#clippath-37);
      }

      .st58 {
      clip-path: url(#clippath-38);
      }

      .st59 {
      clip-path: url(#clippath-27);
      }

      .st60 {
      clip-path: url(#clippath-29);
      }

      .st61 {
      clip-path: url(#clippath-26);
      }

      .st62 {
      clip-path: url(#clippath-28);
      }

      .st63 {
      clip-path: url(#clippath-20);
      }

      .st64 {
      clip-path: url(#clippath-21);
      }

      .st65 {
      clip-path: url(#clippath-22);
      }

      .st66 {
      clip-path: url(#clippath-23);
      }

      .st67 {
      clip-path: url(#clippath-24);
      }

      .st68 {
      clip-path: url(#clippath-25);
      }

      .st69 {
      clip-path: url(#clippath-1);
      }

      .st70 {
      clip-path: url(#clippath-3);
      }

      .st71 {
      clip-path: url(#clippath-4);
      }

      .st72 {
      clip-path: url(#clippath-2);
      }

      .st73 {
      clip-path: url(#clippath-7);
      }

      .st74 {
      clip-path: url(#clippath-6);
      }

      .st75 {
      clip-path: url(#clippath-9);
      }

      .st76 {
      clip-path: url(#clippath-8);
      }

      .st77 {
      clip-path: url(#clippath-5);
      }

      .st1 {
      stroke: #fff;
      stroke-linecap: round;
      stroke-linejoin: round;
      stroke-width: 1.5px;
      }

      .st78 {
      filter: url(#drop-shadow-14);
      }

      .st78,
      .st79 {
      fill: #a5ce63;
      }

      .st79 {
      filter: url(#drop-shadow-17);
      }

      .st23 {
      filter: url(#drop-shadow-12);
      }

      .st24 {
      filter: url(#drop-shadow-20);
      }

      .st4 {
      filter: url(#drop-shadow-15);
      }

      .st5 {
      filter: url(#drop-shadow-13);
      }

      .st6 {
      filter: url(#drop-shadow-18);
      }

      .st7 {
      filter: url(#drop-shadow-11);
      }

      .st80 {
      filter: url(#drop-shadow-19);
      }

      .st80,
      .st81,
      .st82,
      .st83,
      .st84,
      .st85 {
      fill: #669525;
      }

      .st81 {
      filter: url(#drop-shadow-16);
      }

      .st82 {
      filter: url(#drop-shadow-10);
      }

      .st86 {
      fill: #626262;
      }

      .st83 {
      filter: url(#drop-shadow-9);
      }

      .st84 {
      filter: url(#drop-shadow-2);
      }

      .st85 {
      filter: url(#drop-shadow-5);
      }

      .st87 {
      clip-path: url(#clippath);
      }

    </style>


  </defs>
  <path class="st9"
    d="M1102,880.9c-9.4-21.4-5.6-34.7,1.9-41.7,7.5-6.9,14.1-28,18.2-50.3s-16.4-40.3-27.6-49.1c-11.2-8.9-.4-20.9,4-27.8,4.4-6.9,10.6-11.1-13.3-36.2-23.9-25.1-53.8-27.6-76.6-28.8-22.7-1.1-32.3-4.9-44.3-27.9-2.1-4.1-4-7.5-5.8-10.4l-38,3.7-20-20c-6-14-14-14-14-14h-28c-14,0-22-4-22-4l-14-20-34-6v10l-24,4h-32c-30,2-26,30-26,30-2,18-14,18-14,18-8,0-30-4-30-4l-14,16c-22,4-16,40-16,40l16,12v34l-12,10-16,2c-26,4-12,20-12,20,20,8,28,26,28,26,0,40-38,17-38,17-10-13-22-11-22-11l-28-6v-16l-14-28c-18-14-18,6-18,6l-14,14c-28,12-40-10-40-10-18-18-41.1,4-41.1,4l-16.9-16v-42l-12-18c-10-14,20-32,20-32,20-28,0-52,0-52l-18-16h-52c-20,2-26-18-26-18-6-16-24-28-24-28l-22,4-20-12.1h-24c-32-1.9-34.7,48.1-34.7,48.1-2.7,18-21.3,42-21.3,42-14,10-15.5,52-15.5,52l27.5,12,9.3,22-11.3,28v34l-2.7,14h14v56l-11.3,10-2,24,13.3,20c7.3-2,10.7,24,10.7,24v34l-26,14-18,12c-30-4-20,36-20,36l20,14v7.7c5.4-1.1,12.4-1,19.1,3.4,0,0,4.5,19.5,14.2,15,0,0,20.2-15,44.2-4.5l18,16.5h33s18,7.5,21,18c0,0,6,30,21,33l18,7.5h148.5l15-12,22.5,4.5,3.3,7c9.7-1.1,22.3-1.9,35.6-3.8,20.3-2.9,96.3-16.8,116.5-17.6,20.3-.8,48.1-10.4,59.2-15,11.1-4.6,31.1-.5,31.1-.5,25.1,1.8,24.5,5.2,46.5,10.9,22,5.6,23.7,4.6,39.2,1.6,15.5-3,37.2-20,42.7-25.2,5.6-5.2,14.5-7.5,20-8.5s17,9.5,22.2,16.6c5.2,7.1,16.7,15.6,28.6,23.4,11.9,7.8,22.8-1.3,28.5-3.8,5.7-2.6,8.2-1,12.5,2.9,4.3,3.9,8,8.3,18.1,13.2,10,4.9,30.3,1.3,38.7,0,8.4-1.3,11.4-21,12.7-28.4s4.6-13.8,7.1-19.5c2.5-5.7-6.5-30.5-10.8-42.5-4.4-11.9,24.6-39.8,33.2-43.2,8.5-3.4,9.7-10.6,9.7-10.6,3.7-6.4-16.5-46.4-25.9-67.8Z" />
  <path class="st9"
    d="M940.5,578.2c-7.9-16.8-8.8-39-2.5-51.3s13.5-48.2,14.5-77.4,7.2-44.7-12.2-78.2-69.5-54.9-78.2-57.5-23.8-18.6-26.7-29.2-16.7-26.4-32.3-38.7-15.6-27.5-18-38.1-18.8-33.6-41.3-49.5-58.7-24.8-71.2-28.5-33.4-12.2-51-19.8c-17.6-7.6-24.8,8.3-28.7,19.5-3.9,11.3-41.8,42.4-49.1,53.1-7.3,10.7-26.4,39.3-38.9,51.6-12.5,12.2-24.2.8-34-4.5-9.7-5.3-11.3,1.6-13.5,7.7s.2,28-2.5,32-17-12.8-21.7-22c-4.7-9.2-17.2-18.1-41.1-35.7-23.9-17.6-38.4-19-63.4-20.6-25.1-1.6-54.5,23.5-80.3,33.7-25.8,10.2-45.7,32.3-50.7,42.3s-21.5,20.5-39.3,21.8c-17.8,1.3-26.2,8.2-34.2,22.8-7.5,13.7-22.4,17.9-24.2,18.4h-.2s-16-25.9-16-25.9c-38.5,13.5-16.5,40-16.5,40l33.4,14,18.3,18v26l-11.7,20c-20,38,11.7,34,11.7,34,21.7-2,10.3-32,10.3-32l20-8c16-10,43.3,10,43.3,10,13.3,2,30.7,0,30.7,0,28,2,18,44,18,44h16v39.6l14,8.4,22-4s18,12,24,28c0,0,6,20,26,18h52l18,16s20,24,0,52c0,0-30,18-20,32l12,18v42l16.9,16s23.1-22,41.1-4c0,0,12,22,40,10l14-14s0-20,18-6l14,28v16l28,6s12-2.1,22,11c0,0,38,23,38-17,0,0-8-18-28-26,0,0-14-16,12-20l16-2,12-10v-34l-16-12s-6-36,16-40l14-16s22,4,30,4c0,0,12,0,14-18,0,0-4-28,26-30h32l24-4v-10l34,6,14,20s8,4,22,4h28s8,0,14,14l20,20,38-3.7c-7.9-13.4-11.9-16.6-18.4-30.4Z" />
  <g>
    <g class="-province have" data-provinceid="p27" data-province="เลย">
      <path class="st19"
        d="M337.1,435.2l21.9-13s-5.7-16-21.9-23l-6.1-10,9.9-7-3.8-11s-12.1-14-12.1-19c0,0,1-6,5-6l-6-20.9v-6.1s24,2,29-15c0,0-1-14.4-7-16.2l-8.9-9.3h-5.1l-4-27.5,9.1-17-7.1-29,9.6-13.2c-3.5-.3-7.2-.5-11.1-.8-25.1-1.6-54.5,23.5-80.3,33.7-25.8,10.2-45.7,32.3-50.7,42.3s-21.5,20.5-39.3,21.8c-17.8,1.3-26.2,8.2-34.2,22.8-7.5,13.7-22.4,17.9-24.2,18.4h-.2s-16-25.9-16-25.9c-38.5,13.5-16.5,40-16.5,40l33.4,14,18.3,18v26l-11.7,20c-20,38,11.7,34,11.7,34,21.7-2,10.3-32,10.3-32l20-8c16-10,43.3,10,43.3,10,13.3,2,30.7,0,30.7,0,28,2,18,44,18,44h16v17s19-1,24-5l22-13,15-8h7v-8h21l-8.9-18Z" />
    </g>
    <g class="-province have" data-provinceid="p28" data-province="ชัยภูมิ">
      <path class="st84"
        d="M351.6,732.4l16.6-4,9.4-11h27v-39l-12-18c-10-14,20-32,20-32,20-28,0-52,0-52l-18-16h-52c-20,2-26-18-26-18-6-16-24-28-24-28l-22,4-20-12.1h-24c-32-1.9-34.7,48.1-34.7,48.1-2.7,18-21.3,42-21.3,42-14,10-15.5,52-15.5,52l27.5,12,9.3,22-11.3,28v34l-2.7,14h14v56l-11.3,10-2,24,1.2,1.7,16.9-14.2s1-13.6,14-11.6l20-.2s10.2-10.8,21.6-9.8c0,0,17.4,8,25.4-5l15,9.9,15-9.9v-6.7s17-.3,19-17.3c0,0,1.3-23,10.1-27.5,0,0,15.9-8.5,14.9-25.5Z" />
    </g>
    <g class="-province have" data-provinceid="p29" data-province="นครราชสีมา">
      <path class="st2"
        d="M542.6,795.4l-33.1-19h-10.9l-11-18,3.6-12.7c-19.9,2.7-28.6-13.3-28.6-13.3-18-18-41.1,4-41.1,4l-16.9-16v-3h-27l-9.4,11-16.6,4c1,17-14.8,25.5-14.8,25.5-8.9,4.5-10.2,27.5-10.2,27.5-2,17-19,17.3-19,17.3v6.7l-15,9.9-15-9.9c-8,13-25.4,5-25.4,5-11.4-1-21.6,9.8-21.6,9.8l-20,.2c-13-2-14,11.6-14,11.6l-16.9,14.2-1.2-1.7,13.3,20c7.3-2,10.7,24,10.7,24v34l-26,14-18,12c-30-4-20,36-20,36l20,14v7.7c5.4-1.1,12.4-1,19.1,3.4,0,0,4.5,19.5,14.2,15,0,0,20.2-15,44.2-4.5l18,16.5h33s18,7.5,21,18c0,0,6,30,21,33l18,7.5h109.1l15.3-21h-13s-16-6.4-8-28.5c0,0,8.5-8.4-2.2-12.8l-13.8-5.2v-22.5s-6-3.4-7-28c0,0,1-10.8-7.5-13.7v-12.2s20,13.3,25.7-9.7v-16.7h9.7s20,7.7,27-8.3c0,0,5-42.3,36-56.6,0,0,17.3,5.6,18.7-7.4l-4.9-26.9,4.9-5.1-3.1-12.8s14.5-5.2,8.5-16.2Z" />
    </g>
    <g class="-province have" data-provinceid="p30" data-province="บึงกาฬ">
      <path class="st22"
        d="M604.7,166.2s-13.1,8.7-6.4,19.3c0,0,3.3,5.2,13.3,5.6,0,0,7.5,7,12.7,14.4v-4h16.7v-10.4l22,7.1,4,12.5,19.3,10.9s4.7,17.3,12,14.7l12-8.7,16.7,5.3s1.3,14,7.3,16c0,0,6.5-2.9,11.1-.5l4.9-8.8-6.7-11.3,6.7-9.3,7.3,9.3,17.3-20-5.3-9.3,7.2-7.2c-7.4-10.7-19-23.4-33.1-33.4-22.5-15.9-58.7-24.8-71.2-28.5-12.5-3.7-33.4-12.2-51-19.8-17.6-7.6-24.8,8.3-28.7,19.5-1.1,3.1-4.7,7.7-9.6,12.9l24.8,17.7-3.3,6Z" />
    </g>
    <g class="-province have" data-provinceid="p31" data-province="นครพนม">
      <path class="st85"
        d="M940.2,371.2c-19.4-33.4-69.5-54.9-78.2-57.5s-23.8-18.6-26.7-29.2-16.7-26.4-32.3-38.7-15.6-27.5-18-38.1c-.9-4-3.8-9.7-8.2-16.1l-7.2,7.2,5.3,9.3-17.3,20-7.3-9.3-6.7,9.3,6.7,11.3-4.9,8.8s0,0,0,0c.3.2.6.3.9.5,0,0,12.7,6,13.3,23.3,0,0-3.3,10-10,6.7l3.3,12.7-.7,16.7-6.7,9.3,14,21.6,22.7-8.1h18l6-4.2h17.3v27.3l7.3,11.3s5.3,10-6.7,20c0,0-4,4,0,6,0,0,6,3.3-4,10.7l-.7,7.3,6.7,5.3-19.3,26h-9l-4.5,5.8,12.1,8.8s13.7-10.7,26.5-3.3l4.2-3.3,20,6.6h22.7l5,14.7,23-9.3h44.8c.3-3.9.5-7.7.7-11.4,1-29.3,7.2-44.7-12.2-78.2Z" />
    </g>
    <g class="-province have" data-provinceid="p32" data-province="อบุลราชธานี">
      <path class="st3"
        d="M1102,880.9c-9.4-21.4-5.6-34.7,1.9-41.7,7.5-6.9,14.1-28,18.2-50.3s-16.4-40.3-27.6-49.1c-11.2-8.9-.4-20.9,4-27.8,4.4-6.9,10.6-11.1-13.3-36.2-23.9-25.1-53.8-27.6-76.6-28.8-4.5-.2-8.6-.6-12.2-1.1l-2.9,15.5-9,9-7,37c-23,20,0,38.4,0,38.4l-12,20.6-21-8-6-18-28-6-10,17c-6,21-36,19.5-36,19.5-16-6.5-10.3,31.8-10.3,31.8l5.3,10.7-5.3,22,34.3,5h15l19,9.7,6,18.3-9,6.7s-2,25.3,4,38.3c0,0,7,9,17,6,0,0,22,3,10,36l20,19v12s-15,9-12,27c0,0,26.9,21.3-9,43.6,5.2,7.1,16.7,15.6,28.6,23.4,11.9,7.8,22.8-1.3,28.5-3.8s8.2-1,12.5,2.9c4.3,3.9,8,8.3,18.1,13.2s30.3,1.3,38.7,0c8.4-1.3,11.4-21,12.7-28.4s4.6-13.8,7.1-19.5-6.5-30.5-10.8-42.5c-4.4-11.9,24.6-39.8,33.2-43.2s9.7-10.6,9.7-10.6c3.7-6.3-16.5-46.4-25.9-67.8Z" />
    </g>
    <g class="-province have" data-provinceid="p33" data-province="ศรีสะเกษ">
      <path class="st21"
        d="M970.6,986.4v-12l-20-19c12-33-10-36-10-36-10,3-17-6-17-6-6-13-4-38.3-4-38.3l9-6.7-6-18.3-19-9.7h-15l-34.3-5c-4.3-19-16.7-16.1-16.7-16.1h-16l-12-34.8-9-18.1h-18v14l-20,22.3h19l10,16.7h-15l-11,21.1s-8,22-2,30c0,0,19,20-2,40l-10,14s-9,11,5,20c0,0,13,8,14,30l15,12,1,22.6-10,10.8,8,8.6-3.4,33.4s0,0,0,0c22.8,1.8,22.8,5.3,44.2,10.7,22,5.6,23.7,4.6,39.2,1.6,15.5-3,37.2-20,42.7-25.2,5.6-5.2,14.5-7.5,20-8.5s17,9.5,22.2,16.6c36-22.4,9-43.6,9-43.6-3-18,12-27,12-27Z" />
    </g>
    <g class="-province have" data-provinceid="p34" data-province="บุรีรัมย์">
      <path class="st20"
        d="M643.9,822.4s-7.3,16-14.7,4.7c0,0-10.7-7.3-18,3.3,0,0-17.3,7.9-26.7-11.1h-7.3l-6-24.3-13.3-10,11.4-14.2-20.8-4.5v-16l-14-28c-18-14-18,6-18,6l-14,14c-4.1,1.8-7.9,2.8-11.4,3.3h0l-3.6,12.7,11,18h10.9l33.1,19c6,11-8.5,16.3-8.5,16.3l3.1,12.8-4.9,5.1,4.9,26.9c-1.3,13-18.7,7.4-18.7,7.4-31,14.4-36,56.6-36,56.6-7,16-27,8.3-27,8.3h-9.7v16.7c-5.7,23-25.7,9.7-25.7,9.7v12.2c8.5,2.9,7.5,13.7,7.5,13.7,1,24.6,7,28,7,28v22.5l13.8,5.2c10.8,4.3,2.2,12.8,2.2,12.8-8,22.1,8,28.5,8,28.5h13s-15.3,21-15.3,21h39.4l15-12,22.5,4.5,3.3,7c6.8-.7,15.1-1.4,24.1-2.4,5.7-6,19.5-19.5,29.3-22.5h10.7l-5.3-15.2,5.3-6.7s3.3-16-4-18.7c0,0-12.5-26,4.8-44l6.2-18.7v-14s25.7-14.1,29-27.7v-19.9l7.3-9.7v-6s-10.7-21.3,0-50.7c0,0,5.3-6.7,10.7-8.7l-10.7-11.3Z" />
    </g>
    <g class="-province have" data-provinceid="p35" data-province="สุรืนทร์">
      <path class="st83"
        d="M785.6,986.4l-15-12c-1-22-14-30-14-30-14-9-5-20-5-20l10-14c21-20,2-40,2-40-6-8,2-30,2-30l11-21.1h15l-10-16.7h-19l-15-5.3c-15-10-26-1-26-1-9,5-27-4.2-27-4.2-14-13.2-26-1.3-26-1.3-3,18.5-14,8.5-14,8.5l-12-17h-9.3c-9.2,16.4-34.7,1-34.7,1-10-13-22-11-22-11l-7.2-1.5-11.4,14.2,13.3,10,6,24.3h7.3c9.3,18.9,26.7,11.1,26.7,11.1,7.3-10.7,18-3.3,18-3.3,7.3,11.3,14.7-4.7,14.7-4.7l10.7,11.3c-5.3,2-10.7,8.7-10.7,8.7-10.7,29.3,0,50.7,0,50.7v6l-7.3,9.7v19.9c-3.3,13.6-29,27.7-29,27.7v14l-6.2,18.7c-17.2,18-4.8,44-4.8,44,7.3,2.7,4,18.7,4,18.7l-5.3,6.7,5.3,15.2h-10.7c-9.8,3-23.6,16.5-29.3,22.5,3.7-.4,7.6-.9,11.5-1.4,20.3-2.9,96.3-16.8,116.5-17.6,20.3-.8,48.1-10.4,59.2-15,11.1-4.6,31.1-.5,31.1-.5.8,0,1.6.1,2.3.2l3.4-33.4-8-8.6,10-10.8-1-22.6Z" />
    </g>
    <g class="-province have" data-provinceid="p36" data-province="อุดรธานี">
      <path class="st82"
        d="M661.6,385.5l-8.7,2.7-15.3-12.7s-12-6.4-19.3-3.2l-13.1-7.4h-14.2l-4-11.3,13.3-14.4-8-12.3s9.3-31.3,26.7-35.3l1.3-36.7-8.7-5.3,8-23.3h-21.3l-2,11.3-8.7-11.3s-14.7,1.3-22,15.3c0,0-13.3-20.7-25.3-15.3,0,0-8,12.7-17.3,5.3l-9.4-7.2c-3.1,3.8-6.1,7.2-8.8,9.9-12.5,12.2-24.2.8-34-4.5-9.7-5.3-11.3,1.6-13.5,7.7-2.1,6.1.2,28-2.5,32s-17-12.8-21.7-22c-4.7-9.2-17.2-18.1-41.1-35.7-20.1-14.9-33.6-18.2-52.3-19.8l-9.6,13.2,7.1,29-9.1,17,4,27.5h5.1l3.3,3.5h11.2l7.3-6.6s6-4,12.7,3.3l5.3-.6,15.3-3.9,2.7,29.8,8.7,4.6,18.2,44-4.2,10,31.3,3.3v7.3s-13.3,8.7-21,6.7v10.7h6.3l2,18s18.7,16.7,33.3,21.3v-9.3s1.3-12,12-4.7l13.7,10.7v11.3s.3,16.7,4.9,19.3l4.7-4.7,10,4.7v6h10.7l30.7-14.6,4.7-13.4,16.7,2v-5.3l15.3,4,7.3,10s8-3.9,18,2.7c0,0,4,10,2.7,14.6l8,6.7,4.1-5.3-4.1-6.7,8.7-9.3v-14.7l7.7-7.3v-15.4s8.3-10,17.6-8.7l10.7,15.3v-19.3l-12-13.3Z" />
    </g>
    <g class="-province have" data-provinceid="p37" data-province="หนองคาย">
      <path class="st7"
        d="M611.6,191.1c-10-.4-13.3-5.6-13.3-5.6-6.7-10.7,6.4-19.3,6.4-19.3l3.3-6-24.8-17.7c-12.8,13.9-34.2,32.4-39.6,40.1-5.8,8.4-18.9,28-30.3,42,0,0,.1-.2.2-.2l9.4,7.2c9.3,7.3,17.3-5.3,17.3-5.3,12-5.3,25.3,15.3,25.3,15.3,7.3-14,22-15.3,22-15.3l8.7,11.3,2-11.3h19.3l6.7-6.7v-14c-5.2-7.4-12.7-14.4-12.7-14.4Z" />
    </g>
    <g class="-province have" data-provinceid="p38" data-province="สกลนคร">
      <path class="st23"
        d="M830.9,365.5l-7.3-11.3v-27.3h-17.3l-6,4.2h-18l-22.7,8.1-14-21.6,6.7-9.3.7-16.7-3.3-12.7c6.7,3.3,10-6.7,10-6.7-.7-17.3-13.3-23.3-13.3-23.3-4.7-3.3-12,0-12,0-6-2-7.3-16-7.3-16l-16.7-5.3-12,8.7c-7.3,2.7-12-14.7-12-14.7l-19.3-10.9-4-12.5-22-7.1v10.4h-16.7v18l-6.7,6.7h2l-8,23.3,8.7,5.3-1.3,36.7c-17.3,4-26.7,35.3-26.7,35.3l8,12.3-13.3,14.4,4,11.3h14.2l13.1,7.4c7.3-3.2,19.3,3.2,19.3,3.2l15.3,12.7,8.7-2.7,12,13.3v19.3l28.7,18.7-2,12,32,28.6,6.7-10.7c14-14,25,0,25,0l7.7-13.3c5.3-6,16.7,0,16.7,0l9.7-12.7h9l19.3-26-6.7-5.3.7-7.3c10-7.3,4-10.7,4-10.7-4-2,0-6,0-6,12-10,6.7-20,6.7-20Z" />
    </g>
    <g class="-province have" data-provinceid="p39" data-province="มุกดาหาร">
      <path class="st5"
        d="M951.8,460.8h-44.8l-23,9.3-5-14.7h-22.7l-20-6.6-4.2,3.3c-12.8-7.3-26.5,3.3-26.5,3.3l-12.1-8.8-5.2,6.8s-11.3-6-16.7,0l-6.2,10.8,24.4,37.9c-3.8,0-5.5,7.6-5.5,7.6l11.1,21.8-6.3,16.2v.5s33.9,6,33.9,6l14,20s8,4,22,4h28s8,0,14,14l20,20,38-3.7c-7.9-13.4-11.9-16.6-18.4-30.4-7.9-16.8-8.8-39-2.5-51.3,0,0,11.4-25,13.8-66Z" />
    </g>
    <g class="-province have" data-provinceid="p40" data-province="หนองบัวลำภู">
      <path class="st78"
        d="M436.3,408.9l-2-18h-6.3v-10.7c7.7,2,21-6.7,21-6.7v-7.3l-31.3-3.3,4.2-10-18.2-44-8.7-4.6-2.7-29.8-15.3,3.9-5.3.6c-6.7-7.3-12.7-3.3-12.7-3.3l-7.3,6.6h-11.2l5.5,5.8c6,1.8,7,16.2,7,16.2-5,17-29,15-29,15v6.1l6,20.9c-4,0-5,6-5,6,0,5,12.1,19,12.1,19l3.8,11-9.9,7,6.1,10c16.1,7,21.9,23,21.9,23l-21.9,13,8.3,16.9,24.9,9.5,10-6.3s6.7-6.3,11.3,0l12.7,15h6s4.7,5.3,17.7,0l25,7.3v-14.3l16.7-33c-14.7-4.7-33.3-21.3-33.3-21.3Z" />
    </g>
    <g class="-province have" data-provinceid="p41" data-province="ขอนแก่น">
      <path class="st4"
        d="M564.3,509.7s2.7-28.2,10.7-39.6l-6.1-12-4.5,9.3-14.7-15.4-24,11.4h-10.7v-6l-10-4.7-4.7,4.7c-4.7-2.7-4.9-19.3-4.9-19.3v-11.3l-13.7-10.7c-10.7-7.3-12,4.7-12,4.7v9.3l-16.7,33v14.3l-25-7.3c-13,5.3-17.7,0-17.7,0h-6l-12.7-15c-4.7-6.3-11.3,0-11.3,0l-10,6.3-24.9-9.5.6,1.1h-21v8h-7l-15,8-22,13c-5,4-24,5-24,5v22.6l14,8.4,22-4s18,12,24,28c0,0,6,20,26,18h52l18,16s20,24,0,52c0,0-30,18-20,32l12,18v42l16.9,16s23.1-22,41.1-4c0,0,12,22,40,10l14-14s0-7.3,4-10v-29.4l-7.6-13.4,4.3-9.8c1.3-16.7-12-19.9-12-19.9l-.7-10.1c6.7-9.3-1.3-13.3-1.3-13.3-8.7-8.7,0-31.3,0-31.3l9.7-9.3v-6.7l15.6-13.3v-10.7l15.5-6.7c15.5-10.7,13.9-24,13.9-24l8.9-5.6-2.9-4.8Z" />
    </g>
    <g class="-province have" data-provinceid="p42" data-province="กาฬสินธุ์">
      <path class="st81"
        d="M795.3,531.5l-11.1-21.8s1.7-7.6,5.5-7.6l-24.4-37.9-1.5,2.6s-11-14-25,0l-6.7,10.7-32-28.6,2-12-28.7-18.7-10.7-15.3c-9.3-1.3-17.6,8.7-17.6,8.7v15.4l-7.7,7.3v14.7l-8.7,9.3,4.1,6.7-4.1,5.3-8-6.7c1.3-4.7-2.7-14.6-2.7-14.6-10-6.6-18-2.7-18-2.7l-7.3-10-15.3-4v5.3l-16.7-2-4.7,13.4-6.7,3.2,14.7,15.4,4.5-9.3,6.2,12c-8,11.3-10.7,39.6-10.7,39.6l12,19.7-6.4,14.8,8.4,8-4.7,4.7c-11.3,16.7,6.7,14,6.7,14l15.3-3.3c16,3.3,12.3,16,12.3,16l16.3,5.3-3.3,6,18.7,13.7-3.6,23.8c2.5-5,6.5-8.9,13-10.1l14-16s22,4,30,4c0,0,12,0,14-18,0,0-4-28,26-30h32l24-4v-10h.1s0-.5,0-.5l6.3-16.2Z" />
    </g>
    <g class="-province have" data-provinceid="p43" data-province="มหาสารคาม">
      <path class="st79"
        d="M635.9,632.3s0,0,0,0l3.6-23.8-18.7-13.7,3.3-6-16.3-5.3s3.7-12.7-12.3-16l-15.3,3.3s-18,2.7-6.7-14l4.7-4.7-8.4-8,6.4-14.8-9.1-14.9-8.9,5.6s1.6,13.3-13.9,24l-15.5,6.7v10.7l-15.6,13.3v6.7l-9.7,9.3s-8.7,22.7,0,31.3c0,0,8,4,1.3,13.3l.7,10.1s13.3,3.2,12,19.9l-4.3,9.8,7.6,13.4v29.4c2.6-1.7,6.9-1.5,14,4l14,28v16l28,6s12-2.1,22,11c0,0,38,23,38-17,0,0-8-18-28-26,0,0-14-16,12-20l16-2,12-10v-34l-16-12s-3-18,3-29.9Z" />
    </g>
    <g class="-province have" data-provinceid="p44" data-province="ร้อยเอ็ด">
      <path class="st6"
        d="M836.6,574.4l-14-20-34-6v10l-24,4h-32c-30,2-26,30-26,30-2,18-14,18-14,18-8,0-30-4-30-4l-14,16c-22,4-16,40-16,40l16,12v34l-12,10-16,2c-26,4-12,20-12,20,20,8,28,26,28,26,0,7.2-1.2,12.4-3.3,16h9.3l12,17s11,10,14-8.5c0,0,12-11.8,26,1.3,0,0,18,9.2,27,4.2,0,0,11-9,26,1l15,5.3,20-22.3v-14h8.9l13.1-24.4v-3.6s-13-2-11-21c0,0,1-15-11-17l-8,8-11-8,14-22.2s-8-11.8,1-13.8c0,0,10-2.1,5.5-18.5,0,0-2.5-16.5,20.5-24.5,0,0,17-9,18-19l17-13v-13.8c-2-.7-3-1.2-3-1.2Z" />
    </g>
    <g class="-province have" data-provinceid="p45" data-province="ยโสธร">
      <path class="st80"
        d="M804.6,741.9v-3.6s-13-2-11-21c0,0,1-15-11-17l-8,8-11-8,14-22.2s-8-11.8,1-13.8c0,0,10-2.1,5.5-18.5,0,0-2.5-16.5,20.5-24.5,0,0,17-9,18-19l17-13v-13.8c3.5,1.2,10,2.8,19,2.8h28s8,0,14,14l20,20,13.1-1.3,4.9,14.3h-26c-29-4-34,24.6-34,24.6,3,19.6-14,47.4-14,47.4-9,10,0,30,0,30v18.6l15,23.2s-10.3,2.4-15,1.7c-16-6.5-10.3,31.8-10.3,31.8l5.3,10.7-5.3,22c-4.3-19-16.7-16.1-16.7-16.1h-16l-12-34.8-9-18.1h-9.1l13.1-24.4Z" />
    </g>
    <g class="-province have" data-provinceid="p46" data-province="อำนาจเจริญ">
      <path class="st24"
        d="M864.6,745.9l15,23.2c8.4-2.1,17.9-7,21-17.8l10-17,28,6,6,18,21,8,12-20.6s-23-18.4,0-38.4l7-37,9-9,2.9-15.5c-14.5-2.3-22.5-8.3-32.1-26.7-2.1-4.1-4-7.5-5.8-10.4l-24.9,2.4,4.9,14.3h-26c-29-4-34,24.6-34,24.6,3,19.6-14,47.4-14,47.4-9,10,0,30,0,30v18.6Z" />
    </g>
  </g>
</svg>