<svg id="Layer_1" xmlns="http://www.w3.org/2000/svg" xmlns:xlink="http://www.w3.org/1999/xlink"
  version="1.1" viewBox="0 0 681.9 1199">
  <!-- Generator: Adobe Illustrator 29.1.0, SVG Export Plug-In . SVG Version: 2.1.0 Build 142)  -->
  <defs>
    <style>
      .st0,
      .st1 {
      fill: none;
      }

      .st2,
      .st3,
      .st4,
      .st5 {
      fill: #86b941;
      }

      .st6 {
      fill-opacity: .3;
      fill-rule: evenodd;
      }

      .st6,
      .st7 {
      fill: #fff;
      }

      .st15 {
      fill: #76a831;
      }

      .st16 {
      fill: #f7feec;
      }

      .st17 {
      fill: #3f74c7;
      }

      .st19 {
      fill: #3860ad;
      }

      .st1 {
      stroke: #fff;
      stroke-linecap: round;
      stroke-linejoin: round;
      stroke-width: 1.5px;
      }

      .st35 {
      fill: #626262;
      }

      .st38 {
      fill: #a0d557;
      }

      .st36,
      .st37 {
      fill: #669525;
      }
    </style>
  </defs>
  <g class="-province have" data-provinceid="p47" data-province="ตราด">
    <path class="st2"
      d="M430.2,441l12.8-15.8,11.8-5.5h32.5l26.1-19.3,31.5,1.2,17.1-12.6-9.7-32s-10-22-24-18v-64s8-34-18-28l-25.6-10-34.4,10s-18-30-52-10l-22-6.9-22-9.1s-16-14-34,0l-42.6-6-6.4,18.8c12.4,4.1,7.6,21.5,7.6,21.5-18,7-7.6,14.3-7.6,14.3l26.3,15.4,7.3-5.4c3.3-4.8,8.3,0,8.3,0l5.7,13.7h22c2.7-18.4,14.7-18.2,14.7-18.2,16.7-3.3,38,10.7,38,10.7h15.7l13.9,29.3c-19-2-17.7,8.9-17.7,8.9,0,8.9,14.7,11.8,14.7,11.8v64.8l-10.9,7.9c-12.9,6-5.1,17.3-5.1,17.3l12,7v8.4h13.8Z" />
  </g>
  <g class="-province have" data-provinceid="p48" data-province="ตราด">
    <path class="st4"
      d="M430.2,441h-13.8v-8.4l-12-7s-7.9-11.3,5.1-17.3l10.9-7.9v-64.8s-14.7-2.9-14.7-11.8c0,0-1.3-10.9,17.7-8.9l-13.9-29.3h-15.7s-21.3-14-38-10.7c0,0-12-.2-14.7,18.2h-22l-5.7-13.7s-5-4.8-8.3,0l-7.3,5.4-26.3-15.4s-10.4-7.3,7.6-14.3c0,0,4.8-17.4-7.6-21.5l6.4-18.8-1.4-.2s-56-127.8-106-133.8l-26.4-20.8c-1,1.5-2.2,3.3-3.4,5.5,0,0-.1.2-.2.3h0l-1.9,4.6c-5,9.4-7.8,17.4-8.6,21.8-.9,5.1-.1,25.6.3,34.3s2.2,26.9,2.2,26.9c0,0-6.2-2.5-13.1,1.2s-16.7,10.8-21.5,12.2-15.1,5.3-23,17.3-13.1,20-13.7,26.8-3.3,36.5,7.1,58.3c10.4,21.7,12.9,14.8,19.3,36.5,6.4,21.7,8.6,30.5,21.6,46.5,13,16,17.6,21.3,27.2,31.1s17.2,11.1,37.8,25.1,40.7,21.7,51.4,34.1c10.8,12.4,23.5,27.5,24.5,38.6l1.2,21.5h17.1l5.3,6.4,48.4-14.7c11.1,16.4,24.9,7.6,24.9,7.6l23.8-12.7c13.8-6.7,17.5,4.2,17.5,4.2l26.9.9v-14.9l12.5-13.5h17.9l1.4,1.1-23.7-18.1,6.8-8.4Z" />
  </g>
  <g class="-province have" data-provinceid="p49" data-province="ตราด">
    <path class="st3"
      d="M491,516.6h-15.8l-5.2-7.2s-26.2,4.4-15.3-14.7c0,0,5.6-8.5-7.8-7.8v-19.5l-1.4-1.1h-17.9l-12.5,13.5v14.9l-26.9-.9s-3.7-10.9-17.5-4.2l-23.8,12.7s-13.9,8.9-24.9-7.6l-48.4,14.7-5.3-6.4h-17.1c.6,12.7,1.4,27.2,2.9,36,2.4,15,10.8,50.4,18.6,67.1,2.3,5,3.8,8.6,4.6,11.4h12l24,15.1,18-3.3h33c11,1.3,17.7-24.2,17.7-24.2,19.7-14.9,41.3-6.2,41.3-6.2l17-21.9s-3.7-17.7,13.5-14.2c0,0,11.8,2,17.8-2.3h11.3v-12.3l-5.5-12.3,13.5-19.4Z" />
  </g>
  <g class="-province have" data-provinceid="p50" data-province="ตราด">
    <path class="st37"
      d="M541.9,471.5l-1.6-2.6v-64l4.5-3.4-31.5-1.2-23.6,17.1-2.6,2.2h-32.5l-11.8,5.5-19.7,24.2,23.7,18.1v19.5c13.3-.7,7.8,7.8,7.8,7.8-10.9,19.1,15.3,14.7,15.3,14.7l5.2,7.2h15.8s16.2,2.7,25.5-5.1l34.9-24.5-9.5-15.4Z" />
  </g>
  <g class="-province have" data-provinceid="p51" data-province="ตราด">
    <path class="st38"
      d="M531,583.9l3.3-1.4c8.4-3.5,19.5-7.3,32-7.3,4.1,0,8.5.4,12.9,1.4.7.2,1.4.3,2,.4,2.6-11.1,4.9-29.1-2.9-42l-22-12v-28l-5-8.1-34.9,24.5c-9.2,7.8-25.5,5.1-25.5,5.1l-13.5,19.4,5.5,12.3v12.3l33.8,31.2,14.2-7.9Z" />
  </g>
  <g class="-province have" data-provinceid="p52" data-province="ตราด">
    <path class="st15"
      d="M436.3,620.8l6-6.9h19l23.2,21.8s0,0,0,0c-2.7-7-4.8-13.8-4-18.1,1.3-7.2,1.6-5,6-7.7l2.9-1.7,3.9-3.4v.5c.4-.3,2.7-1.7,5.8-3.8l17.7-9.8-33.8-31.2h-11.3c-6,4.3-17.8,2.3-17.8,2.3-17.2-3.5-13.5,14.2-13.5,14.2l-17,21.9,13,22Z" />
  </g>
  <g class="-province have" data-provinceid="p53" data-province="ตราด">
    <path class="st36"
      d="M499.9,703.1c-6.2-11.9-11.2-18.8-9.7-26.5s3.7-16.6-.3-27.5c-1.6-4.2-3.5-8.9-5.3-13.4l-23.2-21.8h-19l-6,6.9-13-22s-21.6-8.8-41.3,6.2c0,0-6.6,25.5-17.7,24.2h-33l-18,3.3-24-15.1h-12c2,6.6.7,8.5-.5,12.3-1.8,5.3-15.5,26.9-20,37.8s-12.4,28.3,2.7,48.4c15.1,20.1,12.5,13.2,21.5,31.8,9,18.7,5.7,30.7,9,38.3,1.8,4.2,3.6,8.1,7,13.9l11.3-15s2-22,19-21c0,0,14.3-2.5,25.2,5.2,0,0,12.9,10.3,11.9-10.5l6.5-7.9h29.5l9.1,13.2,16.9-11.2h33l15.9,11.8c4.1-.5,9.2,1.1,14.9-6.9s9.4-11.9,11.6-26.1,4.3-16.6-1.9-28.6Z" />
  </g>
  <g class="-province have" data-provinceid="p54" data-province="ตราด">
    <path class="st5"
      d="M426.3,752.8l-16.9,11.2-9.1-13.2h-29.5l-6.5,7.9c1,20.8-11.9,10.5-11.9,10.5-10.8-7.8-25.2-5.2-25.2-5.2-17-1-19,21-19,21l-11.3,15c2.8,4.8,6.6,10.7,12.5,19.1,13.1,18.6,24.5,42.6,30.8,55.6,6.2,13,15.1,28.8,16.9,36.9,1.8,8.1,2.5,14.2,6.1,21.5,3.5,7.2,11.7,20.4,13.2,24.7s1.8,10-.4,13.1-4.5,1.6-8.2,3.4c-3.7,1.8-20.8,14.3-25.4,17.9-4.7,3.6-9.8,8.2-13.2,20.5-3.4,12.3-8.4,29.4-9.6,34.9s-4.8,23.7-6.8,31.1-4.8,15.9-8.5,18.9l.4.4h-.5l-2.8,2.9h0c-.2,0-.3.2-.4.5-1.1,1.1-3.7,4-4.5,4.7-1,.9-10,11.4-15.9,17.7-9.7,10.3-8.9,12.9-9.2,15.3,0,0,0,0,0,0h28.9l30-10s12.4-1.3,22.2,7.7l3.2-14.3,4.6-10.7h-.2l2-4.2h.3s.1-.5.4-1.4h0c2.3-7.9,14.2-46.5,28.2-62.3,15.6-17.6,38.9-41,45.6-50.2,6.7-9.2,10.8-14.7,19.4-47.4,8.6-32.7,15.8-62.2,16.7-78.6,1-16.3-2.6-38.3-.4-59.5,0,0,.1-20.7,0-26.9-.1-6.2-.9-16.1,3.1-16.5l-15.9-11.8h-33Z" />
  </g>
</svg>