<svg class="r4" id="Layer_1" xmlns="http://www.w3.org/2000/svg"
  xmlns:xlink="http://www.w3.org/1999/xlink" version="1.1" viewBox="0 0 713.6 762.4">
  <g>
    <defs>
      <style>
        .st0 {
        fill: none;
        }

        .st1,
        .st2 {
        fill: #86b941;
        }

        .st3 {
        fill-opacity: .3;
        fill-rule: evenodd;
        }

        .st3,
        .st4 {
        fill: #fff;
        }

        .st13 {
        fill: #e6e6e6;
        }

        .st14,
        .st15 {
        fill: #76a831;
        }

        .st16 {
        fill: #f7feec;
        }

        .st17 {
        fill: #3f74c7;
        }

        .st19 {
        fill: #3860ad;
        }

        .st37 {
        fill: #626262;
        }

        .st38,
        .st39,
        .st40 {
        fill: #669525;
        }

        .st41,
        .st42 {
        fill: #a0d557;
        }
      </style>
    </defs>
    <g>
      <path class="st1"
        d="M253.5,222.6h7.6s7.7-4,9.3-11l4.7-3h10.7l3.7,2s4.7.7,5-8.7l-2.7-6.3h-4v-8l20.7-14.2v-11.8s3-6,6.7-1.7l2.3,2h5.7s2.7,2.7,6,.3h6.7l3-3.9v-9.8s-2.5-14.3-16.7-17.7h-5l-9-17.1c-9.5,3.9-13.9-15.1-13.9-15.1-13.5-9-28.5,0-28.5,0v18l-7.5,18h-23.4c-17.4,0-20.1,24-20.1,24l-13.5,34.5v36.8l4.2,1.7,12.1-1.6s9.5-8.4,18.2-3.4l8.7,1.7h9.1v-5.7h0Z"></path>
    </g>
    <g>
      <path class="st41"
        d="M427.1,331l4.1-2.5c2.6-2.3,5.5-6.6,4.9-14.2l-4-37.7v-15s-10-20,6-17c0,0-8-30.6,20-22.8l3-8.5,14-11.1,8.8-18h-20.2l-18-7.5c-15-3-21-33-21-33-3-10.5-21-18-21-18h-33l-18-16.5c-24-10.5-44.2,4.5-44.2,4.5-.1,0-.2,0-.3.1l9,17.1h5c14.2,3.4,16.7,17.7,16.7,17.7v9.8l-3,3.9h-6.7c-3.3,2.3-6-.3-6-.3h-5.7l-2.3-2c-3.7-4.3-6.7,1.7-6.7,1.7v11.8l-20.7,14.2v8h4l2.7,6.3c-.3,9.3-5,8.7-5,8.7l-3.7-2h-10.7l-4.7,3c-1.7,7-9.3,11-9.3,11h-7.6v9.3l3.9,2.5,1,4.2-3,13.9c-1.7,8.5,5.7,6.5,5.7,6.5l7.7-6.5h6.3l1.7,3.8,4.7-.3c1.3-5.7,6.7-3.5,6.7-3.5l5.3,3.5h4.3c7.7-3.3,9.3,2.3,9.3,2.3,2.7,6,10.3,5.7,10.3,5.7l1.7,2.7h4c10,2,12.3,7.8,12.3,7.8l3.3,4.5h3.3c4.7,0,10.3,5,10.3,5,5.7,5.3,14,5.3,14,5.3,8.3,1,9.7-5,9.7-5l3.3.3,1.7-7c4-5,9.7-2.7,9.7-2.7,7.7,1.3,10.3,10,10.3,10l-1.3,8c-1.7,4.3,2,6.7,2,6.7h9.8v8.7l2.2,6c-7.3,8.7,6.3,12.7,6.3,12.7l7,4Z"></path>
    </g>
    <g>
      <path class="st38"
        d="M649.7,176.7l-22.5-4.5-15,12h-128.3l-8.8,18-14,11.1-3,8.5c-28-7.8-20,22.8-20,22.8-16-3-6,17-6,17v15l4,37.7c1,13.7-9,16.7-9,16.7l-7,10.6,14,16.6v6.4c8-1,10,11,10,11v13l6,10,3.2,5v10l13.8-8,8-12,4.3,5h8.7l8,9s10,5,15-3l5-6h10.1s0,0,0,0c1.6-12.5,3.8-21.2,5.6-27.2,2.7-8.8,11.3-18.5,16.7-21.3,5.4-2.8,18.9-29.2,25.1-40.7,6.2-11.5,13.2-19.8,17.3-21.6,4.1-1.8,7-6.8,11.7-15.1,4.7-8.3,9.2-31,11-41.6,1.8-10.6.9-18.3,3.8-29.2,1.7-6.4,7.9-10.5,12.7-12.8l6.1-2.3,8.3-1.9c2.5-.5,5.4-.8,8.7-1.2l-3.3-7Z"></path>
    </g>
    <g>
      <path class="st15"
        d="M434.1,364.6v-6.4l-14-16.6,7-10.6-7-4s-13.7-4-6.3-12.7l-2.2-6v-8.7h-9.8s-3.7-2.4-2-6.7l1.3-8s-2.7-8.7-10.3-10c0,0-5.7-2.3-9.7,2.7l-1.7,7-3.3-.3s-1.3,6-9.7,5c0,0-8.3,0-14-5.3,0,0-5.7-5-10.3-5h-3.3l-3.3-4.5s-2.3-5.8-12.3-7.8h-4l-1.7-2.7s-7.7.3-10.3-5.7c0,0-1.7-5.7-9.3-2.3h-4.3l-5.3-3.5s-5.3-2.2-6.7,3.5l-4.7.3-1.7-3.8h-6.3l-7.7,6.5s-7.3,2.1-5.7-6.5l3-13.9-1-4.2-3.9-2.5v-3.6h-9.1l-8.7-1.7c-8.8-5-18.2,3.4-18.2,3.4l-12.1,1.6-4.2-1.7v29.2c-.4,3.5-2,6.6-4.2,9.3l2.7,24.4,9.6,12v9.3l-9.6,7.2c-10.1-1.5-9.9,11.9-9.9,11.9l-1.9,10.9c-9.2-2.7-8.2,10-8.2,10l-4.3,14-1.2.6,23.6-2,11.5-9.4,24.1-17.9-8-4,4-4.7c7.6,1.3,16.4-7.2,16.4-7.2,13.3-7.2,21.3,1.9,21.3,1.9l11.3,2.8,18,20.5,6.7,8.6,5.3-3.9,5.4,3.9,5.3,8.8,4.7-1.3c10.7-4.7,15,6.7,15,6.7l11,22.7h10.7c14,8.7,19.7,37.1,19.7,37.1h0c.9-.6,1.9-1.2,2.9-1.8l4.3-1h0l12.3-3,7.3-12h13s0-19.1,12-15l12-10v-13s-2-12-10-11Z"></path>
    </g>
    <g>
      <path class="st40"
        d="M199.7,292.9l-2.7-24.4c-6.2,7.6-16.8,11.7-16.8,11.7h-30l-20.9,5.2h0s-15.1,3.8-15.1,3.8c-22.5-6-22.5,0-22.5,0v22.5l-3.3,2.6c.2,7.9-1.1,15.6-2.4,21.4,22.1,4.8,32.4,7.5,38.7,10.1,0,0,9.8,2.1,14.5,2.1,1.1,0,1.9-.1,2.2-.4,1.4.6,1.7.8,2.5,1.2.3.1.5.3.8.5h0c3.7,1.7,6.4,4.8,8.3,8.4,2.6,5,3.6,11.2,3.5,16.5,0,1.8-.2,3.5-.5,5l19.4-10.7,4.3-14s-1-12.7,8.2-10l1.9-10.9s-.2-13.4,9.9-11.9l9.6-7.2v-9.3l-9.6-12Z"></path>
    </g>
    <g>
      <path class="st42"
        d="M380.2,431.4h0s-5.7-28.5-19.7-37.1h-10.7l-11-22.7s-4.3-11.3-15-6.7l-4.7,1.3-5.3-8.8-5.4-3.9-5.3,3.9-6.7-8.6-18-20.5-11.3-2.8s-8-9.1-21.3-1.9c0,0-8.8,8.5-16.4,7.2l-4,4.7,8,4-24.1,17.9-11.5,9.4-22.4,1.3-19.4,10.7s0,0,0-.1c-.7,4-2.1,7.4-3.9,10.4h0c-1.1,1.9-2.3,3.6-3.6,5.2-4.2,5.3-14.1,18.8-16,33.6-1.9,14.9,10.2,31.5,17,44.4,6.8,12.9-.1,22.9-2.6,26-2.4,3.2-4.5,7.6-8,16.2-3.4,8.6-5.1,34.4,28,51.4,10.5,5.4,22,8,34.2,8.9v-12.1l8.1-12.7-2.7-12.7,2.7-9.2,3.1-14.8c14-1.3,21.3-34.7,21.3-34.7,2-12.7-1.3-12.7-1.3-12.7l-4.6-4.7,5.2-9.3,20.4-4.5,5.6-12.8-1.2-1.9,7.8,3.2-2.7,6.7,12,8,5.3-3.2h8.7l8,10.5h12l6-3.2c13.3,2.8,16.8-5.2,16.8-5.2l9.2,1.7,4.7-6.9v-10.6c8-.2,12.7-6.5,12.7-6.5h6l12.5,6.5,3.4-2.8s0,0-.1,0Z"></path>
    </g>
    <g>
      <path class="st2"
        d="M482.5,652.9s4-14.7,16-11.3c0,0,18,2,18-6.7,0,0,2-12,4.7-11.3,0,0,1.3-8-6.7-8.7,0,0-14.7,2.7-2-10,0,0,8-5.3,3.3-11.3,0,0-4-13.3.7-13.3,0,0,4-8.7,10.7-6.7l8,2.7v-7.3h-5.3l2-12-.7-7.3s13.3-13.3,15.3-11.3l13.3-.2,6.4-9.7c-10.5-14.1-21.1-29.3-27.7-41.2-14.8-26.7-15.5-44.3-14.1-68.5.4-7.7,1.1-14.4,1.8-20.2h-10.1l-5,6c-5,8-15,3-15,3l-8-9h-8.7l-4.3-5-8,12-13.9,8v-10l-3.1-5-6-10-12,10c-12-4-12,15-12,15h-13l-7.3,12-16.7,4c-21,11-5,32-5,32h13.8v5l-7.8,7v10h7.8l6.2,21c6.1,22-7,29-7,29l-7,14,14.1,21c11.5.8,18.9,1.5,18.9,1.5,3,8.3,11.5,26.6,11.5,26.6,5.7,16.4,28.2,41.2,50.8,61.9l3-5.7Z"></path>
    </g>
    <g>
      <path class="st39"
        d="M391.2,533.6s13.1-7,7-29l-6.2-21h-7.8v-10l7.8-7v-5h-13.8s-12.3-16.1-1.2-27.5h0s-12.5-6.5-12.5-6.5h-6s-4.7,6.3-12.7,6.5v3.5c.4,3.1,1.3,5.7,0,7.1l-4.7,6.9-9.2-1.7s0,0,0,0c0,0,0,0,0,0,0,0,0,0,0,.2,0,0,0,0,0,0,0,0,0,.1-.1.2,0,0,0,0,0,0,0,0-.1.2-.2.3,0,0,0,0,0,0-.2.2-.4.5-.6.8,0,0,0,0,0,0-.3.3-.6.6-.9,1-.9.8-2.2,1.7-3.9,2.3,0,0,0,0,0,0-.7.2-1.4.5-2.3.6,0,0,0,0,0,0-.4,0-.9.1-1.3.2-3.7.5-7.2-.5-7.2-.5l-6,3.2h-2.2s-9.8,0-9.8,0l-8-10.5h-8.7l-5.3,3.2-12-8,2.7-6.7c-5.3-7.3-12.3-10.4-12.3-10.4l5.6,9-5.6,12.8-20.4,4.5-5.2,9.3,4.6,4.7s3.3,0,1.3,12.7c0,0-7.3,33.3-21.3,34.7l-3.1,14.8-2.7,9.2,2.7,12.7-8.1,12.7v12.1s22.6,0,26.7-.3h0c18.5-1.5,37.6-5,55.9-7.5,28.6-3.9,85-.7,114.4,1.3l-14.1-21,7-14Z"></path>
    </g>
    <g>
      <path class="st14"
        d="M581,686.2c5.2,3.7,18.3,13.2,29.5,11.5,11.2-1.7,8.8-19.1,4.6-35.3-4.2-16.2-2.1-20.5,3.4-40.3s-14-42.4-22-53.7c-4.5-6.3-17.2-22.4-30.3-40l-6.4,9.7-13.3.2c-2-2-15.3,11.3-15.3,11.3l.7,7.3-2,12h5.3v7.3l-8-2.7c-6.7-2-10.7,6.7-10.7,6.7-4.7,0-.7,13.3-.7,13.3,4.7,6-3.3,11.3-3.3,11.3-12.7,12.7,2,10,2,10,8,.7,6.7,8.7,6.7,8.7-2.7-.7-4.7,11.3-4.7,11.3,0,8.7-18,6.7-18,6.7-12-3.3-16,11.3-16,11.3l-3,5.7c2.4,2.2,4.8,4.3,7.1,6.4,24.8,21.7,45.9,37.6,60.7,37.5,14.8-.2,16.9-12.9,18-20.1,1.1-7.2,10.5.3,15.8,3.9Z"></path>
    </g>
  </g>
</svg>