<svg id="Layer_1" xmlns="http://www.w3.org/2000/svg" xmlns:xlink="http://www.w3.org/1999/xlink" version="1.1" viewBox="0 0 1124 1398">
  <!-- Generator: Adobe Illustrator 29.1.0, SVG Export Plug-In . SVG Version: 2.1.0 Build 142)  -->
  <defs>
    <style>
      .st0 {
        fill: none;
      }

      .st1,
      .st2,
      .st3,
      .st4 {
        fill: #86b941;
      }

      .st5 {
        fill-opacity: .3;
        fill-rule: evenodd;
      }

      .st5,
      .st6 {
        fill: #fff;
      }

      .st16,
      .st17,
      .st18 {
        fill: #76a831;
      }

      .st23 {
        fill: #f7feec;
      }

      .st24 {
        fill: #3f74c7;
      }

      .st26,
      .st27,
      .st28 {
        fill: #a0d557;
      }

      .st29 {
        fill: #3860ad;
      }

      .st57,
      .st58,
      .st59,
      .st60 {
        fill: #669525;
      }

      .st61 {
        fill: #626262;
      }
    </style>
  </defs>
  <g>
    <path class="st1" d="M790.2,1088l-11-18v-28l10-11-8.2-14c-.3-.8-8-17.5-15.2-29s-19.7-21.3-23.3-23.7c-3.7-2.3-23.2-3.7-38-6.2s-37.2-6.8-41.2-7.2-2.5-7.3-5-14.7c0,0-1-2.8-5.3-14.3l-29.9,10v-13c-7-13-13.2,0-13.2,0l-8.8,18-33,11-5.9,10-30.3,12h-4.6c-5.7,28.3,12,35,12,35l29.8,16c13,11,0,22,0,22l16,34-1.6,15,12.7,24-12.7,26.8c6-2,8.7,4.2,10.5,9.7s6.2,9.5,12.5,13,5,12.8,6.5,19.2,5,5.5,10.2,4.7,12.5,5.8,17.5,8,10.8,0,18.5,1,20.3-5.3,21.7-11c1.3-5.7.3-17.3,9.3-11.3,6.8,4.5,12.3,16.3,13.1,26.9l25.9-10.9v-39s0-11,16-10c0,0,35-21,45-34,0,0,10-14,0-21Z" />
  </g>
  <g>
    <path class="st58" d="M230.1,381.8l5.6-4.4v-14.9l16-4.4c17.3-12,43.3,2.7,43.3,2.7l11.8,10.7c10.5,1.3,5.5-5.6,5.5-5.6-10-4.9-3.3-7.8-3.3-7.8h22.6l21.3,7.8c-.9-3.1-1.6-5.4-1.6-5.4-6.7-30.3-15.7-46-19.3-56.7-3.7-10.7,1.8-19.2,3.5-24.7s8.2-22.2,8.5-31.1c.4-8.9,2.5-15.6,7.1-23.6s13.7-18.5,18.5-26,6.6-12.1,7.8-16.8c1.2-4.7.1-18-.8-25.8s3.8-11.7,7.8-15.3c3.9-3.6,7.2-9.5,7.2-9.5,14.3-22.8,22.3-47.4,26.2-62.5-9.8-9-22.2-7.7-22.2-7.7l-30,10h-28.9c-.1.9-.4,1.8-1.5,3.1-4,4.5-19.5,4.7-34,19.4-4.6,4.7-16.9,19.2-30.3,35.7l12.5,12.1s6.2,16.7-6.2,25.3l-13.8,13.3,8,18.7s8.2.7,2.8,10l-15.9,39.3,7.1,4.7-9,22.7s17-2.7,10.4,9.3c0,0-9.3,7.3-17.3,13.3v6.7h-12l-12.7,18.7-22,16.7,7.6,30,19.8,12.1Z" />
  </g>
  <g>
    <path class="st3" d="M283.4,141l-12.5-12.1c-9,11.1-18.5,23.1-26.6,33.7-20,26.3-23.6,59.1-23.6,74.1s-31,34.5-37,53.5-4.5,31-13,60.5-9,61.5-16,80.5c-.2.5-.4,1-.5,1.5h10.2l12.8,18.8,12.6-12.8c4,9.3,16.7,6,16.7,6,11.3-10,0-13.3,0-13.3l28.7-34.7-8.7-12,3.7-2.9-19.8-12.1-7.6-30,22-16.7,12.7-18.7h12v-6.7c8-6,17.3-13.3,17.3-13.3,6.7-12-10.4-9.3-10.4-9.3l9-22.7-7.1-4.7,15.9-39.3c5.4-9.3-2.8-10-2.8-10l-8-18.7,13.8-13.3c12.4-8.7,6.2-25.3,6.2-25.3Z" />
  </g>
  <g>
    <path class="st28" d="M357.7,675.7s-5-30,21-38l28-39,10-15v-25l18.1-20h23.9s20.2-18.9,19.1-41l-15.1-12,3.6-15.1s0,0,0,0c-10.8-5.6-20.1-11.8-20.3-17.6-.3-11.2-2.5-18.5-8.8-27.9s-11.2-6.1-12.8-5.4-7.4,5.2-11.7,5.4c-4.3.1-8.9,3.6-18.2,10.1-9.3,6.5-14.7,4.4-18,2.2-3.4-2.2-3.2-13.5-1.7-20.4,1.5-7-1.8-14.2-3.9-18.6-2.1-4.4-11.1-16.1-12.9-18.2-1.2-1.3-3.6-9.1-5.2-14.5l-21.3-7.8h-22.6s-6.7,2.9,3.3,7.8c0,0,5,6.9-5.5,5.6l-11.8-10.7s-26-14.7-43.3-2.7l-16,4.4v14.9l-9.3,7.3,8.7,12-28.7,34.7s11.3,3.3,0,13.3c0,0-12.7,3.3-16.7-6l-14.7,14.9v74.4l-14.7,4.7v16.7h11.3l14,16s10.7,12.7,1.3,32.7l-8.7,3.3,15.3,11.3,16.6-9.3,12.8,9.3,8-12,25.3,5.3s29.4,25.3,18,49.3l22,16.7h24.7l36.3,16.7h8.6l-8.2-13Z" />
  </g>
  <g>
    <path class="st17" d="M210.3,603.4l-16.6,9.3-15.3-11.3,8.7-3.3c9.3-20-1.3-32.7-1.3-32.7l-14-16h-11.3v-16.7l14.7-4.7v-74.4l2.1-2.1-12.8-18.8h-10.2c-6.5,17.8-6.7,24-17.5,44-11,20.5-28,38-35.5,49.5s3.5,36,1,49-13.5,24.5-21,25.5-13.4,2-19.1,9.1c-5.8,7.1,6.3,20.9,15.3,32.3s12.9,15.1,13.4,21.6,24.5,23,24.5,36.5,7,18.5,17,34.5,18,17.5,30,10,17-18,18-25.5,4-8,8-6v-20.5l22.1-28,7.8-55.6-7.8-5.7Z" />
  </g>
  <g>
    <path class="st16" d="M416.8,782.2l16.5,7h24l13.4-14.5s-2.9-19.5,12.1-7.5l23.2,22h35.3l11.3,6.2h32.6s0,0,0,0c2-7.8,10.4-16.2,7-21-4.5-6.5,3.2-10,7.8-15s2.3-12.1,0-15.3c-2.3-3.2-8-7.8-8.8-10.2s1.2-9.7,2.8-18.7-3.8-13.3-5.7-15c-1.8-1.7-22.2-22.7-22.2-22.7,1.5-13-3.7-23.5-7.5-28.3-3.8-4.8-15.2-7.7-18.5-13-3.3-5.3,2.8-14.5,7.5-21s2.7-29.5,1.3-40.8c-1.3-11.3-2.3-25.5-2.3-25.5,1.7-19.3-11.2-36.2-19.7-42-8.5-5.8-20.2-17-33-23.3-6.2-3.1-17.6-7.7-27.7-12.9l-3.6,15.1,15.1,12c1.1,22.1-19.1,41-19.1,41h-23.9l-18.1,20v25l-10,15-28,39c-26,8-21,38-21,38l12,19-6,10v24h15l9.5,20.5c5.5,12.5-3,14.1-3,14.1l8,25.9,9.3,4.3c2.6-7.9,7-13.5,14.3-11.2Z" />
  </g>
  <g>
    <path class="st60" d="M653.1,922c0-.2-.1-.4-.2-.5-4.5-12-24.7-37.7-27.2-63.2s-34-45.5-40.1-54.8c-1.6-2.4-1.6-5.1-.9-7.8h-32.6l-11.3-6.2h-35.3l-23.2-22c-15-12-12.1,7.5-12.1,7.5l-13.2,14.2,13.7,36.8-7.3,11v32.3l13.9,4.7,20.9,46-2,13,15,37h20.8l30.3-12,5.9-10,33-11,8.8-18s6.2-13,13.2,0v13l29.9-10Z" />
  </g>
  <g>
    <path class="st59" d="M109,746s-24.3-17.3-26.6,0c-2.3,17.3-20.8,42.7-4.6,61.2,16.2,18.5,32.3,42.7,48.5,28.9,16.2-13.9,10.4-38.2,17.3-46.8,6.9-8.6,12.7-19,5.8-28.2-6.9-9.2-23.1-19.6-40.4-15Z" />
  </g>
  <g>
    <path class="st2" d="M365.9,688.7h-8.6l-36.3-16.7h-24.7l-22-16.7c11.3-24-18-49.3-18-49.3l-25.3-5.3-8,12-5-3.6-7.8,55.6-22.1,28v20.5c4,2,13,18.5,21.2,24.6s28.7,32.7,39.7,49c11.1,16.2,22.6,40.5,33.1,46.3,10.5,5.8,31,13.7,34.1,22.1,1.5,4,4.9,8.9,8.8,13.8l42.2-13.3s25.5,6,31.5,0c0,0,1.5-18,0-30,0,0-.6-19.2,3.7-32.3l-9.3-4.3-8-25.9s8.5-1.6,3-14.1l-9.5-20.5h-15v-24l6-10" />
  </g>
  <g>
    <path class="st27" d="M498.2,920l-20.9-46-13.9-4.7v-32.3l7.3-11-13.7-36.8-.3.3h-24l-16.5-7c-19.5-6-18,43.5-18,43.5,1.5,12,0,30,0,30-6,6-31.5,0-31.5,0l-42.2,13.3c4.3,5.4,9.2,10.9,13.1,15.7,7.4,9.1,4.6,13.5,1.9,19.5-2.6,6.1,6.1,21.2,6.1,21.2,17.1,34.2,44.6,36.5,55.6,38.8,4.4.9,9.4,5.1,14.2,11.1h0l13.6-5.6h25.4l23.2,12,13.4-6s19,4,20-6l-15-37,2-13Z" />
  </g>
  <g>
    <path class="st4" d="M585.2,1077l-16-34s13-11,0-22l-29.8-16s-17.6-6.7-12-35h-16.2c-1,10-20,6-20,6l-13.4,6-23.2-12h-25.4l-13.6,5.6h0c7.3,9.2,14.1,22.8,17.3,36.2,5.2,22.3,21.3,45.7,38.2,53.6,16.9,7.9,27.1,53.6,30.9,63.5,3.8,9.9,2.7,32.1,15.9,41.1,13.2,9,15.5,23.5,20.6,38.7,5.1,15.1,21.1,12.2,34.7,6.5,13.6-5.7,9-20.2,4.5-33.4-4.5-13.1-6.7-17.6-7.6-25.8-.9-8.2,7.5-11.2,13.5-13.2l12.7-26.8-12.7-24,1.6-15Z" />
  </g>
  <g>
    <path class="st57" d="M989.1,1088.8c-1.8-9.2-41.9-26.2-47.1-40.8-5.2-14.7-25.3-30.7-35.3-36.2s-15.3-9.5-17.7-10.7c-2.3-1.2-16-.3-21.8-2.3s-9.2-4.7-17.8-6c-8.7-1.3-18.7-1.7-26-3-7.3-1.3-16.5,5.5-20.8,8s-7.2,4.7-11.3,8.5-9.8,11.5-10.2,10.7l8.2,14-10,11v28l11,18c4.3,3,4.9,7.2,4.2,11.1l26.1,7.2s6.1,2,9.7-4.3l5-10.3s7.3.7,8.7-7.3h5.3v11.1l-2.7,11.1,18,9s15.3-4,17.3-10.7l8,3.3h14.7l8.7,7.3,14.7-4.7-8.3-16.1s2.4-11.5,17,0c0,0,11.3,13.5,31.9,12.8l24.2-3.2c-1.9-5.4-2.8-11.3-3.6-15.6Z" />
  </g>
  <g>
    <path class="st18" d="M913.2,1115.6l-8.7-7.3h-14.7l-8-3.3c-2,6.7-17.3,10.7-17.3,10.7l-18-9,2.7-11.1v-11.1h-5.3c-1.3,8-8.7,7.3-8.7,7.3l-5,10.3c-3.6,6.3-9.7,4.3-9.7,4.3l-26.1-7.2h0c-.9,5.3-4.2,9.9-4.2,9.9-10,13-45,34-45,34-16-1-16,10-16,10v39l-25.9,10.9h0c.3,3.5,0,6.8-.8,9.7-3.3,12,3,14,10.3,19.7,7.3,5.7,12,8.3,18,13.3s7-5.3,14.7-7c7.7-1.7,8.7,5.3,8,12,0,0,.3-4.3,2.3,8.3,2,12.7-2,21.3-5.7,25.7-3.7,4.3-1.9,14.7,0,20.7,1.9,5.9,1.6,14.7,9.3,20,7.7,5.3,27.8,11.7,33,12.2,5.2.5,23-5.2,30.3-6.8,7.3-1.7,19-14,26-20s42,2,47.8,2.8,5,.2,4.8-3.3c-.2-3.5.5-4.5,4.2-6l-12.5-22.2v-15s10-26,0-32l-20-21-4.7-11.1,7.7-8.9s-7.2-36,10.9-45l26.1-10,23.4-9-9.1-18.9-14.3,4.5Z" />
  </g>
  <g>
    <path class="st26" d="M927.5,1111.1l9.1,18.9-23.4,9-26.1,10c-18.1,9-10.9,45-10.9,45l-7.7,8.9,4.7,11.1,20,21c10,6,0,32,0,32v15l12.5,22.2c3.7-1.5,18.5,1.5,26.5,2.7,8,1.2,13.3-4.5,27.6-10,14.3-5.5,29.9-21.3,33-25.8,3.1-4.5,44.9-9.1,51.8-14.8,6.9-5.6,17.9-55.1,19.2-74.6,1.4-19.5-15.7-32.7-22.2-41.4-6.5-8.7-25.3-18.2-37-22-6.2-2-9.7-7.7-11.9-13.9,0,0,0,0,0,0l-24.2,3.2c-20.7.7-31.9-12.8-31.9-12.8-14.6-11.5-17,0-17,0l8.3,16.1" />
  </g>
</svg>