<?xml version="1.0" encoding="UTF-8"?>
<svg id="Layer_1" xmlns="http://www.w3.org/2000/svg" xmlns:xlink="http://www.w3.org/1999/xlink" version="1.1" viewBox="0 0 681.9 1199">
  <!-- Generator: Adobe Illustrator 29.1.0, SVG Export Plug-In . SVG Version: 2.1.0 Build 142)  -->
  <defs>
    <style>
      .st0, .st1 {
        fill: none;
      }

      .st2 {
        filter: url(#drop-shadow-1);
      }

      .st2, .st3, .st4, .st5 {
        fill: #86b941;
      }

      .st3 {
        filter: url(#drop-shadow-3);
      }

      .st4 {
        filter: url(#drop-shadow-2);
      }

      .st5 {
        filter: url(#drop-shadow-8);
      }

      .st6 {
        fill-opacity: .3;
        fill-rule: evenodd;
      }

      .st6, .st7 {
        fill: #fff;
      }

      .st8 {
        fill: url(#linear-gradient2);
      }

      .st9 {
        fill: url(#linear-gradient1);
      }

      .st10 {
        fill: url(#linear-gradient3);
      }

      .st11 {
        fill: url(#linear-gradient6);
      }

      .st12 {
        fill: url(#linear-gradient7);
      }

      .st13 {
        fill: url(#linear-gradient5);
      }

      .st14 {
        fill: url(#linear-gradient4);
      }

      .st15 {
        fill: #76a831;
        filter: url(#drop-shadow-6);
      }

      .st16 {
        fill: #f7feec;
      }

      .st17 {
        fill: #3f74c7;
      }

      .st18 {
        fill: url(#linear-gradient);
      }

      .st19 {
        fill: #3860ad;
      }

      .st20 {
        clip-path: url(#clippath-11);
      }

      .st21 {
        clip-path: url(#clippath-10);
      }

      .st22 {
        clip-path: url(#clippath-15);
      }

      .st23 {
        clip-path: url(#clippath-13);
      }

      .st24 {
        clip-path: url(#clippath-14);
      }

      .st25 {
        clip-path: url(#clippath-12);
      }

      .st26 {
        clip-path: url(#clippath-1);
      }

      .st27 {
        clip-path: url(#clippath-3);
      }

      .st28 {
        clip-path: url(#clippath-4);
      }

      .st29 {
        clip-path: url(#clippath-2);
      }

      .st30 {
        clip-path: url(#clippath-7);
      }

      .st31 {
        clip-path: url(#clippath-6);
      }

      .st32 {
        clip-path: url(#clippath-9);
      }

      .st33 {
        clip-path: url(#clippath-8);
      }

      .st34 {
        clip-path: url(#clippath-5);
      }

      .st1 {
        stroke: #fff;
        stroke-linecap: round;
        stroke-linejoin: round;
        stroke-width: 1.5px;
      }

      .st35 {
        fill: #626262;
      }

      .st36 {
        filter: url(#drop-shadow-7);
      }

      .st36, .st37 {
        fill: #669525;
      }

      .st37 {
        filter: url(#drop-shadow-4);
      }

      .st38 {
        fill: #a0d557;
        filter: url(#drop-shadow-5);
      }

      .st39 {
        clip-path: url(#clippath);
      }
    </style>
    <filter id="drop-shadow-1" x="208" y="154" width="415" height="347" filterUnits="userSpaceOnUse">
      <feOffset dx="0" dy="0"/>
      <feGaussianBlur result="blur" stdDeviation="20"/>
      <feFlood flood-color="#000" flood-opacity=".4"/>
      <feComposite in2="blur" operator="in"/>
      <feComposite in="SourceGraphic"/>
    </filter>
    <clipPath id="clippath">
      <path class="st0" d="M430.2,441l12.8-15.8,11.8-5.5h32.5l26.1-19.3,31.5,1.2,17.1-12.6-9.7-32s-10-22-24-18v-64s8-34-18-28l-25.6-10-34.4,10s-18-30-52-10l-22-6.9-22-9.1s-16-14-34,0l-42.6-6-6.4,18.8c12.4,4.1,7.6,21.5,7.6,21.5-18,7-7.6,14.3-7.6,14.3l26.3,15.4,7.3-5.4c3.3-4.8,8.3,0,8.3,0l5.7,13.7h22c2.7-18.4,14.7-18.2,14.7-18.2,16.7-3.3,38,10.7,38,10.7h15.7l13.9,29.3c-19-2-17.7,8.9-17.7,8.9,0,8.9,14.7,11.8,14.7,11.8v64.8l-10.9,7.9c-12.9,6-5.1,17.3-5.1,17.3l12,7v8.4h13.8Z"/>
    </clipPath>
    <clipPath id="clippath-1">
      <rect class="st0" x="435.3" y="260.5" width="72" height="83.5"/>
    </clipPath>
    <linearGradient id="linear-gradient" x1="456.4" y1="902.9" x2="486.9" y2="902.7" gradientTransform="translate(0 1199.3) scale(1 -1)" gradientUnits="userSpaceOnUse">
      <stop offset="0" stop-color="#2bcb7e"/>
      <stop offset="1" stop-color="#37a8e2"/>
    </linearGradient>
    <filter id="drop-shadow-2" x="0" y="0" width="508" height="570" filterUnits="userSpaceOnUse">
      <feOffset dx="0" dy="0"/>
      <feGaussianBlur result="blur1" stdDeviation="20"/>
      <feFlood flood-color="#000" flood-opacity=".4"/>
      <feComposite in2="blur1" operator="in"/>
      <feComposite in="SourceGraphic"/>
    </filter>
    <clipPath id="clippath-2">
      <path class="st0" d="M430.2,441h-13.8v-8.4l-12-7s-7.9-11.3,5.1-17.3l10.9-7.9v-64.8s-14.7-2.9-14.7-11.8c0,0-1.3-10.9,17.7-8.9l-13.9-29.3h-15.7s-21.3-14-38-10.7c0,0-12-.2-14.7,18.2h-22l-5.7-13.7s-5-4.8-8.3,0l-7.3,5.4-26.3-15.4s-10.4-7.3,7.6-14.3c0,0,4.8-17.4-7.6-21.5l6.4-18.8-1.4-.2s-56-127.8-106-133.8l-26.4-20.8c-1,1.5-2.2,3.3-3.4,5.5,0,0-.1.2-.2.3h0l-1.9,4.6c-5,9.4-7.8,17.4-8.6,21.8-.9,5.1-.1,25.6.3,34.3s2.2,26.9,2.2,26.9c0,0-6.2-2.5-13.1,1.2s-16.7,10.8-21.5,12.2-15.1,5.3-23,17.3-13.1,20-13.7,26.8-3.3,36.5,7.1,58.3c10.4,21.7,12.9,14.8,19.3,36.5,6.4,21.7,8.6,30.5,21.6,46.5,13,16,17.6,21.3,27.2,31.1s17.2,11.1,37.8,25.1,40.7,21.7,51.4,34.1c10.8,12.4,23.5,27.5,24.5,38.6l1.2,21.5h17.1l5.3,6.4,48.4-14.7c11.1,16.4,24.9,7.6,24.9,7.6l23.8-12.7c13.8-6.7,17.5,4.2,17.5,4.2l26.9.9v-14.9l12.5-13.5h17.9l1.4,1.1-23.7-18.1,6.8-8.4Z"/>
    </clipPath>
    <clipPath id="clippath-3">
      <rect class="st0" x="211.7" y="277" width="72" height="83.5"/>
    </clipPath>
    <linearGradient id="linear-gradient1" x1="232.9" y1="886.5" x2="263.3" y2="886.2" gradientTransform="translate(0 1199.3) scale(1 -1)" gradientUnits="userSpaceOnUse">
      <stop offset="0" stop-color="#2bcb7e"/>
      <stop offset="1" stop-color="#37a8e2"/>
    </linearGradient>
    <filter id="drop-shadow-3" x="191" y="406" width="361" height="287" filterUnits="userSpaceOnUse">
      <feOffset dx="0" dy="0"/>
      <feGaussianBlur result="blur2" stdDeviation="20"/>
      <feFlood flood-color="#000" flood-opacity=".4"/>
      <feComposite in2="blur2" operator="in"/>
      <feComposite in="SourceGraphic"/>
    </filter>
    <clipPath id="clippath-4">
      <path class="st0" d="M491,516.6h-15.8l-5.2-7.2s-26.2,4.4-15.3-14.7c0,0,5.6-8.5-7.8-7.8v-19.5l-1.4-1.1h-17.9l-12.5,13.5v14.9l-26.9-.9s-3.7-10.9-17.5-4.2l-23.8,12.7s-13.9,8.9-24.9-7.6l-48.4,14.7-5.3-6.4h-17.1c.6,12.7,1.4,27.2,2.9,36,2.4,15,10.8,50.4,18.6,67.1,2.3,5,3.8,8.6,4.6,11.4h12l24,15.1,18-3.3h33c11,1.3,17.7-24.2,17.7-24.2,19.7-14.9,41.3-6.2,41.3-6.2l17-21.9s-3.7-17.7,13.5-14.2c0,0,11.8,2,17.8-2.3h11.3v-12.3l-5.5-12.3,13.5-19.4Z"/>
    </clipPath>
    <clipPath id="clippath-5">
      <rect class="st0" x="325.1" y="501.4" width="72" height="83.5"/>
    </clipPath>
    <linearGradient id="linear-gradient2" x1="346.3" y1="662.1" x2="376.7" y2="661.8" xlink:href="#linear-gradient"/>
    <filter id="drop-shadow-4" x="363" y="340" width="249" height="238" filterUnits="userSpaceOnUse">
      <feOffset dx="0" dy="0"/>
      <feGaussianBlur result="blur3" stdDeviation="20"/>
      <feFlood flood-color="#000" flood-opacity=".4"/>
      <feComposite in2="blur3" operator="in"/>
      <feComposite in="SourceGraphic"/>
    </filter>
    <clipPath id="clippath-6">
      <path class="st0" d="M541.9,471.5h0l-1.6-2.6v-64l4.5-3.4-31.5-1.2-23.6,17.1-2.6,2.2h-32.5l-11.8,5.5-19.7,24.2,23.7,18.1v19.5c13.3-.7,7.8,7.8,7.8,7.8-10.9,19.1,15.3,14.7,15.3,14.7l5.2,7.2h15.8s16.2,2.7,25.5-5.1l34.9-24.5"/>
    </clipPath>
    <clipPath id="clippath-7">
      <rect class="st0" x="455.5" y="401.4" width="72" height="83.5"/>
    </clipPath>
    <linearGradient id="linear-gradient3" x1="476.7" y1="762.1" x2="507.2" y2="761.8" xlink:href="#linear-gradient"/>
    <filter id="drop-shadow-5" x="417" y="426" width="227" height="226" filterUnits="userSpaceOnUse">
      <feOffset dx="0" dy="0"/>
      <feGaussianBlur result="blur4" stdDeviation="20"/>
      <feFlood flood-color="#000" flood-opacity=".4"/>
      <feComposite in2="blur4" operator="in"/>
      <feComposite in="SourceGraphic"/>
    </filter>
    <clipPath id="clippath-8">
      <path class="st0" d="M531,583.9l3.3-1.4c8.4-3.5,19.5-7.3,32-7.3,4.1,0,8.5.4,12.9,1.4.7.2,1.4.3,2,.4,2.6-11.1,4.9-29.1-2.9-42l-22-12v-28l-5-8.1-34.9,24.5c-9.2,7.8-25.5,5.1-25.5,5.1l-13.5,19.4,5.5,12.3v12.3l33.8,31.2,14.2-7.9Z"/>
    </clipPath>
    <clipPath id="clippath-9">
      <rect class="st0" x="494" y="476.7" width="72" height="83.5"/>
    </clipPath>
    <linearGradient id="linear-gradient4" x1="515.2" y1="686.7" x2="545.7" y2="686.5" xlink:href="#linear-gradient"/>
    <filter id="drop-shadow-6" x="363" y="500" width="214" height="196" filterUnits="userSpaceOnUse">
      <feOffset dx="0" dy="0"/>
      <feGaussianBlur result="blur5" stdDeviation="20"/>
      <feFlood flood-color="#000" flood-opacity=".4"/>
      <feComposite in2="blur5" operator="in"/>
      <feComposite in="SourceGraphic"/>
    </filter>
    <clipPath id="clippath-10">
      <path class="st0" d="M436.3,620.8l6-6.9h19l23.2,21.8s0,0,0,0c-2.7-7-4.8-13.8-4-18.1,1.3-7.2,1.6-5,6-7.7l2.9-1.7,3.9-3.4v.5c.4-.3,2.7-1.7,5.8-3.8l17.7-9.8-33.8-31.2h-11.3c-6,4.3-17.8,2.3-17.8,2.3-17.2-3.5-13.5,14.2-13.5,14.2l-17,21.9,13,22Z"/>
    </clipPath>
    <clipPath id="clippath-11">
      <rect class="st0" x="431.8" y="522.3" width="72" height="83.5"/>
    </clipPath>
    <linearGradient id="linear-gradient5" x1="453" y1="641.1" x2="483.4" y2="640.9" xlink:href="#linear-gradient"/>
    <filter id="drop-shadow-7" x="190" y="536" width="375" height="324" filterUnits="userSpaceOnUse">
      <feOffset dx="0" dy="0"/>
      <feGaussianBlur result="blur6" stdDeviation="20"/>
      <feFlood flood-color="#000" flood-opacity=".4"/>
      <feComposite in2="blur6" operator="in"/>
      <feComposite in="SourceGraphic"/>
    </filter>
    <clipPath id="clippath-12">
      <path class="st0" d="M499.9,703.1c-6.2-11.9-11.2-18.8-9.7-26.5s3.7-16.6-.3-27.5c-1.6-4.2-3.5-8.9-5.3-13.4l-23.2-21.8h-19l-6,6.9-13-22s-21.6-8.8-41.3,6.2c0,0-6.6,25.5-17.7,24.2h-33l-18,3.3-24-15.1h-12c2,6.6.7,8.5-.5,12.3-1.8,5.3-15.5,26.9-20,37.8s-12.4,28.3,2.7,48.4c15.1,20.1,12.5,13.2,21.5,31.8,9,18.7,5.7,30.7,9,38.3,1.8,4.2,3.6,8.1,7,13.9l11.3-15s2-22,19-21c0,0,14.3-2.5,25.2,5.2,0,0,12.9,10.3,11.9-10.5l6.5-7.9h29.5l9.1,13.2,16.9-11.2h33l15.9,11.8c4.1-.5,9.2,1.1,14.9-6.9s9.4-11.9,11.6-26.1,4.3-16.6-1.9-28.6Z"/>
    </clipPath>
    <clipPath id="clippath-13">
      <rect class="st0" x="339.9" y="646.1" width="72" height="83.5"/>
    </clipPath>
    <linearGradient id="linear-gradient6" x1="361.1" y1="517.3" x2="391.5" y2="517.1" xlink:href="#linear-gradient"/>
    <filter id="drop-shadow-8" x="211" y="690" width="325" height="509" filterUnits="userSpaceOnUse">
      <feOffset dx="0" dy="0"/>
      <feGaussianBlur result="blur7" stdDeviation="20"/>
      <feFlood flood-color="#000" flood-opacity=".4"/>
      <feComposite in2="blur7" operator="in"/>
      <feComposite in="SourceGraphic"/>
    </filter>
    <clipPath id="clippath-14">
      <path class="st0" d="M426.3,752.8l-16.9,11.2-9.1-13.2h-29.5l-6.5,7.9c1,20.8-11.9,10.5-11.9,10.5-10.8-7.8-25.2-5.2-25.2-5.2-17-1-19,21-19,21l-11.3,15c2.8,4.8,6.6,10.7,12.5,19.1,13.1,18.6,24.5,42.6,30.8,55.6,6.2,13,15.1,28.8,16.9,36.9,1.8,8.1,2.5,14.2,6.1,21.5,3.5,7.2,11.7,20.4,13.2,24.7s1.8,10-.4,13.1-4.5,1.6-8.2,3.4c-3.7,1.8-20.8,14.3-25.4,17.9-4.7,3.6-9.8,8.2-13.2,20.5-3.4,12.3-8.4,29.4-9.6,34.9s-4.8,23.7-6.8,31.1-4.8,15.9-8.5,18.9l.4.4h-.5l-2.8,2.9h0c-.2,0-.3.2-.4.5-1.1,1.1-3.7,4-4.5,4.7-1,.9-10,11.4-15.9,17.7-9.7,10.3-8.9,12.9-9.2,15.3,0,0,0,0,0,0h28.9l30-10s12.4-1.3,22.2,7.7l3.2-14.3,4.6-10.7h-.2l2-4.2h.3s.1-.5.4-1.4h0c2.3-7.9,14.2-46.5,28.2-62.3,15.6-17.6,38.9-41,45.6-50.2,6.7-9.2,10.8-14.7,19.4-47.4,8.6-32.7,15.8-62.2,16.7-78.6,1-16.3-2.6-38.3-.4-59.5,0,0,.1-20.7,0-26.9-.1-6.2-.9-16.1,3.1-16.5l-15.9-11.8h-33Z"/>
    </clipPath>
    <clipPath id="clippath-15">
      <rect class="st0" x="375" y="886.3" width="72" height="83.5"/>
    </clipPath>
    <linearGradient id="linear-gradient7" x1="396.1" y1="277.2" x2="426.6" y2="276.9" xlink:href="#linear-gradient"/>
  </defs>
  <path class="st7" d="M352.5,1136.7c-9.8-9-22.2-7.7-22.2-7.7l-30,10h-28.9s0,0,0,0c.3-2.4-.5-5,9.2-15.3,5.9-6.3,14.9-16.8,15.9-17.7.8-.7,3.4-3.6,4.5-4.7.1-.3.2-.4.4-.5h0s2.8-2.9,2.8-2.9h.5l-.4-.4c3.7-3,6.5-11.5,8.5-18.9s5.7-25.6,6.8-31.1,6.2-22.6,9.6-34.9c3.4-12.3,8.6-16.9,13.2-20.5,4.7-3.6,21.8-16.1,25.4-17.9,3.7-1.8,5.9-.3,8.2-3.4s1.9-8.7.4-13.1-9.7-17.5-13.2-24.7c-3.5-7.2-4.3-13.4-6.1-21.5-1.8-8.1-10.7-23.8-16.9-36.9-6.2-13-17.7-37.1-30.8-55.6-13.1-18.6-16.2-25.5-19.5-33-3.3-7.6,0-19.6-9-38.3-9-18.7-6.4-11.7-21.5-31.8-15.1-20.1-7.2-37.5-2.7-48.4,4.5-10.9,18.2-32.4,20-37.8s3.7-7-4.1-23.7c-7.8-16.7-16.2-52.1-18.6-67.1s-3.1-46.3-4-57.5-13.7-26.2-24.5-38.6c-10.8-12.4-30.8-20-51.4-34.1-20.6-14.1-28.2-15.3-37.8-25.1s-14.2-15.1-27.2-31.1-15.2-24.8-21.6-46.5c-6.4-21.7-8.9-14.8-19.3-36.5-10.4-21.7-7.7-51.4-7.1-58.3.5-6.8,5.7-14.8,13.7-26.9s18.2-16,23-17.3,14.7-8.5,21.5-12.2,13.1-1.2,13.1-1.2c0,0-1.8-18.2-2.2-26.9s-1.2-29.2-.3-34.3c.8-4.5,3.6-12.4,8.6-21.8l1.9-4.6h0c0,0,.1-.2.2-.3,1.3-2.2,2.4-4,3.4-5.5l26.4,20.8c50,6,106,133.8,106,133.8l44,6.2c18-14,34,0,34,0l22,9.1,22,6.9c34-20,52,10,52,10l34.4-10,25.6,10c26-6,18,28,18,28v64c14-4,24,18,24,18l9.7,32-21.7,16v64l16,26v28l22,12c7.8,13,5.5,31,2.9,42-.7-.1-1.3-.3-2-.4-4.4-1-8.7-1.4-12.9-1.4-12.5,0-23.6,3.8-32,7.3l-3.3,1.4-31.8,17.6c-3.2,2-5.4,3.5-5.8,3.8v-.5s-3.9,3.4-3.9,3.4l-2.9,1.7c-4.4,2.6-4.8.5-6,7.7-1.3,7.2,5.2,20.7,9.2,31.5,4.1,10.8,1.8,19.8.3,27.5s3.5,14.5,9.7,26.5c6.2,12,4.1,14.3,1.9,28.6-2.2,14.2-5.9,18.1-11.6,26.1-5.7,8-10.8,6.4-14.9,6.9-4.1.5-3.3,10.4-3.1,16.5.1,6.2,0,26.9,0,26.9-2.2,21.2,1.4,43.1.4,59.5-1,16.3-8.2,45.9-16.7,78.6-8.6,32.7-12.7,38.2-19.4,47.4-6.7,9.2-30,32.6-45.6,50.2-14,15.8-25.8,54.4-28.2,62.3h0c-.3.9-.4,1.4-.4,1.4h-.3s-2,4.2-2,4.2h.2l-4.6,10.7-3.2,14.3Z"/>
  <g>
    <path class="st2" d="M430.2,441l12.8-15.8,11.8-5.5h32.5l26.1-19.3,31.5,1.2,17.1-12.6-9.7-32s-10-22-24-18v-64s8-34-18-28l-25.6-10-34.4,10s-18-30-52-10l-22-6.9-22-9.1s-16-14-34,0l-42.6-6-6.4,18.8c12.4,4.1,7.6,21.5,7.6,21.5-18,7-7.6,14.3-7.6,14.3l26.3,15.4,7.3-5.4c3.3-4.8,8.3,0,8.3,0l5.7,13.7h22c2.7-18.4,14.7-18.2,14.7-18.2,16.7-3.3,38,10.7,38,10.7h15.7l13.9,29.3c-19-2-17.7,8.9-17.7,8.9,0,8.9,14.7,11.8,14.7,11.8v64.8l-10.9,7.9c-12.9,6-5.1,17.3-5.1,17.3l12,7v8.4h13.8Z"/>
    <g class="st39">
      <path class="st6" d="M501.1-116.5L-42.1,340.4l.5.5L501.5-116l-.5-.5h0ZM473-116.5L-70.2,340.4l.5.5L473.4-116l-.5-.5h.1ZM791.7,76.1L110.1,651.1l.5.5L792.2,76.7l-.5-.5h0ZM293.7,843L975.4,268l.5.5L294.1,843.5l-.5-.5h0ZM167.3,843L848.9,268l.5.5L167.7,843.5l-.5-.5h.1ZM181.3,843L862.9,268l.5.5L181.8,843.5l-.5-.5ZM877,268L195.3,843l.5.5L877.4,268.5l-.5-.5h.1ZM209.4,843L891,268l.5.5L209.9,843.5l-.5-.5ZM905.1,268L223.4,843l.5.5L905.5,268.5l-.5-.5h.1ZM237.5,843L919.1,268l.5.5L237.9,843.5l-.5-.5h.1ZM933.2,268L251.5,843l.5.5L933.6,268.5l-.5-.5h.1ZM265.6,843L947.2,268l.5.5L266,843.5l-.5-.5h.1ZM961.3,268L279.6,843l.5.5L961.7,268.5l-.5-.5h.1ZM989.4,268L307.7,843l.5.5L989.8,268.5l-.5-.5h0ZM321.8,843L1003.4,268l.5.5L322.2,843.5l-.5-.5h.1ZM1017.4,268L335.8,843l.5.5L1017.9,268.5l-.5-.5ZM349.8,843l681.6-575,.5.5L350.3,843.5l-.5-.5ZM1045.5,268L363.9,843l.5.5,681.6-575-.5-.5h0ZM377.9,843l681.6-575,.5.5L378.4,843.5l-.5-.5ZM1073.6,268L392,843l.5.5,681.6-575-.5-.5ZM406,843l681.6-575,.5.5L406.5,843.5l-.5-.5ZM1101.7,268L420.1,843l.5.5,681.6-575-.5-.5h0ZM434.1,843l681.6-575,.5.5L434.6,843.5l-.5-.5ZM124.1,651.1L805.8,76.1l.5.5L124.6,651.6l-.5-.5ZM819.8,76.1L138.2,651.1l.5.5L820.3,76.7l-.5-.5h0ZM152.2,651.1L833.9,76.1l.5.5L152.7,651.6l-.5-.5ZM847.9,76.1L166.3,651.1l.5.5L848.4,76.7l-.5-.5h0ZM180.3,651.1L861.9,76.1l.5.5L180.8,651.6l-.5-.5ZM876,76.1L194.3,651.1l.5.5L876.4,76.7l-.5-.5h.1ZM208.4,651.1L890,76.1l.5.5L208.9,651.6l-.5-.5ZM904.1,76.1L222.4,651.1l.5.5L904.5,76.7l-.5-.5h0ZM236.5,651.1L918.1,76.1l.5.5L236.9,651.6l-.5-.5h.1ZM932.2,76.1L250.5,651.1l.5.5L932.6,76.7l-.5-.5h.1ZM264.6,651.1L946.2,76.1l.5.5L265,651.6l-.5-.5h.1ZM960.3,76.1L278.6,651.1l.5.5L960.7,76.7l-.5-.5h0ZM292.7,651.1L974.3,76.1l.5.5L293.1,651.6l-.5-.5h0ZM988.4,76.1L306.7,651.1l.5.5L988.8,76.7l-.5-.5h0ZM117.1,825.4L1002.4,76.1l.5.5L117.6,825.9l-.5-.5ZM1016.4,76.1L131.1,825.4l.5.5L1016.9,76.7l-.5-.5h0ZM145.2,825.4L1030.5,76.1l.5.5L145.6,825.9l-.5-.5h.1ZM1044.5,76.1L159.2,825.4l.5.5L1045,76.7l-.5-.5h0ZM173.3,825.4L1058.6,76.1l.5.5L173.7,825.9l-.5-.5h.1ZM-56.2,340.4L487-116.5l.5.5L-55.7,340.9l-.5-.5ZM-28.1,340.4L515.1-116.5l.5.5L-27.6,340.9l-.5-.5ZM529.1-116.5L-14,340.4l.5.5L529.6-116l-.5-.5ZM0,340.4L543.2-116.5l.5.5L.5,340.9l-.5-.5ZM557.2-116.5L14,340.4l.5.5L557.7-116l-.5-.5ZM28.1,340.4L571.3-116.5l.5.5L28.6,340.9l-.5-.5ZM585.3-116.5L42.1,340.4l.5.5L585.8-116l-.5-.5ZM56.2,340.4L599.4-116.5l.5.5L56.6,340.9l-.4-.5h0ZM613.4-116.5L70.2,340.4l.5.5L613.9-116l-.5-.5ZM84.3,340.4L627.5-116.5l.5.5L84.7,340.9l-.5-.5h0ZM641.5-116.5L98.3,340.4l.5.5L642-116l-.5-.5ZM112.4,340.4L655.6-116.5l.5.5L112.8,340.9l-.5-.5h0ZM669.6-116.5L126.4,340.4l.5.5L670.1-116l-.5-.5ZM140.5,340.4L683.6-116.5l.5.5L140.9,340.9l-.5-.5h.1ZM697.7-116.5L-121.8,574l.5.5L698.2-116l-.5-.5ZM-107.7,574L711.7-116.5l.5.5L-107.3,574.5l-.5-.5h.1ZM725.8-116.5L-93.6,574l.5.5L726.2-116l-.5-.5h0ZM-79.5,574L739.8-116.5l.5.5L-79.1,574.5l-.5-.5h.1ZM753.9-116.5L-65.5,574l.5.5L754.3-116l-.5-.5h0ZM-51.5,574L767.9-116.5l.5.5L-51,574.5l-.5-.5ZM782-116.5L-37.4,574l.5.5L782.4-116l-.5-.5h.1ZM-23.4,574L796-116.5l.5.5L-22.9,574.5l-.5-.5ZM810.1-116.5L-9.3,574l.5.5L810.5-116l-.5-.5h0ZM4.7,574L824.1-116.5l.5.5L5.2,574.5l-.5-.5ZM838.2-116.5L18.8,574l.5.5L838.6-116l-.5-.5h.1ZM32.8,574L852.2-116.5l.5.5L33.3,574.5l-.5-.5ZM866.2-116.5L46.9,574l.5.5L866.7-116l-.5-.5ZM60.9,574L880.3-116.5l.5.5L61.4,574.5l-.5-.5ZM894.3-116.5L75,574l.5.5L894.8-116l-.5-.5ZM89,574L908.4-116.5l.5.5L89.5,574.5l-.5-.5ZM922.4-116.5L103,574l.5.5L922.9-116l-.5-.5ZM117.1,574L936.5-116.5l.5.5L117.6,574.5l-.5-.5ZM950.5-116.5L131.1,574l.5.5L951-116l-.5-.5ZM145.2,574L964.6-116.5l.5.5L145.6,574.5l-.5-.5h.1ZM978.6-116.5L159.2,574l.5.5L979.1-116l-.5-.5ZM82,651.1L992.7-116.5l.5.5L82.4,651.6l-.5-.5h0ZM1006.7-116.5L96,651.1l.5.5L1007.2-116l-.5-.5Z"/>
    </g>
    <path class="st7" d="M337.2,214.7c10.1,0,17.2,6.2,17.2,6.2l22,9.1,22,6.9c8.5-5,16-6.9,22.5-6.9,19.4,0,29.5,16.9,29.5,16.9l34.4-10,25.6,10c2.1-.5,4-.7,5.7-.7,19.1,0,12.3,28.7,12.3,28.7v64c1.2-.3,2.3-.5,3.4-.5,12.2,0,20.6,18.5,20.6,18.5l9.7,32-17.1,12.6-31.5-1.2-26.1,19.3h-32.5l-11.8,5.5-12.8,15.8h0s-13.8,0-13.8,0v-8.4l-12-7s-7.9-11.3,5.1-17.3l10.9-7.9v-64.8s-14.7-2.9-14.7-11.8c0,0-1.1-9.1,13.2-9.1,1.3,0,2.8,0,4.4.3l-13.9-29.3h-15.7s-17-11.2-32.6-11.2-3.7.2-5.4.5c0,0,0,0,0,0-.4,0-12,.2-14.7,18.3h-22l-5.7-13.7s-2.2-2.1-4.7-2.1-2.5.5-3.6,2.1l-7.3,5.4-26.3-15.4s-10.4-7.3,7.6-14.3c0,0,4.8-17.4-7.6-21.5l6.4-18.8,42.6,6c6-4.7,11.8-6.2,16.8-6.2M337.2,213.2c-6,0-11.8,2.1-17.2,6.1l-42-5.9c0,0-.1,0-.2,0-.6,0-1.2.4-1.4,1l-6.4,18.8c-.1.4,0,.8,0,1.1.2.4.5.6.9.8,9.7,3.2,7.5,15.8,6.8,19-6.7,2.7-10.3,5.9-10.8,9.5-.5,4.2,3.4,7,3.6,7.1,0,0,0,0,.1,0l26.3,15.4c.2.1.5.2.8.2s.6,0,.9-.3l7.3-5.4c.1,0,.2-.2.3-.3.7-1,1.5-1.5,2.4-1.5,1.3,0,2.8,1,3.4,1.5l5.5,13.4c.2.6.8.9,1.4.9h22c.7,0,1.4-.5,1.5-1.3,2.4-16.8,12.7-17,13.2-17s.2,0,.3,0c1.6-.3,3.3-.5,5.2-.5,14.9,0,31.6,10.8,31.7,10.9.2.2.5.2.8.2h14.8l12.4,26.1c-.7,0-1.3,0-1.9,0-5.8,0-10,1.4-12.5,4.2-2.4,2.7-2.3,5.8-2.3,6.5,0,8.4,10.9,11.9,14.7,12.9v62.8l-10.2,7.4c-4.2,2-6.9,4.8-7.8,8.2-1.5,5.7,2.1,11,2.3,11.2.1.2.3.3.5.4l11.3,6.6v7.5c0,.8.7,1.5,1.5,1.5h13.8c.5,0,.9-.2,1.2-.6l12.6-15.5,11.2-5.2h32.1c.3,0,.6-.1.9-.3l25.7-19,31,1.2s0,0,0,0c.3,0,.6-.1.9-.3l17.1-12.6c.5-.4.7-1,.5-1.6l-9.7-32c0,0,0-.1,0-.2,0-.2-2.2-4.8-5.9-9.5-5-6.4-10.6-9.8-16-9.8-.6,0-1.3,0-1.9.1v-62c.4-1.9,3.6-17.4-2.8-25.5-2.6-3.2-6.3-4.9-11-4.9-1.7,0-3.6.2-5.6.6l-25.2-9.8c-.2,0-.4-.1-.5-.1s-.3,0-.4,0l-33.3,9.7c-2.6-3.7-12.7-16.6-30.2-16.6s-14.9,2.3-22.7,6.7l-21.3-6.7-21.7-9c-1.3-1.1-8.3-6.4-18-6.4h0Z"/>
    <g>
      <path class="st16" d="M398.8,212.5h145c11,0,20,9,20,20h0c0,11-9,20-20,20h-145c-11,0-20-9-20-20h0c0-11,9-20,20-20Z"/>
      <path class="st35" d="M396.2,233.6h2l1,4.3c1.3,0,2.3-.3,3.1-1,.8-.7,1.2-1.7,1.2-2.9s-.3-2.3-1-2.9-1.7-.9-3.2-.9-1.3,0-2,.2c-.7.1-1.3.3-1.7.5v-1.6c.5-.2,1.1-.4,1.8-.5.7-.1,1.5-.2,2.2-.2,1.9,0,3.4.5,4.4,1.4,1,.9,1.6,2.3,1.6,4.1s-.3,2-.8,2.9c-.5.8-1.3,1.5-2.2,2-.9.5-1.9.7-3,.7h-2l-1.4-5.9ZM401.5,227.2c-.6,0-1-.1-1.2-.4-.3-.3-.4-.7-.4-1.3v-1h1.8v.8c0,.2,0,.4.1.5,0,0,.2.1.5.1h4.7v1.4h-5.5ZM407.4,230.2h2l2.5,7.8c1.3,0,2.2-.3,2.9-1s1-1.7,1-2.9-.2-2.2-.7-2.8c-.5-.6-1.2-1-2.2-1s-.9,0-1.4.2v-1.6c.5-.1,1.1-.2,1.7-.2,1.5,0,2.7.5,3.5,1.4.8,1,1.2,2.3,1.2,4s-.3,2.2-.8,3c-.5.8-1.2,1.5-2,1.9-.9.4-1.8.7-2.8.7h-1.9l-3-9.4ZM420.2,228.8h2v4.7l5.2-4.7h2.4l-2.9,2.7c1.1.3,1.9.7,2.3,1.3.4.6.7,1.4.7,2.5v4.2h-2v-4.1c0-.8-.2-1.4-.5-1.8-.3-.4-.9-.7-1.7-.9l-3.4,3.1v3.8h-2v-10.7ZM435.9,239.8c-1.7,0-3-.3-3.9-.9v-1.6c.9.6,2.1.9,3.5.9s2.3-.3,3-1c.7-.7,1.1-1.7,1.1-3s-.4-2.3-1.1-3c-.7-.7-1.7-1-3-1s-2.6.3-3.5.9v-1.7c.9-.6,2.2-.9,3.9-.9s3.2.5,4.3,1.5c1,1,1.6,2.4,1.6,4.2s-.5,3.2-1.6,4.2-2.5,1.5-4.3,1.5ZM437.6,227.2c-.6,0-1-.1-1.2-.4-.3-.3-.4-.7-.4-1.3v-1h1.8v.8c0,.2,0,.4.1.5,0,0,.2.1.5.1h4.7v1.4h-5.5ZM448.7,239.8c-1.6,0-2.9-.5-3.8-1.4-.9-.9-1.4-2.2-1.4-4s.2-2.3.7-3.2c.5-.9,1.2-1.6,2-2,.9-.5,1.9-.7,3.1-.7,1.9,0,3.3.4,4.1,1.3.9.9,1.3,2,1.3,3.4v6.3h-2v-6.3c0-2.1-1.1-3.1-3.4-3.1s-2.1.4-2.8,1.1-1,1.8-1,3.2.3,2.2.9,2.8c.6.6,1.4.9,2.6.9s1,0,1.4-.2v1.6c-.5.1-1,.2-1.7.2ZM460.9,239.8c-1.2,0-2.1-.3-2.8-.9-.7-.6-1-1.4-1-2.5s.4-1.9,1.2-2.6c.8-.6,1.8-1,3.2-1s2.5.2,3.6.7v-.8c0-.9-.3-1.6-.8-2-.5-.4-1.3-.6-2.5-.6s-1.3,0-1.9.2c-.6.1-1.1.3-1.6.5v-1.6c.4-.2,1-.4,1.7-.5.7-.1,1.4-.2,2.1-.2,1.2,0,2.2.2,3,.7l1-1.2h2.3l-2,2.3c.5.7.7,1.5.7,2.5v6.8h-2v-4.3c-1-.5-2.1-.7-3.3-.7s-1.5.2-1.9.5c-.4.3-.6.8-.6,1.4,0,1.2.8,1.8,2.3,1.8s.9,0,1.3-.2v1.6c-.5.1-1.1.2-1.8.2ZM465.4,242.7c0-.2,0-.4-.1-.5,0,0-.3-.1-.5-.1h-.7v-1.5h1.6c.6,0,1,.1,1.2.4.2.2.3.7.3,1.3v2.5h-1.9v-2ZM469.3,228.8h2l1.9,7.8,2.3-7.8h1.6l2.3,7.8,2-7.8h2l-3,10.7h-1.7l-2.4-8-2.4,8h-1.7l-3-10.7ZM489.1,239.8c-.7,0-1.5,0-2.2-.3-.8-.2-1.4-.4-1.8-.7v-1.6c.6.3,1.2.6,1.9.8.7.2,1.4.3,2,.3s1.5-.1,1.9-.3c.4-.2.6-.6.6-1.1s0-.6-.3-.8c-.2-.2-.5-.4-.9-.6-.4-.2-1-.4-1.8-.6-1.2-.4-2-.8-2.6-1.3-.6-.5-.9-1.2-.9-2s.4-1.7,1.1-2.3c.8-.5,1.8-.8,3.1-.8s1.3,0,2,.2c.6.1,1.2.3,1.6.6v1.7c-.5-.3-1-.5-1.6-.7s-1.2-.2-1.8-.2c-1.6,0-2.4.5-2.4,1.4s.1.6.3.9c.2.2.5.4.9.5.4.1,1,.3,1.9.6.9.3,1.5.5,2,.8.5.3.8.6,1,1,.2.4.3.9.3,1.5,0,.9-.4,1.6-1.1,2.1s-1.8.8-3.3.8ZM499.3,239.8c-.7,0-1.5,0-2.2-.3-.8-.2-1.4-.4-1.8-.7v-1.6c.6.3,1.2.6,1.9.8.7.2,1.4.3,2,.3s1.5-.1,1.9-.3c.4-.2.6-.6.6-1.1s0-.6-.3-.8c-.2-.2-.5-.4-.9-.6-.4-.2-1-.4-1.8-.6-1.2-.4-2-.8-2.6-1.3-.6-.5-.9-1.2-.9-2s.4-1.7,1.1-2.3c.8-.5,1.8-.8,3.1-.8s1.3,0,2,.2c.6.1,1.2.3,1.6.6v1.7c-.5-.3-1-.5-1.6-.7-.6-.2-1.2-.2-1.8-.2-1.6,0-2.4.5-2.4,1.4s.1.6.3.9c.2.2.5.4.9.5.4.1,1,.3,1.9.6.9.3,1.5.5,2,.8.5.3.8.6,1,1s.3.9.3,1.5c0,.9-.4,1.6-1.1,2.1s-1.8.8-3.3.8ZM517.6,239.8c-1.2,0-2.2-.4-2.9-1.1-.7-.7-1-1.7-1-2.9v-3.1c0-.9-.2-1.6-.7-2-.4-.4-1.1-.7-2-.7s-1.3.1-1.8.3c-.5.2-1,.6-1.4,1.1l.9,1.3v3.4c0,.6,0,1,.2,1.2.1.2.4.3.8.3h1.1v1.7h-2.1c-.7,0-1.2-.2-1.5-.6-.3-.4-.5-.9-.5-1.5v-4.6l-1-1.6c.7-.9,1.5-1.6,2.4-2,.9-.5,1.9-.7,3.1-.7s2.7.4,3.5,1.1c.8.7,1.2,1.7,1.2,3v3.1c0,1.6.8,2.4,2.5,2.4s1.2-.2,1.7-.5c.5-.3,1-.8,1.3-1.4v-7.6h2v10.7h-2v-1.4c-.9,1.1-2.1,1.7-3.7,1.7ZM530.9,239.8c-1,0-1.9-.2-2.7-.6-.8-.4-1.4-.9-1.8-1.6-.4-.7-.6-1.5-.6-2.3v-6.6h2v6.5c0,.9.3,1.6.8,2.1.5.5,1.3.8,2.3.8s1.8-.3,2.3-.8c.5-.5.8-1.2.8-2.1v-6.5h2v6.6c0,.9-.2,1.6-.6,2.3-.4.7-1,1.2-1.8,1.6-.8.4-1.7.6-2.7.6ZM534.2,242.7c0-.2,0-.4-.1-.5,0,0-.3-.1-.5-.1h-.7v-1.5h1.6c.6,0,1,.1,1.2.4.2.2.3.7.3,1.3v2.5h-1.9v-2ZM542.3,239.8c-.7,0-1.5,0-2.2-.3-.8-.2-1.4-.4-1.8-.7v-1.6c.6.3,1.2.6,1.9.8.7.2,1.4.3,2,.3s1.5-.1,1.9-.3c.4-.2.6-.6.6-1.1s0-.6-.3-.8c-.2-.2-.5-.4-.9-.6-.4-.2-1-.4-1.8-.6-1.2-.4-2-.8-2.6-1.3-.6-.5-.9-1.2-.9-2s.4-1.7,1.1-2.3c.8-.5,1.8-.8,3.1-.8s1.3,0,2,.2c.6.1,1.2.3,1.6.6v1.7c-.5-.3-1-.5-1.6-.7-.6-.2-1.2-.2-1.8-.2-1.6,0-2.4.5-2.4,1.4s.1.6.3.9c.2.2.5.4.9.5.4.1,1,.3,1.9.6.9.3,1.5.5,2,.8.5.3.8.6,1,1,.2.4.3.9.3,1.5,0,.9-.4,1.6-1.1,2.1-.7.5-1.8.8-3.3.8ZM537.6,225.9h6.8v-2.1h1.9v3.5h-8.6v-1.4Z"/>
      <g class="st26">
        <g>
          <path class="st17" d="M507.3,296.5c0-20.1-16.4-36.3-36.5-36-19.5.3-35.3,16.2-35.5,35.7-.1,17.4,12.1,32,28.4,35.5.1,0,.3.1.3.3l7.1,11.9c0,.1.2.1.3,0l7.1-11.9c0-.1.1-.3.3-.3,16.2-3.5,28.4-17.9,28.4-35.2Z"/>
          <path class="st19" d="M441.3,276.6c-3.8,5.6-6,12.4-6,19.6-.1,17.4,12.1,32,28.4,35.5.1.1.2.2.3.3l7.1,11.9c0,.1.2.1.3,0l7.1-11.9c0-.1.1-.3.3-.3,13.5-2.9,24.2-13.4,27.4-26.7l-65-28.4Z"/>
          <path class="st7" d="M471.3,322.1c14.1,0,25.6-11.5,25.6-25.6s-11.5-25.6-25.6-25.6-25.6,11.5-25.6,25.6,11.5,25.6,25.6,25.6Z"/>
          <path class="st19" d="M473.8,280.9h-5s0,13.2,0,13.2h-13.2v5h13.2v13.2h5v-13.2h13.2v-5h-13.2v-13.2Z"/>
          <path class="st18" d="M473.8,280.9h-5s0,13.2,0,13.2h-13.2v5h13.2v13.2h5v-13.2h13.2v-5h-13.2v-13.2Z"/>
        </g>
      </g>
    </g>
  </g>
  <g>
    <path class="st4" d="M430.2,441h-13.8v-8.4l-12-7s-7.9-11.3,5.1-17.3l10.9-7.9v-64.8s-14.7-2.9-14.7-11.8c0,0-1.3-10.9,17.7-8.9l-13.9-29.3h-15.7s-21.3-14-38-10.7c0,0-12-.2-14.7,18.2h-22l-5.7-13.7s-5-4.8-8.3,0l-7.3,5.4-26.3-15.4s-10.4-7.3,7.6-14.3c0,0,4.8-17.4-7.6-21.5l6.4-18.8-1.4-.2s-56-127.8-106-133.8l-26.4-20.8c-1,1.5-2.2,3.3-3.4,5.5,0,0-.1.2-.2.3h0l-1.9,4.6c-5,9.4-7.8,17.4-8.6,21.8-.9,5.1-.1,25.6.3,34.3s2.2,26.9,2.2,26.9c0,0-6.2-2.5-13.1,1.2s-16.7,10.8-21.5,12.2-15.1,5.3-23,17.3-13.1,20-13.7,26.8-3.3,36.5,7.1,58.3c10.4,21.7,12.9,14.8,19.3,36.5,6.4,21.7,8.6,30.5,21.6,46.5,13,16,17.6,21.3,27.2,31.1s17.2,11.1,37.8,25.1,40.7,21.7,51.4,34.1c10.8,12.4,23.5,27.5,24.5,38.6l1.2,21.5h17.1l5.3,6.4,48.4-14.7c11.1,16.4,24.9,7.6,24.9,7.6l23.8-12.7c13.8-6.7,17.5,4.2,17.5,4.2l26.9.9v-14.9l12.5-13.5h17.9l1.4,1.1-23.7-18.1,6.8-8.4Z"/>
    <g class="st29">
      <path class="st6" d="M300.5-124.8L-242.7,332.1l.5.5L300.9-124.3l-.5-.5h0ZM272.4-124.8L-270.8,332.1l.5.5L272.8-124.3l-.5-.5h.1ZM591.1,67.8L-90.5,642.8l.5.5L591.6,68.4l-.5-.5h0ZM93.1,834.7L774.8,259.7l.5.5L93.5,835.2l-.5-.5h0ZM-33.3,834.7L648.3,259.7l.5.5L-32.9,835.2l-.5-.5h.1ZM-19.3,834.7L662.3,259.7l.5.5L-18.8,835.2l-.5-.5ZM676.4,259.7L-5.3,834.7l.5.5L676.8,260.2l-.5-.5h.1ZM8.8,834.7L690.4,259.7l.5.5L9.3,835.2l-.5-.5ZM704.5,259.7L22.8,834.7l.5.5L704.9,260.2l-.5-.5h.1ZM36.9,834.7L718.5,259.7l.5.5L37.3,835.2l-.5-.5h.1ZM732.6,259.7L50.9,834.7l.5.5L733,260.2l-.5-.5h.1ZM65,834.7L746.6,259.7l.5.5L65.4,835.2l-.5-.5h.1ZM760.7,259.7L79,834.7l.5.5L761.1,260.2l-.5-.5h.1ZM788.8,259.7L107.1,834.7l.5.5L789.2,260.2l-.5-.5h0ZM121.2,834.7L802.8,259.7l.5.5L121.6,835.2l-.5-.5h.1ZM816.8,259.7L135.2,834.7l.5.5L817.3,260.2l-.5-.5ZM149.2,834.7L830.8,259.7l.5.5L149.7,835.2l-.5-.5ZM844.9,259.7L163.3,834.7l.5.5L845.4,260.2l-.5-.5h0ZM177.3,834.7L858.9,259.7l.5.5L177.8,835.2l-.5-.5ZM873,259.7L191.4,834.7l.5.5L873.5,260.2l-.5-.5ZM205.4,834.7L887,259.7l.5.5L205.9,835.2l-.5-.5ZM901.1,259.7L219.5,834.7l.5.5L901.6,260.2l-.5-.5h0ZM233.5,834.7L915.1,259.7l.5.5L234,835.2l-.5-.5ZM-76.5,642.8L605.2,67.8l.5.5L-76,643.3l-.5-.5ZM619.2,67.8L-62.4,642.8l.5.5L619.7,68.4l-.5-.5h0ZM-48.4,642.8L633.3,67.8l.5.5L-47.9,643.3l-.5-.5ZM647.3,67.8L-34.3,642.8l.5.5L647.8,68.4l-.5-.5h0ZM-20.3,642.8L661.3,67.8l.5.5L-19.8,643.3l-.5-.5ZM675.4,67.8L-6.3,642.8l.5.5L675.8,68.4l-.5-.5h.1ZM7.8,642.8L689.4,67.8l.5.5L8.3,643.3l-.5-.5ZM703.5,67.8L21.8,642.8l.5.5L703.9,68.4l-.5-.5h0ZM35.9,642.8L717.5,67.8l.5.5L36.3,643.3l-.5-.5h.1ZM731.6,67.8L49.9,642.8l.5.5L732,68.4l-.5-.5h.1ZM64,642.8L745.6,67.8l.5.5L64.4,643.3l-.5-.5h.1ZM759.7,67.8L78,642.8l.5.5L760.1,68.4l-.5-.5h0ZM92.1,642.8L773.7,67.8l.5.5L92.5,643.3l-.5-.5h0ZM787.8,67.8L106.1,642.8l.5.5L788.2,68.4l-.5-.5h0ZM-83.5,817.1L801.8,67.8l.5.5L-83,817.6l-.5-.5ZM815.8,67.8L-69.5,817.1l.5.5L816.3,68.4l-.5-.5h0ZM-55.4,817.1L829.9,67.8l.5.5L-55,817.6l-.5-.5h.1ZM843.9,67.8L-41.4,817.1l.5.5L844.4,68.4l-.5-.5h0ZM-27.3,817.1L858,67.8l.5.5L-26.9,817.6l-.5-.5h.1ZM-256.8,332.1L286.4-124.8l.5.5L-256.3,332.6l-.5-.5ZM-228.7,332.1L314.5-124.8l.5.5L-228.2,332.6l-.5-.5ZM328.5-124.8L-214.6,332.1l.5.5L329-124.3l-.5-.5ZM-200.6,332.1L342.6-124.8l.5.5L-200.1,332.6l-.5-.5ZM356.6-124.8L-186.6,332.1l.5.5L357.1-124.3l-.5-.5ZM-172.5,332.1L370.7-124.8l.5.5L-172,332.6l-.5-.5ZM384.7-124.8L-158.5,332.1l.5.5L385.2-124.3l-.5-.5ZM-144.4,332.1L398.8-124.8l.5.5L-144,332.6l-.4-.5h0ZM412.8-124.8L-130.4,332.1l.5.5L413.3-124.3l-.5-.5ZM-116.3,332.1L426.9-124.8l.5.5L-115.9,332.6l-.5-.5h0ZM440.9-124.8L-102.3,332.1l.5.5L441.4-124.3l-.5-.5ZM-88.2,332.1L455-124.8l.5.5L-87.8,332.6l-.5-.5h0ZM469-124.8L-74.2,332.1l.5.5L469.5-124.3l-.5-.5ZM-60.1,332.1L483-124.8l.5.5L-59.7,332.6l-.5-.5h.1ZM497.1-124.8L-322.4,565.7l.5.5L497.6-124.3l-.5-.5ZM-308.3,565.7L511.1-124.8l.5.5L-307.9,566.2l-.5-.5h.1ZM525.2-124.8L-294.2,565.7l.5.5L525.6-124.3l-.5-.5h0ZM-280.1,565.7L539.2-124.8l.5.5L-279.7,566.2l-.5-.5h.1ZM553.3-124.8L-266.1,565.7l.5.5L553.7-124.3l-.5-.5h0ZM-252.1,565.7L567.3-124.8l.5.5L-251.6,566.2l-.5-.5ZM581.4-124.8L-238,565.7l.5.5L581.8-124.3l-.5-.5h.1ZM-224,565.7L595.4-124.8l.5.5L-223.5,566.2l-.5-.5ZM609.5-124.8L-209.9,565.7l.5.5L609.9-124.3l-.5-.5h0ZM-195.9,565.7L623.5-124.8l.5.5L-195.4,566.2l-.5-.5ZM637.6-124.8L-181.8,565.7l.5.5L638-124.3l-.5-.5h.1ZM-167.8,565.7L651.6-124.8l.5.5L-167.3,566.2l-.5-.5ZM665.6-124.8L-153.7,565.7l.5.5L666.1-124.3l-.5-.5ZM-139.7,565.7L679.7-124.8l.5.5L-139.2,566.2l-.5-.5ZM693.7-124.8L-125.6,565.7l.5.5L694.2-124.3l-.5-.5ZM-111.6,565.7L707.8-124.8l.5.5L-111.1,566.2l-.5-.5ZM721.8-124.8L-97.6,565.7l.5.5L722.3-124.3l-.5-.5ZM-83.5,565.7L735.9-124.8l.5.5L-83,566.2l-.5-.5ZM749.9-124.8L-69.5,565.7l.5.5L750.4-124.3l-.5-.5ZM-55.4,565.7L764-124.8l.5.5L-55,566.2l-.5-.5h.1ZM778-124.8L-41.4,565.7l.5.5L778.5-124.3l-.5-.5ZM-118.6,642.8L792.1-124.8l.5.5L-118.2,643.3l-.5-.5h0ZM806.1-124.8L-104.6,642.8l.5.5L806.6-124.3l-.5-.5Z"/>
    </g>
    <path class="st7" d="M144,60.2l26.4,20.8c50,6,106,133.8,106,133.8l1.4.2-6.4,18.8c12.4,4.1,7.6,21.5,7.6,21.5-18,7-7.6,14.3-7.6,14.3l26.3,15.4,7.3-5.4c1.1-1.6,2.4-2.1,3.6-2.1,2.5,0,4.7,2.1,4.7,2.1l5.7,13.7h22c2.6-18.1,14.2-18.3,14.7-18.3s0,0,0,0c1.8-.4,3.6-.5,5.4-.5,15.5,0,32.6,11.2,32.6,11.2h15.7l13.9,29.3c-1.6-.2-3.1-.3-4.4-.3-14.4,0-13.2,9.1-13.2,9.1,0,8.8,14.7,11.8,14.7,11.8v64.8l-10.9,7.9c-12.9,6-5.1,17.3-5.1,17.3l12,7v8.4h13.8l-6.8,8.4,23.7,18.1-1.4-1.1h-17.9l-12.5,13.5v14.9l-26.9-.9s-2.1-6.4-9.4-6.4-4.9.6-8.1,2.2l-23.8,12.7s-3.7,2.4-8.9,2.4-10.7-2.1-16.1-10l-48.4,14.7-5.3-6.4h-17.1l-1.2-21.5c-1-11.2-13.7-26.2-24.5-38.6-10.8-12.4-30.8-20-51.4-34.1-20.6-14.1-28.2-15.3-37.8-25.1s-14.2-15.1-27.2-31.1c-13-16-15.2-24.8-21.6-46.5-6.4-21.7-8.9-14.8-19.3-36.5-10.4-21.7-7.7-51.4-7.1-58.3.5-6.8,5.7-14.8,13.7-26.8,7.9-12,18.2-16,23-17.3s14.7-8.5,21.5-12.2c2.9-1.6,5.7-2,7.9-2,3.1,0,5.2.8,5.2.8,0,0-1.8-18.2-2.2-26.9-.4-8.8-1.2-29.2-.3-34.3.8-4.5,3.6-12.4,8.6-21.8l1.9-4.6c0,0,.1-.2.2-.3,1.3-2.2,2.4-4,3.4-5.5M430.2,441h0M144,58.7c0,0-.2,0-.2,0-.4,0-.8.3-1,.6-1.1,1.6-2.2,3.5-3.5,5.7v.2c0,0-.2.1-.2.1,0,0,0,.1,0,.2l-1.9,4.5c-5.3,10-8,18-8.7,22.2-1.1,6,.2,31.7.3,34.6.3,6.9,1.5,19.8,2,24.8-.9-.2-2.1-.3-3.5-.3-3,0-5.9.7-8.6,2.2-2.6,1.4-5.7,3.3-8.6,5.2-4.8,3-9.8,6.1-12.6,6.9-5.5,1.5-15.9,5.9-23.9,18-7.7,11.8-13.3,20.2-13.9,27.6v.6c-2,24.5.4,44.2,7.3,58.5,4.6,9.6,7.7,13.8,10.2,17.1,3.2,4.2,5.4,7.2,9,19.2l.9,2.9c5.8,19.6,8.4,28.6,21,44.1,13.2,16.2,17.7,21.5,27.3,31.2,5.7,5.9,10.9,8.8,18,12.9,5.1,2.9,11.5,6.6,20.1,12.4,7.8,5.3,15.4,9.7,22.8,13.8,11.7,6.7,21.9,12.4,28.4,20,9.8,11.3,23.2,26.8,24.1,37.8l1.2,21.5c0,.8.7,1.4,1.5,1.4h16.4l4.8,5.9c.3.4.7.5,1.2.5s.3,0,.4,0l47.3-14.3c5.7,8,12.2,9.7,16.7,9.7s9.1-2.3,9.6-2.6l23.8-12.6c2.8-1.3,5.3-2,7.5-2,6,0,7.9,5.1,7.9,5.3.2.6.7,1,1.4,1l26.9.9s0,0,0,0c.4,0,.8-.2,1-.4.3-.3.5-.7.5-1.1v-14.3l11.6-12.6h16.7l1,.8c.3.2.6.3.9.3.5,0,.9-.2,1.2-.6.5-.7.4-1.6-.3-2.1l-22.4-17.1,5.8-7.2c.2-.3.4-.6.4-1,0-.8-.7-1.5-1.5-1.5h-12.3v-6.9c0-.5-.3-1-.7-1.3l-11.7-6.8c-.6-1-2.7-4.7-1.7-8.5.7-2.6,2.8-4.7,6.3-6.3,0,0,.2,0,.2-.1l10.9-7.9c.4-.3.6-.7.6-1.2v-64.8c0-.7-.5-1.3-1.2-1.5-.1,0-13.5-2.8-13.5-10.3s0-.1,0-.2c0,0-.2-2.3,1.6-4.3,1.9-2.1,5.4-3.2,10.2-3.2s2.7,0,4.3.2c0,0,.1,0,.2,0,.5,0,.9-.2,1.2-.6.3-.4.4-1,.1-1.5l-13.9-29.3c-.2-.5-.8-.9-1.4-.9h-15.3c-2.7-1.7-18.3-11.2-33-11.2-2,0-3.9.2-5.6.5-1.7,0-12.8,1.2-15.8,18.2h-19.7l-5.3-12.8c0-.2-.2-.4-.4-.5-.3-.3-2.7-2.5-5.7-2.5-1.3,0-3.2.4-4.7,2.6l-6.3,4.7-25.4-14.9c-.3-.2-2.6-2-2.3-4.2.3-2.5,3.7-5.1,9.6-7.4.4-.2.8-.5.9-1,1.7-6.2,2.2-18.6-7.2-22.8l5.9-17.4c.1-.4,0-.9-.1-1.3-.2-.4-.6-.6-1.1-.7h-.6c-2.3-5.2-15.7-34.5-34-64.1-11.8-19.1-23.3-34.5-34.3-46-13.7-14.3-26.5-22.3-38.1-23.8l-26-20.5c-.3-.2-.6-.3-.9-.3h0Z"/>
    <g>
      <path class="st16" d="M176.2,229h143c11,0,20,9,20,20h0c0,11-9,20-20,20h-143c-11,0-20-9-20-20h0c0-11,9-20,20-20Z"/>
      <path class="st35" d="M173.6,250.1h2l1,4.3c1.3,0,2.3-.3,3.1-1,.8-.7,1.2-1.7,1.2-2.9s-.3-2.3-1-2.9-1.7-.9-3.2-.9-1.3,0-2,.2c-.7.1-1.3.3-1.7.5v-1.6c.5-.2,1.1-.4,1.8-.5.7-.1,1.5-.2,2.2-.2,1.9,0,3.4.5,4.4,1.4,1,.9,1.6,2.3,1.6,4.1s-.3,2-.8,2.9c-.5.8-1.3,1.5-2.2,2-.9.5-1.9.7-3,.7h-2l-1.4-5.9ZM178.9,243.7c-.6,0-1-.1-1.2-.4-.3-.3-.4-.7-.4-1.3v-1h1.8v.8c0,.2,0,.4.1.5,0,0,.2.1.5.1h4.7v1.4h-5.5ZM184.8,246.6h2l2.5,7.8c1.3,0,2.2-.3,2.9-1s1-1.7,1-2.9-.2-2.2-.7-2.8c-.5-.6-1.2-1-2.2-1s-.9,0-1.4.2v-1.6c.5-.1,1.1-.2,1.7-.2,1.5,0,2.7.5,3.5,1.4.8,1,1.2,2.3,1.2,4s-.3,2.2-.8,3c-.5.8-1.2,1.5-2,1.9-.9.4-1.8.7-2.8.7h-1.9l-3-9.4ZM197.6,245.3h2v4.7l5.2-4.7h2.4l-2.9,2.7c1.1.3,1.9.7,2.3,1.3.4.6.7,1.4.7,2.5v4.2h-2v-4.1c0-.8-.2-1.4-.5-1.8-.3-.4-.9-.7-1.7-.9l-3.4,3.1v3.8h-2v-10.7ZM213.3,256.3c-1.7,0-3-.3-3.9-.9v-1.6c.9.6,2.1.9,3.5.9s2.3-.3,3-1c.7-.7,1.1-1.7,1.1-3s-.4-2.3-1.1-3c-.7-.7-1.7-1-3-1s-2.6.3-3.5.9v-1.7c.9-.6,2.2-.9,3.9-.9s3.2.5,4.3,1.5c1,1,1.6,2.4,1.6,4.2s-.5,3.2-1.6,4.2-2.5,1.5-4.3,1.5ZM215,243.7c-.6,0-1-.1-1.2-.4-.3-.3-.4-.7-.4-1.3v-1h1.8v.8c0,.2,0,.4.1.5,0,0,.2.1.5.1h4.7v1.4h-5.5ZM226.1,256.3c-1.6,0-2.9-.5-3.8-1.4-.9-.9-1.4-2.2-1.4-4s.2-2.3.7-3.2c.5-.9,1.2-1.6,2-2,.9-.5,1.9-.7,3.1-.7,1.9,0,3.3.4,4.1,1.3.9.9,1.3,2,1.3,3.4v6.3h-2v-6.3c0-2.1-1.1-3.1-3.4-3.1s-2.1.4-2.8,1.1-1,1.8-1,3.2.3,2.2.9,2.8c.6.6,1.4.9,2.6.9s1,0,1.4-.2v1.6c-.5.1-1,.2-1.7.2ZM235.5,249.3l-1-1.6c.7-.9,1.5-1.6,2.4-2,.9-.5,2-.7,3.2-.7s2.8.4,3.7,1.1c.9.7,1.3,1.7,1.3,3v6.9h-2v-6.7c0-.9-.2-1.6-.7-2-.5-.4-1.2-.7-2.2-.7s-1.4.1-1.9.3c-.6.2-1.1.6-1.5,1l.9,1.3v6.7h-2v-6.7ZM251.4,249.1c0-.9-.2-1.5-.5-1.9-.3-.4-1-.6-1.8-.6s-1.7.2-2.4.6v-1.6c.3-.2.7-.3,1.2-.4.5-.1,1-.2,1.5-.2,1.3,0,2.4.4,3,1.1.7.7,1,1.8,1,3.1v6.8h-2v-6.9ZM268.8,257.9c-.7,0-1.4,0-2.1-.2-.7-.1-1.3-.3-1.7-.6v-1.7c1.1.6,2.4.9,3.8.9s1.7-.1,2.2-.4c.5-.3.8-.6.8-1.1s-.1-.7-.4-1c-.4.2-.8.4-1.3.5-.5.1-1,.2-1.6.2-1.5,0-2.7-.4-3.5-1.2-.8-.8-1.2-1.8-1.2-3.2v-.9c0-.9-.2-1.6-.7-2-.4-.4-1.1-.7-2-.7s-1.3.1-1.8.3c-.5.2-1,.6-1.4,1.1l.9,1.3v4c0,.4,0,.6.2.8.2.1.4.2.8.2h1.1v1.7h-2.1c-.7,0-1.2-.2-1.5-.6-.3-.4-.5-.9-.5-1.5v-4.6l-1-1.6c.7-.9,1.5-1.6,2.4-2,.9-.5,1.9-.7,3.1-.7s2.7.4,3.5,1.1c.8.7,1.2,1.7,1.2,3v1c0,.9.2,1.6.6,2.1.4.5,1.1.7,2.1.7s1.7-.3,2.2-.8c.5-.5.7-1.2.7-2.1v-4.8h2v4.9c0,1-.2,1.8-.7,2.5.3.3.6.6.7.9.2.3.2.7.2,1.1,0,1-.5,1.8-1.4,2.3-.9.5-2.1.8-3.6.8ZM276.3,250.1h2l1,4.3c1.3,0,2.3-.3,3.1-1,.8-.7,1.2-1.7,1.2-2.9s-.3-2.3-1-2.9-1.7-.9-3.2-.9-1.3,0-2,.2c-.7.1-1.3.3-1.7.5v-1.6c.5-.2,1.1-.4,1.8-.5.7-.1,1.5-.2,2.2-.2,1.9,0,3.4.5,4.4,1.4,1,.9,1.6,2.3,1.6,4.1s-.3,2-.8,2.9c-.5.8-1.3,1.5-2.2,2-.9.5-1.9.7-3,.7h-2l-1.4-5.9ZM292,256.3c-1.3,0-2.3-.4-3.1-1.1-.7-.7-1.1-1.7-1.1-2.8v-7.1h2v7c0,.8.2,1.4.7,1.8.5.4,1.1.6,2,.6,1.4,0,2.5-.6,3.2-1.8v-7.6h2v10.7h-2v-1.4c-1,1.2-2.3,1.7-3.8,1.7ZM305.6,256.3c-1,0-1.9-.2-2.7-.6-.8-.4-1.4-.9-1.8-1.6-.4-.7-.6-1.5-.6-2.3v-6.6h2v6.5c0,.9.3,1.6.8,2.1.5.5,1.3.8,2.3.8s1.8-.3,2.3-.8c.5-.5.8-1.2.8-2.1v-6.5h2v6.6c0,.9-.2,1.6-.6,2.3-.4.7-1,1.2-1.8,1.6s-1.7.6-2.7.6ZM308.8,259.2c0-.2,0-.4-.1-.5,0,0-.3-.1-.5-.1h-.7v-1.5h1.6c.6,0,1,.1,1.2.4.2.2.3.7.3,1.3v2.5h-1.9v-2ZM317,256.3c-.7,0-1.5,0-2.2-.3-.8-.2-1.4-.4-1.8-.7v-1.6c.6.3,1.2.6,1.9.8.7.2,1.4.3,2,.3s1.5-.1,1.9-.3c.4-.2.6-.6.6-1.1s0-.6-.3-.8c-.2-.2-.5-.4-.9-.6-.4-.2-1-.4-1.8-.6-1.2-.4-2-.8-2.6-1.3-.6-.5-.9-1.2-.9-2s.4-1.7,1.1-2.3c.8-.5,1.8-.8,3.1-.8s1.3,0,2,.2c.6.1,1.2.3,1.6.6v1.7c-.5-.3-1-.5-1.6-.7-.6-.2-1.2-.2-1.8-.2-1.6,0-2.4.5-2.4,1.4s.1.6.3.9c.2.2.5.4.9.5.4.1,1,.3,1.9.6.9.3,1.5.5,2,.8.5.3.8.6,1,1s.3.9.3,1.5c0,.9-.4,1.6-1.1,2.1s-1.8.8-3.3.8ZM312.3,242.3h6.8v-2.1h1.9v3.5h-8.6v-1.4Z"/>
      <g class="st27">
        <g>
          <path class="st17" d="M283.7,313c0-20.1-16.4-36.3-36.5-36-19.5.3-35.3,16.2-35.5,35.7-.1,17.4,12.1,32,28.4,35.5.1,0,.3.1.3.3l7.1,11.9c0,.1.2.1.3,0l7.1-11.9c0-.1.1-.3.3-.3,16.2-3.5,28.4-17.9,28.4-35.2Z"/>
          <path class="st19" d="M217.7,293.1c-3.8,5.6-6,12.4-6,19.6-.1,17.4,12.1,32,28.4,35.5.1.1.2.2.3.3l7.1,11.9c0,.1.2.1.3,0l7.1-11.9c0-.1.1-.3.3-.3,13.5-2.9,24.2-13.4,27.4-26.7l-65-28.4Z"/>
          <path class="st7" d="M247.7,338.6c14.1,0,25.6-11.5,25.6-25.6s-11.5-25.6-25.6-25.6-25.6,11.5-25.6,25.6,11.5,25.6,25.6,25.6Z"/>
          <path class="st19" d="M250.2,297.3h-5s0,13.2,0,13.2h-13.2v5h13.2v13.2h5v-13.2h13.2v-5h-13.2v-13.2Z"/>
          <path class="st9" d="M250.2,297.3h-5s0,13.2,0,13.2h-13.2v5h13.2v13.2h5v-13.2h13.2v-5h-13.2v-13.2Z"/>
        </g>
      </g>
    </g>
  </g>
  <g>
    <path class="st3" d="M491,516.6h-15.8l-5.2-7.2s-26.2,4.4-15.3-14.7c0,0,5.6-8.5-7.8-7.8v-19.5l-1.4-1.1h-17.9l-12.5,13.5v14.9l-26.9-.9s-3.7-10.9-17.5-4.2l-23.8,12.7s-13.9,8.9-24.9-7.6l-48.4,14.7-5.3-6.4h-17.1c.6,12.7,1.4,27.2,2.9,36,2.4,15,10.8,50.4,18.6,67.1,2.3,5,3.8,8.6,4.6,11.4h12l24,15.1,18-3.3h33c11,1.3,17.7-24.2,17.7-24.2,19.7-14.9,41.3-6.2,41.3-6.2l17-21.9s-3.7-17.7,13.5-14.2c0,0,11.8,2,17.8-2.3h11.3v-12.3l-5.5-12.3,13.5-19.4Z"/>
    <g class="st28">
      <path class="st6" d="M481.2-38.6L-62,418.3l.5.5L481.6-38.1l-.5-.5h0ZM453.1-38.6L-90.1,418.3l.5.5L453.5-38.1l-.5-.5h.1ZM771.8,154L90.2,729l.5.5L772.3,154.6l-.5-.5h0ZM273.8,920.9L955.5,345.9l.5.5L274.2,921.4l-.5-.5h0ZM147.4,920.9L829,345.9l.5.5L147.8,921.4l-.5-.5h.1ZM161.4,920.9L843,345.9l.5.5L161.9,921.4l-.5-.5ZM857.1,345.9L175.4,920.9l.5.5L857.5,346.4l-.5-.5h.1ZM189.5,920.9L871.1,345.9l.5.5L190,921.4l-.5-.5ZM885.2,345.9L203.5,920.9l.5.5L885.6,346.4l-.5-.5h.1ZM217.6,920.9L899.2,345.9l.5.5L218,921.4l-.5-.5h.1ZM913.3,345.9L231.6,920.9l.5.5L913.7,346.4l-.5-.5h.1ZM245.7,920.9L927.3,345.9l.5.5L246.1,921.4l-.5-.5h.1ZM941.4,345.9L259.7,920.9l.5.5L941.8,346.4l-.5-.5h.1ZM969.5,345.9L287.8,920.9l.5.5L969.9,346.4l-.5-.5h0ZM301.9,920.9L983.5,345.9l.5.5L302.3,921.4l-.5-.5h.1ZM997.5,345.9L315.9,920.9l.5.5L998,346.4l-.5-.5ZM329.9,920.9L1011.5,345.9l.5.5L330.4,921.4l-.5-.5ZM1025.6,345.9L344,920.9l.5.5,681.6-575-.5-.5h0ZM358,920.9l681.6-575,.5.5L358.5,921.4l-.5-.5ZM1053.7,345.9L372.1,920.9l.5.5,681.6-575-.5-.5ZM386.1,920.9l681.6-575,.5.5L386.6,921.4l-.5-.5ZM1081.8,345.9L400.2,920.9l.5.5,681.6-575-.5-.5h0ZM414.2,920.9l681.6-575,.5.5L414.7,921.4l-.5-.5ZM104.2,729L785.9,154l.5.5L104.7,729.5l-.5-.5ZM799.9,154L118.3,729l.5.5L800.4,154.6l-.5-.5h0ZM132.3,729L814,154l.5.5L132.8,729.5l-.5-.5ZM828,154L146.4,729l.5.5L828.5,154.6l-.5-.5h0ZM160.4,729L842,154l.5.5L160.9,729.5l-.5-.5ZM856.1,154L174.4,729l.5.5L856.5,154.6l-.5-.5h.1ZM188.5,729L870.1,154l.5.5L189,729.5l-.5-.5ZM884.2,154L202.5,729l.5.5L884.6,154.6l-.5-.5h0ZM216.6,729L898.2,154l.5.5L217,729.5l-.5-.5h.1ZM912.3,154L230.6,729l.5.5L912.7,154.6l-.5-.5h.1ZM244.7,729L926.3,154l.5.5L245.1,729.5l-.5-.5h.1ZM940.4,154L258.7,729l.5.5L940.8,154.6l-.5-.5h0ZM272.8,729L954.4,154l.5.5L273.2,729.5l-.5-.5h0ZM968.5,154L286.8,729l.5.5L968.9,154.6l-.5-.5h0ZM97.2,903.3L982.5,154l.5.5L97.7,903.8l-.5-.5ZM996.5,154L111.2,903.3l.5.5L997,154.6l-.5-.5h0ZM125.3,903.3L1010.6,154l.5.5L125.7,903.8l-.5-.5h.1ZM1024.6,154L139.3,903.3l.5.5L1025.1,154.6l-.5-.5h0ZM153.4,903.3L1038.7,154l.5.5L153.8,903.8l-.5-.5h.1ZM-76.1,418.3L467.1-38.6l.5.5L-75.6,418.8l-.5-.5ZM-48,418.3L495.2-38.6l.5.5L-47.5,418.8l-.5-.5ZM509.2-38.6L-33.9,418.3l.5.5L509.7-38.1l-.5-.5ZM-19.9,418.3L523.3-38.6l.5.5L-19.4,418.8l-.5-.5ZM537.3-38.6L-5.9,418.3l.5.5L537.8-38.1l-.5-.5ZM8.2,418.3L551.4-38.6l.5.5L8.7,418.8l-.5-.5ZM565.4-38.6L22.2,418.3l.5.5L565.9-38.1l-.5-.5ZM36.3,418.3L579.5-38.6l.5.5L36.7,418.8l-.4-.5h0ZM593.5-38.6L50.3,418.3l.5.5L594-38.1l-.5-.5ZM64.4,418.3L607.6-38.6l.5.5L64.8,418.8l-.5-.5h0ZM621.6-38.6L78.4,418.3l.5.5L622.1-38.1l-.5-.5ZM92.5,418.3L635.7-38.6l.5.5L92.9,418.8l-.5-.5h0ZM649.7-38.6L106.5,418.3l.5.5L650.2-38.1l-.5-.5ZM120.6,418.3L663.7-38.6l.5.5L121,418.8l-.5-.5h.1ZM677.8-38.6L-141.7,651.9l.5.5L678.3-38.1l-.5-.5ZM-127.6,651.9L691.8-38.6l.5.5L-127.2,652.4l-.5-.5h.1ZM705.9-38.6L-113.5,651.9l.5.5L706.3-38.1l-.5-.5h0ZM-99.4,651.9L719.9-38.6l.5.5L-99,652.4l-.5-.5h.1ZM734-38.6L-85.4,651.9l.5.5L734.4-38.1l-.5-.5h0ZM-71.4,651.9L748-38.6l.5.5L-70.9,652.4l-.5-.5ZM762.1-38.6L-57.3,651.9l.5.5L762.5-38.1l-.5-.5h.1ZM-43.3,651.9L776.1-38.6l.5.5L-42.8,652.4l-.5-.5ZM790.2-38.6L-29.2,651.9l.5.5L790.6-38.1l-.5-.5h0ZM-15.2,651.9L804.2-38.6l.5.5L-14.7,652.4l-.5-.5ZM818.3-38.6L-1.1,651.9l.5.5L818.7-38.1l-.5-.5h.1ZM12.9,651.9L832.3-38.6l.5.5L13.4,652.4l-.5-.5ZM846.3-38.6L27,651.9l.5.5L846.8-38.1l-.5-.5ZM41,651.9L860.4-38.6l.5.5L41.5,652.4l-.5-.5ZM874.4-38.6L55.1,651.9l.5.5L874.9-38.1l-.5-.5ZM69.1,651.9L888.5-38.6l.5.5L69.6,652.4l-.5-.5ZM902.5-38.6L83.1,651.9l.5.5L903-38.1l-.5-.5ZM97.2,651.9L916.6-38.6l.5.5L97.7,652.4l-.5-.5ZM930.6-38.6L111.2,651.9l.5.5L931.1-38.1l-.5-.5ZM125.3,651.9L944.7-38.6l.5.5L125.7,652.4l-.5-.5h.1ZM958.7-38.6L139.3,651.9l.5.5L959.2-38.1l-.5-.5ZM62.1,729L972.8-38.6l.5.5L62.5,729.5l-.5-.5h0ZM986.8-38.6L76.1,729l.5.5L987.3-38.1l-.5-.5Z"/>
    </g>
    <path class="st7" d="M445.6,466.4l1.4,1.1v19.5c.5,0,1,0,1.5,0,11.4,0,6.3,7.9,6.3,7.9-7.4,13,2.4,15.1,9.4,15.1s5.9-.4,5.9-.4l5.2,7.2h15.8l-13.5,19.4,5.5,12.3v12.3h-11.3c-3.1,2.2-7.8,2.7-11.6,2.7s-6.3-.5-6.3-.5c-1.5-.3-2.9-.5-4.1-.5-12.4,0-9.4,14.6-9.4,14.6l-17,21.9s-6.3-2.6-15.2-2.6-17,1.9-26.1,8.7c0,0-6.3,24.3-16.9,24.3s-.5,0-.8,0h-33l-18,3.3-24-15.1h-12c-.9-2.8-2.3-6.4-4.6-11.4-7.8-16.7-16.2-52.1-18.6-67.1-1.4-8.8-2.2-23.3-2.9-36h17.1l5.3,6.4,48.4-14.7c5.3,7.9,11.3,10,16.1,10s8.9-2.4,8.9-2.4l23.8-12.7c3.2-1.6,5.9-2.2,8.1-2.2,7.2,0,9.4,6.4,9.4,6.4l26.9.9v-14.9l12.5-13.5h17.9M491,516.6h0M445.6,464.9h-17.9c-.4,0-.8.2-1.1.5l-12.5,13.5c-.3.3-.4.6-.4,1v13.3l-24.4-.8c-1.3-2.6-4.6-6.4-10.4-6.4-2.7,0-5.6.8-8.8,2.3,0,0,0,0,0,0l-23.8,12.7s0,0-.1,0c0,0-3.5,2.2-8.1,2.2s-10.7-3.1-14.8-9.3c-.3-.4-.8-.7-1.2-.7s-.3,0-.4,0l-47.4,14.4-4.6-5.6c-.3-.3-.7-.5-1.2-.5h-17.1c-.4,0-.8.2-1.1.5-.3.3-.4.7-.4,1.1.7,13.7,1.5,27.6,2.9,36.2,2.3,14.5,10.8,50.5,18.7,67.5,2.2,4.7,3.7,8.4,4.6,11.2.2.6.8,1.1,1.4,1.1h11.5l23.6,14.8c.2.2.5.2.8.2s.2,0,.3,0l17.9-3.3h32.8c.3,0,.6,0,.9,0,5,0,9.6-4.4,13.7-13,2.5-5.2,4-10.3,4.4-11.9,7.3-5.4,15.6-8.1,24.8-8.1s14.6,2.4,14.6,2.4c.2,0,.4.1.6.1.5,0,.9-.2,1.2-.6l17-21.9c.3-.3.4-.8.3-1.2,0,0-1.3-6.7,1.7-10.3,1.4-1.7,3.4-2.5,6.2-2.5s2.4.1,3.8.4c0,0,0,0,0,0,.1,0,2.9.5,6.5.5,5.2,0,9.2-.9,12-2.7h10.9c.8,0,1.5-.7,1.5-1.5v-12.3c0-.2,0-.4-.1-.6l-5.2-11.5,13-18.7c.2-.3.3-.6.3-.9,0-.8-.7-1.5-1.5-1.5h-15l-4.7-6.6c-.3-.4-.7-.6-1.2-.6s-.2,0-.2,0c0,0-2.6.4-5.6.4-5.2,0-8.7-1.2-10-3.3-1.5-2.6.2-6.6,1.9-9.5.3-.5,2.3-3.9.8-6.8-1.2-2.2-4-3.3-8.3-3.3h0v-17.9c0-.5-.2-.9-.6-1.2l-1.4-1.1c-.3-.2-.6-.3-.9-.3h0Z"/>
    <g>
      <path class="st16" d="M307.6,453.4h107c11,0,20,9,20,20h0c0,11-9,20-20,20h-107c-11,0-20-9-20-20h0c0-11,9-20,20-20Z"/>
      <path class="st35" d="M305,474.5h2l1,4.3c1.3,0,2.3-.3,3.1-1,.8-.7,1.2-1.7,1.2-2.9s-.3-2.3-1-2.9-1.7-.9-3.2-.9-1.3,0-2,.2c-.7.1-1.3.3-1.7.5v-1.6c.5-.2,1.1-.4,1.8-.5.7-.1,1.5-.2,2.2-.2,1.9,0,3.4.5,4.4,1.4,1,.9,1.6,2.3,1.6,4.1s-.3,2-.8,2.9c-.5.8-1.3,1.5-2.2,2-.9.5-1.9.7-3,.7h-2l-1.4-5.9ZM310.3,468.1c-.6,0-1-.1-1.2-.4-.3-.3-.4-.7-.4-1.3v-1h1.8v.8c0,.2,0,.4.1.5,0,0,.2.1.5.1h4.7v1.4h-5.5ZM316.2,471h2l2.5,7.8c1.3,0,2.2-.3,2.9-1s1-1.7,1-2.9-.2-2.2-.7-2.8c-.5-.6-1.2-1-2.2-1s-.9,0-1.4.2v-1.6c.5-.1,1.1-.2,1.7-.2,1.5,0,2.7.5,3.5,1.4.8,1,1.2,2.3,1.2,4s-.3,2.2-.8,3c-.5.8-1.2,1.5-2,1.9-.9.4-1.8.7-2.8.7h-1.9l-3-9.4ZM329,469.7h2v4.7l5.2-4.7h2.4l-2.9,2.7c1.1.3,1.9.7,2.3,1.3.4.6.7,1.4.7,2.5v4.2h-2v-4.1c0-.8-.2-1.4-.5-1.8-.3-.4-.9-.7-1.7-.9l-3.4,3.1v3.8h-2v-10.7ZM344.7,480.7c-1.7,0-3-.3-3.9-.9v-1.6c.9.6,2.1.9,3.5.9s2.3-.3,3-1c.7-.7,1.1-1.7,1.1-3s-.4-2.3-1.1-3c-.7-.7-1.7-1-3-1s-2.6.3-3.5.9v-1.7c.9-.6,2.2-.9,3.9-.9s3.2.5,4.3,1.5c1,1,1.6,2.4,1.6,4.2s-.5,3.2-1.6,4.2-2.5,1.5-4.3,1.5ZM346.4,468.1c-.6,0-1-.1-1.2-.4-.3-.3-.4-.7-.4-1.3v-1h1.8v.8c0,.2,0,.4.1.5,0,0,.2.1.5.1h4.7v1.4h-5.5ZM357.5,480.7c-1.6,0-2.9-.5-3.8-1.4-.9-.9-1.4-2.2-1.4-4s.2-2.3.7-3.2c.5-.9,1.2-1.6,2-2,.9-.5,1.9-.7,3.1-.7,1.9,0,3.3.4,4.1,1.3.9.9,1.3,2,1.3,3.4v6.3h-2v-6.3c0-2.1-1.1-3.1-3.4-3.1s-2.1.4-2.8,1.1-1,1.8-1,3.2.3,2.2.9,2.8c.6.6,1.4.9,2.6.9s1,0,1.4-.2v1.6c-.5.1-1,.2-1.7.2ZM369.9,480.7c-.7,0-1.5,0-2.2-.3-.8-.2-1.4-.4-1.8-.7v-1.6c.6.3,1.2.6,1.9.8.7.2,1.4.3,2,.3s1.5-.1,1.9-.3c.4-.2.6-.6.6-1.1s0-.6-.3-.8c-.2-.2-.5-.4-.9-.6-.4-.2-1-.4-1.8-.6-1.2-.4-2-.8-2.6-1.3-.6-.5-.9-1.2-.9-2s.4-1.7,1.1-2.3c.8-.5,1.8-.8,3.1-.8s1.3,0,2,.2c.6.1,1.2.3,1.6.6v1.7c-.5-.3-1-.5-1.6-.7s-1.2-.2-1.8-.2c-1.6,0-2.4.5-2.4,1.4s.1.6.3.9c.2.2.5.4.9.5.4.1,1,.3,1.9.6.9.3,1.5.5,2,.8.5.3.8.6,1,1s.3.9.3,1.5c0,.9-.4,1.6-1.1,2.1s-1.8.8-3.3.8ZM380.2,473.5c0-.9-.2-1.5-.5-1.9-.3-.4-1-.6-1.8-.6s-1.7.2-2.4.6v-1.6c.3-.2.7-.3,1.2-.4.5-.1,1-.2,1.5-.2,1.3,0,2.4.4,3,1.1.7.7,1,1.8,1,3.1v6.8h-2v-6.9ZM389.3,480.7c-.9,0-1.8-.2-2.5-.5-.7-.3-1.3-.8-1.7-1.4-.4-.6-.6-1.3-.6-2.1v-.7c0-.5,0-.9.3-1.3.2-.4.5-.8.8-1.3.3-.3.4-.6.5-.8.1-.2.2-.4.2-.6s0-.4-.2-.5c-.1-.1-.3-.2-.6-.2h-1.1v-1.6h2.1c.6,0,1,.2,1.4.5.3.3.5.8.5,1.3s0,.7-.2,1.1c-.2.3-.4.7-.7,1.2-.3.5-.6.9-.7,1.2-.1.3-.2.6-.2,1v.7c0,.8.2,1.4.7,1.8.5.4,1.1.6,2,.6s1.6-.2,2.1-.7c.5-.5.8-1.2.8-2.2s-.2-1.7-.6-2.2c-.4-.5-1-.7-1.8-.7v-1.1l2.1-2.8h2.2l-2.3,3c.8.3,1.4.8,1.8,1.4.4.6.6,1.4.6,2.4s-.2,1.7-.6,2.4c-.4.7-1,1.2-1.7,1.6-.7.4-1.6.5-2.6.5ZM401.7,480.7c-1,0-1.9-.2-2.7-.6-.8-.4-1.4-.9-1.8-1.6-.4-.7-.6-1.5-.6-2.3v-6.6h2v6.5c0,.9.3,1.6.8,2.1.5.5,1.3.8,2.3.8s1.8-.3,2.3-.8c.5-.5.8-1.2.8-2.1v-6.5h2v6.6c0,.9-.2,1.6-.6,2.3-.4.7-1,1.2-1.8,1.6-.8.4-1.7.6-2.7.6ZM404.9,483.6c0-.2,0-.4-.1-.5,0,0-.3-.1-.5-.1h-.7v-1.5h1.6c.6,0,1,.1,1.2.4.2.2.3.7.3,1.3v2.5h-1.9v-2ZM413.1,480.7c-.7,0-1.5,0-2.2-.3-.8-.2-1.4-.4-1.8-.7v-1.6c.6.3,1.2.6,1.9.8.7.2,1.4.3,2,.3s1.5-.1,1.9-.3c.4-.2.6-.6.6-1.1s0-.6-.3-.8c-.2-.2-.5-.4-.9-.6-.4-.2-1-.4-1.8-.6-1.2-.4-2-.8-2.6-1.3-.6-.5-.9-1.2-.9-2s.4-1.7,1.1-2.3c.8-.5,1.8-.8,3.1-.8s1.3,0,2,.2c.6.1,1.2.3,1.6.6v1.7c-.5-.3-1-.5-1.6-.7-.6-.2-1.2-.2-1.8-.2-1.6,0-2.4.5-2.4,1.4s.1.6.3.9c.2.2.5.4.9.5.4.1,1,.3,1.9.6.9.3,1.5.5,2,.8.5.3.8.6,1,1s.3.9.3,1.5c0,.9-.4,1.6-1.1,2.1s-1.8.8-3.3.8ZM408.4,466.7h6.8v-2.1h1.9v3.5h-8.6v-1.4Z"/>
      <g class="st34">
        <g>
          <path class="st17" d="M397.1,537.4c0-20.1-16.4-36.3-36.5-36-19.5.3-35.3,16.2-35.5,35.7-.1,17.4,12.1,32,28.4,35.5.1,0,.3.1.3.3l7.1,11.9c0,.1.2.1.3,0l7.1-11.9c0-.1.1-.3.3-.3,16.2-3.5,28.4-17.9,28.4-35.2Z"/>
          <path class="st19" d="M331.1,517.5c-3.8,5.6-6,12.4-6,19.6-.1,17.4,12.1,32,28.4,35.5.1.1.2.2.3.3l7.1,11.9c0,.1.2.1.3,0l7.1-11.9c0-.1.1-.3.3-.3,13.5-2.9,24.2-13.4,27.4-26.7l-65-28.4Z"/>
          <path class="st7" d="M361.1,563c14.1,0,25.6-11.5,25.6-25.6s-11.5-25.6-25.6-25.6-25.6,11.5-25.6,25.6,11.5,25.6,25.6,25.6Z"/>
          <path class="st19" d="M363.6,521.7h-5s0,13.2,0,13.2h-13.2v5h13.2v13.2h5v-13.2h13.2v-5h-13.2v-13.2Z"/>
          <path class="st8" d="M363.6,521.7h-5s0,13.2,0,13.2h-13.2v5h13.2v13.2h5v-13.2h13.2v-5h-13.2v-13.2Z"/>
        </g>
      </g>
    </g>
  </g>
  <g>
    <path class="st37" d="M541.9,471.5l-1.6-2.6v-64l4.5-3.4-31.5-1.2-23.6,17.1-2.6,2.2h-32.5l-11.8,5.5-19.7,24.2,23.7,18.1v19.5c13.3-.7,7.8,7.8,7.8,7.8-10.9,19.1,15.3,14.7,15.3,14.7l5.2,7.2h15.8s16.2,2.7,25.5-5.1l34.9-24.5-9.5-15.4Z"/>
    <g class="st31">
      <path class="st6" d="M512.6,20.8L-30.6,477.7l.5.5L513,21.3l-.5-.5h0ZM484.5,20.8L-58.7,477.7l.5.5L484.9,21.3l-.5-.5h.1ZM803.2,213.4L121.6,788.4l.5.5L803.7,214l-.5-.5h0ZM305.2,980.3L986.9,405.3l.5.5L305.6,980.8l-.5-.5h0ZM178.8,980.3L860.4,405.3l.5.5L179.2,980.8l-.5-.5h.1ZM192.8,980.3L874.4,405.3l.5.5L193.3,980.8l-.5-.5ZM888.5,405.3L206.8,980.3l.5.5L888.9,405.8l-.5-.5h.1ZM220.9,980.3L902.5,405.3l.5.5L221.4,980.8l-.5-.5ZM916.6,405.3L234.9,980.3l.5.5L917,405.8l-.5-.5h.1ZM249,980.3L930.6,405.3l.5.5L249.4,980.8l-.5-.5h.1ZM944.7,405.3L263,980.3l.5.5L945.1,405.8l-.5-.5h.1ZM277.1,980.3L958.7,405.3l.5.5L277.5,980.8l-.5-.5h.1ZM972.8,405.3L291.1,980.3l.5.5L973.2,405.8l-.5-.5h.1ZM1000.9,405.3L319.2,980.3l.5.5L1001.3,405.8l-.5-.5h0ZM333.3,980.3L1014.9,405.3l.5.5L333.7,980.8l-.5-.5h.1ZM1028.9,405.3L347.3,980.3l.5.5,681.6-575-.5-.5ZM361.3,980.3l681.6-575,.5.5L361.8,980.8l-.5-.5ZM1057,405.3L375.4,980.3l.5.5,681.6-575-.5-.5h0ZM389.4,980.3l681.6-575,.5.5L389.9,980.8l-.5-.5ZM1085.1,405.3L403.5,980.3l.5.5,681.6-575-.5-.5ZM417.5,980.3l681.6-575,.5.5L418,980.8l-.5-.5ZM1113.2,405.3L431.6,980.3l.5.5,681.6-575-.5-.5h0ZM445.6,980.3l681.6-575,.5.5L446.1,980.8l-.5-.5ZM135.6,788.4L817.3,213.4l.5.5L136.1,788.9l-.5-.5ZM831.3,213.4L149.7,788.4l.5.5L831.8,214l-.5-.5h0ZM163.7,788.4L845.4,213.4l.5.5L164.2,788.9l-.5-.5ZM859.4,213.4L177.8,788.4l.5.5L859.9,214l-.5-.5h0ZM191.8,788.4L873.4,213.4l.5.5L192.3,788.9l-.5-.5ZM887.5,213.4L205.8,788.4l.5.5L887.9,214l-.5-.5h.1ZM219.9,788.4L901.5,213.4l.5.5L220.4,788.9l-.5-.5ZM915.6,213.4L233.9,788.4l.5.5L916,214l-.5-.5h0ZM248,788.4L929.6,213.4l.5.5L248.4,788.9l-.5-.5h.1ZM943.7,213.4L262,788.4l.5.5L944.1,214l-.5-.5h.1ZM276.1,788.4L957.7,213.4l.5.5L276.5,788.9l-.5-.5h.1ZM971.8,213.4L290.1,788.4l.5.5L972.2,214l-.5-.5h0ZM304.2,788.4L985.8,213.4l.5.5L304.6,788.9l-.5-.5h0ZM999.9,213.4L318.2,788.4l.5.5L1000.3,214l-.5-.5h0ZM128.6,962.7L1013.9,213.4l.5.5L129.1,963.2l-.5-.5ZM1027.9,213.4L142.6,962.7l.5.5L1028.4,214l-.5-.5h0ZM156.7,962.7L1042,213.4l.5.5L157.1,963.2l-.5-.5h.1ZM1056,213.4L170.7,962.7l.5.5L1056.5,214l-.5-.5h0ZM184.8,962.7L1070.1,213.4l.5.5L185.2,963.2l-.5-.5h.1ZM-44.7,477.7L498.5,20.8l.5.5L-44.2,478.2l-.5-.5ZM-16.6,477.7L526.6,20.8l.5.5L-16.1,478.2l-.5-.5ZM540.6,20.8L-2.5,477.7l.5.5L541.1,21.3l-.5-.5ZM11.5,477.7L554.7,20.8l.5.5L12,478.2l-.5-.5ZM568.7,20.8L25.5,477.7l.5.5L569.2,21.3l-.5-.5ZM39.6,477.7L582.8,20.8l.5.5L40.1,478.2l-.5-.5ZM596.8,20.8L53.6,477.7l.5.5L597.3,21.3l-.5-.5ZM67.7,477.7L610.9,20.8l.5.5L68.1,478.2l-.4-.5h0ZM624.9,20.8L81.7,477.7l.5.5L625.4,21.3l-.5-.5ZM95.8,477.7L639,20.8l.5.5L96.2,478.2l-.5-.5h0ZM653,20.8L109.8,477.7l.5.5L653.5,21.3l-.5-.5ZM123.9,477.7L667.1,20.8l.5.5L124.3,478.2l-.5-.5h0ZM681.1,20.8L137.9,477.7l.5.5L681.6,21.3l-.5-.5ZM152,477.7L695.1,20.8l.5.5L152.4,478.2l-.5-.5h.1ZM709.2,20.8L-110.3,711.3l.5.5L709.7,21.3l-.5-.5ZM-96.2,711.3L723.2,20.8l.5.5L-95.8,711.8l-.5-.5h.1ZM737.3,20.8L-82.1,711.3l.5.5L737.7,21.3l-.5-.5h0ZM-68,711.3L751.3,20.8l.5.5L-67.6,711.8l-.5-.5h.1ZM765.4,20.8L-54,711.3l.5.5L765.8,21.3l-.5-.5h0ZM-40,711.3L779.4,20.8l.5.5L-39.5,711.8l-.5-.5ZM793.5,20.8L-25.9,711.3l.5.5L793.9,21.3l-.5-.5h.1ZM-11.9,711.3L807.5,20.8l.5.5L-11.4,711.8l-.5-.5ZM821.6,20.8L2.2,711.3l.5.5L822,21.3l-.5-.5h0ZM16.2,711.3L835.6,20.8l.5.5L16.7,711.8l-.5-.5ZM849.7,20.8L30.3,711.3l.5.5L850.1,21.3l-.5-.5h.1ZM44.3,711.3L863.7,20.8l.5.5L44.8,711.8l-.5-.5ZM877.7,20.8L58.4,711.3l.5.5L878.2,21.3l-.5-.5ZM72.4,711.3L891.8,20.8l.5.5L72.9,711.8l-.5-.5ZM905.8,20.8L86.5,711.3l.5.5L906.3,21.3l-.5-.5ZM100.5,711.3L919.9,20.8l.5.5L101,711.8l-.5-.5ZM933.9,20.8L114.5,711.3l.5.5L934.4,21.3l-.5-.5ZM128.6,711.3L948,20.8l.5.5L129.1,711.8l-.5-.5ZM962,20.8L142.6,711.3l.5.5L962.5,21.3l-.5-.5ZM156.7,711.3L976.1,20.8l.5.5L157.1,711.8l-.5-.5h.1ZM990.1,20.8L170.7,711.3l.5.5L990.6,21.3l-.5-.5ZM93.5,788.4L1004.2,20.8l.5.5L93.9,788.9l-.5-.5h0ZM1018.2,20.8L107.5,788.4l.5.5L1018.7,21.3l-.5-.5Z"/>
    </g>
    <path class="st1" d="M541.9,471.5h0l-1.6-2.6v-64l4.5-3.4-31.5-1.2-23.6,17.1-2.6,2.2h-32.5l-11.8,5.5-19.7,24.2,23.7,18.1v19.5c13.3-.7,7.8,7.8,7.8,7.8-10.9,19.1,15.3,14.7,15.3,14.7l5.2,7.2h15.8s16.2,2.7,25.5-5.1l34.9-24.5-9.5-15.4Z"/>
    <g>
      <path class="st16" d="M428,353.4h127c11,0,20,9,20,20h0c0,11-9,20-20,20h-127c-11,0-20-9-20-20h0c0-11,9-20,20-20Z"/>
      <path class="st35" d="M425.5,374.5h2l1,4.3c1.3,0,2.3-.3,3.1-1,.8-.7,1.2-1.7,1.2-2.9s-.3-2.3-1-2.9-1.7-.9-3.2-.9-1.3,0-2,.2c-.7.1-1.3.3-1.7.5v-1.6c.5-.2,1.1-.4,1.8-.5.7-.1,1.5-.2,2.2-.2,1.9,0,3.4.5,4.4,1.4,1,.9,1.6,2.3,1.6,4.1s-.3,2-.8,2.9c-.5.8-1.3,1.5-2.2,2-.9.5-1.9.7-3,.7h-2l-1.4-5.9ZM430.7,368.1c-.6,0-1-.1-1.2-.4-.3-.3-.4-.7-.4-1.3v-1h1.8v.8c0,.2,0,.4.1.5,0,0,.2.1.5.1h4.7v1.4h-5.5ZM436.7,371h2l2.5,7.8c1.3,0,2.2-.3,2.9-1s1-1.7,1-2.9-.2-2.2-.7-2.8c-.5-.6-1.2-1-2.2-1s-.9,0-1.4.2v-1.6c.5-.1,1.1-.2,1.7-.2,1.5,0,2.7.5,3.5,1.4.8,1,1.2,2.3,1.2,4s-.3,2.2-.8,3c-.5.8-1.2,1.5-2,1.9-.9.4-1.8.7-2.8.7h-1.9l-3-9.4ZM449.5,369.7h2v4.7l5.2-4.7h2.4l-2.9,2.7c1.1.3,1.9.7,2.3,1.3.4.6.7,1.4.7,2.5v4.2h-2v-4.1c0-.8-.2-1.4-.5-1.8-.3-.4-.9-.7-1.7-.9l-3.4,3.1v3.8h-2v-10.7ZM465.2,380.7c-1.7,0-3-.3-3.9-.9v-1.6c.9.6,2.1.9,3.5.9s2.3-.3,3-1c.7-.7,1.1-1.7,1.1-3s-.4-2.3-1.1-3c-.7-.7-1.7-1-3-1s-2.6.3-3.5.9v-1.7c.9-.6,2.2-.9,3.9-.9s3.2.5,4.3,1.5c1,1,1.6,2.4,1.6,4.2s-.5,3.2-1.6,4.2-2.5,1.5-4.3,1.5ZM466.9,368.1c-.6,0-1-.1-1.2-.4-.3-.3-.4-.7-.4-1.3v-1h1.8v.8c0,.2,0,.4.1.5,0,0,.2.1.5.1h4.7v1.4h-5.5ZM478,380.7c-1.6,0-2.9-.5-3.8-1.4-.9-.9-1.4-2.2-1.4-4s.2-2.3.7-3.2c.5-.9,1.2-1.6,2-2,.9-.5,1.9-.7,3.1-.7,1.9,0,3.3.4,4.1,1.3.9.9,1.3,2,1.3,3.4v6.3h-2v-6.3c0-2.1-1.1-3.1-3.4-3.1s-2.1.4-2.8,1.1-1,1.8-1,3.2.3,2.2.9,2.8c.6.6,1.4.9,2.6.9s1,0,1.4-.2v1.6c-.5.1-1,.2-1.7.2ZM490.9,380.7c-1.3,0-2.3-.4-3.1-1.1-.7-.7-1.1-1.7-1.1-2.8v-7.1h2v7c0,.8.2,1.4.7,1.8.5.4,1.1.6,2,.6,1.4,0,2.5-.6,3.2-1.8v-7.6h2v10.7h-2v-1.4c-1,1.2-2.3,1.7-3.8,1.7ZM499.3,373.8c0-1.4.5-2.5,1.4-3.2.9-.8,2.2-1.2,3.7-1.2s2.8.4,3.7,1.1c.9.8,1.4,1.8,1.4,3.2v6.6h-2v-6.7c0-.9-.3-1.6-.8-2-.5-.5-1.3-.7-2.2-.7s-1.7.2-2.3.7c-.5.4-.8,1.1-.8,2v2c.2-.3.4-.6.8-.8.4-.2.8-.3,1.3-.3h1.6v1.7h-1.8c-.6,0-1,.2-1.4.6-.4.4-.6.8-.6,1.3v2.1h-2v-6.6ZM515.7,380.7c-.7,0-1.5,0-2.2-.3-.8-.2-1.4-.4-1.8-.7v-1.6c.6.3,1.2.6,1.9.8.7.2,1.4.3,2,.3s1.5-.1,1.9-.3c.4-.2.6-.6.6-1.1s0-.6-.3-.8c-.2-.2-.5-.4-.9-.6-.4-.2-1-.4-1.8-.6-1.2-.4-2-.8-2.6-1.3-.6-.5-.9-1.2-.9-2s.4-1.7,1.1-2.3c.8-.5,1.8-.8,3.1-.8s1.3,0,2,.2c.6.1,1.2.3,1.6.6v1.7c-.5-.3-1-.5-1.6-.7-.6-.2-1.2-.2-1.8-.2-1.6,0-2.4.5-2.4,1.4s.1.6.3.9c.2.2.5.4.9.5.4.1,1,.3,1.9.6.9.3,1.5.5,2,.8.5.3.8.6,1,1,.2.4.3.9.3,1.5,0,.9-.4,1.6-1.1,2.1-.7.5-1.8.8-3.3.8ZM527.4,380.7c-1,0-1.9-.2-2.7-.6-.8-.4-1.4-.9-1.8-1.6-.4-.7-.6-1.5-.6-2.3v-6.6h2v6.5c0,.9.3,1.6.8,2.1.5.5,1.3.8,2.3.8s1.8-.3,2.3-.8c.5-.5.8-1.2.8-2.1v-10.1h2v10.1c0,.9-.2,1.6-.6,2.3-.4.7-1,1.2-1.8,1.6s-1.7.6-2.7.6ZM535.3,374.5h2l1,4.3c1.3,0,2.3-.3,3.1-1,.8-.7,1.2-1.7,1.2-2.9s-.3-2.3-1-2.9-1.7-.9-3.2-.9-1.3,0-2,.2c-.7.1-1.3.3-1.7.5v-1.6c.5-.2,1.1-.4,1.8-.5.7-.1,1.5-.2,2.2-.2,1.3,0,2.4.2,3.2.6l1-1.1h2.3l-1.9,2.1c.9.9,1.3,2.2,1.3,3.8s-.3,2-.8,2.9c-.5.8-1.3,1.5-2.2,2-.9.5-1.9.7-3,.7h-2l-1.4-5.9ZM537,384.9c-.4,0-.8,0-1.2-.2-.4-.1-.7-.2-1-.4v-1.5c.6.4,1.2.5,2,.5s1-.1,1.4-.4c.3-.2.6-.6.7-1.2h1.1l2.3,1.4v-1.9h2v3.5h-1.9l-2.6-1.6c-.3.6-.6,1-1.1,1.2-.5.3-1,.4-1.7.4ZM553,380.7c-.7,0-1.4-.1-2.1-.4-.7-.3-1.2-.7-1.8-1.3v1.4h-2v-10.7h2v7.6c.8,1.2,1.9,1.8,3.2,1.8s1.5-.2,2-.6c.5-.4.7-1,.7-1.8v-7h2v7.1c0,1.2-.4,2.1-1.1,2.8-.7.7-1.7,1.1-3,1.1Z"/>
      <g class="st30">
        <g>
          <path class="st17" d="M527.5,437.4c0-20.1-16.4-36.3-36.5-36-19.5.3-35.3,16.2-35.5,35.7-.1,17.4,12.1,32,28.4,35.5.1,0,.3.1.3.3l7.1,11.9c0,.1.2.1.3,0l7.1-11.9c0-.1.1-.3.3-.3,16.2-3.5,28.4-17.9,28.4-35.2Z"/>
          <path class="st19" d="M461.6,417.5c-3.8,5.6-6,12.4-6,19.6-.1,17.4,12.1,32,28.4,35.5.1.1.2.2.3.3l7.1,11.9c0,.1.2.1.3,0l7.1-11.9c0-.1.1-.3.3-.3,13.5-2.9,24.2-13.4,27.4-26.7l-65-28.4Z"/>
          <path class="st7" d="M491.5,463c14.1,0,25.6-11.5,25.6-25.6s-11.5-25.6-25.6-25.6-25.6,11.5-25.6,25.6,11.5,25.6,25.6,25.6Z"/>
          <path class="st19" d="M494.1,421.7h-5s0,13.2,0,13.2h-13.2v5h13.2v13.2h5v-13.2h13.2v-5h-13.2v-13.2Z"/>
          <path class="st10" d="M494.1,421.7h-5s0,13.2,0,13.2h-13.2v5h13.2v13.2h5v-13.2h13.2v-5h-13.2v-13.2Z"/>
        </g>
      </g>
    </g>
  </g>
  <g>
    <path class="st38" d="M531,583.9l3.3-1.4c8.4-3.5,19.5-7.3,32-7.3,4.1,0,8.5.4,12.9,1.4.7.2,1.4.3,2,.4,2.6-11.1,4.9-29.1-2.9-42l-22-12v-28l-5-8.1-34.9,24.5c-9.2,7.8-25.5,5.1-25.5,5.1l-13.5,19.4,5.5,12.3v12.3l33.8,31.2,14.2-7.9Z"/>
    <g class="st33">
      <path class="st6" d="M481.2-38.6L-62,418.3l.5.5L481.6-38.1l-.5-.5h0ZM453.1-38.6L-90.1,418.3l.5.5L453.5-38.1l-.5-.5h.1ZM771.8,154L90.2,729l.5.5L772.3,154.6l-.5-.5h0ZM273.8,920.9L955.5,345.9l.5.5L274.2,921.4l-.5-.5h0ZM147.4,920.9L829,345.9l.5.5L147.8,921.4l-.5-.5h.1ZM161.4,920.9L843,345.9l.5.5L161.9,921.4l-.5-.5ZM857.1,345.9L175.4,920.9l.5.5L857.5,346.4l-.5-.5h.1ZM189.5,920.9L871.1,345.9l.5.5L190,921.4l-.5-.5ZM885.2,345.9L203.5,920.9l.5.5L885.6,346.4l-.5-.5h.1ZM217.6,920.9L899.2,345.9l.5.5L218,921.4l-.5-.5h.1ZM913.3,345.9L231.6,920.9l.5.5L913.7,346.4l-.5-.5h.1ZM245.7,920.9L927.3,345.9l.5.5L246.1,921.4l-.5-.5h.1ZM941.4,345.9L259.7,920.9l.5.5L941.8,346.4l-.5-.5h.1ZM969.5,345.9L287.8,920.9l.5.5L969.9,346.4l-.5-.5h0ZM301.9,920.9L983.5,345.9l.5.5L302.3,921.4l-.5-.5h.1ZM997.5,345.9L315.9,920.9l.5.5L998,346.4l-.5-.5ZM329.9,920.9L1011.5,345.9l.5.5L330.4,921.4l-.5-.5ZM1025.6,345.9L344,920.9l.5.5,681.6-575-.5-.5h0ZM358,920.9l681.6-575,.5.5L358.5,921.4l-.5-.5ZM1053.7,345.9L372.1,920.9l.5.5,681.6-575-.5-.5ZM386.1,920.9l681.6-575,.5.5L386.6,921.4l-.5-.5ZM1081.8,345.9L400.2,920.9l.5.5,681.6-575-.5-.5h0ZM414.2,920.9l681.6-575,.5.5L414.7,921.4l-.5-.5ZM104.2,729L785.9,154l.5.5L104.7,729.5l-.5-.5ZM799.9,154L118.3,729l.5.5L800.4,154.6l-.5-.5h0ZM132.3,729L814,154l.5.5L132.8,729.5l-.5-.5ZM828,154L146.4,729l.5.5L828.5,154.6l-.5-.5h0ZM160.4,729L842,154l.5.5L160.9,729.5l-.5-.5ZM856.1,154L174.4,729l.5.5L856.5,154.6l-.5-.5h.1ZM188.5,729L870.1,154l.5.5L189,729.5l-.5-.5ZM884.2,154L202.5,729l.5.5L884.6,154.6l-.5-.5h0ZM216.6,729L898.2,154l.5.5L217,729.5l-.5-.5h.1ZM912.3,154L230.6,729l.5.5L912.7,154.6l-.5-.5h.1ZM244.7,729L926.3,154l.5.5L245.1,729.5l-.5-.5h.1ZM940.4,154L258.7,729l.5.5L940.8,154.6l-.5-.5h0ZM272.8,729L954.4,154l.5.5L273.2,729.5l-.5-.5h0ZM968.5,154L286.8,729l.5.5L968.9,154.6l-.5-.5h0ZM97.2,903.3L982.5,154l.5.5L97.7,903.8l-.5-.5ZM996.5,154L111.2,903.3l.5.5L997,154.6l-.5-.5h0ZM125.3,903.3L1010.6,154l.5.5L125.7,903.8l-.5-.5h.1ZM1024.6,154L139.3,903.3l.5.5L1025.1,154.6l-.5-.5h0ZM153.4,903.3L1038.7,154l.5.5L153.8,903.8l-.5-.5h.1ZM-76.1,418.3L467.1-38.6l.5.5L-75.6,418.8l-.5-.5ZM-48,418.3L495.2-38.6l.5.5L-47.5,418.8l-.5-.5ZM509.2-38.6L-33.9,418.3l.5.5L509.7-38.1l-.5-.5ZM-19.9,418.3L523.3-38.6l.5.5L-19.4,418.8l-.5-.5ZM537.3-38.6L-5.9,418.3l.5.5L537.8-38.1l-.5-.5ZM8.2,418.3L551.4-38.6l.5.5L8.7,418.8l-.5-.5ZM565.4-38.6L22.2,418.3l.5.5L565.9-38.1l-.5-.5ZM36.3,418.3L579.5-38.6l.5.5L36.7,418.8l-.4-.5h0ZM593.5-38.6L50.3,418.3l.5.5L594-38.1l-.5-.5ZM64.4,418.3L607.6-38.6l.5.5L64.8,418.8l-.5-.5h0ZM621.6-38.6L78.4,418.3l.5.5L622.1-38.1l-.5-.5ZM92.5,418.3L635.7-38.6l.5.5L92.9,418.8l-.5-.5h0ZM649.7-38.6L106.5,418.3l.5.5L650.2-38.1l-.5-.5ZM120.6,418.3L663.7-38.6l.5.5L121,418.8l-.5-.5h.1ZM677.8-38.6L-141.7,651.9l.5.5L678.3-38.1l-.5-.5ZM-127.6,651.9L691.8-38.6l.5.5L-127.2,652.4l-.5-.5h.1ZM705.9-38.6L-113.5,651.9l.5.5L706.3-38.1l-.5-.5h0ZM-99.4,651.9L719.9-38.6l.5.5L-99,652.4l-.5-.5h.1ZM734-38.6L-85.4,651.9l.5.5L734.4-38.1l-.5-.5h0ZM-71.4,651.9L748-38.6l.5.5L-70.9,652.4l-.5-.5ZM762.1-38.6L-57.3,651.9l.5.5L762.5-38.1l-.5-.5h.1ZM-43.3,651.9L776.1-38.6l.5.5L-42.8,652.4l-.5-.5ZM790.2-38.6L-29.2,651.9l.5.5L790.6-38.1l-.5-.5h0ZM-15.2,651.9L804.2-38.6l.5.5L-14.7,652.4l-.5-.5ZM818.3-38.6L-1.1,651.9l.5.5L818.7-38.1l-.5-.5h.1ZM12.9,651.9L832.3-38.6l.5.5L13.4,652.4l-.5-.5ZM846.3-38.6L27,651.9l.5.5L846.8-38.1l-.5-.5ZM41,651.9L860.4-38.6l.5.5L41.5,652.4l-.5-.5ZM874.4-38.6L55.1,651.9l.5.5L874.9-38.1l-.5-.5ZM69.1,651.9L888.5-38.6l.5.5L69.6,652.4l-.5-.5ZM902.5-38.6L83.1,651.9l.5.5L903-38.1l-.5-.5ZM97.2,651.9L916.6-38.6l.5.5L97.7,652.4l-.5-.5ZM930.6-38.6L111.2,651.9l.5.5L931.1-38.1l-.5-.5ZM125.3,651.9L944.7-38.6l.5.5L125.7,652.4l-.5-.5h.1ZM958.7-38.6L139.3,651.9l.5.5L959.2-38.1l-.5-.5ZM62.1,729L972.8-38.6l.5.5L62.5,729.5l-.5-.5h0ZM986.8-38.6L76.1,729l.5.5L987.3-38.1l-.5-.5Z"/>
    </g>
    <path class="st7" d="M551.4,486.9l5,8.1v28l22,12c7.8,13,5.5,31,2.9,42-.7-.1-1.3-.3-2-.4-4.4-1-8.7-1.4-12.8-1.4,0,0,0,0,0,0-12.5,0-23.6,3.8-32,7.3l-3.3,1.4-14.2,7.9-33.8-31.2v-12.3l-5.5-12.3,13.5-19.4s2.7.4,6.5.4c5.6,0,13.5-.9,19-5.6l34.9-24.5M551.4,485.4c-.3,0-.6,0-.9.3l-34.9,24.5s0,0-.1,0c-5.1,4.3-12.6,5.2-18,5.2s-6.2-.4-6.2-.4c0,0-.2,0-.2,0-.5,0-.9.2-1.2.6l-13.5,19.4c-.3.4-.4,1-.1,1.5l5.4,12v11.9c0,.4.2.8.5,1.1l33.8,31.2c.3.3.6.4,1,.4s.5,0,.7-.2l14.1-7.8,3.3-1.4c7.3-3.1,18.6-7.2,31.4-7.2h0c4.2,0,8.4.4,12.5,1.3l1.3.3.8.2c.1,0,.2,0,.3,0,.7,0,1.3-.5,1.5-1.2,2.9-12.5,4.8-30.1-3.1-43.1-.1-.2-.3-.4-.6-.5l-21.2-11.6v-27.1c0-.3,0-.5-.2-.8l-5-8.1c-.2-.4-.6-.6-1-.7-.1,0-.2,0-.3,0h0Z"/>
    <g>
      <path class="st16" d="M457.5,428.7h145c11,0,20,9,20,20h0c0,11-9,20-20,20h-145c-11,0-20-9-20-20h0c0-11,9-20,20-20Z"/>
      <path class="st35" d="M455,449.8h2l1,4.3c1.3,0,2.3-.3,3.1-1,.8-.7,1.2-1.7,1.2-2.9s-.3-2.3-1-2.9-1.7-.9-3.2-.9-1.3,0-2,.2c-.7.1-1.3.3-1.7.5v-1.6c.5-.2,1.1-.4,1.8-.5.7-.1,1.5-.2,2.2-.2,1.9,0,3.4.5,4.4,1.4,1,.9,1.6,2.3,1.6,4.1s-.3,2-.8,2.9c-.5.8-1.3,1.5-2.2,2-.9.5-1.9.7-3,.7h-2l-1.4-5.9ZM460.2,443.4c-.6,0-1-.1-1.2-.4-.3-.3-.4-.7-.4-1.3v-1h1.8v.8c0,.2,0,.4.1.5,0,0,.2.1.5.1h4.7v1.4h-5.5ZM466.2,446.4h2l2.5,7.8c1.3,0,2.2-.3,2.9-1s1-1.7,1-2.9-.2-2.2-.7-2.8c-.5-.6-1.2-1-2.2-1s-.9,0-1.4.2v-1.6c.5-.1,1.1-.2,1.7-.2,1.5,0,2.7.5,3.5,1.4.8,1,1.2,2.3,1.2,4s-.3,2.2-.8,3c-.5.8-1.2,1.5-2,1.9-.9.4-1.8.7-2.8.7h-1.9l-3-9.4ZM479,445h2v4.7l5.2-4.7h2.4l-2.9,2.7c1.1.3,1.9.7,2.3,1.3.4.6.7,1.4.7,2.5v4.2h-2v-4.1c0-.8-.2-1.4-.5-1.8-.3-.4-.9-.7-1.7-.9l-3.4,3.1v3.8h-2v-10.7ZM494.7,456c-1.7,0-3-.3-3.9-.9v-1.6c.9.6,2.1.9,3.5.9s2.3-.3,3-1c.7-.7,1.1-1.7,1.1-3s-.4-2.3-1.1-3c-.7-.7-1.7-1-3-1s-2.6.3-3.5.9v-1.7c.9-.6,2.2-.9,3.9-.9s3.2.5,4.3,1.5c1,1,1.6,2.4,1.6,4.2s-.5,3.2-1.6,4.2-2.5,1.5-4.3,1.5ZM496.4,443.4c-.6,0-1-.1-1.2-.4-.3-.3-.4-.7-.4-1.3v-1h1.8v.8c0,.2,0,.4.1.5,0,0,.2.1.5.1h4.7v1.4h-5.5ZM507.5,456c-1.6,0-2.9-.5-3.8-1.4-.9-.9-1.4-2.2-1.4-4s.2-2.3.7-3.2c.5-.9,1.2-1.6,2-2,.9-.5,1.9-.7,3.1-.7,1.9,0,3.3.4,4.1,1.3.9.9,1.3,2,1.3,3.4v6.3h-2v-6.3c0-2.1-1.1-3.1-3.4-3.1s-2.1.4-2.8,1.1-1,1.8-1,3.2.3,2.2.9,2.8c.6.6,1.4.9,2.6.9s1,0,1.4-.2v1.6c-.5.1-1,.2-1.7.2ZM519.7,456c-1.2,0-2.1-.3-2.8-.9-.7-.6-1-1.4-1-2.5s.4-1.9,1.2-2.6c.8-.6,1.8-1,3.2-1s2.5.2,3.6.7v-.8c0-.9-.3-1.6-.8-2-.5-.4-1.3-.6-2.5-.6s-1.3,0-1.9.2c-.6.1-1.1.3-1.6.5v-1.6c.4-.2,1-.4,1.7-.5.7-.1,1.4-.2,2.1-.2,1.2,0,2.2.2,3,.7l1-1.2h2.3l-2,2.3c.5.7.7,1.5.7,2.5v6.8h-2v-4.3c-1-.5-2.1-.7-3.3-.7s-1.5.2-1.9.5c-.4.3-.6.8-.6,1.4,0,1.2.8,1.8,2.3,1.8s.9,0,1.3-.2v1.6c-.5.1-1.1.2-1.8.2ZM534.5,456c-.7,0-1.4-.1-2.1-.4-.7-.3-1.2-.7-1.8-1.3v1.4h-2v-10.7h2v7.6c.8,1.2,1.9,1.8,3.2,1.8s1.5-.2,2-.6c.5-.4.7-1,.7-1.8v-7h2v7.1c0,1.2-.4,2.1-1.1,2.8-.7.7-1.7,1.1-3,1.1ZM536.8,458.9c0-.2,0-.4-.1-.5,0,0-.3-.1-.5-.1h-.7v-1.5h1.6c.6,0,1,.1,1.2.4.2.2.3.7.3,1.3v2.5h-1.9v-2ZM541.2,445h2v1.4c.5-.6,1.1-1,1.8-1.3.7-.3,1.4-.4,2.1-.4,1.3,0,2.3.4,3,1.1.7.7,1,1.6,1,2.8v7.1h-2v-7c0-.7-.2-1.3-.6-1.7-.4-.4-1.1-.6-1.9-.6-1.5,0-2.6.6-3.3,1.8v7.6h-2v-10.7ZM557.5,456c-.7,0-1.5,0-2.2-.3-.8-.2-1.4-.4-1.8-.7v-1.6c.6.3,1.2.6,1.9.8.7.2,1.4.3,2,.3s1.5-.1,1.9-.3c.4-.2.6-.6.6-1.1s0-.6-.3-.8c-.2-.2-.5-.4-.9-.6-.4-.2-1-.4-1.8-.6-1.2-.4-2-.8-2.6-1.3-.6-.5-.9-1.2-.9-2s.4-1.7,1.1-2.3c.8-.5,1.8-.8,3.1-.8s1.3,0,2,.2c.6.1,1.2.3,1.6.6v1.7c-.5-.3-1-.5-1.6-.7-.6-.2-1.2-.2-1.8-.2-1.6,0-2.4.5-2.4,1.4s.1.6.3.9c.2.2.5.4.9.5.4.1,1,.3,1.9.6.9.3,1.5.5,2,.8.5.3.8.6,1,1,.2.4.3.9.3,1.5,0,.9-.4,1.6-1.1,2.1s-1.8.8-3.3.8ZM567.5,456c-1.2,0-2.1-.3-2.8-.9-.7-.6-1-1.4-1-2.5s.4-1.9,1.2-2.6c.8-.6,1.8-1,3.2-1s2.5.2,3.6.7v-.8c0-.9-.3-1.6-.8-2-.5-.4-1.3-.6-2.5-.6s-1.3,0-1.9.2c-.6.1-1.1.3-1.6.5v-1.6c.4-.2,1-.4,1.7-.5.7-.1,1.4-.2,2.1-.2,1.2,0,2.2.2,3,.7l1-1.2h2.3l-2,2.3c.5.7.7,1.5.7,2.5v6.8h-2v-4.3c-1-.5-2.1-.7-3.3-.7s-1.5.2-1.9.5c-.4.3-.6.8-.6,1.4,0,1.2.8,1.8,2.3,1.8s.9,0,1.3-.2v1.6c-.5.1-1.1.2-1.8.2ZM580.2,448.8c0-.9-.2-1.5-.5-1.9-.3-.4-1-.6-1.8-.6s-1.7.2-2.4.6v-1.6c.3-.2.7-.3,1.2-.4.5-.1,1-.2,1.5-.2,1.3,0,2.4.4,3,1.1.7.7,1,1.8,1,3.1v6.8h-2v-6.9ZM584.8,449.1c0-1.4.5-2.5,1.4-3.2.9-.8,2.2-1.2,3.7-1.2s2.8.4,3.7,1.1c.9.8,1.4,1.8,1.4,3.2v6.6h-2v-6.7c0-.9-.3-1.6-.8-2-.5-.5-1.3-.7-2.2-.7s-1.7.2-2.3.7c-.5.4-.8,1.1-.8,2v2c.2-.3.4-.6.8-.8.4-.2.8-.3,1.3-.3h1.6v1.7h-1.8c-.6,0-1,.2-1.4.6-.4.4-.6.8-.6,1.3v2.1h-2v-6.6ZM601.3,456c-.7,0-1.5,0-2.2-.3-.8-.2-1.4-.4-1.8-.7v-1.6c.6.3,1.2.6,1.9.8.7.2,1.4.3,2,.3s1.5-.1,1.9-.3c.4-.2.6-.6.6-1.1s0-.6-.3-.8c-.2-.2-.5-.4-.9-.6-.4-.2-1-.4-1.8-.6-1.2-.4-2-.8-2.6-1.3-.6-.5-.9-1.2-.9-2s.4-1.7,1.1-2.3c.8-.5,1.8-.8,3.1-.8s1.3,0,2,.2c.6.1,1.2.3,1.6.6v1.7c-.5-.3-1-.5-1.6-.7-.6-.2-1.2-.2-1.8-.2-1.6,0-2.4.5-2.4,1.4s.1.6.3.9c.2.2.5.4.9.5.4.1,1,.3,1.9.6.9.3,1.5.5,2,.8.5.3.8.6,1,1s.3.9.3,1.5c0,.9-.4,1.6-1.1,2.1s-1.8.8-3.3.8Z"/>
      <g class="st32">
        <g>
          <path class="st17" d="M566,512.7c0-20.1-16.4-36.3-36.5-36-19.5.3-35.3,16.2-35.5,35.7-.1,17.4,12.1,32,28.4,35.5.1,0,.3.1.3.3l7.1,11.9c0,.1.2.1.3,0l7.1-11.9c0-.1.1-.3.3-.3,16.2-3.5,28.4-17.9,28.4-35.2Z"/>
          <path class="st19" d="M500.1,492.8c-3.8,5.6-6,12.4-6,19.6-.1,17.4,12.1,32,28.4,35.5.1.1.2.2.3.3l7.1,11.9c0,.1.2.1.3,0l7.1-11.9c0-.1.1-.3.3-.3,13.5-2.9,24.2-13.4,27.4-26.7l-65-28.4Z"/>
          <path class="st7" d="M530,538.3c14.1,0,25.6-11.5,25.6-25.6s-11.5-25.6-25.6-25.6-25.6,11.5-25.6,25.6,11.5,25.6,25.6,25.6Z"/>
          <path class="st19" d="M532.6,497.1h-5s0,13.2,0,13.2h-13.2v5h13.2v13.2h5v-13.2h13.2v-5h-13.2v-13.2Z"/>
          <path class="st14" d="M532.6,497.1h-5s0,13.2,0,13.2h-13.2v5h13.2v13.2h5v-13.2h13.2v-5h-13.2v-13.2Z"/>
        </g>
      </g>
    </g>
  </g>
  <g>
    <path class="st15" d="M436.3,620.8l6-6.9h19l23.2,21.8s0,0,0,0c-2.7-7-4.8-13.8-4-18.1,1.3-7.2,1.6-5,6-7.7l2.9-1.7,3.9-3.4v.5c.4-.3,2.7-1.7,5.8-3.8l17.7-9.8-33.8-31.2h-11.3c-6,4.3-17.8,2.3-17.8,2.3-17.2-3.5-13.5,14.2-13.5,14.2l-17,21.9,13,22Z"/>
    <g class="st21">
      <path class="st6" d="M375.4,70.1L-167.8,527l.5.5L375.8,70.6l-.5-.5h0ZM347.3,70.1L-195.9,527l.5.5L347.7,70.6l-.5-.5h.1ZM666,262.7L-15.6,837.7l.5.5L666.5,263.3l-.5-.5h0ZM168,1029.6L849.7,454.6l.5.5L168.4,1030.1l-.5-.5h0ZM41.6,1029.6L723.2,454.6l.5.5L42,1030.1l-.5-.5h.1ZM55.6,1029.6L737.2,454.6l.5.5L56.1,1030.1l-.5-.5ZM751.3,454.6L69.6,1029.6l.5.5L751.7,455.1l-.5-.5h.1ZM83.7,1029.6L765.3,454.6l.5.5L84.2,1030.1l-.5-.5ZM779.4,454.6L97.7,1029.6l.5.5L779.8,455.1l-.5-.5h.1ZM111.8,1029.6L793.4,454.6l.5.5L112.2,1030.1l-.5-.5h.1ZM807.5,454.6L125.8,1029.6l.5.5L807.9,455.1l-.5-.5h.1ZM139.9,1029.6L821.5,454.6l.5.5L140.3,1030.1l-.5-.5h.1ZM835.6,454.6L153.9,1029.6l.5.5L836,455.1l-.5-.5h.1ZM863.7,454.6L182,1029.6l.5.5L864.1,455.1l-.5-.5h0ZM196.1,1029.6L877.7,454.6l.5.5L196.5,1030.1l-.5-.5h.1ZM891.7,454.6L210.1,1029.6l.5.5L892.2,455.1l-.5-.5ZM224.1,1029.6L905.7,454.6l.5.5L224.6,1030.1l-.5-.5ZM919.8,454.6L238.2,1029.6l.5.5L920.3,455.1l-.5-.5h0ZM252.2,1029.6L933.8,454.6l.5.5L252.7,1030.1l-.5-.5ZM947.9,454.6l-681.6,575,.5.5L948.4,455.1l-.5-.5ZM280.3,1029.6L961.9,454.6l.5.5-681.6,575-.5-.5ZM976,454.6l-681.6,575,.5.5L976.5,455.1l-.5-.5h0ZM308.4,1029.6L990,454.6l.5.5-681.6,575-.5-.5ZM-1.6,837.7L680.1,262.7l.5.5L-1.1,838.2l-.5-.5ZM694.1,262.7L12.5,837.7l.5.5L694.6,263.3l-.5-.5h0ZM26.5,837.7L708.2,262.7l.5.5L27,838.2l-.5-.5ZM722.2,262.7L40.6,837.7l.5.5L722.7,263.3l-.5-.5h0ZM54.6,837.7L736.2,262.7l.5.5L55.1,838.2l-.5-.5ZM750.3,262.7L68.6,837.7l.5.5L750.7,263.3l-.5-.5h.1ZM82.7,837.7L764.3,262.7l.5.5L83.2,838.2l-.5-.5ZM778.4,262.7L96.7,837.7l.5.5L778.8,263.3l-.5-.5h0ZM110.8,837.7L792.4,262.7l.5.5L111.2,838.2l-.5-.5h.1ZM806.5,262.7L124.8,837.7l.5.5L806.9,263.3l-.5-.5h.1ZM138.9,837.7L820.5,262.7l.5.5L139.3,838.2l-.5-.5h.1ZM834.6,262.7L152.9,837.7l.5.5L835,263.3l-.5-.5h0ZM167,837.7L848.6,262.7l.5.5L167.4,838.2l-.5-.5h0ZM862.7,262.7L181,837.7l.5.5L863.1,263.3l-.5-.5h0ZM-8.6,1012L876.7,262.7l.5.5L-8.1,1012.5l-.5-.5ZM890.7,262.7L5.4,1012l.5.5L891.2,263.3l-.5-.5h0ZM19.5,1012L904.8,262.7l.5.5L19.9,1012.5l-.5-.5h.1ZM918.8,262.7L33.5,1012l.5.5L919.3,263.3l-.5-.5h0ZM47.6,1012L932.9,262.7l.5.5L48,1012.5l-.5-.5h.1ZM-181.9,527L361.3,70.1l.5.5L-181.4,527.5l-.5-.5ZM-153.8,527L389.4,70.1l.5.5L-153.3,527.5l-.5-.5ZM403.4,70.1L-139.7,527l.5.5L403.9,70.6l-.5-.5ZM-125.7,527L417.5,70.1l.5.5L-125.2,527.5l-.5-.5ZM431.5,70.1L-111.7,527l.5.5L432,70.6l-.5-.5ZM-97.6,527L445.6,70.1l.5.5L-97.1,527.5l-.5-.5ZM459.6,70.1L-83.6,527l.5.5L460.1,70.6l-.5-.5ZM-69.5,527L473.7,70.1l.5.5L-69.1,527.5l-.4-.5h0ZM487.7,70.1L-55.5,527l.5.5L488.2,70.6l-.5-.5ZM-41.4,527L501.8,70.1l.5.5L-41,527.5l-.5-.5h0ZM515.8,70.1L-27.4,527l.5.5L516.3,70.6l-.5-.5ZM-13.3,527L529.9,70.1l.5.5L-12.9,527.5l-.5-.5h0ZM543.9,70.1L.7,527l.5.5L544.4,70.6l-.5-.5ZM14.8,527L557.9,70.1l.5.5L15.2,527.5l-.5-.5h.1ZM572,70.1L-247.5,760.6l.5.5L572.5,70.6l-.5-.5ZM-233.4,760.6L586,70.1l.5.5L-233,761.1l-.5-.5h.1ZM600.1,70.1L-219.3,760.6l.5.5L600.5,70.6l-.5-.5h0ZM-205.2,760.6L614.1,70.1l.5.5L-204.8,761.1l-.5-.5h.1ZM628.2,70.1L-191.2,760.6l.5.5L628.6,70.6l-.5-.5h0ZM-177.2,760.6L642.2,70.1l.5.5L-176.7,761.1l-.5-.5ZM656.3,70.1L-163.1,760.6l.5.5L656.7,70.6l-.5-.5h.1ZM-149.1,760.6L670.3,70.1l.5.5L-148.6,761.1l-.5-.5ZM684.4,70.1L-135,760.6l.5.5L684.8,70.6l-.5-.5h0ZM-121,760.6L698.4,70.1l.5.5L-120.5,761.1l-.5-.5ZM712.5,70.1L-106.9,760.6l.5.5L712.9,70.6l-.5-.5h.1ZM-92.9,760.6L726.5,70.1l.5.5L-92.4,761.1l-.5-.5ZM740.5,70.1L-78.8,760.6l.5.5L741,70.6l-.5-.5ZM-64.8,760.6L754.6,70.1l.5.5L-64.3,761.1l-.5-.5ZM768.6,70.1L-50.7,760.6l.5.5L769.1,70.6l-.5-.5ZM-36.7,760.6L782.7,70.1l.5.5L-36.2,761.1l-.5-.5ZM796.7,70.1L-22.7,760.6l.5.5L797.2,70.6l-.5-.5ZM-8.6,760.6L810.8,70.1l.5.5L-8.1,761.1l-.5-.5ZM824.8,70.1L5.4,760.6l.5.5L825.3,70.6l-.5-.5ZM19.5,760.6L838.9,70.1l.5.5L19.9,761.1l-.5-.5h.1ZM852.9,70.1L33.5,760.6l.5.5L853.4,70.6l-.5-.5ZM-43.7,837.7L867,70.1l.5.5L-43.3,838.2l-.5-.5h0ZM881,70.1L-29.7,837.7l.5.5L881.5,70.6l-.5-.5Z"/>
    </g>
    <path class="st7" d="M483,560.5l33.8,31.2-17.7,9.8c-3.2,2-5.4,3.5-5.8,3.8v-.5s-3.9,3.4-3.9,3.4l-2.9,1.7c-4.4,2.6-4.8.5-6,7.7-.8,4.4,1.3,11.1,4,18.1,0,0,0,0,0,0l-23.2-21.8h-19l-6,6.9-13-22,17-21.9s-3-14.6,9.4-14.6,2.6.1,4.1.5c0,0,2.7.5,6.3.5s8.5-.5,11.6-2.7h11.3M483,559h-11.3c-.3,0-.6,0-.9.3-2.3,1.6-6,2.5-10.7,2.5s-5.7-.4-6-.4c-1.6-.3-3.1-.5-4.4-.5-3.7,0-6.6,1.2-8.6,3.6-3.3,4-2.7,10.1-2.4,12.1l-16.6,21.3c-.4.5-.4,1.2-.1,1.7l13,22c.2.4.7.7,1.2.7,0,0,0,0,.1,0,.4,0,.8-.2,1.1-.5l5.6-6.4h17.7l22.7,21.3c.3.3.7.5,1.1.5s.4,0,.6-.1c.7-.3,1.1-1.2.8-1.9-2.2-5.8-4.7-13.1-3.9-17.3.8-4.5,1-4.6,2.5-5.2.7-.3,1.6-.7,2.8-1.4l2.9-1.7c0,0,.1,0,.2-.2l2.8-2.5s0,0,0,0c.3,0,.6,0,.8-.2l.4-.2c.8-.5,2.8-1.8,5.4-3.5l17.6-9.8c.4-.2.7-.7.8-1.1s-.1-1-.5-1.3l-33.8-31.2c-.3-.3-.6-.4-1-.4h0Z"/>
    <g>
      <path class="st16" d="M382.8,474.3h170c11,0,20,9,20,20h0c0,11-9,20-20,20h-170c-11,0-20-9-20-20h0c0-11,9-20,20-20Z"/>
      <path class="st35" d="M380.3,495.5h2l1,4.3c1.3,0,2.3-.3,3.1-1,.8-.7,1.2-1.7,1.2-2.9s-.3-2.3-1-2.9-1.7-.9-3.2-.9-1.3,0-2,.2c-.7.1-1.3.3-1.7.5v-1.6c.5-.2,1.1-.4,1.8-.5.7-.1,1.5-.2,2.2-.2,1.9,0,3.4.5,4.4,1.4,1,.9,1.6,2.3,1.6,4.1s-.3,2-.8,2.9c-.5.8-1.3,1.5-2.2,2-.9.5-1.9.7-3,.7h-2l-1.4-5.9ZM385.5,489.1c-.6,0-1-.1-1.2-.4-.3-.3-.4-.7-.4-1.3v-1h1.8v.8c0,.2,0,.4.1.5,0,0,.2.1.5.1h4.7v1.4h-5.5ZM391.5,492h2l2.5,7.8c1.3,0,2.2-.3,2.9-1s1-1.7,1-2.9-.2-2.2-.7-2.8c-.5-.6-1.2-1-2.2-1s-.9,0-1.4.2v-1.6c.5-.1,1.1-.2,1.7-.2,1.5,0,2.7.5,3.5,1.4.8,1,1.2,2.3,1.2,4s-.3,2.2-.8,3c-.5.8-1.2,1.5-2,1.9-.9.4-1.8.7-2.8.7h-1.9l-3-9.4ZM404.2,490.6h2v4.7l5.2-4.7h2.4l-2.9,2.7c1.1.3,1.9.7,2.3,1.3.4.6.7,1.4.7,2.5v4.2h-2v-4.1c0-.8-.2-1.4-.5-1.8-.3-.4-.9-.7-1.7-.9l-3.4,3.1v3.8h-2v-10.7ZM420,501.6c-1.7,0-3-.3-3.9-.9v-1.6c.9.6,2.1.9,3.5.9s2.3-.3,3-1c.7-.7,1.1-1.7,1.1-3s-.4-2.3-1.1-3c-.7-.7-1.7-1-3-1s-2.6.3-3.5.9v-1.7c.9-.6,2.2-.9,3.9-.9s3.2.5,4.3,1.5c1,1,1.6,2.4,1.6,4.2s-.5,3.2-1.6,4.2-2.5,1.5-4.3,1.5ZM421.6,489.1c-.6,0-1-.1-1.2-.4-.3-.3-.4-.7-.4-1.3v-1h1.8v.8c0,.2,0,.4.1.5,0,0,.2.1.5.1h4.7v1.4h-5.5ZM432.7,501.6c-1.6,0-2.9-.5-3.8-1.4-.9-.9-1.4-2.2-1.4-4s.2-2.3.7-3.2c.5-.9,1.2-1.6,2-2,.9-.5,1.9-.7,3.1-.7,1.9,0,3.3.4,4.1,1.3.9.9,1.3,2,1.3,3.4v6.3h-2v-6.3c0-2.1-1.1-3.1-3.4-3.1s-2.1.4-2.8,1.1-1,1.8-1,3.2.3,2.2.9,2.8c.6.6,1.4.9,2.6.9s1,0,1.4-.2v1.6c-.5.1-1,.2-1.7.2ZM445,501.6c-1.2,0-2.1-.3-2.8-.9-.7-.6-1-1.4-1-2.5s.4-1.9,1.2-2.6c.8-.6,1.8-1,3.2-1s2.5.2,3.6.7v-.8c0-.9-.3-1.6-.8-2-.5-.4-1.3-.6-2.5-.6s-1.3,0-1.9.2c-.6.1-1.1.3-1.6.5v-1.6c.4-.2,1-.4,1.7-.5.7-.1,1.4-.2,2.1-.2,1.2,0,2.2.2,3,.7l1-1.2h2.3l-2,2.3c.5.7.7,1.5.7,2.5v6.8h-2v-4.3c-1-.5-2.1-.7-3.3-.7s-1.5.2-1.9.5c-.4.3-.6.8-.6,1.4,0,1.2.8,1.8,2.3,1.8s.9,0,1.3-.2v1.6c-.5.1-1.1.2-1.8.2ZM459.7,501.6c-.7,0-1.4-.1-2.1-.4-.7-.3-1.2-.7-1.8-1.3v1.4h-2v-10.7h2v7.6c.8,1.2,1.9,1.8,3.2,1.8s1.5-.2,2-.6c.5-.4.7-1,.7-1.8v-7h2v7.1c0,1.2-.4,2.1-1.1,2.8-.7.7-1.7,1.1-3,1.1ZM462,504.6c0-.2,0-.4-.1-.5,0,0-.3-.1-.5-.1h-.7v-1.5h1.6c.6,0,1,.1,1.2.4.2.2.3.7.3,1.3v2.5h-1.9v-2ZM466.5,490.6h2v1.4c.5-.6,1.1-1,1.8-1.3.7-.3,1.4-.4,2.1-.4,1.3,0,2.3.4,3,1.1.7.7,1,1.6,1,2.8v7.1h-2v-7c0-.7-.2-1.3-.6-1.7-.4-.4-1.1-.6-1.9-.6-1.5,0-2.6.6-3.3,1.8v7.6h-2v-10.7ZM482.7,501.6c-.7,0-1.5,0-2.2-.3-.8-.2-1.4-.4-1.8-.7v-1.6c.6.3,1.2.6,1.9.8.7.2,1.4.3,2,.3s1.5-.1,1.9-.3c.4-.2.6-.6.6-1.1s0-.6-.3-.8c-.2-.2-.5-.4-.9-.6-.4-.2-1-.4-1.8-.6-1.2-.4-2-.8-2.6-1.3-.6-.5-.9-1.2-.9-2s.4-1.7,1.1-2.3c.8-.5,1.8-.8,3.1-.8s1.3,0,2,.2c.6.1,1.2.3,1.6.6v1.7c-.5-.3-1-.5-1.6-.7-.6-.2-1.2-.2-1.8-.2-1.6,0-2.4.5-2.4,1.4s.1.6.3.9c.2.2.5.4.9.5.4.1,1,.3,1.9.6.9.3,1.5.5,2,.8.5.3.8.6,1,1,.2.4.3.9.3,1.5,0,.9-.4,1.6-1.1,2.1s-1.8.8-3.3.8ZM492.7,501.6c-1.2,0-2.1-.3-2.8-.9-.7-.6-1-1.4-1-2.5s.4-1.9,1.2-2.6c.8-.6,1.8-1,3.2-1s2.5.2,3.6.7v-.8c0-.9-.3-1.6-.8-2-.5-.4-1.3-.6-2.5-.6s-1.3,0-1.9.2c-.6.1-1.1.3-1.6.5v-1.6c.4-.2,1-.4,1.7-.5.7-.1,1.4-.2,2.1-.2,1.2,0,2.2.2,3,.7l1-1.2h2.3l-2,2.3c.5.7.7,1.5.7,2.5v6.8h-2v-4.3c-1-.5-2.1-.7-3.3-.7s-1.5.2-1.9.5c-.4.3-.6.8-.6,1.4,0,1.2.8,1.8,2.3,1.8s.9,0,1.3-.2v1.6c-.5.1-1.1.2-1.8.2ZM501.3,492h2l2.5,7.8c1.3,0,2.2-.3,2.9-1,.7-.7,1-1.7,1-2.9s-.2-2.2-.7-2.8-1.2-1-2.2-1-.9,0-1.4.2v-1.6c.5-.1,1.1-.2,1.7-.2,1.5,0,2.7.5,3.5,1.4.8,1,1.2,2.3,1.2,4s-.3,2.2-.8,3c-.5.8-1.2,1.5-2,1.9s-1.8.7-2.8.7h-1.9l-3-9.4ZM514.1,494.7c0-1.4.5-2.5,1.4-3.2.9-.8,2.2-1.2,3.7-1.2s2.8.4,3.7,1.1c.9.8,1.4,1.8,1.4,3.2v6.6h-2v-6.7c0-.9-.3-1.6-.8-2-.5-.5-1.3-.7-2.2-.7s-1.7.2-2.3.7c-.5.4-.8,1.1-.8,2v2c.2-.3.4-.6.8-.8.4-.2.8-.3,1.3-.3h1.6v1.7h-1.8c-.6,0-1,.2-1.4.6-.4.4-.6.8-.6,1.3v2.1h-2v-6.6ZM530.5,501.6c-.7,0-1.5,0-2.2-.3-.8-.2-1.4-.4-1.8-.7v-1.6c.6.3,1.2.6,1.9.8.7.2,1.4.3,2,.3s1.5-.1,1.9-.3c.4-.2.6-.6.6-1.1s0-.6-.3-.8c-.2-.2-.5-.4-.9-.6-.4-.2-1-.4-1.8-.6-1.2-.4-2-.8-2.6-1.3-.6-.5-.9-1.2-.9-2s.4-1.7,1.1-2.3c.8-.5,1.8-.8,3.1-.8s1.3,0,2,.2c.6.1,1.2.3,1.6.6v1.7c-.5-.3-1-.5-1.6-.7-.6-.2-1.2-.2-1.8-.2-1.6,0-2.4.5-2.4,1.4s.1.6.3.9c.2.2.5.4.9.5.4.1,1,.3,1.9.6.9.3,1.5.5,2,.8.5.3.8.6,1,1s.3.9.3,1.5c0,.9-.4,1.6-1.1,2.1s-1.8.8-3.3.8ZM540.8,494.4c0-.9-.2-1.5-.5-1.9-.3-.4-1-.6-1.8-.6s-1.7.2-2.4.6v-1.6c.3-.2.7-.3,1.2-.4.5-.1,1-.2,1.5-.2,1.3,0,2.4.4,3,1.1.7.7,1,1.8,1,3.1v6.8h-2v-6.9ZM551.3,501.6c-.7,0-1.4-.1-2.1-.4-.7-.3-1.2-.7-1.8-1.3v1.4h-2v-10.7h2v7.6c.8,1.2,1.9,1.8,3.2,1.8s1.5-.2,2-.6c.5-.4.7-1,.7-1.8v-7h2v7.1c0,1.2-.4,2.1-1.1,2.8-.7.7-1.7,1.1-3,1.1Z"/>
      <g class="st20">
        <g>
          <path class="st17" d="M503.8,558.3c0-20.1-16.4-36.3-36.5-36-19.5.3-35.3,16.2-35.5,35.7-.1,17.4,12.1,32,28.4,35.5.1,0,.3.1.3.3l7.1,11.9c0,.1.2.1.3,0l7.1-11.9c0-.1.1-.3.3-.3,16.2-3.5,28.4-17.9,28.4-35.2Z"/>
          <path class="st19" d="M437.8,538.4c-3.8,5.6-6,12.4-6,19.6-.1,17.4,12.1,32,28.4,35.5.1.1.2.2.3.3l7.1,11.9c0,.1.2.1.3,0l7.1-11.9c0-.1.1-.3.3-.3,13.5-2.9,24.2-13.4,27.4-26.7l-65-28.4Z"/>
          <path class="st7" d="M467.8,583.9c14.1,0,25.6-11.5,25.6-25.6s-11.5-25.6-25.6-25.6-25.6,11.5-25.6,25.6,11.5,25.6,25.6,25.6Z"/>
          <path class="st19" d="M470.3,542.7h-5s0,13.2,0,13.2h-13.2v5h13.2v13.2h5v-13.2h13.2v-5h-13.2v-13.2Z"/>
          <path class="st13" d="M470.3,542.7h-5s0,13.2,0,13.2h-13.2v5h13.2v13.2h5v-13.2h13.2v-5h-13.2v-13.2Z"/>
        </g>
      </g>
    </g>
  </g>
  <g>
    <path class="st36" d="M499.9,703.1c-6.2-11.9-11.2-18.8-9.7-26.5s3.7-16.6-.3-27.5c-1.6-4.2-3.5-8.9-5.3-13.4l-23.2-21.8h-19l-6,6.9-13-22s-21.6-8.8-41.3,6.2c0,0-6.6,25.5-17.7,24.2h-33l-18,3.3-24-15.1h-12c2,6.6.7,8.5-.5,12.3-1.8,5.3-15.5,26.9-20,37.8s-12.4,28.3,2.7,48.4c15.1,20.1,12.5,13.2,21.5,31.8,9,18.7,5.7,30.7,9,38.3,1.8,4.2,3.6,8.1,7,13.9l11.3-15s2-22,19-21c0,0,14.3-2.5,25.2,5.2,0,0,12.9,10.3,11.9-10.5l6.5-7.9h29.5l9.1,13.2,16.9-11.2h33l15.9,11.8c4.1-.5,9.2,1.1,14.9-6.9s9.4-11.9,11.6-26.1,4.3-16.6-1.9-28.6Z"/>
    <g class="st25">
      <path class="st6" d="M362,192.8L-181.2,649.7l.5.5L362.4,193.3l-.5-.5h0ZM333.9,192.8L-209.3,649.7l.5.5L334.3,193.3l-.5-.5h.1ZM652.6,385.4L-29,960.4l.5.5L653.1,386l-.5-.5h0ZM154.6,1152.3l681.7-575,.5.5L155,1152.8l-.5-.5h0ZM28.2,1152.3l681.6-575,.5.5L28.6,1152.8l-.5-.5h.1ZM42.2,1152.3l681.6-575,.5.5L42.7,1152.8l-.5-.5ZM737.9,577.3L56.2,1152.3l.5.5,681.6-575-.5-.5h.1ZM70.3,1152.3l681.6-575,.5.5L70.8,1152.8l-.5-.5ZM766,577.3L84.3,1152.3l.5.5,681.6-575-.5-.5h.1ZM98.4,1152.3l681.6-575,.5.5L98.8,1152.8l-.5-.5h.1ZM794.1,577.3L112.4,1152.3l.5.5,681.6-575-.5-.5h.1ZM126.5,1152.3l681.6-575,.5.5L126.9,1152.8l-.5-.5h.1ZM822.2,577.3L140.5,1152.3l.5.5,681.6-575-.5-.5h.1ZM850.3,577.3L168.6,1152.3l.5.5,681.6-575-.5-.5h0ZM182.7,1152.3l681.6-575,.5.5L183.1,1152.8l-.5-.5h.1ZM878.3,577.3L196.7,1152.3l.5.5,681.6-575-.5-.5ZM210.7,1152.3l681.6-575,.5.5L211.2,1152.8l-.5-.5ZM906.4,577.3L224.8,1152.3l.5.5,681.6-575-.5-.5h0ZM238.8,1152.3l681.6-575,.5.5L239.3,1152.8l-.5-.5ZM934.5,577.3L252.9,1152.3l.5.5,681.6-575-.5-.5ZM266.9,1152.3l681.6-575,.5.5-681.6,575-.5-.5ZM962.6,577.3l-681.6,575,.5.5,681.6-575-.5-.5h0ZM295,1152.3l681.6-575,.5.5-681.6,575-.5-.5ZM-15,960.4L666.7,385.4l.5.5L-14.5,960.9l-.5-.5ZM680.7,385.4L-.9,960.4l.5.5L681.2,386l-.5-.5h0ZM13.1,960.4L694.8,385.4l.5.5L13.6,960.9l-.5-.5ZM708.8,385.4L27.2,960.4l.5.5L709.3,386l-.5-.5h0ZM41.2,960.4L722.8,385.4l.5.5L41.7,960.9l-.5-.5ZM736.9,385.4L55.2,960.4l.5.5L737.3,386l-.5-.5h.1ZM69.3,960.4L750.9,385.4l.5.5L69.8,960.9l-.5-.5ZM765,385.4L83.3,960.4l.5.5L765.4,386l-.5-.5h0ZM97.4,960.4L779,385.4l.5.5L97.8,960.9l-.5-.5h.1ZM793.1,385.4L111.4,960.4l.5.5L793.5,386l-.5-.5h.1ZM125.5,960.4L807.1,385.4l.5.5L125.9,960.9l-.5-.5h.1ZM821.2,385.4L139.5,960.4l.5.5L821.6,386l-.5-.5h0ZM153.6,960.4L835.2,385.4l.5.5L154,960.9l-.5-.5h0ZM849.3,385.4L167.6,960.4l.5.5L849.7,386l-.5-.5h0ZM-22,1134.7L863.3,385.4l.5.5L-21.5,1135.2l-.5-.5ZM877.3,385.4L-8,1134.7l.5.5L877.8,386l-.5-.5h0ZM6.1,1134.7L891.4,385.4l.5.5L6.5,1135.2l-.5-.5h.1ZM905.4,385.4L20.1,1134.7l.5.5L905.9,386l-.5-.5h0ZM34.2,1134.7L919.5,385.4l.5.5L34.6,1135.2l-.5-.5h.1ZM-195.3,649.7L347.9,192.8l.5.5L-194.8,650.2l-.5-.5ZM-167.2,649.7L376,192.8l.5.5L-166.7,650.2l-.5-.5ZM390,192.8L-153.1,649.7l.5.5L390.5,193.3l-.5-.5ZM-139.1,649.7L404.1,192.8l.5.5L-138.6,650.2l-.5-.5ZM418.1,192.8L-125.1,649.7l.5.5L418.6,193.3l-.5-.5ZM-111,649.7L432.2,192.8l.5.5L-110.5,650.2l-.5-.5ZM446.2,192.8L-97,649.7l.5.5L446.7,193.3l-.5-.5ZM-82.9,649.7L460.3,192.8l.5.5L-82.5,650.2l-.4-.5h0ZM474.3,192.8L-68.9,649.7l.5.5L474.8,193.3l-.5-.5ZM-54.8,649.7L488.4,192.8l.5.5L-54.4,650.2l-.5-.5h0ZM502.4,192.8L-40.8,649.7l.5.5L502.9,193.3l-.5-.5ZM-26.7,649.7L516.5,192.8l.5.5L-26.3,650.2l-.5-.5h0ZM530.5,192.8L-12.7,649.7l.5.5L531,193.3l-.5-.5ZM1.4,649.7L544.5,192.8l.5.5L1.8,650.2l-.5-.5h.1ZM558.6,192.8L-260.9,883.3l.5.5L559.1,193.3l-.5-.5ZM-246.8,883.3L572.6,192.8l.5.5L-246.4,883.8l-.5-.5h.1ZM586.7,192.8L-232.7,883.3l.5.5L587.1,193.3l-.5-.5h0ZM-218.6,883.3L600.7,192.8l.5.5L-218.2,883.8l-.5-.5h.1ZM614.8,192.8L-204.6,883.3l.5.5L615.2,193.3l-.5-.5h0ZM-190.6,883.3L628.8,192.8l.5.5L-190.1,883.8l-.5-.5ZM642.9,192.8L-176.5,883.3l.5.5L643.3,193.3l-.5-.5h.1ZM-162.5,883.3L656.9,192.8l.5.5L-162,883.8l-.5-.5ZM671,192.8L-148.4,883.3l.5.5L671.4,193.3l-.5-.5h0ZM-134.4,883.3L685,192.8l.5.5L-133.9,883.8l-.5-.5ZM699.1,192.8L-120.3,883.3l.5.5L699.5,193.3l-.5-.5h.1ZM-106.3,883.3L713.1,192.8l.5.5L-105.8,883.8l-.5-.5ZM727.1,192.8L-92.2,883.3l.5.5L727.6,193.3l-.5-.5ZM-78.2,883.3L741.2,192.8l.5.5L-77.7,883.8l-.5-.5ZM755.2,192.8L-64.1,883.3l.5.5L755.7,193.3l-.5-.5ZM-50.1,883.3L769.3,192.8l.5.5L-49.6,883.8l-.5-.5ZM783.3,192.8L-36.1,883.3l.5.5L783.8,193.3l-.5-.5ZM-22,883.3L797.4,192.8l.5.5L-21.5,883.8l-.5-.5ZM811.4,192.8L-8,883.3l.5.5L811.9,193.3l-.5-.5ZM6.1,883.3L825.5,192.8l.5.5L6.5,883.8l-.5-.5h.1ZM839.5,192.8L20.1,883.3l.5.5L840,193.3l-.5-.5ZM-57.1,960.4L853.6,192.8l.5.5L-56.7,960.9l-.5-.5h0ZM867.6,192.8L-43.1,960.4l.5.5L868.1,193.3l-.5-.5Z"/>
    </g>
    <path class="st7" d="M408.2,596.3c8.9,0,15.2,2.6,15.2,2.6l13,22,6-6.9h19l23.2,21.8c1.7,4.5,3.7,9.2,5.3,13.4,4.1,10.8,1.8,19.8.3,27.5-1.5,7.7,3.5,14.5,9.7,26.5,6.2,12,4.1,14.3,1.9,28.6-2.2,14.2-5.9,18.1-11.6,26.1-5.7,8-10.8,6.4-14.9,6.9l-15.9-11.8h-33l-16.9,11.2-9.1-13.2h-29.5l-6.5,7.9c.5,10.4-2.5,13-5.6,13s-6.3-2.5-6.3-2.5c-6.6-4.7-14.5-5.6-19.6-5.6s-5.5.4-5.5.4c-.4,0-.7,0-1.1,0-16,0-17.8,21-17.8,21l-11.3,15c-3.4-5.8-5.2-9.8-7-13.9-3.3-7.6,0-19.6-9-38.3-9-18.7-6.4-11.7-21.5-31.8-15.1-20.1-7.2-37.5-2.7-48.4,4.5-10.9,18.2-32.4,20-37.8,1.3-3.7,2.6-5.7.5-12.3h12l24,15.1,18-3.3h33c.3,0,.5,0,.8,0,10.6,0,16.9-24.3,16.9-24.3,9.1-6.9,18.5-8.7,26.1-8.7M408.2,594.8v1.5-1.5c-10,0-19.1,3-27,9-.3.2-.5.5-.5.8-1.7,6.4-7.7,23.2-15.4,23.2s-.4,0-.6,0c0,0-.1,0-.2,0h-33c0,0-.2,0-.3,0l-17.4,3.2-23.5-14.7c-.2-.1-.5-.2-.8-.2h-12c-.5,0-.9.2-1.2.6-.3.4-.4.9-.2,1.3,1.6,5.4,1,7.2,0,10.1-.1.4-.3.8-.4,1.3-.8,2.3-4.2,8.2-7.7,14.5-4.6,8-9.8,17.1-12.2,23.2l-.4,1c-4.4,10.7-11.8,28.7,3.3,48.8,5,6.7,8,10.3,10.3,13,4.4,5.3,5.2,6.2,11.1,18.6,5.5,11.4,6.3,20.2,6.9,27.2.4,4.3.7,7.9,2.1,11,1.6,3.7,3.5,8,7.1,14.1.3.4.7.7,1.2.7,0,0,0,0,0,0,.5,0,.9-.2,1.2-.6l11.3-15c.2-.2.3-.5.3-.8,0-.8,1.9-19.7,16.3-19.7s.7,0,1,0c0,0,0,0,0,0,0,0,.2,0,.3,0,0,0,2.1-.4,5.3-.4,5.1,0,12.5.9,18.7,5.3.4.3,3.8,2.8,7.2,2.8s3.2-.6,4.4-1.8c2.1-2.2,3-6.2,2.8-12.2l5.6-6.9h28l8.6,12.5c.3.4.8.7,1.2.7s.6,0,.8-.2l16.6-10.9h32.1l15.5,11.5c.3.2.6.3.9.3s.1,0,.2,0c.7,0,1.4,0,2.1-.1,3.7,0,8.7-.2,13.8-7.4.5-.7,1-1.4,1.5-2.1,5-6.8,8.3-11.3,10.4-24.6.4-2.3.7-4.4,1.1-6.2,1.6-9.1,2.3-12.9-3.1-23.3-1.1-2.2-2.2-4.2-3.3-6.1-4.5-8.2-7.4-13.7-6.3-19.4,0-.5.2-1,.3-1.5,1.4-7.2,3.2-16.3-.7-26.8-.8-2.2-1.7-4.4-2.7-6.8-.9-2.2-1.8-4.4-2.6-6.6,0-.2-.2-.4-.4-.6l-23.2-21.8c-.3-.3-.6-.4-1-.4h-19c-.4,0-.8.2-1.1.5l-4.6,5.3-11.9-20.2c-.2-.3-.4-.5-.7-.6-.3-.1-6.7-2.7-15.7-2.7h0Z"/>
    <g>
      <path class="st16" d="M315.9,598.1h120c11,0,20,9,20,20h0c0,11-9,20-20,20h-120c-11,0-20-9-20-20h0c0-11,9-20,20-20Z"/>
      <path class="st35" d="M313.4,619.2h2l1,4.3c1.3,0,2.3-.3,3.1-1,.8-.7,1.2-1.7,1.2-2.9s-.3-2.3-1-2.9-1.7-.9-3.2-.9-1.3,0-2,.2c-.7.1-1.3.3-1.7.5v-1.6c.5-.2,1.1-.4,1.8-.5.7-.1,1.5-.2,2.2-.2,1.9,0,3.4.5,4.4,1.4,1,.9,1.6,2.3,1.6,4.1s-.3,2-.8,2.9c-.5.8-1.3,1.5-2.2,2-.9.5-1.9.7-3,.7h-2l-1.4-5.9ZM318.6,612.8c-.6,0-1-.1-1.2-.4-.3-.3-.4-.7-.4-1.3v-1h1.8v.8c0,.2,0,.4.1.5,0,0,.2.1.5.1h4.7v1.4h-5.5ZM324.6,615.8h2l2.5,7.8c1.3,0,2.2-.3,2.9-1s1-1.7,1-2.9-.2-2.2-.7-2.8c-.5-.6-1.2-1-2.2-1s-.9,0-1.4.2v-1.6c.5-.1,1.1-.2,1.7-.2,1.5,0,2.7.5,3.5,1.4.8,1,1.2,2.3,1.2,4s-.3,2.2-.8,3c-.5.8-1.2,1.5-2,1.9-.9.4-1.8.7-2.8.7h-1.9l-3-9.4ZM337.3,614.4h2v4.7l5.2-4.7h2.4l-2.9,2.7c1.1.3,1.9.7,2.3,1.3.4.6.7,1.4.7,2.5v4.2h-2v-4.1c0-.8-.2-1.4-.5-1.8-.3-.4-.9-.7-1.7-.9l-3.4,3.1v3.8h-2v-10.7ZM353.1,625.4c-1.7,0-3-.3-3.9-.9v-1.6c.9.6,2.1.9,3.5.9s2.3-.3,3-1c.7-.7,1.1-1.7,1.1-3s-.4-2.3-1.1-3c-.7-.7-1.7-1-3-1s-2.6.3-3.5.9v-1.7c.9-.6,2.2-.9,3.9-.9s3.2.5,4.3,1.5c1,1,1.6,2.4,1.6,4.2s-.5,3.2-1.6,4.2-2.5,1.5-4.3,1.5ZM354.7,612.8c-.6,0-1-.1-1.2-.4-.3-.3-.4-.7-.4-1.3v-1h1.8v.8c0,.2,0,.4.1.5,0,0,.2.1.5.1h4.7v1.4h-5.5ZM365.8,625.4c-1.6,0-2.9-.5-3.8-1.4-.9-.9-1.4-2.2-1.4-4s.2-2.3.7-3.2c.5-.9,1.2-1.6,2-2,.9-.5,1.9-.7,3.1-.7,1.9,0,3.3.4,4.1,1.3.9.9,1.3,2,1.3,3.4v6.3h-2v-6.3c0-2.1-1.1-3.1-3.4-3.1s-2.1.4-2.8,1.1-1,1.8-1,3.2.3,2.2.9,2.8c.6.6,1.4.9,2.6.9s1,0,1.4-.2v1.6c-.5.1-1,.2-1.7.2ZM376.6,625.1c-.7,0-1.2-.2-1.5-.5-.3-.4-.5-.9-.5-1.6v-8.6h2v8c0,.4,0,.6.2.8.1.1.4.2.8.2h.7v1.7h-1.7ZM379.9,614.4h2l1.9,7.8,2.3-7.8h1.6l2.3,7.8,2-7.8h2l-3,10.7h-1.7l-2.4-8-2.4,8h-1.7l-3-10.7ZM400.5,625.4c-.9,0-1.8-.2-2.5-.5-.7-.3-1.3-.8-1.7-1.4-.4-.6-.6-1.3-.6-2.1v-.7c0-.5,0-.9.3-1.3.2-.4.5-.8.8-1.3.3-.3.4-.6.5-.8.1-.2.2-.4.2-.6s0-.4-.2-.5c-.1-.1-.3-.2-.6-.2h-1.1v-1.6h2.1c.6,0,1,.2,1.4.5.3.3.5.8.5,1.3s0,.7-.2,1.1c-.2.3-.4.7-.7,1.2-.3.5-.6.9-.7,1.2-.1.3-.2.6-.2,1v.7c0,.8.2,1.4.7,1.8.5.4,1.1.6,2,.6s1.6-.2,2.1-.7c.5-.5.8-1.2.8-2.2s-.2-1.7-.6-2.2c-.4-.5-1-.7-1.8-.7v-1.1l2.1-2.8h2.2l-2.3,3c.8.3,1.4.8,1.8,1.4.4.6.6,1.4.6,2.4s-.2,1.7-.6,2.4c-.4.7-1,1.2-1.7,1.6-.7.4-1.6.5-2.6.5ZM411.4,625.4c-.7,0-1.5,0-2.2-.3-.8-.2-1.4-.4-1.8-.7v-1.6c.6.3,1.2.6,1.9.8.7.2,1.4.3,2,.3s1.5-.1,1.9-.3c.4-.2.6-.6.6-1.1s0-.6-.3-.8c-.2-.2-.5-.4-.9-.6-.4-.2-1-.4-1.8-.6-1.2-.4-2-.8-2.6-1.3-.6-.5-.9-1.2-.9-2s.4-1.7,1.1-2.3c.8-.5,1.8-.8,3.1-.8s1.3,0,2,.2c.6.1,1.2.3,1.6.6v1.7c-.5-.3-1-.5-1.6-.7-.6-.2-1.2-.2-1.8-.2-1.6,0-2.4.5-2.4,1.4s.1.6.3.9c.2.2.5.4.9.5.4.1,1,.3,1.9.6.9.3,1.5.5,2,.8.5.3.8.6,1,1,.2.4.3.9.3,1.5,0,.9-.4,1.6-1.1,2.1s-1.8.8-3.3.8ZM423.1,625.4c-1,0-1.9-.2-2.7-.6-.8-.4-1.4-.9-1.8-1.6-.4-.7-.6-1.5-.6-2.3v-6.6h2v6.5c0,.9.3,1.6.8,2.1.5.5,1.3.8,2.3.8s1.8-.3,2.3-.8c.5-.5.8-1.2.8-2.1v-6.5h2v6.6c0,.9-.2,1.6-.6,2.3-.4.7-1,1.2-1.8,1.6-.8.4-1.7.6-2.7.6ZM426.4,628.3c0-.2,0-.4-.1-.5,0,0-.3-.1-.5-.1h-.7v-1.5h1.6c.6,0,1,.1,1.2.4.2.2.3.7.3,1.3v2.5h-1.9v-2ZM434.5,625.4c-.7,0-1.5,0-2.2-.3-.8-.2-1.4-.4-1.8-.7v-1.6c.6.3,1.2.6,1.9.8.7.2,1.4.3,2,.3s1.5-.1,1.9-.3c.4-.2.6-.6.6-1.1s0-.6-.3-.8c-.2-.2-.5-.4-.9-.6-.4-.2-1-.4-1.8-.6-1.2-.4-2-.8-2.6-1.3-.6-.5-.9-1.2-.9-2s.4-1.7,1.1-2.3c.8-.5,1.8-.8,3.1-.8s1.3,0,2,.2c.6.1,1.2.3,1.6.6v1.7c-.5-.3-1-.5-1.6-.7-.6-.2-1.2-.2-1.8-.2-1.6,0-2.4.5-2.4,1.4s.1.6.3.9c.2.2.5.4.9.5.4.1,1,.3,1.9.6.9.3,1.5.5,2,.8.5.3.8.6,1,1,.2.4.3.9.3,1.5,0,.9-.4,1.6-1.1,2.1s-1.8.8-3.3.8ZM429.8,611.5h6.8v-2.1h1.9v3.5h-8.6v-1.4Z"/>
      <g class="st23">
        <g>
          <path class="st17" d="M411.9,682.1c0-20.1-16.4-36.3-36.5-36-19.5.3-35.3,16.2-35.5,35.7-.1,17.4,12.1,32,28.4,35.5.1,0,.3.1.3.3l7.1,11.9c0,.1.2.1.3,0l7.1-11.9c0-.1.1-.3.3-.3,16.2-3.5,28.4-17.9,28.4-35.2Z"/>
          <path class="st19" d="M345.9,662.2c-3.8,5.6-6,12.4-6,19.6-.1,17.4,12.1,32,28.4,35.5.1.1.2.2.3.3l7.1,11.9c0,.1.2.1.3,0l7.1-11.9c0-.1.1-.3.3-.3,13.5-2.9,24.2-13.4,27.4-26.7l-65-28.4Z"/>
          <path class="st7" d="M375.9,707.7c14.1,0,25.6-11.5,25.6-25.6s-11.5-25.6-25.6-25.6-25.6,11.5-25.6,25.6,11.5,25.6,25.6,25.6Z"/>
          <path class="st19" d="M378.4,666.5h-5s0,13.2,0,13.2h-13.2v5h13.2v13.2h5v-13.2h13.2v-5h-13.2v-13.2Z"/>
          <path class="st11" d="M378.4,666.5h-5s0,13.2,0,13.2h-13.2v5h13.2v13.2h5v-13.2h13.2v-5h-13.2v-13.2Z"/>
        </g>
      </g>
    </g>
  </g>
  <g>
    <path class="st5" d="M426.3,752.8l-16.9,11.2-9.1-13.2h-29.5l-6.5,7.9c1,20.8-11.9,10.5-11.9,10.5-10.8-7.8-25.2-5.2-25.2-5.2-17-1-19,21-19,21l-11.3,15c2.8,4.8,6.6,10.7,12.5,19.1,13.1,18.6,24.5,42.6,30.8,55.6,6.2,13,15.1,28.8,16.9,36.9,1.8,8.1,2.5,14.2,6.1,21.5,3.5,7.2,11.7,20.4,13.2,24.7s1.8,10-.4,13.1-4.5,1.6-8.2,3.4c-3.7,1.8-20.8,14.3-25.4,17.9-4.7,3.6-9.8,8.2-13.2,20.5-3.4,12.3-8.4,29.4-9.6,34.9s-4.8,23.7-6.8,31.1-4.8,15.9-8.5,18.9l.4.4h-.5l-2.8,2.9h0c-.2,0-.3.2-.4.5-1.1,1.1-3.7,4-4.5,4.7-1,.9-10,11.4-15.9,17.7-9.7,10.3-8.9,12.9-9.2,15.3,0,0,0,0,0,0h28.9l30-10s12.4-1.3,22.2,7.7l3.2-14.3,4.6-10.7h-.2l2-4.2h.3s.1-.5.4-1.4h0c2.3-7.9,14.2-46.5,28.2-62.3,15.6-17.6,38.9-41,45.6-50.2,6.7-9.2,10.8-14.7,19.4-47.4,8.6-32.7,15.8-62.2,16.7-78.6,1-16.3-2.6-38.3-.4-59.5,0,0,.1-20.7,0-26.9-.1-6.2-.9-16.1,3.1-16.5l-15.9-11.8h-33Z"/>
    <g class="st24">
      <path class="st6" d="M375.4,318L-167.8,774.9l.5.5L375.8,318.5l-.5-.5h0ZM347.3,318L-195.9,774.9l.5.5L347.7,318.5l-.5-.5h.1ZM666,510.6L-15.6,1085.6l.5.5L666.5,511.2l-.5-.5h0ZM168,1277.5l681.7-575,.5.5L168.4,1278l-.5-.5h0ZM41.6,1277.5l681.6-575,.5.5L42,1278l-.5-.5h.1ZM55.6,1277.5l681.6-575,.5.5L56.1,1278l-.5-.5ZM751.3,702.5L69.6,1277.5l.5.5,681.6-575-.5-.5h.1ZM83.7,1277.5l681.6-575,.5.5L84.2,1278l-.5-.5ZM779.4,702.5L97.7,1277.5l.5.5,681.6-575-.5-.5h.1ZM111.8,1277.5l681.6-575,.5.5L112.2,1278l-.5-.5h.1ZM807.5,702.5L125.8,1277.5l.5.5,681.6-575-.5-.5h.1ZM139.9,1277.5l681.6-575,.5.5L140.3,1278l-.5-.5h.1ZM835.6,702.5L153.9,1277.5l.5.5,681.6-575-.5-.5h.1ZM863.7,702.5L182,1277.5l.5.5,681.6-575-.5-.5h0ZM196.1,1277.5l681.6-575,.5.5L196.5,1278l-.5-.5h.1ZM891.7,702.5L210.1,1277.5l.5.5,681.6-575-.5-.5ZM224.1,1277.5l681.6-575,.5.5L224.6,1278l-.5-.5ZM919.8,702.5L238.2,1277.5l.5.5,681.6-575-.5-.5h0ZM252.2,1277.5l681.6-575,.5.5L252.7,1278l-.5-.5ZM947.9,702.5l-681.6,575,.5.5,681.6-575-.5-.5ZM280.3,1277.5l681.6-575,.5.5-681.6,575-.5-.5ZM976,702.5l-681.6,575,.5.5,681.6-575-.5-.5h0ZM308.4,1277.5l681.6-575,.5.5-681.6,575-.5-.5ZM-1.6,1085.6L680.1,510.6l.5.5L-1.1,1086.1l-.5-.5ZM694.1,510.6L12.5,1085.6l.5.5L694.6,511.2l-.5-.5h0ZM26.5,1085.6L708.2,510.6l.5.5L27,1086.1l-.5-.5ZM722.2,510.6L40.6,1085.6l.5.5L722.7,511.2l-.5-.5h0ZM54.6,1085.6L736.2,510.6l.5.5L55.1,1086.1l-.5-.5ZM750.3,510.6L68.6,1085.6l.5.5L750.7,511.2l-.5-.5h.1ZM82.7,1085.6L764.3,510.6l.5.5L83.2,1086.1l-.5-.5ZM778.4,510.6L96.7,1085.6l.5.5L778.8,511.2l-.5-.5h0ZM110.8,1085.6L792.4,510.6l.5.5L111.2,1086.1l-.5-.5h.1ZM806.5,510.6L124.8,1085.6l.5.5L806.9,511.2l-.5-.5h.1ZM138.9,1085.6L820.5,510.6l.5.5L139.3,1086.1l-.5-.5h.1ZM834.6,510.6L152.9,1085.6l.5.5L835,511.2l-.5-.5h0ZM167,1085.6L848.6,510.6l.5.5L167.4,1086.1l-.5-.5h0ZM862.7,510.6L181,1085.6l.5.5L863.1,511.2l-.5-.5h0ZM-8.6,1259.9L876.7,510.6l.5.5L-8.1,1260.4l-.5-.5ZM890.7,510.6L5.4,1259.9l.5.5L891.2,511.2l-.5-.5h0ZM19.5,1259.9L904.8,510.6l.5.5L19.9,1260.4l-.5-.5h.1ZM918.8,510.6L33.5,1259.9l.5.5L919.3,511.2l-.5-.5h0ZM47.6,1259.9L932.9,510.6l.5.5L48,1260.4l-.5-.5h.1ZM-181.9,774.9L361.3,318l.5.5L-181.4,775.4l-.5-.5ZM-153.8,774.9L389.4,318l.5.5L-153.3,775.4l-.5-.5ZM403.4,318L-139.7,774.9l.5.5L403.9,318.5l-.5-.5ZM-125.7,774.9L417.5,318l.5.5L-125.2,775.4l-.5-.5ZM431.5,318L-111.7,774.9l.5.5L432,318.5l-.5-.5ZM-97.6,774.9L445.6,318l.5.5L-97.1,775.4l-.5-.5ZM459.6,318L-83.6,774.9l.5.5L460.1,318.5l-.5-.5ZM-69.5,774.9L473.7,318l.5.5L-69.1,775.4l-.4-.5h0ZM487.7,318L-55.5,774.9l.5.5L488.2,318.5l-.5-.5ZM-41.4,774.9L501.8,318l.5.5L-41,775.4l-.5-.5h0ZM515.8,318L-27.4,774.9l.5.5,543.2-456.9-.5-.5ZM-13.3,774.9l543.2-456.9.5.5L-12.9,775.4l-.5-.5h0ZM543.9,318L.7,774.9l.5.5,543.2-456.9-.5-.5ZM14.8,774.9l543.1-456.9.5.5L15.2,775.4l-.5-.5h.1ZM572,318L-247.5,1008.5l.5.5L572.5,318.5l-.5-.5ZM-233.4,1008.5L586,318l.5.5L-233,1009l-.5-.5h.1ZM600.1,318L-219.3,1008.5l.5.5L600.5,318.5l-.5-.5h0ZM-205.2,1008.5L614.1,318l.5.5L-204.8,1009l-.5-.5h.1ZM628.2,318L-191.2,1008.5l.5.5L628.6,318.5l-.5-.5h0ZM-177.2,1008.5L642.2,318l.5.5L-176.7,1009l-.5-.5ZM656.3,318L-163.1,1008.5l.5.5L656.7,318.5l-.5-.5h.1ZM-149.1,1008.5L670.3,318l.5.5L-148.6,1009l-.5-.5ZM684.4,318L-135,1008.5l.5.5L684.8,318.5l-.5-.5h0ZM-121,1008.5L698.4,318l.5.5L-120.5,1009l-.5-.5ZM712.5,318L-106.9,1008.5l.5.5L712.9,318.5l-.5-.5h.1ZM-92.9,1008.5L726.5,318l.5.5L-92.4,1009l-.5-.5ZM740.5,318L-78.8,1008.5l.5.5L741,318.5l-.5-.5ZM-64.8,1008.5L754.6,318l.5.5L-64.3,1009l-.5-.5ZM768.6,318L-50.7,1008.5l.5.5L769.1,318.5l-.5-.5ZM-36.7,1008.5L782.7,318l.5.5L-36.2,1009l-.5-.5ZM796.7,318L-22.7,1008.5l.5.5L797.2,318.5l-.5-.5ZM-8.6,1008.5L810.8,318l.5.5L-8.1,1009l-.5-.5ZM824.8,318L5.4,1008.5l.5.5L825.3,318.5l-.5-.5ZM19.5,1008.5L838.9,318l.5.5L19.9,1009l-.5-.5h.1ZM852.9,318L33.5,1008.5l.5.5L853.4,318.5l-.5-.5ZM-43.7,1085.6L867,318l.5.5L-43.3,1086.1l-.5-.5h0ZM881,318L-29.7,1085.6l.5.5L881.5,318.5l-.5-.5Z"/>
    </g>
    <path class="st7" d="M400.3,750.8l9.1,13.2,16.9-11.2h0s33,0,33,0l15.9,11.8c-4.1.5-3.3,10.4-3.1,16.5.1,6.2,0,26.9,0,26.9-2.2,21.2,1.4,43.1.4,59.5-1,16.3-8.2,45.9-16.7,78.6-8.6,32.7-12.7,38.2-19.4,47.4-6.7,9.2-30,32.6-45.6,50.2-14,15.8-25.8,54.4-28.2,62.3h0c-.3.9-.4,1.4-.4,1.4h-.3s-2,4.2-2,4.2h.2l-4.6,10.7-3.2,14.3c-7.6-7-16.7-7.8-20.5-7.8s-1.7,0-1.7,0l-30,10h-28.9s0,0,0,0c.3-2.4-.5-5,9.2-15.3,5.9-6.3,14.9-16.8,15.9-17.7.8-.7,3.4-3.6,4.5-4.7.1-.3.2-.4.4-.5h0s2.8-2.9,2.8-2.9h.5l-.4-.4c3.7-3,6.5-11.5,8.5-18.9,2-7.4,5.7-25.6,6.8-31.1s6.2-22.6,9.6-34.9c3.4-12.3,8.6-16.9,13.2-20.5,4.7-3.6,21.8-16.1,25.4-17.9,3.7-1.8,5.9-.3,8.2-3.4s1.9-8.7.4-13.1c-1.5-4.3-9.7-17.5-13.2-24.7-3.5-7.2-4.3-13.4-6.1-21.5-1.8-8.1-10.7-23.8-16.9-36.9-6.2-13-17.7-37.1-30.8-55.6-5.9-8.3-9.7-14.3-12.5-19.1l11.3-15s1.9-21,17.8-21c.4,0,.7,0,1.1,0,0,0,2.2-.4,5.5-.4,5.2,0,13,.9,19.6,5.6,0,0,3.2,2.5,6.3,2.5s6.1-2.6,5.6-13l6.5-7.9h29.5M271.4,1139s0,0,0,0c0,0,0,0,0,0M400.3,749.3h-29.5c-.5,0-.9.2-1.2.6l-6.5,7.9c-.2.3-.4.7-.3,1,.3,6.7-.8,9.4-1.9,10.5-.6.6-1.3.9-2.2.9-2.1,0-4.6-1.6-5.3-2.2,0,0,0,0,0,0-6.8-4.9-14.9-5.9-20.5-5.9-2.9,0-5,.3-5.6.4-.3,0-.7,0-1,0-7.2,0-12.8,3.9-16.3,11.4-2.2,4.6-2.8,9.2-3,10.6l-11,14.7c-.4.5-.4,1.1,0,1.7,3,5.2,7.2,11.5,12.6,19.2,13,18.4,24.4,42.4,30.6,55.3h0c1.8,3.8,3.8,7.8,5.8,11.7,4.8,9.5,9.8,19.4,11,25,.3,1.6.7,3.1,1,4.6,1.2,6,2.3,11.3,5.2,17.2,1.5,3.1,4,7.4,6.3,11.5,3,5.3,6,10.7,6.9,13,1.3,3.8,1.7,9.1-.2,11.7-1,1.3-1.8,1.5-3.3,1.7-1.2.2-2.6.4-4.3,1.3-3.9,1.9-20.9,14.4-25.7,18.1-5.1,3.9-10.3,8.7-13.8,21.3-1,3.7-2.2,7.9-3.4,11.9-2.8,9.9-5.4,19.2-6.2,23.1-.2,1-.5,2.5-.9,4.3-1.6,7.7-4.3,20.7-5.9,26.7-2.7,9.8-5.3,15.9-8,18.1-.2.2-.4.4-.5.7l-2.4,2.5c-.3.2-.5.4-.8.9-3,3.2-4,4.2-4.2,4.4-.5.4-2,2.2-4.9,5.5-3.2,3.7-7.7,8.7-11.1,12.3-9,9.6-9.3,13-9.5,15.4,0,.2,0,.5,0,.7,0,0,0,0,0,0,0,0,0,0,0,.1,0,.8.5,1.5,1.3,1.6,0,0,.1,0,.2,0,.1,0,.2,0,.3,0h28.6c.2,0,.3,0,.5,0l29.8-9.9c.2,0,.7,0,1.4,0,3.4,0,12.2.7,19.5,7.4.3.3.6.4,1,.4s.3,0,.4,0c.5-.2.9-.6,1-1.1l3.2-14.2,4.5-10.6c0-.2.1-.5.1-.7l1.3-2.8c.3-.2.5-.5.6-.9,0,0,.1-.5.4-1.4,0,0,0,0,0,0,2.3-7.7,14.1-46.2,27.8-61.7,6.3-7.1,13.9-15.2,21.2-23,10.5-11.2,20.4-21.8,24.5-27.3v-.2c6.9-9.4,11.1-15,19.6-47.7,9.4-35.9,15.9-63.1,16.8-78.9.4-7,0-15-.4-23.5-.6-11.7-1.2-23.8,0-35.9,0,0,0,0,0-.1,0-.2.1-20.8,0-26.9,0-.6,0-1.3,0-2-.1-4.1-.4-12.7,1.9-13,.6,0,1.1-.5,1.3-1.1.2-.6,0-1.2-.6-1.6l-15.9-11.8c-.3-.2-.6-.3-.9-.3h-33c-.3,0-.6.1-.9.3l-15.7,10.3-8.2-12c-.3-.4-.7-.7-1.2-.7h0Z"/>
    <g>
      <path class="st16" d="M322,838.3h178c11,0,20,9,20,20h0c0,11-9,20-20,20h-178c-11,0-20-9-20-20h0c0-11,9-20,20-20Z"/>
      <path class="st35" d="M319.4,859.4h2l1,4.3c1.3,0,2.3-.3,3.1-1,.8-.7,1.2-1.7,1.2-2.9s-.3-2.3-1-2.9-1.7-.9-3.2-.9-1.3,0-2,.2c-.7.1-1.3.3-1.7.5v-1.6c.5-.2,1.1-.4,1.8-.5.7-.1,1.5-.2,2.2-.2,1.9,0,3.4.5,4.4,1.4,1,.9,1.6,2.3,1.6,4.1s-.3,2-.8,2.9c-.5.8-1.3,1.5-2.2,2-.9.5-1.9.7-3,.7h-2l-1.4-5.9ZM324.7,853c-.6,0-1-.1-1.2-.4-.3-.3-.4-.7-.4-1.3v-1h1.8v.8c0,.2,0,.4.1.5,0,0,.2.1.5.1h4.7v1.4h-5.5ZM330.6,855.9h2l2.5,7.8c1.3,0,2.2-.3,2.9-1s1-1.7,1-2.9-.2-2.2-.7-2.8c-.5-.6-1.2-1-2.2-1s-.9,0-1.4.2v-1.6c.5-.1,1.1-.2,1.7-.2,1.5,0,2.7.5,3.5,1.4.8,1,1.2,2.3,1.2,4s-.3,2.2-.8,3c-.5.8-1.2,1.5-2,1.9-.9.4-1.8.7-2.8.7h-1.9l-3-9.4ZM343.4,854.6h2v4.7l5.2-4.7h2.4l-2.9,2.7c1.1.3,1.9.7,2.3,1.3.4.6.7,1.4.7,2.5v4.2h-2v-4.1c0-.8-.2-1.4-.5-1.8-.3-.4-.9-.7-1.7-.9l-3.4,3.1v3.8h-2v-10.7ZM359.1,865.6c-1.7,0-3-.3-3.9-.9v-1.6c.9.6,2.1.9,3.5.9s2.3-.3,3-1c.7-.7,1.1-1.7,1.1-3s-.4-2.3-1.1-3c-.7-.7-1.7-1-3-1s-2.6.3-3.5.9v-1.7c.9-.6,2.2-.9,3.9-.9s3.2.5,4.3,1.5c1,1,1.6,2.4,1.6,4.2s-.5,3.2-1.6,4.2-2.5,1.5-4.3,1.5ZM360.8,853c-.6,0-1-.1-1.2-.4-.3-.3-.4-.7-.4-1.3v-1h1.8v.8c0,.2,0,.4.1.5,0,0,.2.1.5.1h4.7v1.4h-5.5ZM371.9,865.6c-1.6,0-2.9-.5-3.8-1.4-.9-.9-1.4-2.2-1.4-4s.2-2.3.7-3.2c.5-.9,1.2-1.6,2-2,.9-.5,1.9-.7,3.1-.7,1.9,0,3.3.4,4.1,1.3.9.9,1.3,2,1.3,3.4v6.3h-2v-6.3c0-2.1-1.1-3.1-3.4-3.1s-2.1.4-2.8,1.1-1,1.8-1,3.2.3,2.2.9,2.8c.6.6,1.4.9,2.6.9s1,0,1.4-.2v1.6c-.5.1-1,.2-1.7.2ZM385.8,865.6c-1,0-1.9-.2-2.7-.6-.8-.4-1.4-.9-1.8-1.6-.4-.7-.6-1.5-.6-2.3v-6.6h2v6.5c0,.9.3,1.6.8,2.1.5.5,1.3.8,2.3.8s1.8-.3,2.3-.8c.5-.5.8-1.2.8-2.1v-10.1h2v10.1c0,.9-.2,1.6-.6,2.3-.4.7-1,1.2-1.8,1.6s-1.7.6-2.7.6ZM397.2,865.6c-.7,0-1.5,0-2.2-.3-.8-.2-1.4-.4-1.8-.7v-1.6c.6.3,1.2.6,1.9.8.7.2,1.4.3,2,.3s1.5-.1,1.9-.3c.4-.2.6-.6.6-1.1s0-.6-.3-.8c-.2-.2-.5-.4-.9-.6-.4-.2-1-.4-1.8-.6-1.2-.4-2-.8-2.6-1.3-.6-.5-.9-1.2-.9-2s.4-1.7,1.1-2.3c.8-.5,1.8-.8,3.1-.8s1.3,0,2,.2c.6.1,1.2.3,1.6.6v1.7c-.5-.3-1-.5-1.6-.7-.6-.2-1.2-.2-1.8-.2-1.6,0-2.4.5-2.4,1.4s.1.6.3.9c.2.2.5.4.9.5.4.1,1,.3,1.9.6.9.3,1.5.5,2,.8.5.3.8.6,1,1s.3.9.3,1.5c0,.9-.4,1.6-1.1,2.1s-1.8.8-3.3.8ZM404.9,858.8c-.6,0-1-.1-1.2-.4-.2-.3-.4-.7-.4-1.2v-1.1h1.8v.8c0,.2,0,.4.1.5,0,0,.3.1.5.1h2.3v1.4h-3.2ZM404.9,864.2c-.6,0-1-.1-1.2-.4-.2-.3-.4-.7-.4-1.2v-1.1h1.8v.8c0,.2,0,.4.1.5,0,0,.3.1.5.1h2.3v1.4h-3.2ZM410.5,859.4h2l1,4.3c1.3,0,2.3-.3,3.1-1,.8-.7,1.2-1.7,1.2-2.9s-.3-2.3-1-2.9-1.7-.9-3.2-.9-1.3,0-2,.2c-.7.1-1.3.3-1.7.5v-1.6c.5-.2,1.1-.4,1.8-.5.7-.1,1.5-.2,2.2-.2,1.9,0,3.4.5,4.4,1.4,1,.9,1.6,2.3,1.6,4.1s-.3,2-.8,2.9c-.5.8-1.3,1.5-2.2,2-.9.5-1.9.7-3,.7h-2l-1.4-5.9ZM425.6,865.6c-1.7,0-3-.3-3.9-.9v-1.6c.9.6,2.1.9,3.5.9s2.3-.3,3-1c.7-.7,1.1-1.7,1.1-3s-.4-2.3-1.1-3c-.7-.7-1.7-1-3-1s-2.6.3-3.5.9v-1.7c.9-.6,2.2-.9,3.9-.9s3.2.5,4.3,1.5c1,1,1.6,2.4,1.6,4.2s-.5,3.2-1.6,4.2c-1,1-2.5,1.5-4.3,1.5ZM438.7,865.6c-1,0-1.9-.2-2.7-.6-.8-.4-1.4-.9-1.8-1.6-.4-.7-.6-1.5-.6-2.3v-6.6h2v6.5c0,.9.3,1.6.8,2.1.5.5,1.3.8,2.3.8s1.8-.3,2.3-.8c.5-.5.8-1.2.8-2.1v-6.5h2v6.6c0,.9-.2,1.6-.6,2.3-.4.7-1,1.2-1.8,1.6-.8.4-1.7.6-2.7.6ZM446.5,858.7c0-1.4.5-2.5,1.4-3.2.9-.8,2.2-1.2,3.7-1.2s2.8.4,3.7,1.1c.9.8,1.4,1.8,1.4,3.2v6.6h-2v-6.7c0-.9-.3-1.6-.8-2-.5-.5-1.3-.7-2.2-.7s-1.7.2-2.3.7c-.5.4-.8,1.1-.8,2v2c.2-.3.4-.6.8-.8.4-.2.8-.3,1.3-.3h1.6v1.7h-1.8c-.6,0-1,.2-1.4.6-.4.4-.6.8-.6,1.3v2.1h-2v-6.6ZM448,851.6h6.8v-2.1h1.9v3.5h-8.6v-1.4ZM462.9,865.6c-.7,0-1.5,0-2.2-.3-.8-.2-1.4-.4-1.8-.7v-1.6c.6.3,1.2.6,1.9.8.7.2,1.4.3,2,.3s1.5-.1,1.9-.3c.4-.2.6-.6.6-1.1s0-.6-.3-.8c-.2-.2-.5-.4-.9-.6-.4-.2-1-.4-1.8-.6-1.2-.4-2-.8-2.6-1.3-.6-.5-.9-1.2-.9-2s.4-1.7,1.1-2.3c.8-.5,1.8-.8,3.1-.8s1.3,0,2,.2c.6.1,1.2.3,1.6.6v1.7c-.5-.3-1-.5-1.6-.7-.6-.2-1.2-.2-1.8-.2-1.6,0-2.4.5-2.4,1.4s.1.6.3.9c.2.2.5.4.9.5.4.1,1,.3,1.9.6.9.3,1.5.5,2,.8.5.3.8.6,1,1s.3.9.3,1.5c0,.9-.4,1.6-1.1,2.1s-1.8.8-3.3.8ZM458.2,851.6h6.8v-2.1h1.9v3.5h-8.6v-1.4ZM473.8,865.6c-1,0-1.8-.2-2.5-.5-.7-.3-1.3-.8-1.6-1.4-.4-.6-.6-1.3-.6-2.1v-.7c0-.5,0-.9.3-1.2.2-.4.5-.8.8-1.3.3-.3.4-.6.6-.8.1-.2.2-.4.2-.6s0-.4-.2-.5c-.1-.1-.3-.2-.6-.2h-1.1v-1.6h2.1c.6,0,1,.2,1.4.5.3.3.5.8.5,1.3s0,.7-.2,1.1c-.2.3-.4.7-.7,1.2-.3.5-.6.9-.7,1.2-.1.3-.2.6-.2,1v.7c0,.8.2,1.4.7,1.8.5.4,1.1.6,2,.6s1.5-.2,2-.6c.4-.4.6-1.1.6-1.8v-6.9h2v6.6c0,1.4-.4,2.5-1.2,3.2-.8.8-2,1.2-3.4,1.2ZM474.7,853c-.6,0-1-.1-1.2-.4-.3-.3-.4-.7-.4-1.3v-1h1.8v.8c0,.2,0,.4.1.5,0,0,.2.1.5.1h4.7v1.4h-5.5ZM485.2,865.6c-1.3,0-2.3-.4-3.1-1.1-.7-.7-1.1-1.7-1.1-2.8v-7.1h2v7c0,.8.2,1.4.7,1.8.5.4,1.1.6,2,.6,1.4,0,2.5-.6,3.2-1.8v-7.6h2v10.7h-2v-1.4c-1,1.2-2.3,1.7-3.8,1.7ZM498,865.6c-1.4,0-2.6-.3-3.4-.8-.9-.6-1.3-1.4-1.3-2.4v-1.3h2v1.2c0,.6.2,1,.7,1.3.5.3,1.2.4,2,.4s1.5-.1,1.9-.4c.5-.3.7-.7.7-1.2s-.1-.8-.3-1-.5-.4-.9-.6c-.4-.2-1.1-.4-2-.6-.9-.2-1.6-.4-2.2-.7-.6-.2-1-.6-1.3-.9-.3-.4-.5-.9-.5-1.5,0-1,.4-1.7,1.3-2.1.9-.5,2-.7,3.3-.7s1.5,0,2.3.3c.8.2,1.4.4,1.8.6v1.7c-.5-.3-1.1-.5-1.8-.7-.7-.2-1.4-.3-2.1-.3s-1.6,0-2.1.2c-.5.2-.7.5-.7,1s.1.5.3.7c.2.2.5.3.9.5.4.1.9.3,1.6.5l.7.2c.9.3,1.7.5,2.2.8.5.3.9.6,1.2,1,.3.4.4,1,.4,1.6,0,1-.4,1.7-1.2,2.3-.8.6-1.9.9-3.4.9ZM497.4,851.9c0-1,.6-1.6,1.7-1.6h4.4v1.3h-3.6c-.2,0-.4,0-.5.1,0,0-.1.3-.1.5v.7h-1.9v-1.1Z"/>
      <g class="st22">
        <g>
          <path class="st17" d="M447,922.3c0-20.1-16.4-36.3-36.5-36-19.5.3-35.3,16.2-35.5,35.7-.1,17.4,12.1,32,28.4,35.5.1,0,.3.1.3.3l7.1,11.9c0,.1.2.1.3,0l7.1-11.9c0-.1.1-.3.3-.3,16.2-3.5,28.4-17.9,28.4-35.2Z"/>
          <path class="st19" d="M381,902.4c-3.8,5.6-6,12.4-6,19.6-.1,17.4,12.1,32,28.4,35.5.1.1.2.2.3.3l7.1,11.9c0,.1.2.1.3,0l7.1-11.9c0-.1.1-.3.3-.3,13.5-2.9,24.2-13.4,27.4-26.7l-65-28.4Z"/>
          <path class="st7" d="M411,947.9c14.1,0,25.6-11.5,25.6-25.6s-11.5-25.6-25.6-25.6-25.6,11.5-25.6,25.6,11.5,25.6,25.6,25.6Z"/>
          <path class="st19" d="M413.5,906.6h-5s0,13.2,0,13.2h-13.2v5h13.2v13.2h5v-13.2h13.2v-5h-13.2v-13.2Z"/>
          <path class="st12" d="M413.5,906.6h-5s0,13.2,0,13.2h-13.2v5h13.2v13.2h5v-13.2h13.2v-5h-13.2v-13.2Z"/>
        </g>
      </g>
    </g>
  </g>
</svg>